<svg width="70" height="71" viewBox="0 0 70 71" fill="none" xmlns="http://www.w3.org/2000/svg">
<g clip-path="url(#clip0_2437_113100)">
<path d="M28.1695 56.5001C32.1255 56.5001 35.3362 53.2894 35.3362 49.3334V42.1667H28.1695C24.2135 42.1667 21.0029 45.3774 21.0029 49.3334C21.0029 53.2894 24.2135 56.5001 28.1695 56.5001Z" fill="#0ACF83"/>
<path d="M21.0029 34.9999C21.0029 31.0439 24.2135 27.8333 28.1695 27.8333H35.3362V42.1666H28.1695C24.2135 42.1666 21.0029 38.9559 21.0029 34.9999Z" fill="#A259FF"/>
<path d="M21.0029 20.6667C21.0029 16.7107 24.2135 13.5 28.1695 13.5H35.3362V27.8333H28.1695C24.2135 27.8333 21.0029 24.6227 21.0029 20.6667Z" fill="#F24E1E"/>
<path d="M35.3362 13.5H42.5029C46.4589 13.5 49.6695 16.7107 49.6695 20.6667C49.6695 24.6227 46.4589 27.8333 42.5029 27.8333H35.3362V13.5Z" fill="#FF7262"/>
<path d="M49.6695 34.9999C49.6695 38.9559 46.4589 42.1666 42.5029 42.1666C38.5469 42.1666 35.3362 38.9559 35.3362 34.9999C35.3362 31.0439 38.5469 27.8333 42.5029 27.8333C46.4589 27.8333 49.6695 31.0439 49.6695 34.9999Z" fill="#1ABCFE"/>
</g>
<defs>
<clipPath id="clip0_2437_113100">
<rect width="28.6724" height="43" fill="white" transform="translate(21 13.5)"/>
</clipPath>
</defs>
</svg>
