<svg width="70" height="71" viewBox="0 0 70 71" fill="none" xmlns="http://www.w3.org/2000/svg">
<path d="M27.2944 30.0726C29.0963 35.5893 29.7789 45.4307 35.0483 45.4307C35.4494 45.4307 35.8548 45.3913 36.2616 45.3138C31.4716 44.1957 30.9038 34.4614 27.981 29.4204C27.7479 29.6333 27.5189 29.8507 27.2943 30.0726" fill="url(#paint0_linear_5854_234404)"/>
<path d="M27.9811 29.4203C30.904 34.4613 31.4717 44.1956 36.2617 45.3137C36.638 45.2446 37.0151 45.1398 37.393 45.0078C33.0936 42.899 31.9052 33.4461 28.5857 28.8955C28.3808 29.0666 28.1792 29.2416 27.9811 29.4205" fill="url(#paint1_linear_5854_234404)"/>
<path d="M32.1923 26.4224C31.792 26.4224 31.3858 26.4618 30.9782 26.5393C29.912 26.7405 28.8288 27.2001 27.737 27.8956C28.0352 28.1902 28.319 28.5274 28.586 28.8955C29.6965 27.9729 30.7997 27.2913 31.899 26.8814C32.3002 26.7311 32.7136 26.6161 33.1347 26.5375C32.8266 26.4599 32.51 26.4213 32.1923 26.4224Z" fill="#14559A"/>
<path d="M40.7491 43.0635C41.2072 42.6971 41.6483 42.31 42.0712 41.9035C40.2403 36.4123 39.5849 26.4302 34.2786 26.4302C33.8991 26.4302 33.5163 26.4656 33.1343 26.5365C37.9678 27.74 38.5869 38.268 40.7493 43.0635" fill="url(#paint2_linear_5854_234404)"/>
<path d="M33.1345 26.5369C32.8264 26.4594 32.5098 26.4207 32.1921 26.4219L34.2788 26.4296C33.8994 26.4296 33.5166 26.465 33.1345 26.5367" fill="#3092C4"/>
<path d="M40.6566 44.2302C40.4492 44.0322 40.2521 43.8149 40.0583 43.583C39.1656 44.2157 38.2765 44.6956 37.3927 45.0078C37.7082 45.1629 38.0422 45.2768 38.3866 45.3467C38.6653 45.4032 38.9489 45.4313 39.2333 45.4306C40.2248 45.4306 41.0087 45.3131 41.6762 44.9926C41.3086 44.7938 40.9718 44.5359 40.6566 44.2302Z" fill="#1969BC"/>
<path d="M31.8987 26.8819C36.2279 29.1487 36.6042 39.4145 40.0586 43.5829C40.2937 43.4166 40.5238 43.2435 40.7487 43.0636C38.5863 38.2681 37.968 27.7393 33.1355 26.5366C32.7141 26.616 32.3003 26.7315 31.8987 26.8819Z" fill="url(#paint3_linear_5854_234404)"/>
<path d="M28.5855 28.8954C31.9049 33.446 33.0934 42.8986 37.3929 45.0076C38.2767 44.6954 39.166 44.2155 40.0584 43.5828C36.604 39.4145 36.2277 29.1487 31.8986 26.8818C30.7995 27.2909 29.696 27.9725 28.5855 28.8952" fill="url(#paint4_linear_5854_234404)"/>
<path d="M25.1706 29.9399C24.6503 31.1176 24.1189 32.6656 23.4763 34.6862C24.7541 32.8839 26.0278 31.3308 27.2944 30.073C27.12 29.536 26.9327 29.0409 26.7307 28.5996C26.187 29.018 25.6662 29.4655 25.1708 29.9401" fill="url(#paint5_linear_5854_234404)"/>
<path d="M27.192 28.2595C27.0365 28.3703 26.8829 28.4835 26.7311 28.5993C26.933 29.0404 27.1194 29.5355 27.294 30.0725C27.519 29.851 27.7479 29.6336 27.9806 29.4203C27.7354 28.9985 27.4749 28.6089 27.192 28.2595Z" fill="#2B74B1"/>
<path d="M27.7367 27.8952C27.5524 28.0125 27.3707 28.1338 27.1917 28.259C27.4748 28.6084 27.7352 28.9979 27.9813 29.4206C28.179 29.241 28.3806 29.0658 28.5859 28.895C28.3191 28.5271 28.0354 28.1897 27.7369 27.895" fill="#125A9E"/>
<path d="M57.2664 26.0022C54.8179 35.4556 49.7038 43.0484 45.4162 44.9627H45.4083C45.3303 44.9982 45.253 45.0305 45.1767 45.0618C45.1661 45.0683 45.1564 45.069 45.1484 45.0728C45.126 45.0818 45.1051 45.0889 45.0825 45.098C45.0719 45.1043 45.0625 45.1064 45.0528 45.1102C45.0167 45.1232 44.9813 45.134 44.9459 45.1482C44.9305 45.1547 44.9162 45.1586 44.9016 45.1637C44.8842 45.1704 44.8665 45.1762 44.8485 45.181C44.8324 45.1873 44.8155 45.1921 44.797 45.1992C44.7817 45.2055 44.7656 45.2082 44.7512 45.2145C44.7198 45.2236 44.6911 45.2312 44.6596 45.2421C44.6466 45.2421 44.6346 45.2492 44.6211 45.2527C44.6016 45.259 44.5798 45.2635 44.5589 45.2694C44.5446 45.2757 44.5326 45.2779 44.5172 45.281C44.4956 45.2873 44.4714 45.2932 44.4496 45.2984L44.3676 45.3165C44.564 45.389 44.7718 45.4255 44.9811 45.4243C49.0467 45.4243 53.1458 38.1301 59.9286 26H57.2654L57.2664 26.0022Z" fill="url(#paint6_linear_5854_234404)"/>
<path d="M22.5935 26.8056C22.596 26.8056 22.5994 26.7993 22.6008 26.7993C22.6041 26.7993 22.609 26.7993 22.6106 26.793H22.6157C22.6381 26.7851 22.659 26.7762 22.6816 26.7678C22.6875 26.7678 22.6904 26.7678 22.6946 26.7615C22.7003 26.7615 22.7058 26.755 22.7115 26.7542C22.7354 26.7465 22.7596 26.7374 22.7822 26.7292H22.786C22.8399 26.713 22.8898 26.693 22.9419 26.6743C22.9494 26.6743 22.9564 26.668 22.9653 26.668C22.9869 26.6609 23.0095 26.6532 23.0321 26.6481C23.0426 26.6416 23.053 26.6416 23.0626 26.6382C23.0858 26.6313 23.1084 26.6235 23.1301 26.6184C23.1399 26.6184 23.1485 26.6119 23.1558 26.6113C23.2305 26.5906 23.3047 26.5713 23.3794 26.5534C23.3898 26.5534 23.3986 26.5469 23.4098 26.5463C23.4315 26.54 23.4517 26.5365 23.4751 26.5333C23.4848 26.527 23.496 26.527 23.5072 26.5237C23.5288 26.5174 23.5498 26.5166 23.5732 26.5115H23.5884C23.6336 26.5022 23.6794 26.4947 23.7244 26.4863H23.7518C23.7734 26.48 23.7927 26.4792 23.8145 26.4753C23.8263 26.4753 23.8385 26.469 23.8499 26.469C23.8699 26.469 23.89 26.4625 23.91 26.4599C23.9207 26.4599 23.9309 26.4599 23.9431 26.4534C23.9905 26.4471 24.0394 26.4445 24.0894 26.4406C23.9456 26.4261 23.8013 26.4186 23.6568 26.418C19.0784 26.418 12.7701 34.923 9.92853 45.9372H10.4761C11.3855 44.3136 12.2024 42.7777 12.9496 41.3358C14.9395 33.5343 18.993 28.214 22.5937 26.8044" fill="url(#paint7_linear_5854_234404)"/>
<path d="M25.1708 29.9398C25.6662 29.4651 26.1869 29.0176 26.7306 28.5992C26.62 28.353 26.4961 28.113 26.3592 27.8804C25.9404 28.3892 25.5576 29.0606 25.1708 29.9398Z" fill="#0D82CA"/>
<path d="M25.5468 26.8701C25.8457 27.1212 26.1137 27.4665 26.3589 27.8805C26.4361 27.7854 26.5142 27.6976 26.5952 27.6155C26.2551 27.2976 25.8878 27.0368 25.4888 26.8403C25.505 26.8492 25.5211 26.8565 25.5378 26.8636C25.5378 26.8636 25.5441 26.8699 25.5468 26.8699" fill="#0D82CA"/>
<path d="M12.9492 41.3373C17.1241 33.283 19.1021 28.1855 22.5935 26.8057C18.9936 28.2162 14.9393 33.5365 12.9494 41.3373" fill="url(#paint8_linear_5854_234404)"/>
<path d="M26.5951 27.6157C26.5139 27.6986 26.4368 27.7856 26.3588 27.8807C26.4957 28.1133 26.62 28.3532 26.731 28.5994C26.8828 28.4837 27.0364 28.3705 27.1919 28.2598C27.0082 28.0314 26.8088 27.8162 26.5951 27.6157Z" fill="#127BCA"/>
<path d="M14.8445 45.9024C14.8187 45.9089 14.793 45.9089 14.7688 45.9114H14.7544C14.7326 45.9114 14.71 45.9179 14.6899 45.9179H14.6795C14.6272 45.9242 14.5757 45.9242 14.5259 45.9282H14.5098C18.7353 45.8098 20.6667 43.6918 21.6254 40.6199C22.3539 38.291 22.952 36.3291 23.4764 34.6829C21.7064 37.1769 19.9286 40.1498 18.1412 43.4802C17.2792 45.0853 15.9685 45.7557 14.8443 45.8994" fill="url(#paint9_linear_5854_234404)"/>
<path d="M14.8445 45.9008C15.9686 45.7575 17.2792 45.0879 18.1412 43.4816C19.9286 40.1522 21.7075 37.1785 23.4754 34.6845C24.1188 32.6629 24.6496 31.1157 25.1707 29.938C21.6463 33.2965 18.1082 38.881 14.8443 45.8993" fill="url(#paint10_linear_5854_234404)"/>
<path d="M12.9493 41.3374C12.2021 42.7791 11.3852 44.3151 10.4758 45.9388H12.0686C12.2698 44.389 12.5639 42.8527 12.9493 41.3382" fill="#05A1E6"/>
<path d="M23.9429 26.4578C23.9299 26.4578 23.9203 26.4641 23.9091 26.4641C23.8898 26.4706 23.8698 26.4706 23.8495 26.4726C23.8377 26.4726 23.8263 26.4726 23.8141 26.4791C23.7925 26.4854 23.7725 26.486 23.7514 26.4901C23.7418 26.4901 23.7321 26.4901 23.7241 26.4964C23.6783 26.5041 23.6332 26.5125 23.5884 26.5202H23.5731C23.5497 26.5267 23.5286 26.53 23.507 26.5332C23.4958 26.5395 23.4846 26.5395 23.474 26.5421C23.4524 26.5485 23.4307 26.5511 23.4097 26.555C23.3985 26.5613 23.3896 26.5613 23.3792 26.5619C23.3045 26.58 23.2304 26.5993 23.1557 26.62C23.1478 26.62 23.1395 26.6263 23.1299 26.6277C23.1075 26.634 23.0857 26.6405 23.0623 26.6476C23.0526 26.6541 23.0414 26.6541 23.0318 26.6566C23.0094 26.6628 22.9871 26.6695 22.9649 26.6765C22.9563 26.6765 22.949 26.6828 22.941 26.6828C22.8894 26.7021 22.8387 26.7216 22.7856 26.7375C22.7632 26.7446 22.739 26.7537 22.7148 26.7621C22.7052 26.7684 22.6966 26.77 22.6853 26.7743C22.6627 26.7814 22.6401 26.7905 22.6193 26.7987C22.6114 26.8052 22.6032 26.8058 22.5977 26.8092C19.1063 28.189 17.1281 33.2863 12.9533 41.3406C12.5676 42.855 12.2736 44.3914 12.0729 45.9414H12.2964C12.926 45.9414 13.1038 45.9349 13.8281 45.9349H14.5302C14.58 45.9286 14.6315 45.9286 14.6836 45.9245H14.6934C14.715 45.9245 14.7367 45.9182 14.7577 45.9182H14.773C14.7962 45.9182 14.8228 45.9119 14.8485 45.9091C18.1124 38.8908 21.6504 33.3064 25.1749 29.9478C25.5623 29.0689 25.9443 28.3975 26.3625 27.8894C26.1179 27.4757 25.8501 27.1296 25.5511 26.8785C25.5511 26.8785 25.543 26.8785 25.5424 26.872C25.5253 26.8651 25.5094 26.8566 25.4925 26.8483C25.4756 26.8391 25.461 26.832 25.4433 26.8231C25.4269 26.8162 25.4108 26.8085 25.3951 26.7999C25.3743 26.7934 25.3574 26.7844 25.3389 26.7761C25.3236 26.7696 25.31 26.7631 25.2947 26.7568C25.2635 26.7447 25.2327 26.7318 25.2023 26.718C25.1885 26.7117 25.1757 26.7082 25.1629 26.7033C25.1395 26.6947 25.1164 26.6856 25.0935 26.6757C25.0823 26.6692 25.0695 26.6678 25.0566 26.6633C25.0237 26.6523 24.9915 26.6407 24.961 26.6304H24.9529C24.916 26.6182 24.8798 26.6092 24.8421 26.5989C24.8332 26.5924 24.8259 26.5924 24.8171 26.5911C24.7841 26.5822 24.7551 26.5733 24.7239 26.5649C24.716 26.5649 24.7086 26.5584 24.7023 26.5584C24.6254 26.5387 24.5478 26.5217 24.4697 26.5076C24.4618 26.5076 24.4537 26.5011 24.4457 26.5011C24.4124 26.4945 24.3789 26.4891 24.3452 26.485C24.3369 26.4787 24.3322 26.4787 24.3251 26.4787C24.2855 26.4726 24.2458 26.4674 24.206 26.4631H24.1852C24.1529 26.4568 24.1232 26.4562 24.0935 26.4529C24.0428 26.4592 23.9946 26.4619 23.947 26.4665" fill="url(#paint11_linear_5854_234404)"/>
<path d="M47.7022 31.2359C46.899 33.812 46.2484 35.9372 45.6823 37.6857C47.8864 34.6492 50.0575 30.8293 52.1249 26.4211C49.7134 27.1794 48.4267 28.9152 47.7022 31.2359Z" fill="url(#paint12_linear_5854_234404)"/>
<path d="M45.7524 44.802C45.6399 44.8595 45.5273 44.914 45.4162 44.963C49.7039 43.0487 54.8179 35.4559 57.2664 26.0024H56.7701C51.1449 36.0627 49.3356 42.7975 45.7524 44.802Z" fill="url(#paint13_linear_5854_234404)"/>
<path d="M42.9527 43.9563C43.8854 42.8164 44.6453 40.8787 45.6827 37.6851C44.4861 39.3307 43.2816 40.745 42.0761 41.8987C42.0761 41.905 42.0761 41.905 42.0698 41.9089C42.3327 42.6979 42.6214 43.3941 42.9503 43.9561" fill="#079AE1"/>
<path d="M42.9528 43.9565C42.6353 44.3443 42.299 44.64 41.9251 44.8589C41.8431 44.9065 41.7603 44.9514 41.676 44.9927C42.0817 45.2127 42.5257 45.3528 42.9841 45.4055C43.0548 45.4126 43.1248 45.4191 43.198 45.4242H43.211C43.2438 45.4242 43.2784 45.4242 43.3138 45.4305H43.6628C43.6756 45.4305 43.6889 45.4305 43.7019 45.4242C43.7269 45.4242 43.7532 45.4242 43.779 45.4177H43.8171C43.8435 45.4177 43.8724 45.4114 43.9007 45.4087H43.907C43.9154 45.4087 43.9245 45.4024 43.9328 45.4024C43.9622 45.3959 43.9933 45.3933 44.022 45.3888H44.0486C44.0812 45.3825 44.1152 45.3783 44.1488 45.372H44.1652C44.2326 45.3591 44.2985 45.3465 44.3653 45.3295C43.812 45.1268 43.3488 44.6484 42.9501 43.9674" fill="#1969BC"/>
<path d="M35.0484 45.4309C35.4497 45.4309 35.8549 45.3916 36.2619 45.3134C36.6382 45.2451 37.0153 45.1402 37.3932 45.0083C37.7084 45.1633 38.0421 45.2772 38.3862 45.3473C38.6651 45.4037 38.9491 45.4317 39.2338 45.4309H35.0484Z" fill="#1E5CB3"/>
<path d="M39.2337 45.4309C40.2244 45.4309 41.0091 45.3134 41.6756 44.9929C42.0814 45.213 42.5255 45.3533 42.9839 45.4061C43.0547 45.413 43.1247 45.4195 43.1979 45.4246H43.2108C43.2437 45.4246 43.2783 45.4246 43.3137 45.4311H43.434H39.2309H39.2337V45.4309Z" fill="#1E5CB3"/>
<path d="M43.4364 45.4307H43.6657C43.6792 45.4307 43.692 45.4307 43.705 45.4244C43.73 45.4244 43.7563 45.4244 43.7831 45.4179H43.821C43.8474 45.4179 43.8763 45.4116 43.9038 45.4091H43.9109C43.9193 45.4091 43.9276 45.4028 43.936 45.4028C43.9655 45.3963 43.9964 45.3937 44.0251 45.389C44.0349 45.389 44.0426 45.389 44.0528 45.3827C44.0857 45.3764 44.1197 45.373 44.1535 45.3667H44.1696C44.237 45.3537 44.3029 45.341 44.3696 45.3242C44.5659 45.3967 44.7737 45.4332 44.983 45.4321L43.4376 45.4384L43.4364 45.4307Z" fill="#1D60B5"/>
<path d="M42.0725 41.9093V41.9028C41.6498 42.3094 41.2087 42.6965 40.7507 43.0628C40.5254 43.2424 40.2951 43.4156 40.06 43.5821C40.2536 43.814 40.4506 44.0313 40.6583 44.2295C40.9734 44.5352 41.3103 44.7929 41.6777 44.9917C41.7615 44.9504 41.8449 44.9055 41.9263 44.858C42.3008 44.6392 42.637 44.3437 42.9546 43.9557C42.6258 43.3937 42.3372 42.6975 42.0741 41.9085" fill="#175FAB"/>
<path d="M55.1989 26.0024H52.7016C52.5668 26.0089 52.4356 26.0135 52.3062 26.0217C52.2451 26.153 52.1824 26.2843 52.122 26.4164C50.0548 30.8245 47.8837 34.6445 45.6796 37.681C44.643 40.8744 43.8825 42.8121 42.9498 43.952C43.3485 44.6331 43.8125 45.112 44.364 45.315C44.3802 45.3085 44.3931 45.3085 44.4075 45.3051H44.4165C44.4262 45.3051 44.4366 45.2988 44.447 45.2988C44.4694 45.2923 44.4936 45.2884 44.5162 45.2815C44.5306 45.275 44.5426 45.2744 44.5571 45.2697C44.5782 45.2634 44.5998 45.2589 44.6191 45.2538C44.632 45.2473 44.6448 45.2453 44.6576 45.2427C44.6898 45.2323 44.7187 45.2246 44.7494 45.215C44.7638 45.2087 44.7791 45.2032 44.7952 45.1994C44.8129 45.1931 44.8306 45.1886 44.8467 45.1809C44.8652 45.1744 44.8837 45.1711 44.8998 45.1642C44.9142 45.1577 44.9293 45.1538 44.9431 45.1481C44.9793 45.1351 45.0147 45.1242 45.0508 45.1101C45.0607 45.1101 45.0703 45.101 45.0807 45.099C45.1023 45.09 45.125 45.0829 45.1466 45.0733C45.1544 45.0668 45.1643 45.0662 45.1747 45.0628C45.2504 45.0313 45.3283 44.999 45.4063 44.9638H45.4144C45.5277 44.9133 45.6395 44.8596 45.7498 44.8028C49.3336 42.7983 51.143 36.0635 56.7683 26.0032H55.1971L55.1991 26.0024H55.1989Z" fill="url(#paint14_linear_5854_234404)"/>
<path d="M24.0893 26.4443C24.0981 26.4443 24.1062 26.4443 24.1149 26.4506C24.1367 26.4506 24.1585 26.4506 24.1801 26.4577H24.2018C24.2413 26.464 24.2806 26.4675 24.3209 26.4732C24.3282 26.4732 24.3347 26.4732 24.341 26.4795C24.374 26.4858 24.4078 26.4913 24.4414 26.4962C24.4487 26.4962 24.4583 26.5027 24.4664 26.5027C24.5437 26.5181 24.6225 26.5342 24.698 26.5541C24.7051 26.5541 24.7126 26.5606 24.7189 26.5606C24.7511 26.5683 24.78 26.5779 24.8123 26.587C24.8221 26.587 24.829 26.5933 24.8378 26.5949C24.8758 26.6045 24.9112 26.6142 24.9479 26.6264C24.9497 26.6264 24.9519 26.6264 24.9562 26.6327C24.9876 26.6423 25.0197 26.6545 25.0525 26.6655C25.0657 26.6718 25.0777 26.6746 25.0897 26.6777C25.1123 26.6876 25.1373 26.697 25.1589 26.7061C25.1717 26.7061 25.1845 26.7151 25.1982 26.7199C25.2279 26.7332 25.2592 26.7455 25.2898 26.7582C25.306 26.7647 25.3195 26.772 25.3351 26.7777C25.3528 26.7868 25.371 26.7951 25.3903 26.8014C25.4064 26.8092 25.4241 26.8175 25.4395 26.8246C25.4564 26.8338 25.4723 26.8407 25.4886 26.8498C25.8874 27.0462 26.2548 27.3078 26.595 27.6251C26.7168 27.4967 26.8479 27.3775 26.9872 27.2685C26.2434 26.7401 25.4009 26.439 24.4287 26.439C24.316 26.439 24.2035 26.4455 24.0893 26.4539" fill="#7DCBEC"/>
<path d="M26.595 27.6154C26.8087 27.8159 27.0081 28.0311 27.1917 28.2595C27.3705 28.1338 27.5523 28.0124 27.7368 27.8953C27.5053 27.662 27.2544 27.449 26.9867 27.2585C26.8473 27.3674 26.7164 27.4866 26.595 27.6152" fill="#5EC5ED"/>
<path d="M24.0891 26.4443C24.2032 26.4347 24.3158 26.4306 24.4285 26.4306C25.4006 26.4306 26.2433 26.7317 26.9871 27.2593C27.772 26.6392 28.7207 26.4227 30.0386 26.4227H23.6564C23.8038 26.4227 23.9476 26.4315 24.0891 26.4443Z" fill="url(#paint15_linear_5854_234404)"/>
<path d="M30.0385 26.4226C28.7206 26.4226 27.7719 26.6391 26.987 27.2592C27.2544 27.4497 27.5052 27.6627 27.7365 27.8958C28.8292 27.2003 29.9115 26.7397 30.9788 26.5385C31.3787 26.4624 31.7848 26.4236 32.1919 26.4226H30.0385Z" fill="url(#paint16_linear_5854_234404)"/>
<path d="M45.6823 37.687C46.2492 35.9371 46.8982 33.8125 47.703 31.2356C48.4285 28.9139 49.7124 27.1783 52.124 26.4208C52.1877 26.2911 52.2478 26.1575 52.3098 26.0264C48.3786 26.2622 46.5412 28.2643 45.6165 31.2291C43.9995 36.4053 43.0199 39.7607 42.0768 41.8989C43.2814 40.7461 44.4859 39.3308 45.6823 37.687Z" fill="url(#paint17_linear_5854_234404)"/>
<path d="M51.45 44.0514H51.0045V45.4378H50.8228V44.0514H50.3755V43.8864H51.4498V44.0514H51.45ZM53.2741 45.4374H53.0932V44.3957C53.0932 44.3136 53.0995 44.213 53.1079 44.0945C53.0892 44.1654 53.0739 44.2146 53.0597 44.2461L52.5322 45.4374H52.4437L51.9148 44.2549C51.8991 44.222 51.8838 44.1687 51.8671 44.0947H51.8608C51.8671 44.1571 51.8692 44.2581 51.8692 44.3982V45.4376H51.6954V43.8862H51.9351L52.4103 44.9689C52.4463 45.0502 52.4689 45.113 52.4803 45.1549H52.4872C52.5187 45.0695 52.5446 45.0059 52.5619 44.964L53.047 43.8862H53.2752V45.4374H53.2741Z" fill="black"/>
<defs>
<linearGradient id="paint0_linear_5854_234404" x1="31.7777" y1="26.2958" x2="31.7777" y2="50.1737" gradientUnits="userSpaceOnUse">
<stop stop-color="#0994DC"/>
<stop offset="0.35001" stop-color="#66CEF5"/>
<stop offset="0.84616" stop-color="#127BCA"/>
<stop offset="1" stop-color="#127BCA"/>
</linearGradient>
<linearGradient id="paint1_linear_5854_234404" x1="32.6872" y1="25.6913" x2="32.6872" y2="50.1774" gradientUnits="userSpaceOnUse">
<stop stop-color="#0E76BC"/>
<stop offset="0.36" stop-color="#36AEE8"/>
<stop offset="0.84616" stop-color="#00ADEF"/>
<stop offset="1" stop-color="#00ADEF"/>
</linearGradient>
<linearGradient id="paint2_linear_5854_234404" x1="37.6027" y1="44.8802" x2="37.6027" y2="25.3966" gradientUnits="userSpaceOnUse">
<stop stop-color="#1C63B7"/>
<stop offset="0.5" stop-color="#33BDF2"/>
<stop offset="1" stop-color="#33BDF2" stop-opacity="0.42"/>
</linearGradient>
<linearGradient id="paint3_linear_5854_234404" x1="36.3238" y1="23.21" x2="36.3238" y2="48.6332" gradientUnits="userSpaceOnUse">
<stop stop-color="#166AB8"/>
<stop offset="0.39999" stop-color="#36AEE8"/>
<stop offset="0.84616" stop-color="#0798DD"/>
<stop offset="1" stop-color="#0798DD"/>
</linearGradient>
<linearGradient id="paint4_linear_5854_234404" x1="34.3219" y1="23.3435" x2="34.3219" y2="50.3777" gradientUnits="userSpaceOnUse">
<stop stop-color="#124379"/>
<stop offset="0.39" stop-color="#1487CB"/>
<stop offset="0.78023" stop-color="#165197"/>
<stop offset="1" stop-color="#165197"/>
</linearGradient>
<linearGradient id="paint5_linear_5854_234404" x1="23.4763" y1="31.643" x2="27.2944" y2="31.643" gradientUnits="userSpaceOnUse">
<stop stop-color="#33BDF2" stop-opacity="0.698"/>
<stop offset="1" stop-color="#1DACD8"/>
</linearGradient>
<linearGradient id="paint6_linear_5854_234404" x1="52.1496" y1="44.3922" x2="52.1496" y2="25.4124" gradientUnits="userSpaceOnUse">
<stop stop-color="#136AB4"/>
<stop offset="0.6" stop-color="#59CAF5" stop-opacity="0.549"/>
<stop offset="1" stop-color="#59CAF5" stop-opacity="0.235"/>
</linearGradient>
<linearGradient id="paint7_linear_5854_234404" x1="9.92839" y1="36.1776" x2="24.0892" y2="36.1776" gradientUnits="userSpaceOnUse">
<stop stop-color="#05A1E6" stop-opacity="0.247"/>
<stop offset="1" stop-color="#05A1E6"/>
</linearGradient>
<linearGradient id="paint8_linear_5854_234404" x1="17.7711" y1="44.8705" x2="17.7711" y2="25.4366" gradientUnits="userSpaceOnUse">
<stop stop-color="#318ED5"/>
<stop offset="1" stop-color="#38A7E4"/>
</linearGradient>
<linearGradient id="paint9_linear_5854_234404" x1="18.993" y1="44.9386" x2="18.993" y2="26.0482" gradientUnits="userSpaceOnUse">
<stop stop-color="#05A1E6"/>
<stop offset="1" stop-color="#05A1E6" stop-opacity="0.549"/>
</linearGradient>
<linearGradient id="paint10_linear_5854_234404" x1="20.0075" y1="45.9024" x2="20.0075" y2="29.9396" gradientUnits="userSpaceOnUse">
<stop stop-color="#1959A6"/>
<stop offset="0.5" stop-color="#05A1E6"/>
<stop offset="0.91759" stop-color="#7EC5EA"/>
<stop offset="1" stop-color="#7EC5EA"/>
</linearGradient>
<linearGradient id="paint11_linear_5854_234404" x1="20.6186" y1="44.8828" x2="15.2027" y2="28.35" gradientUnits="userSpaceOnUse">
<stop stop-color="#165096"/>
<stop offset="1" stop-color="#0D82CA"/>
</linearGradient>
<linearGradient id="paint12_linear_5854_234404" x1="48.9033" y1="35.0946" x2="48.9033" y2="26.0495" gradientUnits="userSpaceOnUse">
<stop stop-color="#05A1E6"/>
<stop offset="0.87363" stop-color="#0495D6"/>
<stop offset="1" stop-color="#0495D6"/>
</linearGradient>
<linearGradient id="paint13_linear_5854_234404" x1="53.15" y1="25.2135" x2="44.7137" y2="43.9236" gradientUnits="userSpaceOnUse">
<stop stop-color="#38A7E4" stop-opacity="0.329"/>
<stop offset="0.96153" stop-color="#0E88D3"/>
<stop offset="1" stop-color="#0E88D3"/>
</linearGradient>
<linearGradient id="paint14_linear_5854_234404" x1="49.8614" y1="25.9453" x2="49.8614" y2="45.6784" gradientUnits="userSpaceOnUse">
<stop stop-color="#168CD4"/>
<stop offset="0.5" stop-color="#1C87CC"/>
<stop offset="1" stop-color="#154B8D"/>
</linearGradient>
<linearGradient id="paint15_linear_5854_234404" x1="24.7205" y1="25.5395" x2="24.8062" y2="27.6095" gradientUnits="userSpaceOnUse">
<stop stop-color="#97D6EE"/>
<stop offset="0.70329" stop-color="#55C1EA"/>
<stop offset="1" stop-color="#55C1EA"/>
</linearGradient>
<linearGradient id="paint16_linear_5854_234404" x1="27.3456" y1="27.8029" x2="27.7326" y2="25.6109" gradientUnits="userSpaceOnUse">
<stop stop-color="#7ACCEC"/>
<stop offset="1" stop-color="#3FB7ED"/>
</linearGradient>
<linearGradient id="paint17_linear_5854_234404" x1="47.193" y1="27.0363" x2="47.193" y2="46.337" gradientUnits="userSpaceOnUse">
<stop stop-color="#1DA7E7"/>
<stop offset="1" stop-color="#37ABE7" stop-opacity="0"/>
</linearGradient>
</defs>
</svg>
