<svg width="374" height="309" viewBox="0 0 374 309" fill="none" xmlns="http://www.w3.org/2000/svg">
<g clip-path="url(#clip0_3004_110369)">
<path d="M263.426 37.4646C265.726 36.0744 267.495 34.0624 269.294 32.1436C270.695 30.6468 271.781 31.1265 273.044 32.077C274.299 32.1702 275.243 32.8676 276.098 33.707C280.93 38.4728 285.801 43.1987 290.446 48.1466C293.234 51.1135 293.022 52.868 290.03 55.6306C284.578 60.6629 284.578 60.6629 287.472 67.4585C288.106 68.9509 288.913 70.3855 289.405 71.9267C290.34 74.8759 292.166 76.3639 295.336 75.9019C298.992 76.084 302.405 74.6716 305.974 74.2674C308.642 79.0688 307.946 84.4342 308.358 89.5775C308.682 93.6416 308.527 97.7411 309.715 101.743C311.191 101.703 311.169 99.9042 312.361 99.6555C313.026 100.699 312.857 101.894 312.986 103.044C313.212 105.07 312.277 105.465 310.357 106.007C305.335 107.419 300.309 106.535 295.296 106.824C292.122 108.285 290.575 111.026 289.449 114.148C288.704 116.214 287.924 118.279 286.976 120.26C285.584 123.174 284.618 125.963 287.415 128.65C287.827 129.05 287.703 129.752 287.45 130.32C284.046 132.83 284.197 136.13 285.176 139.758C285.792 142.055 287.286 144.382 285.655 146.865C283.128 148.677 281.28 151.204 278.975 153.247C277.384 154.66 276.453 157.28 273.306 156.006C272.242 155.575 271.497 157.822 269.68 157.858C267.455 154.838 265.128 151.635 262.756 148.477C260.691 145.723 260.664 145.737 257.282 146.843C256.165 147.207 255.057 147.598 253.949 147.989C249.148 149.685 249.153 149.685 248.958 154.642C247.557 154.94 247.384 153.03 246.059 153.052C243.989 156.587 246.68 159.972 246.445 163.445C244.485 164.849 242.477 165.151 239.96 164.92C232.194 164.209 224.379 164.009 216.587 163.61C212.704 163.414 212.584 163.348 212.961 159.475C213.245 156.543 213.67 153.621 214.162 150.716C214.384 149.401 214.247 148.402 213.028 147.691C209.974 145.906 206.929 144.111 203.888 142.308C202.793 141.655 201.955 141.993 201.188 142.885C200.32 143.889 199.433 144.88 198.516 145.839C197.629 146.767 196.831 148.073 195.271 146.732C194.73 146.265 194.123 146.55 193.751 147.038C191.751 149.628 190.333 148.024 188.848 146.425C185.542 142.859 182.204 139.319 178.875 135.77C177.878 133.416 179.85 132.403 181.069 131.16C184.868 127.282 184.531 123.054 179.775 120.14C178.019 119.065 176.57 118.195 176.712 115.92C176.801 114.886 177.257 113.94 177.386 112.918C178.343 105.274 175.542 101.57 168.051 100.464C166.083 100.175 163.84 100.428 162.652 98.2031C162.058 94.6587 162.94 91.2698 163.756 87.8764C164.181 86.615 164.624 85.358 165.041 84.0922C165.232 83.7013 165.489 83.3505 165.781 83.0351C169.061 79.9082 173.458 78.1627 176.269 74.4185C177.603 72.6418 180.293 73.6812 181.783 72.0555C183.56 68.4845 185.386 64.9402 187.093 61.3425C188.631 58.1046 188.556 57.9758 185.794 55.8705C183.8 54.3514 181.836 52.7836 179.779 51.3489C178.197 50.2474 178.494 49.3236 179.722 48.2132C183.768 44.5489 187.784 40.8491 191.822 37.1715C193.024 36.0788 194.243 35.0084 195.47 33.9469C196.441 33.1119 197.248 31.8549 198.883 32.6899C199.189 32.8454 199.73 32.6899 200.102 32.53C203.635 30.9977 203.613 31.0066 205.878 34.129C210.492 40.4893 208.617 40.2361 216.277 37.2381C222.606 34.7597 222.602 34.7419 222.726 27.9108C222.824 22.6831 222.824 22.6831 227.948 22.4077C228.936 21.5505 230.058 21.6171 231.281 21.737C235.975 22.1945 240.673 22.4965 245.399 22.4521C249.667 22.4121 250.624 23.4514 250.678 27.6221C250.784 35.8567 250.784 35.8656 258.776 37.589C260.323 37.9221 261.905 38.6594 263.426 37.4646Z" fill="#3CBBFB"/>
<path d="M115.454 190.321C116.261 189.628 116.199 188.66 116.27 187.732C118.38 186.066 119.967 187.941 121.429 188.78C133.087 195.442 144.913 201.812 157.12 207.377C169.983 213.24 183.17 218.365 196.033 224.25C201.375 226.698 206.14 229.576 209.827 234.253C212.576 237.739 212.757 241.328 210.679 244.948C208.329 249.039 205.67 252.947 203.343 257.06C201.765 259.85 199.278 261.044 196.109 261.457C189.788 262.279 183.684 261.582 178.042 258.739C165.542 252.441 152.9 246.512 139.771 241.635C135.782 240.151 134.434 236.887 136.318 233.094C137.484 230.748 137.768 229.829 134.683 228.914C129.027 227.235 127.032 222.301 129.647 218.063C129.616 218.13 129.581 218.126 129.545 218.179C128.592 219.138 127.236 219.929 126.691 218.379C125.764 215.74 123.3 214.825 121.691 213.004C121.398 212.742 121.141 212.445 120.906 212.129C120.574 211.428 120.077 210.846 119.537 210.295C119.324 209.975 119.182 209.624 119.089 209.26C118.991 208.923 119.142 208.43 118.544 208.398C118.708 208.807 118.898 209.211 119.005 209.664C125.778 218.716 131.669 228.217 133.455 239.614C136.128 256.661 128.504 270.922 112.945 278.331C105.459 281.893 97.6178 284.216 89.4087 285.562C78.9036 287.285 68.2743 288.058 57.7958 289.915C54.9546 292.495 51.2534 293.095 47.7738 294.072C45.4601 294.725 42.1046 292.677 41.0807 289.99C38.3591 282.844 35.7794 275.639 33.3371 268.391C32.4506 265.761 34.3078 261.871 36.6881 260.383C38.4566 259.281 40.4247 258.642 42.3972 258.069C50.5708 255.692 58.7976 253.494 66.9136 250.94C69.4401 250.145 72.1262 250.309 74.542 249.216C81.1863 245.184 88.7084 244.979 96.1018 244.282C96.5141 244.149 97.139 244.659 97.3474 243.873C96.9218 243.802 96.4875 243.784 96.0575 243.78C94.0008 243.776 91.3856 243.793 90.4326 242.19C89.1472 240.031 92.2101 239.294 93.1897 237.806C93.4512 237.411 93.5177 237.007 93.2473 236.585C92.7242 236.061 92.1702 236.22 91.7092 236.625C87.6224 240.169 82.2457 240.773 77.627 238.188C76.9754 237.824 76.213 237.482 75.9515 236.798C73.6244 230.646 69.5952 225.183 68.5359 218.512C71.4658 213.035 73.7574 207.266 76.3105 201.616C78.4914 196.788 80.7165 196.606 84.0232 200.688C86.4433 203.673 88.6197 206.848 90.9911 209.873C92.1879 211.397 93.5044 213.155 95.7251 212.298C98.1541 211.361 98.5841 209.114 98.3447 206.751C98.1541 204.836 97.8039 202.944 97.5158 201.043C97.241 199.249 97.3474 197.486 98.194 195.851C99.5105 193.306 100.969 193.177 102.853 195.425C103.327 195.989 103.655 196.668 104.094 197.259C105.423 199.062 106.78 201.048 109.404 200.466C111.935 199.906 112.551 197.628 113.234 195.469C113.81 193.688 113.628 191.565 115.454 190.321Z" fill="#FBDBE3"/>
<path d="M115.454 190.321C115.144 192.515 114.936 194.727 114.501 196.895C113.938 199.697 112.387 201.945 109.479 202.46C106.456 202.993 104.519 201.003 103.101 198.6C102.285 197.223 101.687 195.722 100.862 194.012C98.872 195.855 98.6681 197.978 98.8942 200.173C99.0937 202.082 99.466 203.97 99.794 205.862C100.078 207.492 100.091 209.091 99.5103 210.668C97.9235 214.967 93.8633 215.758 90.9954 212.2C88.2162 208.754 85.6365 205.147 82.9459 201.629C82.0683 200.484 81.1197 199.386 79.9673 197.974C78.1189 200.133 77.4318 202.536 76.4833 204.783C74.4177 209.673 72.7599 214.763 69.2981 218.943C68.6864 219.338 68.057 219.405 67.401 219.045C64.152 217.819 62.2016 215.296 60.6635 212.334C57.9021 207.013 56.7186 201.239 55.903 195.349C54.2763 195.5 54.1344 196.895 53.5803 197.819C51.4439 201.376 49.1301 204.792 46.2622 207.808C45.0344 209.1 43.7091 210.264 42.14 211.126C38.0753 213.36 35.2873 211.992 34.7022 207.306C34.0461 202.06 35.3006 197.015 36.6126 191.996C36.9805 190.588 37.4592 189.206 37.3218 187.225C35.3715 188.833 33.4389 190.463 31.4708 192.049C29.1792 193.892 27.1447 196.122 24.268 197.108C21.2982 198.129 20.026 197.108 20.456 193.968C20.8194 191.307 21.9276 188.864 23.0357 186.448C27.3486 177.023 32.7607 168.198 37.9113 159.23C39.1347 157.098 40.5442 155.037 41.4219 151.986C38.7491 152.919 36.5904 153.696 34.4096 154.416C33.0134 154.877 31.6082 155.464 30.1677 155.615C26.4532 156.01 24.0862 152.603 25.6509 149.179C26.1341 148.117 26.8965 147.176 27.5791 146.216C34.7864 136.072 42.8137 126.634 51.6832 117.91C52.7958 116.818 54.3294 116 54.6929 114.055C51.466 114.162 48.5804 115.383 45.5885 116.045C43.7002 116.462 41.8164 116.711 39.8971 116.755C38.8333 116.782 37.8227 116.644 37.2553 115.547C36.6082 114.299 37.1135 113.251 37.8626 112.283C38.6914 111.212 39.8572 110.555 40.9919 109.858C48.6602 105.132 56.4881 100.681 64.4046 96.3909C67.6404 94.6409 67.6625 94.2412 64.8168 91.9005C64.1342 91.3408 63.3851 90.8523 62.7202 90.2704C61.6476 89.3288 60.9517 88.1873 61.7362 86.766C62.5252 85.3403 63.8151 84.7007 65.4463 84.9761C66.1688 85.096 66.8691 85.3714 67.5694 85.5979C75.9248 88.2939 84.3599 90.2837 93.2161 88.4494C94.475 88.1873 95.4989 88.8669 96.5981 89.2666C99.9713 91.9937 96.8641 94.6054 96.4962 97.6345C98.3357 97.1548 99.8605 95.9911 101.616 95.507C105.667 94.3833 108.047 96.5241 107.294 100.65C106.851 103.075 105.561 105.19 104.719 107.122C107.897 106.593 109.927 101.601 114.284 104.679C115.636 106.3 115.37 108.254 115.419 110.151C115.463 111.91 115.556 113.669 115.631 115.427C117.533 117.657 116.988 120.375 117.054 122.943C117.143 126.571 117.054 130.205 117.187 133.833C117.112 136.729 117.209 139.612 117.577 142.503C117.857 144.697 117.586 146.865 115.955 148.606C114.373 149.836 112.595 149.437 110.906 149.055C103.451 147.376 96.7799 144.364 92.3473 137.702C91.3234 134.526 93.1097 131.684 93.3225 129.17C90.9688 138.883 89.1648 149.312 84.1782 158.755C83.3493 160.323 83.2606 161.988 85.3927 161.988C89.7632 161.988 93.5707 163.836 97.6132 164.973C103.398 166.603 109.51 165.933 115.374 167.15C116.248 173.412 115.804 179.684 115.516 185.955C115.445 187.412 115.472 188.869 115.454 190.321Z" fill="#247BE2"/>
<path d="M285.651 146.865C284.782 143.805 283.824 140.762 283.058 137.675C281.865 132.87 282.597 131.622 287.295 129.947C290.398 128.566 292.424 130.933 294.799 132.097C295.783 132.576 296.714 134.371 297.902 132.332C297.716 131.319 297.525 130.311 297.348 129.294C296.519 124.471 299.524 121.988 304.223 123.573C306.772 124.435 308.718 126.363 311.142 127.5C312.392 126.967 311.798 125.665 312.303 124.839C313.788 122.405 316.35 121.473 318.664 123.036C320.038 123.964 321.049 124.275 322.618 123.662C326.532 122.139 330.455 122.534 334.249 124.209C335.871 124.924 337.259 125.87 339.018 124.151C340.091 123.098 341.798 123.16 343.065 124.342C344.337 125.532 344.4 127.091 343.526 128.401C341.975 130.724 342.325 133.229 342.467 135.708C342.755 140.682 341.146 144.702 336.944 147.54C335.291 149.21 333.354 148.335 331.554 148.042C326.377 147.198 321.217 146.274 315.898 146.43C319.932 148.335 324.249 148.699 328.66 148.837C331.341 148.921 334.284 148.011 336.567 150.338C338.934 153.545 341.385 156.694 343.655 159.972C347.254 165.164 349.816 170.738 349.581 177.29C349.461 180.594 348.943 183.757 347.352 186.693C345.144 189.708 343.854 193.382 340.517 195.904C342.839 194.727 343.052 191.663 345.756 191.347C350.445 195.465 354.546 200.115 358.114 205.232C358.788 206.2 359.501 207.177 359.967 208.247C361.137 210.939 360.108 213.231 357.387 214.346C355.658 215.052 353.934 214.839 352.161 214.501C345.995 213.324 340.348 210.792 334.794 207.999C332.609 203.775 333.597 199.031 332.68 194.581C332.121 191.871 331.678 189.095 331.199 186.351C330.676 183.339 328.837 181.243 325.761 180.634C322.631 180.017 320.007 180.887 317.999 183.592C315.623 186.795 315.105 190.552 314.342 194.265C315.167 190.33 315.748 186.373 318.474 183.055C320.583 180.488 323.199 180.097 326.027 180.71C328.637 181.278 330.517 183.05 331.009 185.786C332.64 194.892 334.675 203.966 333.527 213.329C332.574 218.925 331.878 224.597 328.77 229.558C327.423 231.628 325.929 231.934 324.245 229.931C322.308 228.714 321.067 226.938 320.06 224.917C316.656 218.103 314.688 210.899 314.028 203.326C313.886 201.718 313.961 200.164 312.609 198.862C306.546 193.022 304.742 185.595 304.923 177.481C304.954 176.157 305.052 174.829 305.118 173.506C306.08 172.493 307.357 173.132 308.469 172.884C313.682 171.716 316.395 167.678 315.38 162.41C313.793 154.176 309.493 147.402 304.041 141.255C308.899 146.874 312.986 152.906 314.888 160.252C316.271 165.6 315.686 168.642 312.428 171.045C308.704 173.79 305.061 173.541 301.488 170.738C297.353 167.94 294.928 163.694 292.446 159.595C289.95 155.491 287.898 151.12 285.651 146.865Z" fill="#FBC601"/>
<g clip-path="url(#clip1_3004_110369)">
<path d="M330.596 135.269C331.419 135.269 332.086 134.618 332.086 133.815C332.086 133.012 331.419 132.361 330.596 132.361C329.772 132.361 329.105 133.012 329.105 133.815C329.105 134.618 329.772 135.269 330.596 135.269Z" fill="#483930"/>
<path d="M322.93 133.607C323.753 133.607 324.421 132.956 324.421 132.153C324.421 131.351 323.753 130.7 322.93 130.7C322.107 130.7 321.439 131.351 321.439 132.153C321.439 132.956 322.107 133.607 322.93 133.607Z" fill="#483930"/>
<path d="M325.272 138.592C325.272 138.592 327.065 137.175 326.975 136.515C326.911 136.054 325.745 135.643 325.272 135.684C324.744 135.73 323.564 135.996 323.568 136.515C323.573 137.1 325.272 138.592 325.272 138.592Z" fill="#483930"/>
<path d="M320.162 138.592C320.162 138.592 322.214 141.042 325.021 138.363" stroke="#483930" stroke-miterlimit="10"/>
<path d="M331.021 140.045C331.021 140.045 328.04 141.292 324.846 137.948" stroke="#483930" stroke-miterlimit="10"/>
<path d="M323.994 140.772C323.994 139.452 324.565 138.384 325.272 138.384C325.979 138.384 326.55 139.452 326.55 140.772C326.55 142.093 326.98 144.361 325.485 144.199C323.569 143.991 323.994 142.093 323.994 140.772Z" stroke="#483930" stroke-miterlimit="10"/>
</g>
<path d="M93.1407 136.84C99.0094 143.907 106.425 147.878 115.685 148.171C118.326 146.541 121.403 146.887 124.275 146.39C138.366 143.951 149.673 136.387 160.121 127.175C160.56 126.789 161.194 126.367 161.238 125.83C161.876 117.764 169.385 118.759 174.07 116.076C175.107 115.481 176.379 115.578 177.337 116.591C177.687 117.377 178.042 118.168 178.441 119.065C179.385 118.807 180.333 118.461 181.313 118.314C182.106 118.195 182.904 118.625 182.722 119.5C182.363 121.241 182.789 122.094 184.682 122.161C185.209 122.179 185.559 123.009 185.28 123.582C184.642 124.892 184.478 125.71 186.091 126.656C187.088 127.242 185.958 128.45 185.271 129.17C183.157 131.386 181.011 133.571 178.875 135.77C170.905 142.525 162.754 149.006 153.574 154.105C141.704 160.7 129.204 165.075 115.512 165.519C114.421 166.346 113.264 166.812 111.828 166.665C102.999 165.742 95.0645 162.45 87.7109 157.596C86.2747 156.65 85.0779 155.513 85.9777 153.594C88.3758 148.477 89.2401 142.89 90.8624 137.538C91.3589 135.89 91.8952 135.494 93.1407 136.84Z" fill="#FD490A"/>
<path d="M324.249 229.94C325.778 230.047 327.307 230.144 328.779 229.567C339.071 229.847 349.364 230.064 359.656 230.433C363.158 230.557 366.748 230.651 369.718 233.009C369.536 234.008 369.31 234.981 369.261 236.021C368.978 242.319 366.008 245.561 359.705 246.147C357.098 246.392 354.599 247.369 351.939 247.156C351.123 247.089 351.518 248.075 351.035 248.333C342.48 248.275 333.925 248.244 325.375 248.137C323.447 248.11 322.928 249.092 322.631 250.789C319.604 268.124 314.737 285.055 311.381 302.32C311.04 304.088 310.623 305.802 309.506 307.237C308.682 308.298 307.742 309.373 306.191 308.849C304.71 308.351 304.249 307.09 304.36 305.655C304.617 302.267 304.817 298.869 305.269 295.502C306.891 283.337 308.974 271.255 312.237 259.41C313.252 255.732 314.519 252.126 315.752 248.235C313.026 247.911 310.566 247.573 308.092 247.333C306.142 247.147 304.338 246.556 302.667 245.561C300.061 244.011 298.593 241.786 298.638 238.659C298.686 235.434 300.57 233.467 303.225 232.156C306.213 230.677 309.537 230.762 312.755 230.504C316.576 230.193 320.419 230.118 324.249 229.94Z" fill="#3F9C89"/>
<path d="M116.053 134.802C115.286 128.357 115.463 121.894 115.636 115.432C138.202 105.603 153.645 89.1779 161.539 65.7353C161.96 64.4872 162.488 63.2524 163.157 62.1243C163.897 60.8762 165.006 59.9967 166.349 61.347C167.049 62.0488 167.448 61.9688 168.104 61.4225C168.685 60.9384 169.775 60.5297 169.948 61.3648C170.316 63.1547 171.845 62.6084 172.754 63.2302C175.998 65.4377 175.954 65.4999 174.535 69.6883C174.252 70.2035 173.955 70.7143 173.622 71.1984C172.692 72.5531 169.292 72.6774 171.645 75.7466C172.244 76.5238 170.927 78.185 169.983 79.1355C168.529 80.5967 167.271 82.2312 165.821 83.6925L165.839 83.6481C165.059 84.6963 165.759 86.011 165.209 87.0992C164.558 90.688 163.911 94.2768 163.259 97.8656C162.887 99.7266 162.333 101.463 161.171 103.058C150.875 117.204 137.759 127.74 121.5 134.251C119.767 134.944 118.003 136.01 116.053 134.802Z" fill="#FD490A"/>
<path d="M22.136 294.214C16.0235 296.59 10.6823 300.25 5.56274 304.265C4.86683 304.812 4.24628 305.46 3.53707 305.984C2.63283 306.655 1.7153 307.818 0.491915 306.664C-0.461081 305.762 0.172772 304.714 0.673649 303.83C4.02908 297.914 6.82601 291.722 9.8623 285.646C11.2142 282.937 13.2842 280.836 16.3028 279.943C16.2629 278.198 12.739 278.571 14.1397 276.385C15.5448 274.196 15.926 270.802 19.7646 271.033C23.6475 271.269 27.3708 270.456 31.103 268.71C32.2555 270.212 32.619 271.926 33.1952 273.538C34.6845 277.709 36.1074 281.911 37.7297 286.033C38.5054 288 38.2926 289.075 36.0586 289.484C34.618 289.75 33.2218 290.252 31.8034 290.647C29.6802 292.726 27.6855 290.496 25.5624 290.452C24.8177 291.314 25.6067 292.81 24.4143 293.517C23.714 293.934 22.8009 293.659 22.136 294.214Z" fill="#247BE1"/>
<path d="M129.523 216.984C130.215 217.166 131.367 217.65 130.614 218.245C128.517 219.898 129.727 221.51 129.989 223.353C130.419 226.418 132.888 224.974 134.315 225.685C134.669 226.791 133.216 226.485 133.171 227.413C134.523 227.724 135.849 228.168 137.325 227.808C138.45 227.533 139.386 227.937 139.86 229.043C140.339 230.167 139.9 231.086 138.973 231.739C137.427 232.823 136.571 234.502 136.509 236.154C136.429 238.255 138.145 240.258 139.891 240.458C144.239 240.946 147.329 244.015 151.305 245.241C155.502 246.538 159.487 248.564 163.49 250.429C167.368 252.232 171.238 254.084 174.961 256.181C181.074 259.619 187.567 260.867 194.513 260.556C198.219 260.387 201.078 259.206 202.74 255.732C204.597 251.859 207.057 248.35 209.415 244.779C211.982 240.889 211.645 237.975 208.56 234.373C205.023 230.242 200.648 227.439 195.683 225.29C179.731 218.388 163.725 211.587 147.985 204.223C138.792 199.919 130.073 194.598 121.119 189.779C119.577 188.949 118.118 187.861 116.27 187.745C116.27 186.586 115.933 185.027 117.99 185.933C119.741 186.701 121.452 187.572 123.123 188.505C136.496 195.953 149.771 203.673 164.031 209.26C175.954 213.933 187.319 219.84 199.247 224.464C203.01 225.92 206.109 228.443 208.906 231.29C212.882 235.341 214.034 240.08 211.973 245.481C209.664 250.669 207.421 255.897 202.917 259.681C198.649 262.794 193.95 263.385 188.764 262.772C182.789 262.061 177.483 259.827 172.257 257.074C161.588 251.446 150.538 246.676 139.093 242.861C137.715 242.399 136.141 241.013 134.732 242.941C133.278 242.843 133.291 241.63 133.158 240.68C131.895 231.406 127.644 223.384 122.848 215.567C122.152 214.435 120.406 213.564 121.5 211.761C123.074 212.8 124.603 213.924 126.239 214.848C127.715 215.683 127.183 217.37 127.693 218.512C128.832 218.281 129.213 217.668 129.532 216.988L129.523 216.984Z" fill="#F8CCD9"/>
<path d="M114.293 104.679C112.551 104.013 111.186 104.87 109.794 105.749C107.321 107.308 104.821 108.814 101.767 110.693C102.033 108.263 103.5 106.962 104.094 105.323C104.741 103.529 105.632 101.801 106.097 99.9664C106.837 97.0306 104.887 95.2584 102.126 96.4176C99.3021 97.608 96.6249 99.1581 93.3936 100.801C93.6285 98.7717 94.8164 97.6746 95.4281 96.351C96.4653 94.0991 97.9103 91.9183 96.6116 89.2711C100.468 84.8029 103.837 79.8417 109.151 76.8436C113.517 79.7218 118.331 81.9292 122.183 85.5802C120.574 92.3714 117.959 98.745 114.293 104.679Z" fill="#FB490B"/>
<path d="M114.78 83.7725C114.78 83.7725 116.997 83.3283 117.44 85.105" stroke="#3A3833" stroke-miterlimit="10"/>
<path d="M119.656 85.5491C119.656 85.5491 121.873 85.1049 122.316 86.8816" stroke="#3A3833" stroke-miterlimit="10"/>
<path d="M117.662 93.3219C117.662 93.3219 115.002 94.6543 113.672 91.9894" stroke="#3A3833" stroke-miterlimit="10"/>
<path d="M116.775 91.5452C117.265 91.5452 117.662 91.1475 117.662 90.6569C117.662 90.1663 117.265 89.7686 116.775 89.7686C116.286 89.7686 115.889 90.1663 115.889 90.6569C115.889 91.1475 116.286 91.5452 116.775 91.5452Z" stroke="#3A3833" stroke-miterlimit="10"/>
<path d="M115.888 88.2141C116.5 88.2141 116.997 87.7169 116.997 87.1037C116.997 86.4904 116.5 85.9933 115.888 85.9933C115.276 85.9933 114.78 86.4904 114.78 87.1037C114.78 87.7169 115.276 88.2141 115.888 88.2141Z" fill="#483930"/>
<path d="M120.321 89.5466C120.933 89.5466 121.429 89.0495 121.429 88.4362C121.429 87.8229 120.933 87.3258 120.321 87.3258C119.709 87.3258 119.213 87.8229 119.213 88.4362C119.213 89.0495 119.709 89.5466 120.321 89.5466Z" fill="#483930"/>
<path d="M361.895 261.373C364.155 267.338 364.998 273.636 366.194 279.846C367.701 287.676 368.641 295.6 369.452 303.528C369.656 305.54 370.25 307.845 367.657 308.862C366.013 309.506 363.96 307.881 363.185 304.865C361.868 299.722 360.92 294.485 359.754 289.302C357.387 278.788 354.989 268.28 352.578 257.775C352.245 256.327 351.988 254.884 352.046 253.396C355.45 253.525 356.398 256.887 358.655 258.539C359.781 259.365 360.476 260.796 361.895 261.373Z" fill="#409C89"/>
<path d="M202.921 259.672C205.528 254.675 207.717 249.412 211.977 245.472C213.214 246.898 214.45 248.324 215.692 249.745C218.613 249.807 218.692 253.347 221.028 254.124C225.026 256.918 229.246 259.303 233.821 261.035C234.756 261.391 236.001 261.626 235.718 263.025C235.496 264.113 234.415 264.029 233.546 264.118C228.994 264.593 224.446 265.068 219.894 265.544C218.546 265.686 217.225 265.526 215.975 265.033C214.53 264.46 213.121 262.79 212.447 266.063C212.177 267.387 207.722 266.712 206.764 265.091C205.625 263.167 204.3 261.404 202.921 259.672Z" fill="#257BE0"/>
<path d="M295.331 75.9064C292.8 78.2249 290.815 78.2027 289.542 75.52C287.401 70.9985 285.549 66.3393 283.527 61.76C282.801 60.1122 283.776 59.1884 284.893 58.4688C286.776 57.2563 288.337 55.7017 289.884 54.125C292.109 51.8598 292.14 51.7665 289.946 49.5235C285.411 44.8865 280.797 40.3295 276.236 35.7147C275.101 34.5687 273.798 33.5605 273.04 32.077C273.541 31.5396 274.046 31.0022 274.543 30.4559C275.527 29.3677 276.44 29.3321 277.512 30.4248C284.019 37.056 290.562 43.6562 297.18 50.3541C295.194 53.0634 292.636 54.8445 290.243 56.7455C288.368 58.2334 288.208 59.5926 289.17 61.6712C291.351 66.3615 293.297 71.154 295.331 75.9064Z" fill="#267EE3"/>
<path d="M121.509 211.738C123.335 214.723 125.188 217.686 126.979 220.693C131.074 227.573 133.131 235.172 134.74 242.927C135.011 247.382 134.683 251.775 133.574 256.11C130.809 266.929 123.685 274.018 114.036 278.877C106.456 282.693 98.3092 284.74 90.0203 286.264C79.8654 288.129 69.5774 289.044 59.3604 290.456C58.7532 290.541 58.1947 290.461 57.8135 289.906C64.613 287.005 71.94 287.09 79.0808 286.219C88.4822 285.078 97.7817 283.63 106.673 280.21C110.406 278.775 113.974 277.03 117.285 274.769C130.587 265.695 135.476 253.045 131.744 237.397C129.971 229.967 126.54 223.282 122.639 216.811C120.964 214.03 119.036 211.405 117.223 208.705C118.42 208.256 119.231 208.714 119.772 209.798L119.851 209.886C120.529 210.357 121.132 210.895 121.451 211.69L121.509 211.738Z" fill="#595451"/>
<path d="M93.141 136.84C92.1215 136.649 91.5142 136.947 91.2704 138.071C90.1047 143.378 88.7306 148.628 86.5542 153.625C86.0134 154.869 86.5054 155.499 87.5249 156.09C96.2171 161.127 105.149 165.453 115.508 165.515C115.463 166.061 115.414 166.603 115.37 167.15C114.249 167.66 113.473 168.953 111.829 168.158C109.049 166.816 106.213 167.381 103.478 168.655C103.105 167.709 102.804 166.941 102.525 166.235C101.846 166.248 101.585 166.586 101.439 167.016C101.23 167.625 101.873 168.593 100.783 168.815C99.9848 168.975 99.0052 168.5 99.0185 167.851C99.085 164.764 96.4875 166.19 95.7384 166.35C94.4042 166.634 93.5709 167.629 93.9078 165.266C94.0496 164.285 93.2296 164.955 92.8041 164.858C90.2199 164.249 87.9194 162.766 84.9319 163.894C83.3761 164.485 80.9869 161.171 81.8247 159.901C86.7404 152.47 88.2386 143.831 90.5701 135.486C91.4787 132.226 92.3653 128.957 93.2872 125.701C93.4424 125.155 93.6418 124.551 94.6879 124.462C94.8785 128.699 93.0922 132.679 93.141 136.84Z" fill="#185EB1"/>
<path d="M67.4009 219.045C68.0347 219.009 68.6642 218.974 69.298 218.943C71.6916 224.468 74.0985 229.989 76.4699 235.523C76.922 236.576 77.6356 237.109 78.7526 237.326C80.7827 237.722 82.7729 238.455 84.8163 238.628C86.9041 238.805 89.24 239.183 90.029 236.061C90.3792 234.67 91.7267 233.529 93.4819 234.124C94.6388 234.515 95.4411 235.434 95.6583 236.7C95.8578 237.873 95.0644 238.583 94.333 239.33C93.3445 240.347 91.3588 239.894 90.8136 241.781C91.8242 242.31 93.6947 240.125 93.9873 242.758C94.0227 243.096 94.7452 242.936 95.0023 242.51C96.2257 240.475 97.7815 243.704 99.0315 242.248C99.6077 242.79 100.716 243.229 99.2841 244.086C98.6813 244.446 98.1671 244.953 97.6086 245.392C92.3295 244.162 87.272 245.956 82.1435 246.609C80.6896 246.791 79.351 247.435 78.0168 246.383C78.039 243.158 76.266 240.515 75.0825 237.713C73.1986 233.249 71.0223 228.914 69.0365 224.499C68.2564 222.763 67.5028 220.995 67.4009 219.045Z" fill="#FFC2D3"/>
<path d="M361.894 261.373C360.427 261.306 358.251 262.572 358.397 259.499C355.396 258.393 354.386 255.195 352.045 253.4C351.376 251.779 351.203 250.056 351.035 248.333C351.332 247.666 349.045 246.734 351.385 246.187C353.535 245.685 355.733 245.059 357.856 245.259C360.334 245.494 362.116 243.713 364.505 243.602C365.529 243.553 366.495 241.04 367.369 239.574C368.025 238.472 368.579 237.469 367.652 235.967C366.451 234.022 367.573 232.983 369.722 233.009C371.057 233.471 371.89 234.519 372.63 235.621C375.174 239.405 374.119 243.149 369.979 245.135C367.4 246.369 364.572 246.512 361.815 246.938C360.516 247.138 359.16 246.978 357.515 247.786C359.696 252.081 360.308 256.865 361.894 261.373Z" fill="#2F7D6D"/>
<path d="M312.361 99.66C312.29 100.828 312.219 101.996 312.148 103.164C312.069 104.399 311.399 104.985 310.176 105.017C308.829 105.052 307.791 104.612 307.813 103.107C307.849 100.597 306.931 98.1543 307.007 95.7203C307.233 88.5294 305.673 81.4451 305.978 74.272C311.47 72.9262 310.983 73.0861 311.235 78.1539C311.594 85.3226 311.984 92.4913 312.361 99.66Z" fill="#267DE2"/>
<path d="M254.671 8.34571C254.645 7.55511 255.088 6.7423 253.732 6.36033C247.211 4.50819 240.735 2.54502 233.918 2.03424C218.373 0.870546 203.369 3.1624 188.901 8.98085C188.086 9.30953 187.244 9.5627 186.406 9.82919C186.291 9.86473 186.135 9.76701 185.998 9.73148C189.531 6.46248 196.809 3.8997 206.742 1.85213C214.459 0.262051 222.203 -0.084391 230.031 0.0177651C237.673 0.119921 244.995 2.12751 252.38 3.96632C252.548 2.62941 251.577 2.39845 251.356 1.71444C252.353 0.786157 257.078 4.00185 259.131 7.03545C257.907 8.4834 256.085 7.75054 254.614 8.27464L254.671 8.34571Z" fill="#575C57"/>
<path d="M263.426 37.4646C262.663 39.0636 261.382 39.4722 259.747 39.0813C256.888 38.4018 254.033 37.6778 251.081 37.4868C249.025 37.3536 248.431 36.0921 248.315 34.2045C248.169 31.7883 249.264 29.5852 249.237 27.1957C249.197 23.6335 249.069 23.216 245.58 23.3404C239.663 23.5492 233.852 22.0923 227.939 22.4077C228.068 21.2884 228.808 20.9686 229.796 20.9908C237.154 21.1774 244.512 21.4261 251.87 21.5149C254.06 21.5416 254.743 22.4032 254.472 24.4641C254.104 27.2401 253.878 30.0338 253.524 32.8098C253.298 34.5642 253.776 35.5547 255.709 35.8479C258.306 36.2432 260.855 36.9138 263.426 37.4646Z" fill="#2880E3"/>
<path d="M297.902 132.337C298.106 133.176 298.31 134.02 298.629 135.348C294.267 134.238 291.422 130.649 287.295 129.951C283.018 127.291 283.456 123.96 285.544 120.025C287.193 116.92 288.421 113.567 289.591 110.24C290.597 107.379 292.357 106.229 295.291 106.824C293.328 111.728 291.444 116.662 289.369 121.517C288.434 123.698 288.39 125.275 290.602 126.736C293.155 128.419 295.207 130.804 297.902 132.337Z" fill="#287EE1"/>
<path d="M253.532 179.915C250.624 181.838 247.273 182.313 243.931 182.748C233.408 184.121 222.89 185.778 212.234 184.223C209.903 183.881 207.584 183.384 205.244 183.175C204.096 183.073 202.474 181.158 201.729 183.819C201.645 184.121 200.936 183.89 200.572 183.606C198.179 181.749 195.785 179.897 193.631 177.352C197.851 177.352 202.075 177.352 207.372 177.352C204.109 178.058 201.853 178.547 198.817 179.204C208.143 182.824 217.177 183.53 226.281 182.922C235.363 182.313 244.423 181.194 253.532 179.915Z" fill="#575C57"/>
<path d="M122.179 85.5801C116.984 83.9368 112.259 81.6005 109.147 76.8436C114.931 71.3538 120.902 72.824 123.451 80.5123C124.036 82.2756 125.76 83.0484 126.66 85.0205C124.953 85.2337 123.566 85.4069 122.179 85.5801Z" fill="#3FB7F3"/>
<path d="M24.0067 293.308C24.6051 292.273 24.3569 291.438 23.5103 290.638C22.9873 290.145 22.5174 289.466 23.0981 288.755C23.7231 287.987 24.6539 287.902 25.4252 288.418C27.3755 289.719 29.4277 290.634 31.808 290.647C32.3798 291.971 33.7628 292.371 34.7424 293.232C36.0278 294.365 37.0296 295.622 36.3647 297.438C35.651 299.393 33.8647 298.331 32.5704 298.611C31.7548 299.642 32.6192 300.596 32.6591 301.569C32.7344 303.306 32.4773 304.914 30.6378 305.553C28.754 306.206 27.5971 304.909 26.6131 303.577C25.1503 301.591 24.6894 299.317 24.911 296.883C26.9056 296.603 26.9101 298.655 27.903 299.433C27.4021 296.941 25.4872 295.262 24.0067 293.308Z" fill="#46BEF9"/>
<path d="M336.571 150.352C330.676 150.414 324.776 150.68 318.939 149.481C317.046 149.095 315.158 148.73 313.531 147.669C312.671 147.109 311.904 146.279 312.418 145.071C312.853 144.053 313.832 144.076 314.697 144.182C319.954 144.853 325.211 145.532 330.454 146.287C332.635 146.603 334.785 147.123 336.948 147.549C338.278 148.677 337.657 149.543 336.571 150.352Z" fill="#FD4D0A"/>
<path d="M165.812 83.6881C165.4 82.3467 166.171 81.4895 166.991 80.5923C167.98 79.513 168.968 78.4071 169.784 77.1945C171.446 74.7117 171.242 74.3386 168.241 74.1831C167.616 74.152 167.036 74.272 167 73.4503C166.96 72.5664 167.08 71.1851 168.037 71.3983C170.267 71.8913 171.965 71.6514 173.255 69.6261C173.37 69.444 174.088 69.6527 174.527 69.6794C176.827 70.8209 179.323 71.3672 181.769 72.0556C181.441 72.7085 181.145 73.9033 180.781 73.9255C177.723 74.1032 176.375 76.3817 174.527 78.3049C172.665 80.2414 169.824 81.0631 167.86 83.0663C167.421 83.5149 166.508 83.4927 165.812 83.6881Z" fill="#3CBBFB"/>
<path d="M333.531 213.333C333.278 205.049 332.077 196.873 330.885 188.687C330.623 186.897 330.233 185.178 329.16 183.721C326.496 180.097 320.942 180.492 318.309 184.556C316.177 187.852 315.508 191.658 314.901 195.465C314.75 196.415 315.171 197.534 313.943 198.449C313.199 192.644 314.44 187.492 317.445 182.713C319.386 179.621 322.361 179.084 325.588 179.666C328.686 180.221 330.986 181.873 331.771 185.2C333.54 192.702 334.408 200.315 334.785 207.994C334.063 209.704 334.914 211.783 333.531 213.333Z" fill="#5E522A"/>
<path d="M301.484 170.743C301.918 170.796 302.45 170.703 302.774 170.92C306.329 173.323 309.387 172.431 312.339 169.717C315.3 166.994 315.176 163.712 314.183 160.318C312.716 155.304 310.296 150.725 307.126 146.594C304.804 143.569 302.246 140.727 299.791 137.8C300.899 136.743 301.541 137.689 302.073 138.199C308.935 144.729 314.116 152.253 315.925 161.78C317.357 169.308 314.015 173.479 306.439 173.505C305.996 173.505 305.553 173.514 305.11 173.519C304.01 172.453 302.18 172.346 301.484 170.743Z" fill="#6A5C28"/>
<path d="M221.024 254.124C219.517 254.084 218.99 255.586 218.01 256.327C216.587 254.746 219.189 253.827 218.36 252.623C217.625 251.557 216.592 250.696 215.688 249.745C216.255 249.625 216.893 249.59 217.093 248.91C217.297 248.208 217.336 247.453 217.602 246.783C218.267 245.099 219.127 243.602 221.264 243.482C223.608 243.349 223.444 245.379 223.905 246.831C224.987 246.596 225.82 246.365 226.671 246.241C227.695 246.09 228.826 245.979 229.451 247.005C230.142 248.142 229.801 249.274 228.941 250.229C227.673 251.633 226.21 252.721 224.194 253.285C224.136 251.722 225.262 251.433 225.975 250.86C226.76 250.234 227.7 249.758 227.54 247.951C224.087 248.919 222.013 250.891 221.024 254.124Z" fill="#63C8F6"/>
<path d="M246.445 163.441C242.996 160.31 243.896 156.197 244.065 152.31C244.122 151 245.346 150.396 246.662 150.423C248.054 150.449 248.253 151.48 248.32 152.572C248.364 153.314 248.453 154.043 248.954 154.638C249.122 156.641 249.313 158.644 249.459 160.652C249.654 163.321 249.641 163.321 246.445 163.441Z" fill="#267DE3"/>
<path d="M78.0173 246.378C83.2388 245.859 88.3185 244.153 93.6287 244.468C94.9762 244.548 96.5896 243.793 97.6091 245.388C89.8167 246.014 82.144 247.355 74.5554 249.203C74.1875 248.861 72.5963 249.043 73.6157 248.195C74.7815 247.231 76.5235 246.956 78.0173 246.378Z" fill="#6C6764"/>
<path d="M24.0067 293.308C27.1981 294.556 30.2743 298.971 30.0172 301.991C29.933 303.004 29.2459 303.164 28.4969 302.72C27.597 302.182 27.1715 301.223 26.6573 300.334C26.0058 299.215 26.0102 297.767 24.9109 296.888L24.9331 296.968C24.1042 296.239 24.8755 294.942 23.9712 294.241C23.364 294.232 22.7523 294.227 22.145 294.218C22.575 293.53 23.3418 293.525 24.0067 293.308Z" fill="#FAFAFA"/>
<path d="M345.756 191.356C343.508 193.852 341.709 196.855 338.163 197.943C341.664 194.527 343.934 190.148 347.347 186.706C346.819 188.251 346.287 189.802 345.756 191.356Z" fill="#7E6C28"/>
<path d="M254.614 8.2747C253.568 9.30959 252.353 8.99868 251.156 8.82102C252.264 8.08371 253.443 8.01265 254.667 8.34577C254.671 8.34577 254.614 8.2747 254.614 8.2747Z" fill="#575C57"/>
<path d="M23.9668 294.236C24.8976 294.929 24.809 295.986 24.9287 296.963C23.9358 296.293 24.3037 295.138 23.9668 294.236Z" fill="#46BEF9"/>
<path d="M221.693 61.3248C236.378 52.0197 262.26 61.9333 267.189 83.3638C271.005 99.9575 261.83 115.468 247.504 121.321C246.241 121.837 244.916 121.912 243.595 121.966C240.793 122.072 237.992 122.117 235.186 122.183C233.183 123.396 231.113 122.685 229.176 122.157C207.292 116.174 197.403 90.3948 209.703 71.2828C212.616 66.7568 216.45 63.1325 221.693 61.3248Z" fill="#FAFAFA"/>
<path d="M116.053 134.802C134.581 128.579 149.261 117.218 160.586 101.361C161.437 100.171 162.364 99.0293 163.255 97.8656C166.26 99.7577 169.74 98.9849 172.98 99.5134C176.699 100.117 176.721 99.9043 177.59 103.8C178.033 105.798 178.472 107.797 179.012 109.769C179.726 112.385 179.27 114.659 177.333 116.596C174.806 116.511 172.802 117.759 170.927 119.23C169.726 120.171 168.795 120.957 167.071 119.922C165.382 118.91 164.039 120.118 164.057 121.832C164.097 126.514 160.874 128.841 157.767 131.324C148.809 138.47 139.213 144.427 127.923 147.131C123.912 148.091 119.86 148.921 115.689 148.18C116.465 143.734 115.038 139.234 116.053 134.802Z" fill="#FAFAFA"/>
<path d="M221.693 61.3247C214.185 66.3348 208.786 72.9306 206.725 81.8759C202.722 99.2513 212.744 116.049 230.018 121.028C231.711 121.517 233.457 121.801 235.186 122.183C236.613 123.431 238.639 122.254 240.354 123.427C232.003 124.422 224.189 123.582 217.177 119.158C208.267 113.531 202.695 105.754 201.14 94.9385C198.994 79.9927 208.467 66.7479 218.861 61.6623C219.734 61.2359 220.634 60.4009 221.693 61.3247Z" fill="#267DE2"/>
<path d="M269.884 117.444C264.778 126.274 257.597 132.452 247.5 134.899C256.201 130.667 263.474 124.608 269.884 117.444Z" fill="#3A5A67"/>
<path d="M165.201 87.0948C165.05 85.8778 165.117 84.7008 165.83 83.6437C165.941 84.8518 166.163 86.0821 165.201 87.0948Z" fill="#3086DC"/>
<path d="M158.765 224.179C158.72 220.853 160.91 218.17 163.813 218.001C165.813 217.886 168.37 220.115 168.375 221.972C168.379 224.255 164.687 228.092 162.293 228.297C160.29 228.465 158.8 226.724 158.765 224.179Z" fill="#FFC2D3"/>
<path d="M135.711 216.726C135.631 213.475 137.608 210.903 140.321 210.73C142.639 210.584 143.632 211.596 143.743 214.239C143.893 217.721 141.801 220.435 138.924 220.493C136.721 220.537 135.777 219.427 135.711 216.726Z" fill="#FFC2D3"/>
<path d="M66.5413 278.46C66.0183 278.704 65.5086 279.104 64.9678 279.161C62.5432 279.415 60.3845 279.965 59.0902 282.377C58.4652 283.541 57.2286 283.745 55.9875 283.372C54.671 282.972 54.21 281.924 54.1568 280.663C54.1214 279.783 54.0416 278.877 54.2056 278.024C54.6267 275.781 56.936 274.644 58.4121 276.292C60.1851 278.269 61.8783 277.913 63.8685 277.447C64.5777 278.269 65.9828 277.247 66.5413 278.46Z" fill="#F5BECD"/>
<path d="M169.62 248.652C161.797 246.161 154.084 243.416 146.863 239.445C154.993 241.128 162.506 244.397 169.62 248.652Z" fill="#75736F"/>
<path d="M66.5414 278.46C65.6328 278.175 64.3119 278.971 63.873 277.443C69.5733 276.039 75.1716 274.209 80.9915 273.276C82.3833 273.054 83.7574 272.597 85.5038 273.321C79.0811 275.524 72.7514 276.776 66.5414 278.46Z" fill="#6B6965"/>
<path d="M119.767 209.802C118.916 209.438 118.069 209.074 117.218 208.709C116.5 208.221 115.844 207.701 115.96 206.688C120.49 206.72 120.49 206.72 119.767 209.802Z" fill="#F8CCD9"/>
<path d="M129.541 216.971C129.35 216.775 129.107 216.611 128.974 216.38C128.77 216.029 128.623 215.452 129.036 215.341C129.532 215.207 129.426 215.825 129.483 216.153C129.528 216.424 129.51 216.704 129.523 216.98C129.523 216.984 129.541 216.971 129.541 216.971Z" fill="#F8CCD9"/>
<path d="M121.447 211.69C120.556 211.41 120.082 210.757 119.847 209.886C121.053 209.891 121.532 210.539 121.447 211.69Z" fill="#F8CCD9"/>
<path d="M54.7064 155.051C55.3979 149.974 59.4448 146.603 60.7613 141.646C58.678 141.459 57.459 142.703 56.0185 143.285C54.241 144 52.4902 144.786 50.7038 145.466C49.3741 145.972 48.0399 145.959 47.0692 144.737C46.2181 143.667 46.5638 142.472 47.0603 141.371C48.7757 137.573 50.921 134.033 53.7623 130.973C55.8146 128.761 58.0131 126.691 60.1496 124.559C60.3801 124.773 60.6106 124.99 60.8411 125.203C59.1035 127.278 57.4058 129.383 55.6151 131.413C53.5495 133.753 51.7366 136.276 50.234 138.994C49.4938 140.331 47.9246 141.944 49.3032 143.374C50.4512 144.569 52.0513 143.192 53.3368 142.632C55.3669 141.748 57.2995 140.647 59.3074 139.71C60.2161 139.283 61.2178 138.701 62.1974 139.559C63.3321 140.549 62.8667 141.704 62.4057 142.814C60.5308 147.362 57.2729 151.031 54.7064 155.051Z" fill="#354556"/>
</g>
<defs>
<clipPath id="clip0_3004_110369">
<rect width="374" height="309" fill="white"/>
</clipPath>
<clipPath id="clip1_3004_110369">
<rect width="12.0905" height="13.7154" fill="white" transform="translate(319.996 130.7)"/>
</clipPath>
</defs>
</svg>
