<svg width="606" height="539" viewBox="0 0 606 539" fill="none" xmlns="http://www.w3.org/2000/svg">
<path d="M588.217 492.618C583.672 491.962 578.703 492.3 574.115 492.3C559.294 492.3 544.474 492.3 529.653 492.3C500.011 492.3 470.37 492.301 440.728 492.322C440.982 491.751 441.531 479.911 439.206 481.243C441.489 479.932 442.969 477.353 442.589 474.435C442.145 471.01 439.037 468.558 435.59 468.558H266.324C263.555 468.558 260.891 469.911 259.432 472.258C258.227 474.203 258.354 475.852 258.819 477.353C241.419 477.353 224.04 476.317 206.639 476C192.58 475.746 174.313 473.611 160.993 478.748C150.147 482.934 150.993 498.664 163.657 498.664H306.453C311.421 498.664 315.206 502.787 315.163 507.756C315.163 507.798 315.163 507.819 315.163 507.861V522.132C315.163 530.716 322.119 537.693 330.724 537.693C373.728 537.693 416.731 537.693 459.735 537.693C484.916 537.693 510.096 537.693 535.298 537.693C545.087 537.693 554.897 537.693 564.686 537.693C574.263 537.693 589.084 540.421 596.97 534.966C611.326 524.987 605.681 495.134 588.217 492.618Z" fill="#4680FF"/>
<path opacity="0.32" d="M433.752 488.326L463.436 466.591C465.761 464.9 467.115 462.194 467.115 459.318C467.115 454.329 463.055 450.291 458.087 450.312L417.684 450.46L433.752 488.326Z" fill="#606060"/>
<path opacity="0.3" d="M411.593 122.837V218.887H415.441L411.826 391.79C411.72 396.927 407.428 401.134 402.291 401.134H334.952C322.795 401.134 312.922 410.987 312.922 423.165V456.232H325.417V423.165C325.417 417.9 329.688 413.63 334.952 413.63H402.291C414.194 413.63 424.067 403.946 424.3 392.064L427.915 218.295C431.319 217.005 433.772 213.749 433.772 209.88V134.888C433.772 128.229 428.359 122.816 421.699 122.816H411.593V122.837Z" fill="#606060"/>
<path opacity="0.6" d="M242.773 506.931L8.51514 505.472L33.9917 479.721H215.753L242.773 506.931Z" fill="#4680FF"/>
<path d="M32.0889 0.718872L34.0974 143.197C34.0974 146.094 59.426 152.141 90.6745 152.141C121.923 152.141 147.251 146.073 147.251 143.197L149.26 0.718872H32.0889Z" fill="#313F5E"/>
<path d="M149.154 8.2033H31.814C29.742 8.2033 28.0718 6.53304 28.0718 4.46108C28.0718 2.38913 29.742 0.718872 31.814 0.718872H149.154C151.226 0.718872 152.896 2.38913 152.896 4.46108C152.918 6.53304 151.226 8.2033 149.154 8.2033Z" fill="#313F5E"/>
<path opacity="0.43" d="M73.0414 120.258C58.6857 126.199 44.6049 124.719 34.0972 121.4V143.197C34.0972 146.094 59.4258 152.141 90.6742 152.141C121.923 152.141 147.251 146.073 147.251 143.197L148.647 17.4636C140.739 55.4988 119.914 100.87 73.0414 120.258Z" fill="#313F5E"/>
<path d="M75.7689 0V0.105718H47.8399H46.2542C43.4211 0.105718 41.1377 2.38909 41.1377 5.22217V17.2099C41.1377 18.8802 42.2794 20.4235 43.9285 20.6984C46.0216 21.0367 47.8399 19.4298 47.8399 17.4002V14.9265C47.8399 8.43581 53.4849 3.3828 59.9333 4.14392C60.1659 4.16506 60.3984 4.20734 60.631 4.22848C69.3839 5.47588 75.7478 13.2351 75.7478 22.0938C75.7478 27.2525 75.7478 32.8764 75.7478 36.4918C75.7478 40.3185 78.6232 43.7436 82.4288 43.955C86.5093 44.1664 89.8709 40.9317 89.8709 36.8935V14.6094C89.8709 12.9391 90.9069 11.3957 92.4926 10.8883C92.9789 10.7403 93.5074 10.6558 94.0571 10.6558C95.1565 10.6558 96.1714 10.994 97.0171 11.5649C98.0319 12.2414 98.5604 13.4677 98.5604 14.694V48.1201C98.5604 50.2977 100.019 52.2006 102.134 52.7503C104.988 53.4902 106.975 56.0696 106.975 59.0295C106.975 63.85 106.975 70.9538 106.975 75.4783C106.975 79.7914 110.125 83.6393 114.438 84.0621C119.365 84.5273 123.53 80.6582 123.53 75.8377V10.3598C123.53 8.33009 125.179 6.681 127.187 6.681C127.483 6.681 127.758 6.70214 128.033 6.74443C129.851 7.04042 131.12 8.73181 131.12 10.5712C131.12 15.6665 131.12 28.4999 131.12 34.9484C131.12 38.7751 133.995 42.2002 137.801 42.4116C141.881 42.6231 145.243 39.3883 145.243 35.3501V6.30042C145.243 2.87536 142.452 0.0845554 139.027 0.0845554L75.7689 0Z" fill="#4680FF"/>
<path opacity="0.61" d="M111.267 79.6223C109.808 79.6223 108.646 78.4383 108.646 77.0006L110.21 43.8071L113.889 77.0006C113.889 78.4594 112.705 79.6223 111.267 79.6223Z" fill="white"/>
<path opacity="0.61" d="M133.931 37.57C133.213 37.57 132.621 36.978 132.621 36.2591L133.403 19.6624L135.242 36.2591C135.242 36.978 134.65 37.57 133.931 37.57Z" fill="white"/>
<path opacity="0.61" d="M100.949 51.0166C100.146 51.0166 99.4902 50.3612 99.4902 49.5577L100.357 31.185L102.387 49.5577C102.408 50.3612 101.752 51.0166 100.949 51.0166Z" fill="white"/>
<path opacity="0.61" d="M78.5389 39.4728C77.7355 39.4728 77.0801 38.8174 77.0801 38.014L77.9469 19.6412L79.9766 38.014C79.9977 38.8174 79.3423 39.4728 78.5389 39.4728Z" fill="white"/>
<path opacity="0.61" d="M42.3214 18.119C41.9197 18.119 41.6025 17.8019 41.6025 17.4002L42.0466 8.20325L43.0614 17.4002C43.0614 17.8019 42.7231 18.119 42.3214 18.119Z" fill="white"/>
<g opacity="0.43">
<path d="M147.251 94.0202C144.672 99.2213 141.543 104.105 137.716 108.439C128.054 119.328 115.157 125.163 99.3851 125.797C76.1496 126.749 57.798 120.258 44.8165 106.558C40.4612 101.949 36.9304 96.7687 34.0762 91.3351V102.075C36.0636 104.972 38.2624 107.763 40.736 110.384C53.9923 124.381 72.2382 131.485 95.0086 131.485C96.5097 131.485 98.0319 131.463 99.5964 131.4C116.954 130.702 131.162 124.233 141.881 112.182C143.847 109.962 145.623 107.615 147.251 105.162V94.0202Z" fill="#313F5E"/>
<path d="M144.735 28.1193C144.735 29.557 145.834 30.741 147.251 30.8678V25.3497C145.834 25.4977 144.735 26.6816 144.735 28.1193Z" fill="#313F5E"/>
<path d="M34.0972 30.3393C34.7737 29.8319 35.2177 29.0285 35.2177 28.1194C35.2177 27.2102 34.7737 26.4068 34.0972 25.8994V30.3393Z" fill="#313F5E"/>
</g>
<path d="M30.4188 22.9184H19.8687C19.8687 22.9184 9.93183 126.96 99.491 123.366C169.049 120.575 161.311 22.9184 161.311 22.9184H151.586" stroke="#5A657E" stroke-width="2.6344" stroke-miterlimit="10" stroke-linecap="round"/>
<path opacity="0.21" d="M149.112 9.66207L149.154 7.7804H32.1948L32.2371 9.66207H149.112Z" fill="#313F5E"/>
<g opacity="0.61">
<path d="M45.6412 1.2686L73.38 1.86058L45.6624 3.25596C45.1127 3.2771 44.6475 2.85426 44.6053 2.30456C44.5841 1.75485 45.0069 1.28972 45.5566 1.24744C45.5989 1.26858 45.6201 1.2686 45.6412 1.2686Z" fill="white"/>
</g>
<path d="M41.1592 5.20103V8.20325H50.1659C52.407 5.32788 56.0222 3.63649 59.9547 4.10162C60.1873 4.12276 60.4199 4.16503 60.6525 4.18617C64.0141 4.67245 67.0163 6.11015 69.4477 8.20325H124.185C124.841 7.2307 125.961 6.57527 127.23 6.57527C127.526 6.57527 127.801 6.59641 128.076 6.6387C129.09 6.80784 129.915 7.39984 130.444 8.20325H145.285V6.17356C145.285 3.78447 143.911 1.73367 141.945 0.697693H43.8866C42.2797 1.56453 41.1592 3.25593 41.1592 5.20103Z" fill="#4680FF"/>
<path d="M229.601 282.991H20.3758C16.4434 282.991 13.272 279.798 13.272 275.887V275.443C13.272 271.511 16.4645 268.339 20.3758 268.339H229.601C233.533 268.339 236.705 271.532 236.705 275.443V275.887C236.726 279.819 233.533 282.991 229.601 282.991Z" fill="#44291C"/>
<path opacity="0.3" d="M229.833 278.001H20.1644C17.1833 278.001 14.6674 275.971 13.7159 273.16C13.4411 273.942 13.272 274.787 13.272 275.654C13.272 279.714 16.3588 282.991 20.1644 282.991H229.833C233.639 282.991 236.726 279.714 236.726 275.654C236.726 274.766 236.557 273.942 236.282 273.16C235.309 275.971 232.815 278.001 229.833 278.001Z" fill="#44291C"/>
<path d="M225.457 404.496H20.5448C16.6546 404.496 13.5044 401.346 13.5044 397.456V396.864C13.5044 392.974 16.6546 389.823 20.5448 389.823H225.457C229.347 389.823 232.497 392.974 232.497 396.864V397.456C232.497 401.346 229.347 404.496 225.457 404.496Z" fill="#44291C"/>
<path opacity="0.3" d="M225.732 399.485H20.2488C17.3311 399.485 14.8786 397.456 13.9272 394.644C13.6735 395.426 13.5044 396.272 13.5044 397.139C13.5044 401.198 16.5277 404.475 20.2488 404.475H225.732C229.453 404.475 232.476 401.198 232.476 397.139C232.476 396.251 232.307 395.426 232.053 394.644C231.123 397.477 228.649 399.485 225.732 399.485Z" fill="#44291C"/>
<path d="M179.535 159.498L215.752 479.721" stroke="#44291C" stroke-width="7.5774" stroke-miterlimit="10" stroke-linecap="round"/>
<path d="M33.9917 479.721L70.2298 159.498" stroke="#44291C" stroke-width="7.5774" stroke-miterlimit="10" stroke-linecap="round"/>
<path d="M233.449 174.171H16.7814C10.925 174.171 6.16797 169.414 6.16797 163.557V155.439C6.16797 149.582 10.925 144.825 16.7814 144.825H233.449C239.305 144.825 244.062 149.582 244.062 155.439V163.557C244.062 169.435 239.305 174.171 233.449 174.171Z" fill="#5B3725"/>
<path d="M240.045 499.743L203.807 159.498" stroke="#5B3725" stroke-width="7.5774" stroke-miterlimit="10" stroke-linecap="round"/>
<path d="M9.00098 499.743L45.2179 159.498" stroke="#5B3725" stroke-width="7.5774" stroke-miterlimit="10" stroke-linecap="round"/>
<path d="M244.063 428.895C244.063 426.569 242.329 424.687 240.088 424.391L241.018 433.187C242.794 432.552 244.063 430.861 244.063 428.895Z" fill="#5B3725"/>
<path d="M223.956 424.328H239.474C239.686 424.328 239.876 424.37 240.066 424.391L226.556 297.495H210.446L223.956 424.328Z" fill="#5B3725"/>
<path d="M209.495 288.361H225.605L214.992 188.844H198.881L209.495 288.361Z" fill="#5B3725"/>
<path d="M248.016 498.897L241.017 433.165C240.531 433.334 240.024 433.44 239.495 433.44H224.949L232.095 500.588C232.539 504.69 236.007 507.756 240.045 507.756C240.32 507.756 240.616 507.735 240.912 507.713C245.288 507.248 248.481 503.295 248.016 498.897Z" fill="#5B3725"/>
<path d="M214.991 188.844L213.427 174.171H197.316L198.881 188.844H214.991Z" fill="#5B3725"/>
<path d="M190.847 188.844L189.282 174.171H173.172L174.736 188.844H190.847Z" fill="#5B3725"/>
<path d="M210.467 297.495H226.577L225.605 288.361H209.494L210.467 297.495Z" fill="#5B3725"/>
<path d="M241.017 433.165L240.087 424.37C239.897 424.349 239.706 424.307 239.495 424.307H223.977L224.949 433.44H239.495C240.024 433.461 240.531 433.334 241.017 433.165Z" fill="#5B3725"/>
<path d="M53.1886 160.344C53.6538 155.946 50.4613 151.993 46.0637 151.528C41.6872 151.062 37.7124 154.255 37.2472 158.653L35.5981 174.171H51.7086L53.1886 160.344Z" fill="#5B3725"/>
<path d="M25.0903 424.328L38.6003 297.495H22.4898L8.9375 424.687C9.4872 424.455 10.1003 424.328 10.7346 424.328H25.0903Z" fill="#5B3725"/>
<path d="M50.1654 188.844H34.0549L23.4414 288.361H39.5519L50.1654 188.844Z" fill="#5B3725"/>
<path d="M8.09192 432.595L1.03037 498.897C0.565233 503.295 3.75772 507.248 8.15534 507.714C8.45133 507.735 8.72619 507.756 9.02219 507.756C13.0604 507.756 16.5489 504.711 16.9717 500.589L24.1179 433.44H10.7347C9.74102 433.461 8.8319 433.123 8.09192 432.595Z" fill="#5B3725"/>
<path d="M51.7086 174.171H35.5981L34.0547 188.844H50.1652L51.7086 174.171Z" fill="#5B3725"/>
<path d="M76.5725 174.171H60.462L58.8975 188.844H75.008L76.5725 174.171Z" fill="#5B3725"/>
<path d="M39.5523 288.361H23.4418L22.4692 297.495H38.5797L39.5523 288.361Z" fill="#5B3725"/>
<path d="M10.7346 424.328C10.1003 424.328 9.48725 424.455 8.93754 424.687L8.0918 432.594C8.83178 433.123 9.7409 433.44 10.7346 433.44H24.1178L25.0903 424.307H10.7346V424.328Z" fill="#5B3725"/>
<path d="M236.726 291.004H13.5044C9.44504 291.004 6.16797 287.727 6.16797 283.667C6.16797 279.608 9.44504 276.331 13.5044 276.331H236.726C240.785 276.331 244.062 279.608 244.062 283.667C244.062 287.727 240.764 291.004 236.726 291.004Z" fill="#5B3725"/>
<path opacity="0.3" d="M236.726 285.993H13.5044C10.333 285.993 7.66908 283.963 6.6331 281.151C6.33711 281.934 6.16797 282.779 6.16797 283.646C6.16797 287.706 9.44504 290.983 13.5044 290.983H236.726C240.785 290.983 244.062 287.706 244.062 283.646C244.062 282.758 243.872 281.934 243.597 281.151C242.561 283.985 239.897 285.993 236.726 285.993Z" fill="#5B3725"/>
<path opacity="0.29" d="M233.449 166.158H16.7814C10.925 166.158 6.16797 161.401 6.16797 155.545V163.558C6.16797 169.414 10.925 174.171 16.7814 174.171H233.449C239.305 174.171 244.062 169.414 244.062 163.558V155.545C244.062 161.422 239.305 166.158 233.449 166.158Z" fill="#5B3725"/>
<path d="M236.726 426.886H13.5044C9.44504 426.886 6.16797 423.609 6.16797 419.55C6.16797 415.49 9.44504 412.213 13.5044 412.213H236.726C240.785 412.213 244.062 415.49 244.062 419.55C244.062 423.609 240.764 426.886 236.726 426.886Z" fill="#5B3725"/>
<path opacity="0.3" d="M243.534 416.886C242.456 419.613 239.834 421.558 236.726 421.558H13.5048C10.3968 421.558 7.75403 419.613 6.69691 416.886C6.37978 417.71 6.18945 418.619 6.18945 419.55C6.18945 423.609 9.46653 426.886 13.5259 426.886H236.747C240.807 426.886 244.084 423.609 244.084 419.55C244.063 418.598 243.872 417.71 243.534 416.886Z" fill="#5B3725"/>
<path d="M171.184 143.155H122.028C120.336 143.155 118.941 144.529 118.941 146.242C118.941 146.601 119.025 146.918 119.131 147.236C119.025 147.447 118.941 147.68 118.941 147.933V151.401C118.941 151.887 119.279 152.331 119.744 152.415C121.119 152.648 120.801 150.978 120.886 150.196C120.928 149.836 121.076 149.456 121.415 149.329C121.584 149.265 121.774 149.265 121.964 149.265C123.508 149.329 125.009 149.35 126.552 149.244C127.525 149.181 127.842 149.477 128.307 150.301C128.73 151.062 128.941 151.95 128.941 152.817C128.941 154.318 128.941 155.925 128.941 156.982C128.941 158.082 129.766 159.075 130.865 159.139C132.049 159.202 133.022 158.272 133.022 157.088V150.64C133.022 150.153 133.318 149.709 133.783 149.561C133.931 149.519 134.079 149.498 134.248 149.498C134.565 149.498 134.861 149.604 135.094 149.752C135.39 149.942 135.538 150.301 135.538 150.661V160.323C135.538 160.957 135.961 161.507 136.574 161.655C137.398 161.866 137.969 162.606 137.969 163.473C137.969 164.868 137.969 166.919 137.969 168.23C137.969 169.477 138.878 170.598 140.126 170.704C141.542 170.831 142.747 169.731 142.747 168.315C142.747 164.89 142.747 161.464 142.747 158.039C142.747 156.496 142.747 154.953 142.747 153.409C142.747 152.627 142.346 149.519 143.149 149.286C143.508 149.181 143.91 149.138 144.291 149.181C144.46 149.202 144.608 149.223 144.735 149.329C145.284 149.709 144.988 150.809 144.988 151.358C145.031 153.071 144.925 154.783 144.925 156.496C144.925 157.595 145.749 158.589 146.849 158.652C148.033 158.716 149.005 157.786 149.005 156.602V152.796C149.005 150.872 150.57 149.308 152.494 149.308H171.141C172.833 149.308 174.228 147.933 174.228 146.221C174.271 144.529 172.875 143.155 171.184 143.155Z" fill="#4680FF"/>
<path opacity="0.61" d="M139.217 168.336C138.794 168.336 138.456 167.997 138.456 167.575L138.9 157.976L139.957 167.575C139.957 167.997 139.618 168.336 139.217 168.336Z" fill="white"/>
<path opacity="0.61" d="M136.236 160.069C136.003 160.069 135.813 159.879 135.813 159.646L136.067 154.339L136.659 159.646C136.638 159.879 136.468 160.069 136.236 160.069Z" fill="white"/>
<path opacity="0.61" d="M129.745 156.729C129.513 156.729 129.322 156.538 129.322 156.306L129.576 150.999L130.168 156.306C130.168 156.538 129.978 156.729 129.745 156.729Z" fill="white"/>
<path opacity="0.61" d="M119.28 150.555C119.174 150.555 119.068 150.47 119.068 150.344L119.195 147.68L119.491 150.344C119.491 150.47 119.407 150.555 119.28 150.555Z" fill="white"/>
<path d="M336.2 466.887L299.751 466.866C291.336 466.866 285.374 459.91 286.431 451.348L289.856 423.609C290.913 415.046 298.588 408.112 307.003 408.112L368.294 408.154C376.709 408.154 384.384 401.219 385.441 392.656L417.746 130.448" stroke="#5B3725" stroke-width="5.9054" stroke-miterlimit="10"/>
<path d="M436.796 443.694C436.796 443.694 316.136 443.504 315.861 443.462C311.527 442.933 306.77 452.553 305.269 464.921C304.212 473.547 305.015 481.116 307.045 485.133C307.658 486.973 308.863 488.178 311.02 488.22L432.377 488.093C436.204 487.713 439.058 482.617 439.777 476.803L440.432 454.223C441.151 448.409 442.504 443.694 436.796 443.694Z" fill="#49CFA3"/>
<path d="M436.795 443.694C436.795 443.694 403.2 443.631 371.423 443.589C367.913 443.589 365.08 446.422 365.08 449.931C365.08 453.441 362.247 456.274 358.738 456.274H306.96C306.241 458.917 305.649 461.855 305.269 464.963C305.015 466.972 304.888 468.917 304.846 470.778H364.552C370.768 470.778 376.222 474.034 379.309 478.917C382.882 484.605 389.014 488.178 395.737 488.178L432.398 488.135C436.225 487.755 439.079 482.66 439.798 476.845L440.453 454.265C441.151 448.409 442.504 443.694 436.795 443.694Z" fill="#4680FF"/>
<path opacity="0.51" d="M428.423 478.135L316.157 478.072C310.449 478.072 306.389 473.357 307.108 467.543L305.861 477.712C305.142 483.526 309.201 488.241 314.91 488.241L427.176 488.305C432.884 488.305 438.106 483.59 438.825 477.776L440.073 467.606C439.333 473.42 434.132 478.135 428.423 478.135Z" fill="#49CFA3"/>
<path opacity="0.45" d="M305.269 471.602C306.792 459.213 307.679 450.143 315.862 450.143C316.115 450.143 436.796 450.375 436.796 450.375C439.016 450.375 440.158 451.094 440.686 452.299C441.363 447.415 441.849 443.715 436.796 443.694C436.796 443.694 316.136 443.504 315.862 443.462C311.527 442.933 306.77 452.553 305.269 464.921C304.804 468.748 304.72 472.342 304.931 475.535C304.994 474.245 305.1 472.955 305.269 471.602Z" fill="#4680FF"/>
<path d="M408.233 220.726H405.357C399.014 220.726 394.511 215.483 395.293 209.014L405.759 124.063C406.562 117.594 412.355 112.372 418.698 112.372H421.573C427.916 112.372 432.419 117.615 431.637 124.085L421.172 209.035C420.389 215.483 414.596 220.726 408.233 220.726Z" fill="#49CFA3"/>
<g opacity="0.51">
<path opacity="0.42" d="M425.907 113.26L415.738 195.757C414.934 202.227 409.141 207.449 402.798 207.449H399.923C398.358 207.449 396.9 207.132 395.61 206.54L395.314 208.992C394.511 215.462 399.014 220.705 405.378 220.705H408.253C414.596 220.705 420.389 215.483 421.192 209.014L431.658 124.063C432.25 119.201 429.84 115.036 425.907 113.26Z" fill="#49CFA3"/>
</g>
<path d="M443.032 466.845C441.51 479.235 436.774 488.854 432.419 488.305C428.085 487.776 425.78 477.311 427.302 464.921C428.825 452.532 433.561 442.912 437.916 443.462C442.25 443.99 444.555 454.456 443.032 466.845Z" fill="#4680FF"/>
<path d="M438.931 466.486C438.444 470.503 436.478 473.59 434.533 473.336C432.588 473.103 431.425 469.636 431.911 465.619C432.398 461.602 434.364 458.515 436.309 458.769C438.233 459.001 439.417 462.469 438.931 466.486Z" fill="#5B3725"/>
</svg>
