<svg width="571" height="560" viewBox="0 0 571 560" fill="none" xmlns="http://www.w3.org/2000/svg">
<path d="M86.2741 333.753C96.6762 293.767 106.953 253.746 110.707 212.442C112.498 192.782 110.818 173.177 107.689 153.767C103.386 127.107 98.4388 100.545 93.9837 73.9056C91.8533 61.1481 90.3267 48.3004 90.1948 35.3347C91.6868 32.7679 94.2335 33.5657 96.4333 33.4755C109.104 32.9552 121.796 32.872 134.468 32.9067C160.573 32.983 186.519 30.4579 212.466 28.3975C243.706 25.914 274.85 22.7298 306.25 22.0499C325.521 21.6337 344.868 20.2046 364.069 17.8391C365.838 17.624 367.705 16.5834 369.044 18.7131C368.33 42.0916 358.212 61.1481 340.551 75.6885C322.107 90.881 304.627 106.802 290.713 126.33C287.237 131.207 283.649 136.028 281.345 141.634C282.025 144.506 279.971 146.601 279.257 149.084C273.969 159.178 269.868 169.75 266.516 180.628C260.354 203.111 257.176 225.817 258.737 249.278C259.674 263.347 261.846 277.159 263.9 291.02C263.622 293.566 261.998 295.21 259.799 296.049C255.226 297.797 254.31 301.086 255.392 305.387C256.516 309.854 259.063 312.657 264.025 312.511C265.621 312.463 267.238 312.386 268.605 313.468C270.437 315.633 270.804 318.38 271.602 320.961C271.887 321.953 272.324 322.896 272.616 323.895C283.781 363.729 298.95 401.987 317.895 438.748C319.671 443.319 322.481 447.315 325.014 451.47C327.013 457.048 333.258 460.704 332.356 467.593C338.879 477.957 346.526 487.475 355.207 497.083C353.153 498.026 351.661 497.27 350.267 497.159C338.137 496.202 326.798 498.553 316.5 505.199C312.426 507.828 308.409 510.562 304.384 513.267C299.963 516.236 295.404 518.907 290.463 520.974C282.351 524.374 274.684 523.749 267.335 519.032C264.226 517.034 261.2 514.904 258.119 512.865C254.844 510.7 251.68 508.321 248.238 506.462C237.385 500.6 228.593 502.043 220.078 510.922C216.227 514.939 213.083 519.518 209.988 524.124C206.768 528.925 203.444 533.663 199.35 537.77C190.898 546.24 181.78 547.808 170.871 542.813C165.133 540.184 160.24 536.32 155.306 532.497C149.276 527.835 143.53 522.82 136.924 518.907C126.883 512.955 116.974 512.345 106.856 518.741C103.747 520.704 100.403 522.417 96.9746 523.729C87.8077 527.225 79.5777 522.272 78.2523 512.539C77.4681 506.809 76.7673 501.085 74.8728 495.584C69.3422 489.944 70.0084 482.355 69.0855 475.501C67.309 462.313 66.3861 449.008 66.9551 435.647C67.1008 432.136 67.9405 428.862 69.0577 425.609C69.4879 423.097 71.5212 421.869 73.2143 420.309C80.0149 414.037 86.3435 407.364 91.3537 399.511C93.2551 396.528 94.5874 393.344 95.1148 389.924C96.3015 382.306 91.5966 376.972 83.9633 376.979C78.287 376.986 77.1698 375.619 78.1066 369.924C80.119 357.7 83.2972 345.747 86.2741 333.753Z" fill="#FD490A"/>
<path d="M270.43 323.631C269.646 323.215 269.576 322.549 269.77 321.786C270.104 321.467 270.478 320.94 270.839 320.968C281.408 321.634 289.02 314.28 298.138 311.04C303.607 309.098 309.075 305.955 315.306 308.252C321.08 308.224 326.86 308.057 332.627 308.203C338.227 308.342 343.619 309.66 348.671 312.137C358.018 316.722 362.244 325.387 360.315 335.64C359.454 340.239 357.685 344.471 355.568 348.605C354.562 350.569 353.681 352.587 352.015 356.139C356.949 353.76 360.37 352.088 363.805 350.465C371.015 347.052 378.516 344.963 386.587 345.595C394.061 346.184 400.424 349.223 405.469 354.731C411.624 361.446 412.11 369.147 408.855 377.326C406.961 382.091 403.942 386.184 400.486 390.499C402.86 391.235 404.234 389.806 405.739 389.174C418.647 383.777 431.928 381.973 445.765 384.547C461.976 387.565 467.749 399.982 459.526 414.481C457.833 417.464 455.779 420.246 453.426 423.826C456.14 423.569 458.249 423.361 460.359 423.16C470.747 422.168 480.608 423.507 489.643 429.251C501.53 436.805 507.692 452.234 504.035 465.4C502.064 472.483 497.255 477.339 491.856 481.807C490.26 483.125 488.609 484.381 486.985 485.664C485.528 488.522 482.807 489.806 480.129 491.172C471.316 495.674 462.454 500.045 453.17 503.5C450.581 504.464 448.083 505.726 445.189 504.963C440.714 505.06 436.793 507.315 432.518 508.245C428.646 509.084 424.795 509.611 420.86 509.341C407.613 508.425 400.264 498.255 403.318 485.234C404.463 480.35 407.009 476.007 408.286 470.832C406.413 471.977 404.532 473.108 402.672 474.273C390.626 481.807 377.746 486.205 363.312 484.617C358.497 484.089 353.708 483.416 349.698 480.308C349.836 478.248 351.321 477.159 352.758 476.035C353.389 475.661 354.52 476.118 354.562 476.007C354.916 475.168 355.131 476.41 354.375 475.91C353.521 475.348 352.723 476.007 351.939 476.368C350.142 475.452 349.975 474.072 350.822 472.414C352.203 471.096 352.57 469.07 354.042 467.815C354.375 467.475 354.729 467.156 354.964 466.725C354.735 467.072 354.472 467.391 354.139 467.731C352.64 468.98 352.251 470.922 350.988 472.268C347.893 473.115 347.151 470.881 347.414 468.841C347.741 466.247 346.381 463.951 346.734 461.453C347.033 460.884 347.408 460.364 347.99 460.031C347.449 460.309 347.165 460.815 346.839 461.328C345.811 462.91 348.219 466.108 344.84 466.288C342.737 466.399 342.106 464.075 341.662 462.286C340.78 458.741 339.365 455.182 341.211 451.512C342.932 448.099 341.579 446.33 338.109 445.629C335.854 445.171 333.432 445.033 331.44 443.895C329.088 442.556 323.98 441.883 329.476 437.554C330.913 436.424 331.267 433.905 327.096 433.67C323.474 433.461 318.644 432.247 318.734 426.538C318.748 425.609 318.707 424.214 317.992 423.999C309.193 421.391 311.469 410.707 305.057 406.406C304.689 406.157 304.294 405.629 304.356 405.248C306.042 395.543 296.244 389.271 296.168 381.169C296.084 372.074 287.938 365.484 290.484 356.306C290.637 355.758 291.768 354.426 289.693 354.682C284.163 355.369 283.267 350.194 280.908 347.218C278.438 344.096 279.957 341.835 283.809 340.961C280.672 341.134 278.049 339.178 279.194 336.285C281.977 329.271 277.494 327.329 272.692 325.151C271.908 324.776 271.297 323.985 270.43 323.631Z" fill="#247BE2"/>
<path d="M315.313 308.259C303.641 311.075 292.323 314.745 282.56 322.085C281.158 323.139 279.624 323.077 277.959 322.806C275.245 322.362 272.504 322.119 269.77 321.793C269.049 319.212 268.327 316.632 267.605 314.051C267.682 312.879 268.029 311.748 268.861 310.943C272.942 306.975 272.525 302.993 269.097 298.88C268.077 297.652 267.286 296.243 267.12 294.592C263.643 281.592 260.694 268.328 259.389 255.071C258.32 244.214 256.87 232.587 262.012 221.904C262.2 221.523 262.845 220.912 262.741 220.85C253.914 215.897 265.891 208.3 260.451 202.959C263.171 199.65 262.963 195.557 263.941 191.727C264.948 187.808 264.996 183.541 266.918 179.83C274.899 178.075 284.287 182.348 288.694 189.729C293.905 195.945 299.193 202.105 301.733 210.035C308.006 216.646 311.323 224.443 311.184 233.628C314.737 244.977 318.734 256.271 320.067 268.12C321.593 281.765 322.87 295.591 315.313 308.259Z" fill="#FFC0D2"/>
<path d="M445.21 504.956C448.368 502.521 452.205 501.55 455.828 500.177C466.584 496.098 476.479 490.215 487.006 485.664C490.441 493.024 495.264 499.067 502.897 502.459C507.227 501.96 508.261 507.35 512.154 507.606C512.695 507.384 513.243 507.273 513.812 507.232C515.36 507.232 516.595 507.974 517.782 508.848C525.131 511.658 532.868 513.066 540.397 515.217C549.057 517.686 557.745 520.156 565.205 525.484C572.332 530.569 572.935 540.038 566.718 545.768C564.372 547.932 561.513 548.869 558.516 549.035C542.16 549.93 525.783 550.617 509.427 551.526C506.387 551.692 504.833 550.166 503.286 547.981C499.719 542.938 496.006 537.991 491.85 532.331C489.698 538.241 490.427 543.52 490.031 548.64C489.511 555.341 489.636 555.439 483.106 556.042C478.984 556.424 474.328 557.742 470.823 556.354C467.014 554.842 467.229 549.32 465.806 545.539C460.421 531.242 454.336 517.339 445.21 504.956Z" fill="#3A3833"/>
<path d="M70.5843 424.852C68.1209 448.668 70.5427 472.185 74.8659 495.584C71.8126 496.105 70.2582 498.158 68.905 500.787C64.4153 509.521 58.2809 516.999 51.0155 523.583C48.7671 525.615 46.38 527.419 43.5973 528.633C35.971 531.949 29.4828 527.752 29.3579 519.407C29.2815 514.079 31.6548 509.597 34.4236 505.269C38.1153 499.497 43.5904 495.55 48.6908 491.214C55.0611 491.824 60.4252 496.153 66.0877 495.876C59.648 495.445 53.1667 492.546 47.0601 488.647C38.5941 480.676 35.9086 470.229 34.9718 459.254C33.4729 441.675 36.8662 424.741 42.6536 408.21C43.4933 405.81 44.3884 403.43 45.2558 401.037C49.3639 397.52 52.6878 392.705 58.9402 392.712C59.2524 393.087 59.4259 393.496 59.4329 393.947C59.4467 394.669 59.1969 395.293 58.9541 395.57C65.4562 386.906 74.6647 379.525 80.9725 377.249C85.2471 375.709 89.3968 375.411 92.4848 378.741C95.7047 382.209 96.7941 386.732 95.5034 391.581C93.4771 399.164 88.6682 405.054 83.5747 410.645C77.8567 416.916 71.882 422.993 63.6589 427.031C66.4138 426.448 67.4963 422.868 70.5843 424.852Z" fill="#FBC601"/>
<path d="M44.4093 399.643C43.5072 399.83 42.6051 400.017 41.703 400.204C30.8291 402.521 23.1056 399.185 18.0954 389.473C16.4994 386.386 14.9658 384.603 11.1839 383.951C3.86291 382.688 -0.00229082 377.43 0.414068 370.909C0.851245 364.013 6.05573 358.581 13.3975 358.061C16.5549 357.839 18.1579 357.208 19.1433 353.815C22.4117 342.57 30.6625 336.902 41.9181 335.661C46.3107 335.175 49.4403 334.898 50.8074 329.5C52.1467 324.207 57.6704 321.613 62.8054 322.175C67.7115 322.709 71.4796 326.066 72.2776 331.693C72.7356 334.911 73.95 337.208 76.1706 339.414C78.2801 341.509 79.9872 344.006 81.8677 346.33C83.2348 354.079 80.4313 361.294 79.0087 368.689C74.401 373.552 67.5797 374.946 62.5903 379.518C57.1499 384.506 51.9732 389.507 48.1912 395.869C47.2544 397.437 46.3315 399.053 44.4093 399.643Z" fill="#FBC601"/>
<path d="M51.284 353.047C53.2259 353.047 54.8002 351.473 54.8002 349.531C54.8002 347.589 53.2259 346.015 51.284 346.015C49.3421 346.015 47.7678 347.589 47.7678 349.531C47.7678 351.473 49.3421 353.047 51.284 353.047Z" fill="#3A3833"/>
<path d="M28.1776 372.135C30.1195 372.135 31.6937 370.561 31.6937 368.619C31.6937 366.677 30.1195 365.103 28.1776 365.103C26.2356 365.103 24.6614 366.677 24.6614 368.619C24.6614 370.561 26.2356 372.135 28.1776 372.135Z" fill="#3A3833"/>
<path d="M51.7863 370.126C51.7863 370.126 53.2028 363.395 51.7863 362.089C50.4401 360.853 45.9595 362.732 44.754 364.098C43.7393 365.243 42.7146 369.001 43.7493 370.126C44.8544 371.331 51.7863 370.126 51.7863 370.126Z" fill="#3A3833"/>
<path d="M61.8326 368.117C61.8326 368.117 55.8048 377.158 49.7771 369.121" stroke="#3A3833" stroke-miterlimit="10"/>
<path d="M45.2562 381.679C45.2562 381.679 58.3163 375.651 47.2655 367.614" stroke="#3A3833" stroke-miterlimit="10"/>
<path d="M311.185 233.628C308.034 225.761 304.884 217.901 301.733 210.035C319.803 205.893 334.313 196.243 345.742 181.738C352.931 172.615 359.08 162.889 363.722 152.22C365.769 147.509 367.893 143.028 364.624 137.825C363.306 135.723 363.965 133.337 367.365 134.946C369.454 135.931 369.766 134.585 370.148 133.288C371.14 129.972 371.91 126.587 372.993 123.306C373.659 121.301 374.381 119.663 377.49 120.857C379.565 121.654 383.041 118.304 383.999 123.042C387.08 121.21 388.62 125.04 391.292 125.04C392.631 125.04 392.812 126.573 392.763 127.752C392.728 128.668 392.624 129.605 392.388 130.486C387.69 148.12 382.916 165.706 375.97 182.667C365.2 208.966 344.937 223.867 318.575 231.776C316.146 232.511 313.648 233.018 311.185 233.628Z" fill="#3F9C89"/>
<path d="M270.43 323.631C274.531 322.279 277.529 325.081 280.693 326.67C283.462 328.057 283.573 330.825 281.678 333.975C280.214 336.41 279.395 338.477 283.26 339.552C286.348 340.406 287.32 342.82 287.258 345.692C284.197 346.802 285.287 340.288 282.102 343.243C279.742 345.435 283.961 346.316 284.017 348.265C284.079 350.354 287.153 349.847 287.223 352.234C287.292 354.648 288.888 353.878 289.888 352.789C290.928 351.658 291.671 350.263 292.858 348.529C294.766 351.04 293.267 353.128 292.83 354.689C291.192 360.544 292.406 365.768 296.431 369.826C298.548 371.963 297.306 374.703 299.103 376.583C299.505 376.999 298.888 377.998 298.18 378.144C296.258 378.539 295.689 379.58 297.326 380.718C300.29 382.778 301.74 385.518 301.351 388.959C301.025 391.88 303.697 391.977 304.87 393.448C305.522 394.266 307.909 394.37 307.076 395.445C304.023 399.393 308.471 401.065 309.54 403.52C307.652 405.199 307.014 402.334 305.598 403.153C305.14 403.375 305.105 403.756 305.425 404.256C307.132 406.94 311.399 407.44 310.948 412.254C310.719 414.675 314.98 414.585 317.11 415.744C317.02 416.264 317.069 416.764 316.854 417.097C316.007 418.456 312.281 417.166 313.523 420.142C314.383 422.202 316.292 420.496 317.728 420.045C318.353 419.851 319.012 419.767 319.643 419.636C320.865 422.813 322.53 425.81 320.212 429.153C322.197 429.403 324.591 426.496 325.056 430.43C325.195 431.623 325.708 433.024 327.103 432.636C329.039 432.095 327.478 430.922 327.159 430.055C326.902 429.348 326.791 428.612 327.512 428.265C328.491 427.787 329.4 428.37 329.789 429.188C331.385 432.511 331.128 436.875 335.729 438.269C333.536 441.127 330.781 439.275 327.922 440.052C331.725 442.584 335.43 443.208 338.935 443.576C341.71 443.867 342.994 445.449 344.375 447.176C345.118 448.106 345.978 449.049 344.313 450.569C341.807 452.851 340.871 455.661 343.619 458.928C344.771 460.302 342.508 462.979 345.062 465.04C346.179 463.881 345.485 461.55 347.109 460.745L347.248 460.87C347.734 464.089 350.995 466.691 349.246 470.485C348.927 471.179 350.357 471.692 351.273 471.838L351.418 471.963C351.467 473.399 351.273 474.904 352.612 475.945L352.841 476.257C352.938 478.491 352.327 480.177 349.711 480.322C344.882 478.956 341.592 475.439 338.137 472.123C336.374 470.43 335.173 467.953 332.349 467.606C329.462 462.813 326.569 458.019 323.682 453.219C322.919 450.139 320.698 447.419 320.823 444.207C320.962 440.725 317.499 441.661 316.354 439.913C308.2 426.184 301.976 411.526 295.765 396.875C286.924 376.028 279.395 354.696 272.831 333.031C271.901 329.93 271.228 326.767 270.43 323.631Z" fill="#1C69C4"/>
<path d="M369.038 18.7132C339.851 21.5366 310.622 23.4929 281.283 24.2976C264.247 24.7624 247.253 27.0031 230.251 28.6334C210.745 30.5064 191.218 32.1228 171.676 33.5796C152.101 35.0434 132.49 34.4884 112.914 35.2515C105.316 35.5498 97.7589 34.6688 90.1881 35.3278C88.6823 34.6271 86.5796 35.307 84.7407 32.5668C89.8064 32.5668 94.0394 32.6223 98.2654 32.5529C105.822 32.435 106.01 32.9206 105.385 25.581C105.052 21.6615 106.35 18.3108 108.994 15.5012C112.762 11.4915 117.002 11.9563 119.708 16.7152C121.457 19.7954 121.991 23.1807 121.713 26.7187C121.332 31.5401 121.353 31.5401 126.481 31.6511C126.939 31.658 127.397 31.7066 127.862 31.7343C141.914 29.6185 156.202 31.6857 170.24 29.2993C171.822 29.0288 173.481 29.1814 174.66 27.8078L174.896 27.572C175.604 27.3084 176.333 27.2529 177.075 27.3847C189.767 28.2171 202.438 28.6195 214.908 25.3382C215.727 21.495 216.636 17.6587 218.607 14.2178C220.932 10.1526 224.728 10.1596 227.149 14.197C229.009 17.291 228.732 20.7527 228.072 24.693C237.052 24.2699 245.525 23.8744 253.998 23.479C258.161 22.0291 262.581 24.0063 266.745 22.5286C285.113 20.6695 303.593 20.7804 321.996 19.6497C327.492 19.3098 327.554 19.3791 327.867 14.1138C328.116 9.79884 329.56 6.03887 332.495 2.84081C334.743 0.391973 337.484 -0.690233 340.6 0.461345C343.626 1.57824 343.223 4.47106 343.161 7.00314C343.126 8.37671 342.911 9.74334 342.724 11.6164C341.072 10.1596 341.669 8.55014 341.37 7.22513C340.968 5.42839 340.753 3.38191 338.546 2.91018C336.499 2.47314 335.014 3.83283 333.786 5.2064C330.399 8.99412 328.914 13.4547 329.324 19.1779C337.498 19.3236 345.437 18.1721 353.396 17.3049C355.485 17.076 355.811 15.7371 356.151 14.0097C356.817 10.6244 357.608 7.24594 358.635 3.95076C359.281 1.88347 360.78 0.218543 363.181 0.315664C365.832 0.426659 367.247 2.29277 367.99 4.63755C368.774 7.13495 368.566 9.65315 367.462 12.872C366.949 9.95145 366.685 7.66217 366.095 5.46308C365.741 4.13113 364.798 2.89631 363.181 2.94487C361.911 2.98649 361.182 3.97851 360.731 5.10234C359.357 8.51545 358.046 11.9563 357.643 16.3823C368.489 16.1603 378.947 13.4617 389.585 14.537C383.069 17.7489 375.824 17.0829 369.038 18.7132Z" fill="#534035"/>
<path d="M288.694 189.729C281.9 185.366 275.329 180.482 266.738 180.329C265.87 180.385 265.267 180.01 264.913 179.219C267.689 167.808 272.477 157.215 278.153 146.989C287.639 141.682 290.554 142.827 295.64 153.933C296.056 152.49 295.841 150.77 297.583 150.076C299.512 156.32 297.597 162.369 296.445 168.384C295.002 175.869 292.032 182.889 288.694 189.729Z" fill="#3F9A87"/>
<path d="M288.945 167.369C289.903 167.369 290.679 166.592 290.679 165.634C290.679 164.677 289.903 163.9 288.945 163.9C287.987 163.9 287.21 164.677 287.21 165.634C287.21 166.592 287.987 167.369 288.945 167.369Z" fill="#3A3833"/>
<path d="M282.441 172.139C283.399 172.139 284.175 171.168 284.175 169.97C284.175 168.773 283.399 167.802 282.441 167.802C281.483 167.802 280.706 168.773 280.706 169.97C280.706 171.168 281.483 172.139 282.441 172.139Z" stroke="#3A3833" stroke-miterlimit="10"/>
<path d="M287.21 158.489C287.21 158.489 293.281 156.954 293.281 160.422" stroke="#3A3833" stroke-miterlimit="10"/>
<path d="M285.043 159.998C285.043 159.998 280.706 157.396 281.574 154.794" stroke="#3A3833" stroke-miterlimit="10"/>
<path d="M282.441 164.334C282.441 164.334 278.053 162.929 277.211 159.295" stroke="#3A3833" stroke-miterlimit="10"/>
<path d="M275.069 172.572C275.069 172.572 275.824 179.12 283.247 176.284" stroke="#3A3833" stroke-miterlimit="10"/>
<path d="M297.583 150.069C297.361 151.838 297.132 153.614 296.862 155.751C293.246 155.314 291.789 152.74 291.178 150C290.221 145.699 287.625 145.38 284.177 146.316C282.199 146.85 280.221 147.274 278.153 146.989C278.722 144.901 279.888 143.181 281.352 141.634C282.463 141.335 283.566 140.815 284.69 140.78C287.66 140.669 288.784 139.663 289.249 136.334C290.151 129.806 296.522 126.282 302.684 128.092C306.403 129.181 309.352 132.733 309.783 136.646C310.248 140.829 308.048 144.443 304.092 146.906C302.004 148.196 298.943 147.405 297.583 150.069Z" fill="#3D3C36"/>
<path d="M77.6486 369.278C79.0504 361.627 80.459 353.975 81.8608 346.33C84.2201 342.445 83.7344 337.568 86.2742 333.753C85.1917 345.962 82.5963 357.915 80.23 369.903C79.8831 371.658 78.8214 373.344 79.7235 375.133C80.6256 376.056 81.4999 375.439 82.3535 375.3C91.7007 373.801 97.0579 378.22 97.3146 387.62C97.4395 392.178 95.9545 396.25 93.4841 399.996C87.1971 409.514 79.661 417.887 70.5913 424.852C66.7955 425.935 63.9365 429.001 59.3982 429.133C61.7645 427.426 64.0614 425.609 66.518 424.034C76.0526 417.929 83.0543 409.32 89.7855 400.489C92.9151 396.382 94.9206 391.644 94.185 386.268C93.158 378.748 88.3907 376.007 81.2709 378.651C78.6201 379.636 76.3857 381.21 74.3316 383.118C67.5589 389.403 60.7514 395.647 52.792 402.972C54.4713 397.936 57.941 395.758 59.5786 392.476C59.3635 388.411 62.5001 386.309 65.0191 384.235C70.1819 379.989 74.9006 375.508 77.6486 369.278Z" fill="#59442C"/>
<path d="M513.812 507.932C512.175 508.73 512.598 510.791 511.404 511.866C510.03 513.108 508.33 512.74 508.497 511.151C508.983 506.524 505.09 505.116 502.897 502.459C504.909 499.504 503.91 496.16 503.931 493.01C503.958 489.646 504.75 486.635 506.436 483.791C509.038 479.393 511.918 479.316 514.687 483.666C515.415 484.818 515.943 486.143 516.324 487.461C516.699 488.758 516.768 490.138 516.97 491.491C517.622 491.373 518.142 491.422 518.489 491.193C520.335 489.972 521.924 487.586 524.527 489.389C527.066 491.151 526.456 493.933 526.095 496.389C525.713 498.97 524.145 501.009 522.341 502.882C520.606 504.686 518.358 506.136 517.795 508.848C516.394 508.827 514.881 509.292 513.791 507.925C515.998 504.741 518.517 501.765 520.113 498.179C518.503 501.744 515.936 504.693 513.812 507.932Z" fill="#EDD0D9"/>
<path d="M77.6486 369.278C77.8638 374.703 75.8513 378.623 71.1257 381.821C66.8302 384.721 63.3883 388.876 59.5717 392.476C56.8862 393.378 55.2208 395.695 53.0002 397.235C50.6339 398.873 48.6007 401.335 45.2559 401.037C44.9783 400.572 44.6938 400.114 44.4163 399.649C45.4641 395.022 48.1427 391.311 51.1405 387.787C56.5323 381.446 62.6805 375.973 69.8627 371.741C72.229 370.34 74.7549 369.154 77.6486 369.278Z" fill="#FC4D0A"/>
<path d="M420.097 54.1692L420.076 54.1484C422.151 59.615 423.275 65.3937 425.641 70.7839C426.606 72.976 419.285 83.0697 416.787 83.6593C416.329 83.7703 415.906 83.7912 415.434 83.6871C411.888 82.9101 406.697 69.9098 409.23 67.3985C413.317 63.3333 416.336 58.4564 420.097 54.1692Z" fill="white"/>
<path d="M420.097 54.1692C417.12 60.1283 413.63 65.7266 408.474 70.0069C410.951 74.5091 413.255 78.6992 416.322 84.2837C417.03 82.806 417.224 81.7793 417.842 81.2036C423.469 75.9521 426.086 70.1942 421.61 62.8269C420.021 60.2115 421.506 56.8886 420.076 54.1415C422.991 57.5407 422.602 62.4592 425.176 65.8792C429.146 71.1515 428.251 75.1196 423.372 79.1848C420.041 81.9666 418.015 85.8792 417.182 90.7422C414.136 89.4103 414.115 86.788 413.067 84.9635C410.555 80.5792 408.744 75.7925 405.448 71.8591C404.511 70.7422 403.651 69.1467 405.247 68.3142C411.589 65.0121 414.552 58.2414 420.097 54.1692Z" fill="#595F5A"/>
<path d="M513.916 352.733C516.407 357.943 517.441 362.709 520.224 366.614C521.966 369.056 520.252 370.499 518.857 371.928C514.846 376.042 510.981 380.211 510.037 385.983C507.657 386.351 507.477 384.776 506.901 383.618C504.25 378.269 502.217 372.567 498.338 367.905C496.839 366.101 496.714 364.672 498.872 363.451C503.611 360.78 506.797 356.514 510.405 352.56C509.739 356.632 507.491 359.982 504.451 362.404C501.086 365.088 501.308 367.225 503.611 370.381C505.464 372.927 506.623 375.973 508.379 379.358C511.404 375.848 513.84 372.872 516.449 370.055C517.858 368.529 517.289 367.211 516.657 365.664C515.103 361.856 513.528 358.033 513.916 352.733Z" fill="#525651"/>
<path d="M415.711 253.129C416.461 252.643 416.704 252.56 416.842 252.386C419.452 249.174 423.4 246.275 424.254 242.646C425.024 239.372 422.359 235.321 421.311 231.582C420.84 229.889 420.479 228.12 421.478 226.136C422.942 230.999 424.545 235.57 427.106 239.698C428.341 241.689 428.75 243.257 426.814 245.123C422.38 249.403 418.362 254.03 416.586 261.745C413.588 255.89 411.201 251.512 409.091 247.01C407.814 244.291 404.324 242.327 404.713 239.455C405.108 236.493 409.327 236.008 411.201 233.628C412.2 232.365 413.428 231.29 414.497 230.076C415.406 229.043 416.246 227.94 418.133 225.609C416.773 231.235 414.268 234.384 411.152 236.972C408.793 238.935 408.154 240.482 410.153 243.236C412.29 246.198 413.782 249.632 415.711 253.129Z" fill="#4F534E"/>
<path d="M42.4176 212.941C43.2919 219.025 44.4993 225.116 42.3343 231.11C41.5501 233.281 42.2579 234.481 44.2357 235.501C47.6914 237.284 51.0292 239.296 54.9569 241.516C55.6647 237.423 56.2337 233.704 56.9624 230.014C57.3926 227.829 56.4003 226.628 54.7001 225.505C52.4726 224.034 50.3769 222.348 49.3916 219.31C52.6253 221.238 55.8798 223.139 59.0858 225.109C60.8692 226.205 60.2863 227.953 59.981 229.48C58.829 235.293 57.4204 241.079 60.1822 247.78C54.9985 246.122 52.0146 243.118 48.3854 241.301C44.9226 239.566 40.3219 238.325 38.5871 235.446C36.9424 232.726 40.9672 228.945 41.3836 225.29C41.6126 223.229 41.8208 221.169 41.9943 219.102C42.1677 217.048 42.2788 214.995 42.4176 212.941Z" fill="#50544E"/>
<path d="M266.745 22.5286C262.63 24.6584 258.279 23.6316 253.998 23.479C255.566 21.939 254.907 20.1561 254.747 18.3108C254.345 13.6143 255.018 9.07043 258.161 5.29659C259.785 3.35417 261.665 1.18282 264.531 2.08466C267.043 2.8755 267.46 5.48389 267.807 7.77317C268.188 10.2844 268.064 12.8165 267.446 15.8967C263.955 12.8096 267.002 7.73849 263.456 5.21334C260.645 6.42042 259.271 8.78601 258.182 11.3597C256.884 14.419 256.121 17.957 257.335 20.8013C258.82 24.2699 262.651 21.7447 265.385 22.3066C265.836 22.4038 266.294 22.4593 266.745 22.5286Z" fill="#6A736D"/>
<path d="M174.66 27.8078C175.16 30.6729 173.106 30.6035 171.253 30.7839C156.812 32.206 142.337 32.2199 127.854 31.7343C131.921 30.3191 136.216 31.0336 140.359 30.3468C141.164 29.7433 141.99 29.1606 142.913 28.7513C145.161 27.8841 147.444 27.3014 149.866 28.0229C150.456 28.3628 151.011 28.7443 151.545 29.1744C159.303 29.6184 166.964 28.3697 174.66 27.8078Z" fill="#D84F1D"/>
<path d="M151.552 29.1814C151.011 29.2438 150.463 29.3063 149.922 29.3617C147.361 27.0308 148.638 23.3541 146.723 20.2046C144.474 23.4166 145.425 27.5234 142.948 30.1942C142.087 30.2497 141.227 30.2983 140.373 30.3538C140.436 26.0041 140.019 21.6268 141.553 17.402C142.517 14.745 143.503 11.8106 146.889 12.0256C150.435 12.2546 151.448 15.1682 152.225 18.283C153.162 22.0569 151.816 25.5532 151.552 29.1814Z" fill="#6B6F67"/>
<path d="M214.915 25.3382C214.284 27.676 212.341 27.6483 210.495 27.8078C200.634 28.6888 190.78 29.5907 180.913 30.4301C178.858 30.6035 176.617 30.9434 175.902 28.1131C176.187 27.5373 176.589 27.0794 177.131 26.7325C178.879 25.914 180.753 25.9209 182.633 25.9278C183.896 25.8931 185 26.4551 186.145 26.8644C195.756 26.8435 205.339 26.1637 214.915 25.3382Z" fill="#D84F1D"/>
<path d="M186.145 26.8644C185.52 27.7732 184.688 27.8217 183.751 27.461C181.961 25.2688 182.675 22.265 181.142 19.3306C179.469 22.3344 179.219 25.7336 176.548 27.6275C176.416 27.8911 176.201 28.0507 175.909 28.1062C175.535 28.0021 175.202 27.8217 174.903 27.5651C174.362 23.0697 175.639 18.9074 177.339 14.863C178.13 12.983 178.956 10.7492 181.537 10.9782C183.931 11.1932 184.743 13.3507 185.569 15.2515C186.61 17.6448 186.436 20.1977 186.367 22.7229C186.332 24.1103 186.221 25.4908 186.145 26.8644Z" fill="#706D64"/>
<path d="M47.0532 488.64C47.9484 488.73 49.017 488.543 49.704 488.966C55.3873 492.483 62.0213 493.579 68.0863 496.153C60.8278 497.443 54.6448 494.752 48.684 491.207C48.1427 490.347 47.5945 489.493 47.0532 488.64Z" fill="#947A1C"/>
<path d="M294.724 17.9154C293.85 12.7749 294.946 9.39645 297.097 6.30245C298.208 4.69996 299.714 3.63856 301.754 4.1866C303.926 4.76933 304.287 6.60075 304.231 8.5293C304.189 9.86818 304.03 11.2071 303.919 12.5876C302.933 12.2407 302.961 11.5331 302.906 10.8671C302.76 9.10509 303.204 6.70481 300.81 6.47588C299.186 6.32327 298.291 8.35587 297.653 9.76412C296.626 12.0048 295.952 14.4051 294.724 17.9154Z" fill="#534035"/>
<path d="M139.034 72.7887C141.733 80.0936 141.934 87.4401 141.962 94.8074C142.059 118.602 142.059 142.404 142.274 166.198C142.587 200.85 142.663 235.508 143.579 270.139C144.266 295.98 146.355 321.765 148.228 347.558C149.838 369.667 151.247 391.817 148.534 413.961C148.117 417.36 147.409 420.718 146.313 424.048C146.313 416.812 145.841 409.535 146.403 402.348C147.881 383.368 146.23 364.512 144.96 345.629C144.419 337.568 143.891 329.507 143.294 321.446C140.102 278.331 140.338 235.133 139.873 191.942C139.471 154.981 138.819 118.026 139.034 81.0648C139.048 78.3038 139.034 75.5497 139.034 72.7887Z" fill="#573A2D"/>
<path d="M312.44 56.9857C311.58 62.3898 308.27 66.6493 305.702 71.2348C282.122 113.309 262.727 157.069 251.152 204.082C245.247 228.071 243.068 252.206 245.469 276.875C247.044 293.129 248.821 309.431 248.328 326.143C246.593 324.547 246.323 322.688 246.198 320.919C244.768 300.662 242.388 280.475 241.639 260.163C240.806 237.513 245.171 215.668 250.833 193.899C261.492 152.921 278.93 114.773 298.798 77.6309C302.67 70.3884 306.473 62.9309 312.551 57.0829L312.44 56.9857Z" fill="#523A2D"/>
<path d="M264.913 179.219C265.524 179.587 266.127 179.962 266.738 180.329C269.888 184.082 268.292 187.773 266.176 191.103C265.308 192.47 265.024 193.26 265.655 194.696C266.953 197.672 265.94 200.073 262.9 201.613C261.825 202.161 261.485 202.82 262.498 203.652C267.106 207.475 262.956 211.262 262.151 214.884C261.95 215.786 260.576 216.764 261.124 218.193C262.408 221.557 262.644 216.722 263.587 217.86C264.49 218.949 265.364 220.322 264.309 221.578C261.54 224.887 260.881 228.411 262.325 232.47C262.692 233.51 262.068 234.62 261.603 235.723C260.541 238.227 260.562 240.898 261.089 243.611C261.624 246.386 262.914 249.237 260.687 251.949C259.826 253.004 260.479 254.239 261.013 255.196C263.053 258.873 263.594 263.118 263.511 266.947C263.435 270.652 265.78 269.618 267.307 270.402C263.865 275.043 263.678 277.624 267.022 282.327C268.639 284.596 269.819 286.469 267.564 288.973C266.898 289.715 267.279 290.631 268.41 291.027C272.789 292.56 267.598 293.024 268.049 294.134C265.725 295.501 263.851 294.863 262.283 292.844C257.696 273.267 255.496 253.392 256.031 233.337C256.53 214.96 258.765 196.736 264.913 179.219Z" fill="#F0A0B5"/>
<path d="M204.347 300.35C202.362 299.212 202.043 297.811 201.619 296.556C194.507 275.168 189.379 253.413 191.911 230.687C193.646 215.106 196.887 199.74 199.808 184.332C202.119 172.137 206.866 160.968 213.666 150.631C214.166 149.875 214.742 149.174 215.283 148.439C216.726 149.188 215.831 150 215.505 150.59C206.227 167.419 201.876 185.74 198.989 204.54C197.137 216.611 194.777 228.578 194.354 240.864C193.903 253.975 196.665 266.524 199.461 279.129C200.995 286.053 202.633 292.934 204.347 300.35Z" fill="#583A2C"/>
<path d="M262.29 292.851C264.212 293.281 266.134 293.711 268.056 294.141C268.778 295.002 269.507 295.855 270.215 296.729C276.842 304.88 276.363 308.037 267.612 314.044C263.581 314.252 258.945 317.145 256.232 311.491C250.861 310.805 252.512 305.678 252.304 303.243C251.742 296.569 252.401 296.514 262.29 292.851Z" fill="#439885"/>
<path d="M124.142 300.919C123.316 292.511 124.6 284.249 124.829 275.966C125.572 249.66 125.19 223.347 124.961 197.034C124.885 188.349 124.489 179.58 127.202 170.562C130.894 199.594 128.743 289.688 124.142 300.919Z" fill="#5E3B2B"/>
<path d="M196.29 426.379C201.918 446.739 201.176 467.28 197.949 487.877C196.908 467.405 198.594 446.843 196.29 426.379Z" fill="#633B2A"/>
<path d="M102.061 436.049C105.336 452.483 104.108 467.523 102.228 482.57C98.994 467.558 99.8891 452.511 102.061 436.049Z" fill="#96401F"/>
<path d="M299.769 456.847C290.144 444.547 283.718 430.916 282.428 415.14C285.779 425.033 290.13 434.495 294.578 443.93C296.528 448.064 299.207 451.88 300.234 456.431L299.769 456.847Z" fill="#693C29"/>
<path d="M182.411 219.615C181.544 235.154 181.697 250.721 181.516 266.282C177.36 250.624 179.025 235.099 182.411 219.615Z" fill="#FE9571"/>
<path d="M316.361 439.899C318.596 439.4 320.837 438.907 323.98 438.207C322.065 443.569 323.03 448.376 323.696 453.198C320.712 449.063 318.179 444.679 316.361 439.899Z" fill="#C5E0DD"/>
<path d="M263.858 405.345C267.89 412.629 268.653 421.058 273.226 429.813C267.12 423.93 263.823 414.336 263.962 405.269L263.858 405.345Z" fill="#FE9773"/>
<path d="M312.558 57.0898C312.579 55.7787 312.864 54.641 314.418 54.2733C314.48 55.7509 313.828 56.6389 312.447 56.9858C312.44 56.9858 312.558 57.0898 312.558 57.0898Z" fill="#523A2D"/>
<path d="M300.234 456.424C300.699 456.861 301.247 457.242 301.601 457.763C302.024 458.394 303.01 459.136 301.788 459.837C301.615 459.941 300.782 459.15 300.442 458.644C300.095 458.123 299.984 457.45 299.769 456.847L300.234 456.424Z" fill="#693C29"/>
<path d="M263.962 405.269C263.657 404.977 263.255 404.728 263.074 404.374C262.797 403.812 262.595 402.861 263.227 402.723C263.935 402.563 263.754 403.548 263.851 404.055C263.935 404.471 263.865 404.915 263.858 405.352C263.858 405.345 263.962 405.269 263.962 405.269Z" fill="#FE9773"/>
<path d="M367.185 393.566C365.845 392.102 366.484 390.527 367.032 389.042C367.767 387.058 368.073 385.04 368.149 382.938C368.406 375.744 367.185 373.711 360.828 370.929C364.957 369.403 368.205 370.929 370.168 375.335C371.792 378.983 370.564 383.028 371.397 386.767C374.193 387.114 376.074 385.456 378.274 384.894C386.032 382.917 391.632 386.947 391.944 394.995C392.069 398.165 391.653 401.356 391.479 404.547C408.765 403.555 415.218 407.183 415.67 418.04C414.885 417.998 414.448 417.499 414.129 416.861C409.632 407.884 403.373 405.255 393.714 407.96C391.59 408.557 389.307 411.165 387.378 409.466C385.088 407.454 387.586 404.776 388.12 402.445C388.696 399.948 389.21 397.464 389.106 394.918C388.849 388.883 385.234 386.115 379.349 387.544C376.4 388.259 373.839 389.861 371.466 391.776C370.238 392.775 369.058 394.051 367.185 393.566Z" fill="#37414B"/>
<path d="M376.386 476.014C378.87 473.954 376.434 471.796 376.393 469.674C385.685 470.423 385.685 470.423 386.427 476.576C386.004 476.625 385.581 476.743 385.164 476.708C382.756 476.493 384.054 471.068 380.876 473.038C378.829 474.308 382.513 476.146 382.465 478.269C382.437 479.677 383.089 480.974 381.132 481.377C375.706 482.494 370.293 482.75 364.714 482.279C361.001 481.96 360.772 480.204 361.043 477.464L361.14 477.409C365.269 481.217 370.418 478.956 375.067 479.559C376.303 479.719 376.192 477.402 376.31 476.084L376.386 476.014Z" fill="#1C69C4"/>
<path d="M376.31 476.077C375.456 475.91 374.547 475.48 373.756 475.626C372.583 475.848 371.424 477.437 370.495 475.3C369.745 473.573 370.3 472.088 371.709 471.172C373.541 469.979 374.651 471.311 375.38 472.823C375.859 473.815 376.06 474.939 376.386 476.007C376.386 476.014 376.31 476.077 376.31 476.077Z" fill="#1C69C4"/>
<path d="M347.123 460.732C345.728 456.632 350.391 458.047 351.03 455.14C353.042 461.03 352.889 461.203 347.262 460.85C347.262 460.857 347.123 460.732 347.123 460.732Z" fill="#1C69C4"/>
<path d="M354.111 467.697C354.035 464.894 354.923 462.424 356.574 459.941C358.608 464.596 358.587 464.644 354.166 467.752L354.111 467.697Z" fill="#1C69C4"/>
<path d="M361.092 473.267C356.297 472.393 355.825 472.005 357.359 470.208C358.184 469.244 359.059 467.717 360.689 468.605C363.035 469.875 361.862 471.637 361.078 473.281L361.092 473.267Z" fill="#1C69C4"/>
<path d="M352.633 475.924C352.911 474.807 353.396 473.302 354.715 474.107C357.248 475.647 358.518 477.818 355.971 480.524C353.653 479.899 354.576 477.145 352.862 476.236C352.855 476.236 352.633 475.924 352.633 475.924Z" fill="#1C69C4"/>
<path d="M354.174 467.759C354.097 469.702 353.209 471.11 351.432 471.942L351.294 471.824C351.328 469.833 351.509 467.939 354.111 467.704C354.111 467.697 354.174 467.759 354.174 467.759Z" fill="#1C69C4"/>
<path d="M361.071 473.281C364.229 474.606 362.452 476.007 361.134 477.402L361.044 477.457C359.017 476.035 360.613 474.655 361.092 473.26C361.092 473.267 361.071 473.281 361.071 473.281Z" fill="#1C69C4"/>
<path d="M335.167 454.065C334.848 451.068 337.485 450.076 338.185 448.03C338.567 446.92 340.087 446.892 340.94 447.967C341.516 448.696 341.537 449.778 340.732 450.374C339.025 451.637 337.2 452.733 335.167 454.065Z" fill="#247BE2"/>
<path d="M113.24 32.3032C106.995 32.3725 106.884 32.213 107.273 26.5661C107.529 22.7784 108.563 19.3791 111.533 16.7985C113.49 15.0989 115.343 15.3486 116.863 17.2841C119.923 21.1828 120.416 25.8169 119.236 30.3191C118.382 33.5935 114.795 31.4013 113.24 32.3032Z" fill="white"/>
<path d="M217.684 24.6792C217.503 21.3562 218.995 18.512 220.605 15.7926C222.083 13.2883 224.401 13.3992 225.858 15.9521C227.024 17.9917 227.045 20.3087 226.955 22.598C226.892 24.2074 226.053 25.0746 224.422 25.1509C223.513 25.1925 222.604 25.2896 221.695 25.3104C220.342 25.3382 218.954 25.5879 217.684 24.6792Z" fill="white"/>
<path d="M513.812 507.933C514.867 503.194 517.615 499.219 519.718 494.96C520.231 493.926 521.196 492.962 522.431 493.572C523.583 494.141 523.673 495.557 523.208 496.576C521.112 501.196 518.135 505.144 513.785 507.919C513.785 507.919 513.812 507.933 513.812 507.933Z" fill="white"/>
<path d="M142.941 30.1942C141.9 26.0388 143.135 22.154 144.377 18.283C144.787 16.9996 145.279 15.4873 146.945 15.6191C148.527 15.744 149.013 17.2979 149.387 18.5605C150.442 22.0985 150.164 25.7336 149.915 29.3548C147.59 29.6392 145.265 29.9167 142.941 30.1942Z" fill="white"/>
<path d="M176.541 27.6275C176.77 22.7853 178.748 18.616 181.308 13.8918C184.257 18.6299 185.048 22.8616 183.744 27.454C181.343 27.5165 178.942 27.572 176.541 27.6275Z" fill="white"/>
<path d="M385.29 556.031C386.474 556.021 387.659 556.012 388.843 555.997C406.538 556.398 424.24 555.83 441.943 555.826C445.376 555.826 448.81 555.811 452.243 555.807C462.663 555.129 473.107 555.64 483.542 555.52C484.935 555.506 486.151 555.692 486.007 556.779C441.471 557.48 396.942 558.229 352.406 558.873C271.848 560.036 191.282 560.361 110.716 559.555C76.3114 559.211 41.9226 558.339 7.52586 557.695C5.27703 557.652 3.02819 557.499 0.379211 557.38C1.79574 556.059 3.19626 556.369 4.3807 556.379C102.553 557.457 200.726 557.261 298.906 556.908C325.052 556.813 351.189 556.546 377.335 556.336C379.968 556.317 382.633 556.136 385.29 556.031Z" fill="#44443F"/>
</svg>
