<svg width="72" height="46" viewBox="0 0 72 46" fill="none" xmlns="http://www.w3.org/2000/svg">
<rect width="20" height="46" rx="2" fill="#4680FF" fill-opacity="0.6"/>
<rect x="22" width="50" height="10" rx="2" fill="#4680FF" fill-opacity="0.4"/>
<path d="M22 14C22 12.8954 22.8954 12 24 12H70C71.1046 12 72 12.8954 72 14V44C72 45.1046 71.1046 46 70 46H24C22.8954 46 22 45.1046 22 44V14Z" fill="#4680FF" fill-opacity="0.15"/>
<path d="M32 17C32 15.8954 32.8954 15 34 15H60C61.1046 15 62 15.8954 62 17V41C62 42.1046 61.1046 43 60 43H34C32.8954 43 32 42.1046 32 41V17Z" fill="#4680FF"/>
</svg>
