<svg width="316" height="325" viewBox="0 0 316 325" fill="none" xmlns="http://www.w3.org/2000/svg">
<path d="M86.0364 320.828C132.469 320.828 170.111 307.491 170.111 291.038C170.111 274.585 132.469 261.247 86.0364 261.247C39.6034 261.247 1.96204 274.585 1.96204 291.038C1.96204 307.491 39.6034 320.828 86.0364 320.828Z" fill="#49CFA3"/>
<path d="M27.2735 271.903C27.3757 271.586 27.0587 271.055 26.5985 271.361L26.5883 272.446L27.2735 271.903Z" fill="#72DAB7"/>
<path d="M23.1929 271.433C22.7736 272.139 22.4362 273.213 23.1725 273.918C23.377 272.783 23.6736 273.1 23.8679 271.76C24.3383 271.464 24.8804 271.73 24.9213 272.118C25.0133 271.811 25.7905 272.036 25.8417 271.331C24.911 270.85 24.0315 271.116 23.4077 272.077C23.1418 271.944 23.2236 271.617 23.1929 271.433Z" fill="#72DAB7"/>
<path d="M15.7171 308.976L15.4614 308.71C15.5126 308.812 15.6046 308.904 15.7171 308.976Z" fill="#72DAB7"/>
<path d="M47.6452 319.55C47.3895 319.53 47.2668 319.612 47.2361 319.704C47.4815 319.673 47.6861 319.642 47.6452 319.55Z" fill="#72DAB7"/>
<path d="M53.1369 321.585C53.0245 321.534 52.9222 321.503 52.8097 321.463C52.9324 321.575 53.0551 321.647 53.1369 321.585Z" fill="#72DAB7"/>
<path d="M15.717 308.976L16.3818 309.671C16.5863 309.405 16.075 309.242 15.717 308.976Z" fill="#72DAB7"/>
<path d="M17.6192 276.659C17.7522 276.536 17.8442 276.383 17.9056 276.209C17.7931 276.311 17.6806 276.414 17.5681 276.506C17.5886 276.557 17.5988 276.598 17.6192 276.659Z" fill="#72DAB7"/>
<path d="M3.09721 300.17L2.91313 299.935C2.76995 299.935 2.60632 299.945 2.42224 299.976L3.09721 300.17Z" fill="#72DAB7"/>
<path d="M0.00877722 287.673C-0.0934907 287.97 0.724652 288.266 1.07236 288.45C0.755333 288.215 0.632611 287.96 0.632611 287.694C0.468983 287.653 0.274674 287.632 0.00877722 287.673Z" fill="#72DAB7"/>
<path d="M13.7537 274.798L13.9787 274.532C13.9173 274.614 13.815 274.716 13.7537 274.798Z" fill="#72DAB7"/>
<path d="M9.32532 306.266C9.26396 306.378 9.23328 306.501 9.23328 306.583C9.29464 306.501 9.32532 306.388 9.32532 306.266Z" fill="#72DAB7"/>
<path d="M40.0467 270.267C40.0364 270.206 40.016 270.175 40.0058 270.114C39.9648 270.226 39.9648 270.288 40.0467 270.267Z" fill="#72DAB7"/>
<path d="M26.5166 269.766L26.67 269.664C26.6291 269.5 26.5984 269.347 26.5473 269.193L26.5166 269.766Z" fill="#72DAB7"/>
<path d="M63.4967 323.948C63.4762 323.937 63.466 323.937 63.4558 323.927C63.1694 323.999 63.3228 323.999 63.4967 323.948Z" fill="#72DAB7"/>
<path d="M158.954 310.009C157.593 309.896 160.068 308.239 158.166 308.331C158.483 308.546 157.471 310.274 158.954 310.009Z" fill="#72DAB7"/>
<path d="M17.3124 276.69C17.1897 276.761 17.0568 276.833 16.9238 276.904C17.1181 276.823 17.2409 276.761 17.3124 276.69Z" fill="#72DAB7"/>
<path d="M158.166 308.331L157.972 308.342C158.053 308.342 158.094 308.331 158.166 308.331Z" fill="#72DAB7"/>
<path d="M87.8364 324.49C87.7852 324.336 87.683 324.224 87.5909 324.121C87.5909 324.203 87.6421 324.316 87.8364 324.49Z" fill="#72DAB7"/>
<path d="M69.8168 322.741L70.2565 322.874C70.0827 322.792 69.9395 322.761 69.8168 322.741Z" fill="#72DAB7"/>
<path d="M97.1735 323.017C97.4189 323.068 97.511 323.181 97.828 323.048C97.7973 323.007 97.7666 322.976 97.7257 322.945C97.6132 323.068 97.4598 323.14 97.1735 323.017Z" fill="#72DAB7"/>
<path d="M106.889 322.342C106.828 322.281 106.756 322.24 106.695 322.189C106.603 322.209 106.49 322.24 106.388 322.26L106.889 322.342Z" fill="#72DAB7"/>
<path d="M68.3136 265.583C68.0886 265.358 67.9352 265.103 67.8124 264.847C68.0068 265.45 66.6364 265.788 68.3136 265.583Z" fill="#72DAB7"/>
<path d="M17.3841 276.229C17.4352 276.444 17.4148 276.577 17.3125 276.679C17.4045 276.618 17.4864 276.557 17.5682 276.495C17.5375 276.383 17.4864 276.27 17.3841 276.229Z" fill="#72DAB7"/>
<path d="M97.2349 316.196L98.7382 316.247C98.3189 316.185 97.7769 316.165 97.2349 316.196Z" fill="#72DAB7"/>
<path d="M135.728 270.676L135.37 270.686C135.493 270.738 135.616 270.748 135.728 270.676Z" fill="#72DAB7"/>
<path d="M103.187 315.848C103.473 316.124 103.77 316.278 104.076 316.37C104.138 316.298 104.199 316.237 104.23 316.134L103.187 315.848Z" fill="#72DAB7"/>
<path d="M58.1686 267.895C59.5799 267.741 58.7004 266.708 58.9151 266.033C60.5821 265.502 59.8048 266.759 60.4389 267.271C61.4616 266.851 62.157 265.686 62.9649 265.675C63.0467 265.859 63.2001 265.911 63.0467 266.156C64.0899 265.164 66.3807 265.819 67.6079 264.581C67.7102 264.673 67.7715 264.765 67.8022 264.847C67.5465 264.295 67.4647 263.722 67.4749 263.313C68.1192 263.241 68.6203 262.495 68.9271 263.211C68.5283 263.221 68.5181 263.528 68.3544 263.773L69.009 263.395C69.6942 264.407 68.109 263.845 68.1704 264.632C68.8147 264.407 69.4998 264.029 70.1646 263.753C70.8293 263.497 71.4634 263.313 71.9747 263.436C72.2508 264.469 69.6328 263.906 71.0339 264.765C70.5021 264.653 69.9703 264.55 69.4487 264.469C70.7577 266.003 68.4976 264.438 69.7146 266.095C71.7702 266.248 71.9645 265.44 74.0303 265.624C74.4598 265.021 73.836 264.775 74.2655 264.172C77.1495 262.996 76.6688 266.647 78.7449 265.195C79.2766 264.489 79.4607 263.17 81.005 263.845L80.5141 265.031C82.4981 265.113 81.6186 263.323 83.7253 264.08C83.3571 264.55 82.1606 264.499 82.4674 264.632C83.8276 265.542 83.4185 263.947 84.4514 263.927L84.6764 264.97C86.7831 264.745 89.125 264.1 91.4874 263.927C91.3545 264.233 90.9454 264.55 91.4874 264.878C94.4634 264.356 97.7974 265.266 100.589 266.003L101.735 265.164C101.99 265.185 102.174 265.604 101.888 265.757C102.972 266.197 101.98 265.195 102.543 264.888C103.177 264.878 103.34 265.481 102.921 265.716C104.915 265.144 108.648 264.53 110.601 265.737L110.172 265.952C111.716 266.514 112.186 264.346 113.577 265.358L113.27 265.481C114.978 265.911 116.829 265.962 118.537 266.279C120.245 266.575 121.841 266.974 123.027 267.854C123.385 267.261 124.223 267.516 125.011 267.772C125.809 268.017 126.576 268.201 126.862 267.332C128.631 268.621 128.007 268.815 130.605 269.981C131.311 270.206 131.945 269.122 132.875 269.173L132.671 270.093L134.123 269.449L134.481 270.707L135.371 270.687C135.054 270.543 134.777 270.093 134.89 269.838C136.311 269.766 137.897 271.3 137.794 271.771C138.878 271.811 139.952 271.893 141.036 271.965C140.852 272.302 140.31 272.272 139.84 272.374C141.732 271.965 139.829 273.417 141.558 273.039C141.425 272.773 141.844 272.538 141.936 272.364C142.488 273.151 144.166 273.642 145.444 273.898L144.984 274.419C147.101 275.35 149.627 275.892 151.948 276.996C151.243 276.342 151.907 275.401 152.654 275.626L152.49 276.659C153.196 276.321 151.948 275.964 153.175 275.739C153.994 276.281 153.247 277.048 152.613 277.099L153.799 277.313C153.728 277.61 153.411 277.631 153.175 277.937C153.523 277.774 153.861 278.213 154.229 278.623C154.587 279.052 154.975 279.43 155.538 279.124L155.446 279.42C156.54 280.024 157.287 280.474 158.054 280.831C158.749 281.241 159.485 281.578 160.232 282.171C160.794 281.527 161.275 282.151 162.185 282.008C163.095 283.214 163.699 284.779 164.629 285.986C165.56 286.661 165.407 285.853 166.112 286.016C165.785 286.262 165.898 286.702 165.867 287.029C165.857 287.366 165.816 287.561 165.407 287.356C165.867 288.103 166.041 288.594 166.337 289.115C166.44 289.381 166.562 289.657 166.736 290.005C166.838 290.353 167.043 290.751 167.166 291.304C167.524 291.079 167.626 290.792 167.912 290.936C168.035 291.375 167.524 291.887 167.155 291.784L167.084 291.672C167.237 291.989 167.247 292.316 167.186 292.654C167.166 292.817 167.125 292.991 167.084 293.155C167.022 293.318 166.93 293.482 166.849 293.635C166.675 293.952 166.48 294.249 166.194 294.525C165.918 294.801 165.703 295.067 165.376 295.302C164.251 296.294 162.952 296.969 162.799 298.37C162.809 298.319 162.819 298.268 162.829 298.217C162.451 298.953 162.103 299.741 161.613 300.477C160.641 301.091 161.766 299.598 160.805 299.751C160.232 301.101 159.271 301.684 158.391 302.175C157.46 302.635 156.601 303.034 155.804 303.964C154.474 303.412 153.134 304.149 151.703 305.008C150.977 305.417 150.251 305.867 149.514 306.184C148.768 306.48 148.031 306.654 147.336 306.542L147.673 306.992C147.295 307.728 146.855 306.992 146.375 307.033C146.589 307.401 147.193 307.247 146.937 307.667C144.554 308.965 141.783 309.579 139.011 310.121C137.641 310.418 136.178 310.499 134.788 310.683C133.376 310.837 131.996 311.052 130.605 311.226C128.59 311.502 130.083 314.222 127.271 313.475L127.782 312.33C126.841 312.841 125.839 313.199 124.827 313.486C123.814 313.762 122.761 313.895 121.718 314.058C119.621 314.345 117.566 314.713 115.612 315.429C115.827 315.163 115.786 314.866 116.185 314.815C115.234 314.191 113.035 315.173 113.086 315.766C112.452 315.776 112.872 315.245 112.452 314.989C111.552 314.662 110.417 316.185 109.875 315.521C109.783 315.408 110.09 315.255 110.243 315.173C109.732 315.623 107.625 315.326 108.249 316.134C106.684 315.858 105.365 316.758 104.107 316.37C103.381 317.382 101.469 316.145 101.305 317.484C101.326 316.093 98.5541 316.503 97.6133 317.208C97.9201 316.768 96.7542 316.82 97.1019 316.216C95.9974 316.288 95.0054 316.605 95.2202 317.3C93.1339 315.756 91.1499 318.732 89.9636 316.635C88.3274 317.024 86.7524 317.402 85.2082 317.638C83.6639 317.873 82.1606 318.057 80.6675 318.19C80.8004 316.809 83.9503 318.108 83.8378 316.656C81.0357 317.157 79.3789 318.394 76.5972 317.904C75.8814 317.679 77.0268 317.321 77.2824 317.106C74.4598 317.515 71.8827 316.738 69.3362 317.3C69.3567 317.167 69.6328 317.055 69.8885 316.973C69.3976 316.973 68.7635 316.666 68.7737 317.3L69.2646 317.167C69.9907 318.149 67.1681 318.896 67.0352 319.376C68.017 317.648 64.6012 318.712 66.125 316.554C65.7977 316.646 65.358 316.901 65.3989 317.331C64.9285 317.167 64.8057 316.912 65.3273 316.472C63.5376 316.666 64.1001 317.382 62.5047 317.229C62.5456 316.922 62.8729 316.84 63.0774 316.492C62.2081 317.024 61.3389 317.484 60.0196 317.075C60.1219 316.901 59.9889 316.646 60.398 316.697C58.097 316.492 56.2562 317.812 53.812 316.86C54.7528 315.674 53.0245 316.288 53.0654 315.132L51.6643 315.245L52.1143 315.879C50.9382 315.664 49.7519 316.318 48.7906 315.776L49.7519 315.459L47.4918 315.306L48.6679 315.94C47.3588 316.318 48.5452 317.392 47.0111 316.809C47.3486 316.758 45.8248 316.543 45.3442 315.756C44.6897 315.991 44.0045 316.237 43.1965 315.776C43.0431 315.367 43.6465 314.58 43.5443 314.304C42.7772 315.112 40.7421 313.997 39.7808 314.815C40.0774 314.641 40.2206 314.058 40.1796 313.925L39.5251 314.559C39.0445 314.181 38.9933 314.038 39.1979 313.598C37.6127 313.036 39.3615 315.142 37.5923 314.038C37.7559 314.017 37.715 313.884 38.0627 313.854C36.2219 313.015 34.1867 313.404 32.5505 312.483C32.3664 311.215 34.1458 312.688 33.8288 311.573C32.5607 311.287 31.1698 311.195 29.7995 311.052C28.4291 310.908 27.0587 310.735 25.9235 310.141L26.3223 310.428C25.4326 311.819 24.8088 309.037 23.3668 309.252C23.7043 309.262 24.0827 308.567 23.9395 308.71C22.4464 307.82 20.534 307.748 17.9466 307.022L18.4273 306.797C18.0591 306.398 17.4864 306.051 16.9035 305.713C16.3308 305.366 15.7479 305.018 15.3183 304.67C14.8274 304.875 14.3161 304.507 14.3366 305.212C13.9275 304.251 13.365 303.637 12.7105 303.187C12.0867 302.707 11.3401 302.41 10.6242 302.083C9.22316 301.438 7.73005 300.712 7.51529 298.964C7.75051 299.209 8.31298 299.301 8.13912 299.107C7.51529 298.616 6.871 298.115 6.31876 297.552C5.8381 298.135 6.13467 298.064 6.01195 298.831C5.50061 298.841 4.78474 298.462 4.40635 297.931C5.46993 298.595 5.29608 297.266 5.42903 296.673C5.28585 296.857 4.9995 296.847 4.83587 297C5.27562 295.272 3.42458 297.552 3.38367 295.507L3.76206 295.446C3.51662 295.19 3.25072 294.955 3.02573 294.689C2.80074 294.423 2.57575 294.116 2.53485 293.748C3.24049 293.257 3.10755 294.331 3.77229 294.157C3.57798 293.727 3.10755 293.37 2.73938 292.94C2.34054 292.521 2.14623 292.02 2.52462 291.549C2.77006 291.958 2.8212 292.562 3.15868 292.92C3.34276 292.643 3.47571 292.439 3.55752 292.285C3.65979 292.122 3.72115 291.999 3.75183 291.887C3.81319 291.662 3.78251 291.478 3.83365 291.161L3.82342 291.201C3.9666 290.7 4.15068 290.23 4.35521 289.78C4.23249 289.882 4.15068 289.995 4.05864 290.107C3.52684 289.78 3.33254 289.432 3.23027 289.095C3.14845 288.757 3.14845 288.42 3.2814 288.103C3.3939 287.775 3.51662 287.448 3.57798 287.07C3.68025 286.702 3.71093 286.282 3.5882 285.73C4.06886 287.806 4.17113 286.303 4.93814 286.835C5.14268 286.712 5.36767 286.558 5.56197 286.466C5.77674 286.385 5.95059 286.364 6.02218 286.497C5.879 286.016 6.17558 285.822 6.43125 285.597C6.67669 285.362 6.9835 285.127 6.86078 284.37C7.11645 284.513 7.37212 283.756 7.84255 284.38C8.31298 283.521 7.2903 284.206 7.05509 283.91C7.18803 283.02 8.0164 282.498 8.94704 282.028C9.39702 281.772 9.85723 281.517 10.2867 281.179C10.7163 280.842 11.0333 280.371 11.3094 279.768C12.5775 278.132 12.373 277.088 13.7741 275.626C14.1832 275.667 14.2036 275.974 14.1218 276.26C14.04 276.546 13.8764 276.833 13.8764 276.833C15.0013 276.669 15.6354 276.24 16.3206 275.452C16.2694 275.779 16.5558 275.872 16.9751 276.035C17.6296 275.616 16.9444 274.828 18.0693 274.747C18.0591 275.125 18.1 275.708 17.9159 276.168C18.6011 275.503 19.1636 274.593 19.9408 273.959C20.3908 274.327 19.7465 274.92 19.5931 275.36C20.4624 274.706 21.9044 273.775 21.9146 272.906H21.1476C21.5055 272.722 21.618 273.478 21.4135 273.734C20.8408 274.706 20.084 274.031 19.9102 273.775L20.4624 273.315C19.7772 272.66 19.1636 273.018 18.5704 273.601C17.9773 274.194 17.4455 275.023 16.8012 275.289L16.7296 273.888C16.4637 274.43 16.1876 274.941 15.9524 275.483C15.5331 275.34 15.0013 274.818 15.5126 274.307C14.3161 274.256 14.9502 275.145 13.8457 274.961C13.7025 274.91 13.7127 274.839 13.7639 274.747C13.5389 275.023 13.3037 275.289 13.0991 275.575C13.1298 275.248 12.4855 274.89 13.1093 274.726C11.1663 275.064 11.1663 277.078 10.0822 276.7L10.164 276.546C8.38457 278.377 10.4708 277.426 9.71405 279.43C8.92659 279.083 8.10844 278.755 7.26985 278.449L7.68915 279.318C7.47438 279.471 7.05508 279.768 6.871 279.43C6.60511 280.566 7.26985 279.615 7.26985 280.443C6.51307 280.535 5.9915 281.241 5.52107 281.803C5.01995 282.345 4.64156 282.826 3.94614 282.478C4.24272 283.265 5.10177 281.864 4.6927 283.214C3.94614 282.887 3.72115 283.225 3.61888 283.746C3.51662 284.268 3.4348 284.871 2.85188 285.219C2.25872 284.503 3.29163 283.736 1.99283 284.411C2.43258 285.086 2.12577 285.556 1.65534 286.037C1.21559 286.528 0.663344 287.101 0.622437 287.653C1.15423 287.827 1.15423 288.41 1.02128 289.166C0.939467 289.545 0.939467 289.984 0.908787 290.434C0.867879 290.884 0.92924 291.345 1.05196 291.774C0.867879 291.733 0.714478 292.562 0.816745 293.625C0.816745 294.167 0.939467 294.74 1.04173 295.292C1.12355 295.865 1.27695 296.366 1.35877 296.785L1.16446 296.816C1.75761 296.724 2.136 297.092 2.5553 297.532C2.9746 297.972 3.31208 298.595 3.77229 298.974C3.22004 299.383 2.84165 299.393 2.2485 298.974C2.45303 299.322 2.67802 299.628 2.92346 299.925C3.38367 299.925 3.74161 300.099 4.29385 300.579L3.46548 300.896C3.97682 301.469 4.68247 301.868 5.35744 302.328C6.07331 302.737 6.70737 303.29 7.25962 304.087C7.82209 303.535 7.59711 301.541 9.36634 302.308C9.15158 302.676 8.7425 303.29 8.25162 303.105C8.41525 303.167 8.92659 303.197 9.06976 303.545L8.02663 303.617C8.47661 304.394 8.74251 303.433 9.21294 303.893C8.82432 304.363 9.33566 304.537 8.96749 304.864C8.79364 304.813 8.66069 304.302 8.31298 304.322C8.82432 304.905 9.37656 305.703 9.35611 306.266C9.49929 305.948 9.83677 305.601 10.3277 305.856C11.5242 306.634 10.3277 306.736 10.8594 307.462C11.381 307.298 11.9333 308.157 12.4241 307.401C12.7719 307.636 12.6287 308.025 12.6389 308.321C13.4877 308.352 15.7172 309.916 15.4411 308.659L15.3081 308.515C15.349 308.515 15.3899 308.536 15.4308 308.536C15.4206 308.536 15.4308 308.536 15.4206 308.536H15.4308C16.7092 308.669 17.7114 309.374 18.7648 310.039C19.2863 310.387 19.7977 310.745 20.3192 311.052C20.851 311.338 21.4033 311.583 21.9862 311.716L21.8635 311.993C23.285 312.238 24.8599 312.923 26.0155 312.667C26.3939 312.821 26.7519 313.496 26.4655 313.792C27.5598 313.905 27.7848 313.619 29.0938 314.57C27.8973 314.744 29.3086 315.132 27.9177 314.6C29.1654 315.275 29.329 315.838 31.0062 315.5C30.2903 316.083 31.7323 316.768 32.438 316.728C32.1721 316.472 31.9164 316.175 31.6505 315.909C32.3868 316.042 33.0004 316.257 33.6243 316.492L33.0004 317.382C34.2277 318.343 35.6287 318.159 36.8968 318.057C38.1752 317.945 39.3104 317.945 40.149 319.151C41.0489 318.609 38.7377 318.343 39.5967 317.668C40.8444 318.067 41.8671 319.785 42.2761 319.867C43.9329 320.788 44.2295 318.752 45.9885 319.519C45.8248 319.11 45.7839 318.129 47.2157 318.047C48.4736 318.394 48.5247 319.806 47.6554 319.959C47.3384 319.939 47.2157 319.796 47.2464 319.683C46.8066 319.744 46.2237 319.806 46.6634 320.276L46.8986 319.949C47.4713 320.419 49.261 320.675 48.7497 321.197C49.7928 321.013 49.2713 320.675 48.5758 320.368C50.1508 321.166 51.1734 320.808 52.8302 321.442C52.5847 321.197 52.4007 320.736 52.6665 320.788C55.1108 321.647 53.8733 320.276 55.5914 320.348C56.4811 321.013 55.0698 321.616 56.8391 321.37C57.8413 321.872 56.9413 322.352 56.4811 322.598C58.1379 322.097 59.3651 323.416 60.2548 323.661L59.3855 323.845C59.9071 323.733 60.306 323.784 60.7253 323.845L60.3264 323.068C60.7968 323.252 61.2161 323.303 61.165 323.61C61.7173 323.201 60.9093 322.362 61.9729 321.831C62.5865 322.25 63.9774 321.606 64.1103 322.587C62.1059 322.086 64.2433 323.569 62.4945 323.579C62.8422 323.498 63.2513 323.539 63.7217 323.702C63.7831 323.815 63.6297 323.896 63.4967 323.937C65.3784 324.97 64.4989 322.925 66.5238 323.129C66.217 323.651 66.9125 324.203 67.2499 324.111C66.4318 324.029 66.9329 323.17 67.7102 322.823C68.9783 323.354 69.1419 322.628 69.8169 322.741L69.0601 322.475C69.3567 321.953 70.0009 322.086 70.9111 321.953C70.9623 322.383 70.0725 322.199 70.3793 322.403C71.4429 321.503 72.5883 323.508 74.0201 322.935C74.6541 323.334 74.0303 323.958 74.5928 324.244C76.1984 323.62 76.27 325.083 77.9472 324.571C77.4972 323.815 77.4051 324.009 78.5915 323.314C77.6813 323.487 76.7711 323.579 75.8609 323.712L77.6404 322.741C76.8222 322.69 75.9018 323.109 75.4109 322.966C76.2597 322.414 76.1677 322.587 75.8098 321.964C76.8836 323.119 78.0392 321.452 79.3073 322.199L79.2153 324.009C81.1481 324.848 82.7026 323.14 85.2184 323.641L84.4105 323.314C84.7582 322.587 85.965 323.262 86.7831 322.935C86.7115 323.539 87.2229 323.753 87.5706 324.121C87.5194 323.672 89.4318 324.132 89.6364 322.915L90.7818 323.692C92.8374 323.968 93.0624 321.953 95.0259 322.066C94.4634 322.751 95.3634 323.14 94.0748 323.672C94.7293 323.651 95.3225 323.723 95.3225 323.314C95.7213 323.672 97.1019 322.403 97.7258 322.945C97.9917 322.669 98.0428 322.025 98.7791 322.035C98.8609 322.158 98.7894 322.332 98.7894 322.332C98.7791 322.035 99.9143 321.872 99.2393 321.227C100.293 322.107 101.704 322.045 103.064 321.841C104.424 321.657 105.754 321.442 106.695 322.168C108.096 321.831 109.793 321.534 111.072 321.309C111.01 321.503 111.102 321.606 110.847 321.575C112.688 321.912 111.736 319.714 113.823 320.092C114.968 320.941 112.821 320.747 113.506 321.043C114.027 322.986 115.909 320.471 117.423 321.452L117.106 321.606C118.251 322.168 119.54 320.471 121.247 320.348C121.247 320.348 121.196 320.532 121.288 320.644C122.28 319.438 124.407 318.793 125.962 318.19C125.604 319.059 125.307 318.752 125.757 319.458C126.463 319.192 125.318 318.251 126.708 317.73C127.261 318.047 128.365 318.2 128.682 318.998L127.322 319.325C128.243 320.256 129.081 318.916 129.838 318.957L129.848 319.448C131.914 318.824 131.689 317.74 133.929 317.229L133.612 316.932C134.532 315.459 134.788 317.321 135.78 316.145L136.455 317.218C137.181 316.707 138.97 315.408 140.3 314.713C139.768 315.858 138.203 316.707 137.293 317.505C138.091 317.29 139.993 316.738 140.228 316.001C139.942 316.216 139.625 316.625 139.257 316.523C139.973 315.357 141.077 314.467 142.642 313.997C143.092 316.318 146.886 313.281 148.635 314.508C151.069 312.647 154.239 312.688 157.327 310.908C155.384 309.845 158.217 310.397 157.133 308.843C157.767 308.342 158.054 308.219 158.176 308.29C159.066 308.219 159.966 308.137 160.856 307.994C161.653 308.137 160.416 308.771 160.692 309.088C162.318 308.229 161.766 309.354 163.085 309.098C162.502 308.689 163.085 307.943 164.108 307.513L162.39 307.677C163.157 306.521 163.821 306.521 164.527 306.501C165.212 306.46 165.928 306.388 166.644 305.151L166.368 306.143C166.808 305.591 167.769 304.68 168.608 303.658C169.006 303.116 169.385 302.543 169.63 301.991C169.855 301.408 169.968 300.835 169.876 300.334C170.203 300.262 170.827 300.283 170.551 300.876C171.154 300.232 171.573 299.311 171.962 298.432C172.289 297.47 172.576 296.509 172.709 295.507C172.913 294.546 172.913 293.543 173.036 292.664C173.066 291.764 173.21 290.946 173.353 290.189L173.834 290.465C173.639 289.719 172.934 289.289 173.189 288.358C173.384 288.369 173.701 288.563 173.66 288.225C173.537 288.052 173.261 287.612 172.985 287.131C172.678 286.661 172.402 286.139 172.371 285.659L173.118 286.241C172.811 284.35 171.788 283.245 170.765 282.437C170.264 281.997 169.692 281.711 169.17 281.353C168.649 280.985 168.117 280.668 167.605 280.238C168.649 279.318 167.125 277.15 166.266 276.189L166.419 276.066C163.566 273.509 160.682 273.253 157.624 272.169C157.082 271.075 155.62 270.114 153.963 269.306C153.135 268.876 152.255 268.488 151.416 268.079C150.578 267.67 149.78 267.23 149.105 266.77C149.473 267.169 148.655 267.721 148.082 267.659C147.479 267.138 145.843 267.823 146.364 266.708L146.61 266.811C146.487 265.491 144.902 265.328 143.777 264.929L143.092 266.412C141.977 264.816 139.952 264.356 138.081 264.172C136.219 263.937 134.542 263.794 133.969 262.556C133.151 262.74 132.241 262.566 131.433 262.812L131.658 261.973C129.674 261.329 128.682 261.012 126.126 260.685L126.749 260.184C125.338 259.826 124.499 262.331 123.201 262.157L123.027 260.818C120.562 260.439 118.2 258.854 115.582 259.754C115.643 259.57 115.766 259.212 116.175 259.202C115.009 259.028 111.736 257.77 111.961 259.59C112.013 259.018 111.368 258.905 110.55 258.987C109.722 259.079 108.709 259.396 108.024 259.59L108.311 258.762C107.073 259.754 107.012 260.051 105.416 260.214C105.048 260.071 105.14 259.509 105.621 259.764C104.414 259.212 104.588 260.49 103.115 259.907L103.719 259.406C102.44 259.233 102.522 259.519 101.776 260.122C100.947 260.419 99.3621 259.785 99.2087 258.997C99.0041 259.458 98.278 260.051 97.5315 259.795C97.4394 259.498 97.7258 259.335 97.8689 259.253C95.7418 258.578 94.6373 260.051 93.1953 259.202C93.1749 258.915 93.0828 258.772 92.9601 258.691C94.668 258.721 96.0384 258.885 95.9156 258.926C95.9463 258.138 94.5657 257.934 95.7111 256.901C94.5657 257.412 92.6328 258.691 91.2931 258.292C91.2318 258.21 91.1704 258.138 91.1193 258.016L91.2624 257.934C90.9556 257.852 90.6693 257.923 90.4034 258.046C89.9739 257.913 89.6977 257.811 89.2887 257.791C89.1353 257.136 87.7035 257.412 87.0081 257.371C87.0592 258.23 86.1593 258.077 86.9979 258.803C86.8854 258.742 87.1308 258.701 87.591 258.67C87.6933 258.65 87.816 258.639 87.8876 258.588C87.8774 258.609 87.8569 258.639 87.8365 258.66C88.2864 258.639 88.8796 258.629 89.5443 258.629C88.9921 259.059 88.4194 259.417 87.6626 258.926C87.3047 259.478 86.9161 260.04 86.7013 260.306C85.7707 259.079 83.9503 258.486 83.6844 257.739C81.5777 258.271 78.7142 258.128 77.4563 259.805C76.8734 260.04 76.7506 259.376 76.5256 259.13C76.8325 258.987 77.2415 258.997 77.4154 258.752C76.2393 259.233 73.8769 259.089 73.6621 260.235C72.1384 259.805 74.4496 259.151 72.394 259.437L72.6497 259.079C71.6066 258.68 70.6759 258.68 69.8066 258.875C68.9374 259.1 68.1192 259.519 67.3011 259.918C65.6443 260.726 63.9672 261.452 61.6048 260.511C61.932 260.613 62.0956 260.664 62.1775 260.848C59.5696 260.634 56.9618 261.217 54.3744 261.697C51.787 262.27 49.2201 262.802 46.5714 262.413C45.0885 262.382 45.0681 263.129 44.3215 263.845L43.8306 262.996L42.5727 264.356C41.6114 264.96 40.5887 264.591 39.5047 264.325C38.4309 264.09 37.2855 263.998 36.1503 265.052L36.6412 265.563C35.6696 265.696 33.7674 266.688 33.7265 265.962C33.6652 266.095 33.5936 266.667 33.1334 266.453L32.9698 265.992C32.2743 266.442 31.5994 266.995 30.9244 267.486C29.0529 267.721 30.6381 265.553 27.9995 266.299C27.0791 266.79 25.7087 268.518 26.1792 268.703C26.578 268.6 27.2632 268.672 27.4473 269.122L26.6598 269.643C26.9666 271.044 26.8337 272.619 29.2165 272.906L30.3824 271.617L31.0574 272.128L29.8608 272.558C30.7505 272.957 30.996 272.272 31.3642 271.74C31.5891 272.057 31.8653 272.241 32.1925 272.272L33.205 270.513C33.5322 270.993 32.8879 271.781 33.9208 271.771C34.4117 270.963 32.9289 270.748 33.9208 270.032C34.8106 270.472 34.739 271.034 35.414 270.288C35.6287 270.615 35.5162 270.881 35.2299 271.126C35.8435 270.513 37.1116 270.441 37.3059 269.613C38.2366 270.196 39.7399 268.764 39.9853 270.093C40.1285 269.705 41.0387 268.743 41.7137 268.559C40.8239 270.4 44.301 268.12 44.3215 269.879C44.9453 268.283 47.502 268.498 49.0156 267.475C48.944 267.608 48.8008 267.864 48.6474 267.813C49.5985 267.782 49.9462 268.171 50.5905 268.345C50.5087 267.138 51.92 266.626 52.5847 265.767C53.904 266.729 52.1041 267.281 52.6359 268.314C52.4211 267.363 54.4665 267.025 53.9551 266.289C54.9369 266.851 54.763 266.504 55.3562 267.434C55.3051 265.931 56.1334 267.076 56.747 266.074C58.1174 266.647 57.2584 267.434 58.5981 266.8C59.3446 267.22 58.1686 267.895 58.1686 267.895ZM91.4977 263.64C91.4977 263.65 91.4977 263.661 91.4977 263.661C91.2113 263.681 90.9556 263.691 90.8022 263.702C90.9454 263.681 91.1397 263.671 91.4977 263.64ZM94.3305 263.681C93.9828 263.62 93.5532 263.62 93.1033 263.62C93.0112 263.323 93.1339 263.016 93.4101 263.037C93.2464 263.241 93.9112 263.405 94.3305 263.681ZM88.3887 257.596C88.8489 257.484 89.0023 257.658 89.0637 257.831C88.8489 257.842 88.5933 257.872 88.2558 257.923C88.2455 257.954 88.2149 257.995 88.2046 258.026C88.2455 257.862 88.2967 257.709 88.3887 257.596Z" fill="#72DAB7"/>
<path d="M87.5603 258.711C87.4989 258.731 87.458 258.762 87.3762 258.772C87.4683 258.854 87.5603 258.916 87.6523 258.967C87.7035 258.875 87.7648 258.783 87.816 258.701C87.7239 258.711 87.6319 258.711 87.5603 258.711Z" fill="#72DAB7"/>
<path d="M15.4103 308.669L15.4513 308.71C15.4206 308.659 15.4001 308.607 15.3899 308.546C15.4206 308.597 15.4103 308.628 15.4103 308.669Z" fill="#72DAB7"/>
<path d="M132.619 270.308L132.66 270.093L132.384 270.216L132.619 270.308Z" fill="#72DAB7"/>
<path d="M5.43921 296.673C5.49034 296.611 5.53125 296.519 5.53125 296.397C5.49034 296.438 5.45966 296.55 5.43921 296.673Z" fill="#72DAB7"/>
<path d="M3.84375 291.14C3.93579 290.874 4.07897 290.619 4.19146 290.373C4.00738 290.69 3.87443 290.946 3.84375 291.14Z" fill="#72DAB7"/>
<path d="M5.22441 287.09C5.11191 286.968 5.01987 286.906 4.92783 286.845L4.9176 286.855L5.22441 287.09Z" fill="#72DAB7"/>
<path d="M69.8578 316.953C69.9294 316.953 70.001 316.953 70.0623 316.932C70.5328 316.799 70.2157 316.85 69.8578 316.953Z" fill="#72DAB7"/>
<path d="M45.3237 315.766C45.6101 315.664 45.8862 315.572 46.1726 315.531C45.7635 315.367 45.4362 315.286 45.3237 315.766Z" fill="#72DAB7"/>
<path d="M97.0712 316.185C97.0712 316.196 97.0712 316.196 97.0712 316.196C97.1325 316.196 97.1837 316.185 97.2348 316.185H97.0712Z" fill="#72DAB7"/>
<path d="M47.2872 315.766C46.8884 315.511 46.5304 315.47 46.1725 315.521C46.5202 315.654 46.9088 315.828 47.2872 315.766Z" fill="#72DAB7"/>
<path d="M21.6998 274.798L21.935 274.726C21.9044 274.675 21.9044 274.624 21.9044 274.583L21.6998 274.798Z" fill="#72DAB7"/>
<path d="M21.9043 274.583L22.1191 274.389C21.9963 274.44 21.9043 274.481 21.9043 274.583Z" fill="#72DAB7"/>
<path d="M22.5588 273.969L22.119 274.389C22.3031 274.317 22.5383 274.245 22.5588 273.969Z" fill="#72DAB7"/>
<path d="M15.5637 277.426L15.6558 277.733C15.666 277.651 15.6353 277.549 15.5637 277.426Z" fill="#72DAB7"/>
<path d="M13.8969 278.541C14.3366 278.346 15.2366 278.459 15.7274 277.978L15.6559 277.733C15.615 278.275 13.9991 277.835 13.8969 278.541Z" fill="#72DAB7"/>
<path d="M4.74377 281.108C5.23466 280.709 5.69487 280.279 6.21643 279.932C5.746 279.911 5.11194 279.901 5.68464 279.246C3.27112 280.259 6.52324 279.389 4.74377 281.108Z" fill="#72DAB7"/>
<path d="M1.06212 285.904C1.38938 284.861 0.612142 285.72 0.45874 285.607C0.479194 286.395 0.509874 286.559 1.06212 285.904Z" fill="#72DAB7"/>
<path d="M26.7314 314.222L26.3837 314.938C27.1302 315.05 26.4859 314.652 26.7314 314.222Z" fill="#72DAB7"/>
<path d="M35.1582 312.565L34.6059 311.921L34.0946 312.524L35.1582 312.565Z" fill="#72DAB7"/>
<path d="M38.1036 319.11L37.7559 319.141L39.0342 319.172L38.1036 319.11Z" fill="#72DAB7"/>
<path d="M105.222 323.252L104.925 322.311C104.445 322.526 104.424 323.62 105.222 323.252Z" fill="#72DAB7"/>
<path d="M133.806 317.852C134.225 318.241 135.105 318.333 135.473 317.75C134.818 317.842 134.102 317.648 133.806 317.852Z" fill="#72DAB7"/>
<path d="M142.008 264.847L142.672 264.724L141.517 264.642L142.008 264.847Z" fill="#72DAB7"/>
<path d="M86.0365 305.266C109.764 305.266 128.999 298.448 128.999 290.038C128.999 281.628 109.764 274.81 86.0365 274.81C62.3088 274.81 43.0737 281.628 43.0737 290.038C43.0737 298.448 62.3088 305.266 86.0365 305.266Z" fill="#2CA87F"/>
<path d="M56.3379 201.202C56.3481 200.916 56.0924 200.373 55.8777 200.578L56.0413 201.601L56.3379 201.202Z" fill="#72DAB7"/>
<path d="M53.955 200.087C53.8323 200.67 53.8221 201.611 54.3743 202.388C54.2925 201.365 54.5073 201.713 54.405 200.506C54.6198 200.302 54.9777 200.639 55.0595 201.008C55.0595 200.731 55.53 201.069 55.4482 200.425C54.8448 199.811 54.3846 199.934 54.1903 200.721C54.0062 200.558 54.0062 200.271 53.955 200.087Z" fill="#72DAB7"/>
<path d="M49.7825 219.825L49.67 219.631C49.6905 219.712 49.7212 219.774 49.7825 219.825Z" fill="#72DAB7"/>
<path d="M66.2475 225.562C66.1146 225.562 66.043 225.654 66.0123 225.746C66.1453 225.695 66.2578 225.654 66.2475 225.562Z" fill="#72DAB7"/>
<path d="M69.0088 227.147C68.9475 227.106 68.8963 227.086 68.8452 227.055C68.8963 227.157 68.9475 227.219 69.0088 227.147Z" fill="#72DAB7"/>
<path d="M49.7825 219.825L50.0586 220.326C50.2427 220.04 49.9563 219.999 49.7825 219.825Z" fill="#72DAB7"/>
<path d="M51.6643 203.82C51.7154 203.738 51.7359 203.615 51.7461 203.482C51.7052 203.554 51.654 203.615 51.6029 203.677C51.6234 203.728 51.6438 203.769 51.6643 203.82Z" fill="#72DAB7"/>
<path d="M42.7772 215.366L42.6749 215.233C42.5522 215.264 42.409 215.305 42.2556 215.356L42.7772 215.366Z" fill="#72DAB7"/>
<path d="M40.9363 208.023C40.8545 208.197 41.6829 208.453 42.0408 208.596C41.7135 208.432 41.5704 208.269 41.5397 208.105C41.3863 208.054 41.192 208.023 40.9363 208.023Z" fill="#72DAB7"/>
<path d="M48.8826 201.365L48.9644 201.181C48.9542 201.233 48.903 201.304 48.8826 201.365Z" fill="#72DAB7"/>
<path d="M46.1417 218.792C46.0804 218.904 46.0292 219.007 46.0088 219.078C46.0804 218.986 46.1213 218.894 46.1417 218.792Z" fill="#72DAB7"/>
<path d="M62.9955 201.355C62.9853 201.294 62.9751 201.253 62.9546 201.202C62.9444 201.294 62.9546 201.355 62.9955 201.355Z" fill="#72DAB7"/>
<path d="M55.581 199.064L55.6526 198.993C55.6117 198.84 55.5605 198.686 55.5094 198.533L55.581 199.064Z" fill="#72DAB7"/>
<path d="M74.3268 228.906C74.3165 228.896 74.3165 228.896 74.3063 228.886C74.1427 228.968 74.2347 228.957 74.3268 228.906Z" fill="#72DAB7"/>
<path d="M124.162 221.257C123.262 220.878 124.53 219.907 123.313 219.61C123.559 219.856 123.242 221.195 124.162 221.257Z" fill="#72DAB7"/>
<path d="M51.4904 203.789C51.429 203.83 51.3676 203.871 51.3063 203.891C51.3983 203.871 51.4597 203.84 51.4904 203.789Z" fill="#72DAB7"/>
<path d="M123.313 219.61L123.19 219.579C123.242 219.59 123.272 219.6 123.313 219.61Z" fill="#72DAB7"/>
<path d="M86.9671 228.937C86.9364 228.784 86.8852 228.671 86.8341 228.559C86.8443 228.651 86.875 228.753 86.9671 228.937Z" fill="#72DAB7"/>
<path d="M77.6709 227.444L77.8959 227.566C77.8038 227.485 77.7323 227.454 77.6709 227.444Z" fill="#72DAB7"/>
<path d="M91.7839 227.587C91.9169 227.648 91.9578 227.761 92.1214 227.638C92.101 227.597 92.0907 227.567 92.0601 227.536C92.0089 227.659 91.9373 227.71 91.7839 227.587Z" fill="#72DAB7"/>
<path d="M96.8053 227.239C96.7746 227.178 96.7337 227.127 96.6928 227.076C96.6417 227.096 96.5906 227.116 96.5394 227.137L96.8053 227.239Z" fill="#72DAB7"/>
<path d="M77.1186 198.809C76.9959 198.574 76.9141 198.318 76.8425 198.052C76.955 198.655 76.28 198.931 77.1186 198.809Z" fill="#72DAB7"/>
<path d="M51.4392 203.39C51.521 203.595 51.5312 203.707 51.4903 203.779C51.5312 203.748 51.5722 203.707 51.6028 203.667C51.5517 203.554 51.5006 203.452 51.4392 203.39Z" fill="#72DAB7"/>
<path d="M91.6611 220.776L92.4179 220.868C92.2032 220.796 91.927 220.766 91.6611 220.776Z" fill="#72DAB7"/>
<path d="M110.98 201.294L110.785 201.355C110.847 201.386 110.918 201.376 110.98 201.294Z" fill="#72DAB7"/>
<path d="M94.6473 220.602C94.8007 220.899 94.9644 221.062 95.1178 221.165C95.1485 221.093 95.1791 221.032 95.1894 220.94L94.6473 220.602Z" fill="#72DAB7"/>
<path d="M72.0974 280.588C72.803 280.527 72.2917 279.443 72.3633 278.778C73.1814 278.349 72.8542 279.555 73.2121 280.097C73.703 279.739 73.9996 278.635 74.4086 278.655C74.4598 278.839 74.5416 278.901 74.47 279.136C74.9506 278.195 76.1472 278.952 76.7097 277.766C76.771 277.858 76.8017 277.95 76.8222 278.042C76.6688 277.49 76.6074 276.907 76.5972 276.498C76.9244 276.446 77.1596 275.731 77.3335 276.457C77.129 276.457 77.1392 276.753 77.0574 276.988L77.3744 276.641C77.763 277.674 76.9346 277.05 76.996 277.837C77.6301 277.428 78.3562 276.498 78.888 276.774C79.0618 277.807 77.7119 277.183 78.4584 278.072C78.1823 277.95 77.9164 277.837 77.6403 277.725C78.3562 279.31 77.1596 277.653 77.8346 279.361C78.8777 279.586 78.9493 278.768 79.9925 279.013C80.197 278.42 79.8697 278.164 80.0743 277.571C81.506 276.457 81.3424 280.118 82.3548 278.696C82.6105 278.001 82.6821 276.682 83.4798 277.367L83.2446 278.553C84.2468 278.655 83.7866 276.845 84.8502 277.622C84.6661 278.093 84.0627 278.021 84.2161 278.164C84.9115 279.085 84.6866 277.49 85.2183 277.479L85.3308 278.522C86.3944 278.328 87.5807 277.633 88.7773 277.449C88.7057 277.755 88.4909 278.083 88.767 278.4C90.2704 277.878 91.9476 278.666 93.3282 279.341L93.9316 278.471C94.0543 278.492 94.1361 278.901 93.9929 279.054C94.5247 279.443 94.0645 278.482 94.3509 278.154C94.6781 278.124 94.7292 278.707 94.5145 278.962C95.5372 278.297 97.47 277.551 98.4109 278.635L98.1859 278.88C98.9427 279.341 99.3006 277.162 99.9551 278.083L99.7915 278.226C101.489 278.799 103.545 278.318 104.629 279.872C105.12 278.625 106.214 280.752 106.674 279.013C107.472 280.097 107.134 280.353 108.362 281.222C108.709 281.376 109.159 280.241 109.65 280.179L109.435 281.1L110.274 280.292L110.315 281.468L110.785 281.345C110.632 281.253 110.54 280.844 110.632 280.588C111.399 280.343 112.053 281.642 111.931 282.102L113.649 281.805C113.495 282.153 113.209 282.204 112.943 282.368C114.027 281.703 112.79 283.36 113.772 282.756C113.741 282.521 113.997 282.235 114.078 282.061C114.262 282.726 115.091 282.971 115.756 282.981L115.428 283.554C116.43 284.086 117.75 284.127 118.864 284.658C118.588 284.198 119.151 283.217 119.55 283.278L119.243 284.239C119.724 283.789 119.059 283.728 119.836 283.268C120.214 283.585 119.611 284.423 119.233 284.597L119.887 284.536C119.775 284.812 119.591 284.894 119.386 285.221C119.897 284.771 119.724 286.53 120.521 285.743L120.398 286.019C121.38 286.602 121.973 286.602 122.689 287.092C123.242 286.428 123.385 286.786 124.049 286.438C124.366 287.103 124.346 288.044 124.724 288.473C125.297 288.586 125.399 288.177 125.941 288.074C125.328 288.534 125.614 288.964 124.99 288.974C125.185 289.209 125.256 289.342 125.42 289.486C125.481 289.557 125.563 289.629 125.686 289.721C125.768 289.813 125.931 289.925 126.074 290.109C126.412 290.048 126.535 289.925 126.811 289.987C126.933 290.161 126.453 290.345 126.085 290.273L126.003 290.232C126.565 290.713 125.808 291.204 125.103 291.357C124.407 291.562 123.712 291.602 123.998 292.523L123.978 292.431C123.927 292.86 123.886 293.331 123.763 293.781C123.272 294.006 123.62 293.136 123.017 293.004C122.996 293.883 122.515 294.149 122.086 294.333C121.615 294.507 121.176 294.619 120.91 295.264C119.979 294.476 119.366 294.834 118.711 295.315C118.057 295.785 117.361 296.358 116.533 295.888L116.799 296.368C116.717 296.982 116.338 296.225 116.083 296.184C116.267 296.573 116.574 296.522 116.502 296.869C115.398 297.667 113.976 297.882 112.565 297.974C111.133 298.045 109.65 297.902 108.27 297.994C107.257 298.056 108.31 300.868 106.766 299.866L106.92 298.802C106.04 299.61 104.997 299.815 103.944 299.937C102.89 300.06 101.868 300.224 100.916 300.837C101.008 300.592 100.968 300.285 101.162 300.265C100.64 299.59 99.5768 300.428 99.6483 301.021C99.3211 300.991 99.5052 300.49 99.2802 300.213C98.8097 299.835 98.3086 301.277 98.0018 300.582C97.9507 300.469 98.0939 300.326 98.1654 300.265C97.9302 300.663 96.8564 300.295 97.2041 301.124C96.3962 300.786 95.7724 301.625 95.1179 301.175C94.7906 302.157 93.7782 300.837 93.7373 302.177C93.6964 300.786 92.326 301.124 91.8658 301.809C92.0089 301.379 91.426 301.4 91.5794 300.807C91.0272 300.858 90.5363 301.134 90.659 301.85C89.5852 300.254 88.6239 303.23 88 301.124C86.3637 301.921 84.8195 302.392 83.3059 302.688C83.3877 301.308 84.9627 302.576 84.9115 301.124C83.5002 301.655 82.6412 302.872 81.2503 302.463C80.8924 302.259 81.4856 301.87 81.6083 301.645C80.1765 302.136 78.888 301.4 77.5892 302.054C77.5994 301.921 77.7426 301.799 77.8857 301.707C77.6403 301.727 77.3233 301.451 77.313 302.085L77.5687 301.932C77.9062 302.872 76.4335 303.752 76.3415 304.222C76.9142 302.463 75.1245 303.66 75.9938 301.451C75.8199 301.553 75.5949 301.829 75.5847 302.259C75.3495 302.116 75.2984 301.86 75.5847 301.41C74.6745 301.676 74.92 302.371 74.112 302.279C74.1427 301.972 74.3166 301.87 74.4393 301.522C73.9689 302.085 73.4984 302.607 72.8439 302.269C72.9053 302.095 72.8542 301.85 73.0587 301.87C71.8928 301.809 70.8702 303.21 69.6634 302.443C70.2361 301.195 69.2952 301.942 69.3975 300.796L68.6714 301.021L68.8555 301.615C68.2623 301.502 67.5976 302.228 67.1374 301.778L67.659 301.39L66.5033 301.42L67.0658 301.952C66.3499 302.433 66.8715 303.394 66.1249 302.944C66.309 302.862 65.5215 302.801 65.3375 302.075C64.9693 302.371 64.5807 302.678 64.2023 302.31C64.1614 301.932 64.5602 301.093 64.5295 300.837C64.0387 301.707 63.0876 300.817 62.4944 301.717C62.6683 301.512 62.8114 300.929 62.8012 300.796L62.3819 301.492C62.1672 301.175 62.1569 301.052 62.3103 300.592C61.5331 300.244 62.2285 302.075 61.4002 301.205C61.4922 301.165 61.482 301.042 61.6763 300.97C60.7968 300.387 59.6514 300.98 58.8741 300.326C58.9457 299.14 59.7127 300.295 59.6923 299.273C58.4139 299.068 56.6754 299.784 55.5504 299.078L55.7345 299.283C54.9982 300.735 55.1107 298.209 54.2516 298.679C54.4459 298.628 54.7732 297.923 54.6709 298.076C53.9755 297.514 52.9017 297.79 51.4904 297.657L51.8177 297.36C51.5313 296.808 50.7438 296.562 50.3757 296.133C50.028 296.419 49.7928 296.205 49.6394 296.818C49.5371 295.366 48.7803 295.233 47.9519 295.069C47.1645 294.916 46.2543 294.681 46.5406 293.505C46.6531 293.617 47.052 293.525 46.9702 293.433C46.6327 293.259 46.285 293.075 45.9782 292.86C45.4668 293.361 45.7225 293.229 45.4464 293.781C45.0373 293.924 44.5362 293.832 44.3521 293.556C45.0782 293.76 45.2623 292.891 45.518 292.513C45.3543 292.656 45.1089 292.727 44.935 292.86C45.7225 291.715 43.6158 293.494 43.9635 292.277L44.3214 292.165C44.0044 291.971 43.4624 291.817 43.4419 291.429C44.1885 291.081 43.9124 291.664 44.5669 291.47C44.4646 291.275 44.0453 291.173 43.7283 290.989C43.3908 290.815 43.2067 290.559 43.6055 290.314C43.8408 290.508 43.8714 290.795 44.1476 290.938C44.9964 290.365 44.8225 290.406 44.9248 290.12L44.9043 290.15C45.0475 289.946 45.2111 289.762 45.3748 289.608C45.2725 289.639 45.1907 289.68 45.0987 289.721C44.0555 289.383 44.0248 289.015 44.1169 288.708C44.168 288.555 44.2396 288.401 44.2294 288.207C44.2498 288.013 44.1885 287.788 43.9737 287.43C44.8225 288.739 44.6078 287.87 45.4157 288.35C45.7123 288.299 46.0804 288.238 46.285 288.432C45.8145 287.778 47.0008 288.371 46.4077 287.369C46.6531 287.532 46.6429 287.103 47.1747 287.655C47.2872 287.195 46.7145 287.389 46.4486 287.123C46.3054 286.53 46.8168 286.397 47.3485 286.274C47.8599 286.131 48.3815 286.008 48.3917 285.108C48.8314 284.076 48.453 283.124 49.0462 282.173C49.578 282.419 49.3735 283.247 49.3735 283.247C50.0484 283.36 50.3348 283.104 50.6109 282.562C50.6416 282.838 50.8461 282.981 51.1325 283.217C51.4393 282.971 50.8666 282.132 51.5313 282.286C51.6029 282.623 51.7358 283.155 51.7256 283.534C51.9915 283.084 52.1551 282.378 52.4926 281.938C52.8301 282.357 52.5642 282.777 52.554 283.155C52.9324 282.726 53.5971 282.153 53.4437 281.335L53.004 281.202C53.1778 281.089 53.3824 281.815 53.3108 282.01C53.1574 282.797 52.5949 282.02 52.4415 281.764L52.6767 281.447C51.6131 279.995 51.5006 282.296 50.8768 282.521L50.5495 281.253C50.4882 281.682 50.437 282.092 50.3961 282.531C50.1098 282.317 49.6598 281.744 49.8848 281.396C49.1178 281.1 49.7109 282.02 48.9644 281.631C48.8621 281.56 48.8519 281.498 48.8723 281.427C48.7905 281.621 48.6985 281.815 48.6167 282.02C48.5655 281.734 48.0747 281.294 48.4428 281.284C47.2258 281.171 47.686 282.899 46.8474 282.317L46.8679 282.204C46.06 283.329 47.2872 283.032 47.2258 284.474C46.5918 284.004 45.927 283.544 45.2521 283.104L45.7634 283.891C45.6407 283.963 45.3952 284.086 45.1805 283.779C45.2418 284.597 45.518 284.024 45.7225 284.658C45.1907 284.556 44.9453 284.955 44.71 285.262C44.4544 285.548 44.2396 285.783 43.5953 285.385C44.0248 285.998 44.4135 285.221 44.3828 286.07C43.6874 285.671 43.5953 285.875 43.6055 286.193C43.6158 286.52 43.6976 286.898 43.2374 286.99C42.5829 286.428 43.3192 286.09 42.317 286.305C42.8283 286.827 42.6442 287.062 42.2863 287.297C41.9488 287.532 41.4886 287.819 41.5193 288.146C42.0511 288.309 42.1022 288.647 42.0408 289.066C42.0102 289.486 41.8772 290.048 42.1227 290.508C41.9386 290.488 41.7852 290.958 41.7749 291.572C41.734 292.196 41.8465 292.942 41.8772 293.454L41.6931 293.505C42.7772 293.208 43.0022 294.077 43.5749 294.456C43.0124 294.824 42.7158 294.906 42.2658 294.742C42.3783 294.936 42.5113 295.11 42.6442 295.284C43.0328 295.192 43.2987 295.233 43.6362 295.458L42.9204 295.826C43.2169 296.143 43.6976 296.286 44.1169 296.491C44.5566 296.665 44.935 296.92 45.1498 297.452C45.6816 296.869 46.0191 295.335 47.0724 295.519C46.827 295.867 46.3975 296.46 46.0907 296.43C46.1929 296.44 46.5509 296.348 46.5611 296.593L45.8043 296.89C45.9475 297.411 46.3566 296.573 46.5815 296.839C46.2031 297.319 46.5202 297.34 46.1929 297.687C46.0804 297.687 46.1009 297.299 45.8452 297.401C46.0804 297.749 46.2747 298.311 46.1418 298.782C46.3156 298.485 46.6224 298.117 46.8986 298.229C47.5429 298.628 46.7043 298.976 46.9088 299.487C47.2974 299.232 47.4815 299.866 47.9622 299.099C48.1462 299.221 47.9622 299.6 47.911 299.855C48.453 299.712 49.5678 300.653 49.6394 299.59L49.578 299.487C49.5984 299.477 49.6189 299.487 49.6496 299.477C51.1427 299.232 51.7256 301.083 53.0346 301.185L52.9221 301.461C53.7198 301.43 54.5175 301.85 55.2129 301.43C55.4073 301.512 55.5095 302.116 55.2948 302.422C55.8981 302.382 56.0618 302.075 56.6652 302.791C55.9697 303.118 56.7061 303.292 56.0004 302.985C56.6038 303.455 56.6242 303.967 57.6162 303.414C57.1356 304.069 57.8617 304.519 58.2605 304.396L57.923 303.711C58.3219 303.731 58.6287 303.875 58.9457 304.028L58.4855 304.959C59.6411 306.534 61.6047 303.619 62.2183 305.869C62.7603 305.255 61.5433 305.214 62.0751 304.468C62.699 304.744 63.0876 306.319 63.2921 306.36C64.1 307.106 64.4477 305.081 65.3272 305.654C65.2761 305.265 65.3477 304.304 66.1045 304.089C66.7385 304.325 66.6465 305.726 66.1761 305.94C66.0124 305.94 65.9511 305.818 65.9818 305.695C65.7465 305.787 65.4295 305.9 65.6238 306.329L65.7772 305.981C66.0431 306.401 66.9738 306.513 66.6567 307.065C67.2294 306.81 66.9738 306.513 66.6363 306.268C67.4135 306.932 67.976 306.503 68.8146 307.004C68.7021 306.779 68.6407 306.339 68.7737 306.37C70.0009 307.024 69.4486 305.777 70.3384 305.736C70.7577 306.35 69.9804 307.024 70.9315 306.677C71.4224 307.117 70.9213 307.648 70.6656 307.914C71.5656 307.321 72.1383 308.558 72.5985 308.753L72.128 308.988C72.4042 308.845 72.6189 308.876 72.8337 308.906L72.6701 308.149C72.9053 308.303 73.1201 308.333 73.0894 308.64C73.3962 308.201 73.0178 307.413 73.6007 306.82C73.8973 307.219 74.6541 306.513 74.6745 307.485C73.6518 307.065 74.695 308.456 73.7848 308.538C73.9689 308.436 74.1836 308.456 74.4188 308.61C74.4495 308.722 74.3677 308.804 74.2859 308.855C75.2268 309.806 74.8586 307.812 75.9017 307.924C75.7177 308.456 76.0654 308.978 76.2392 308.876C75.8097 308.824 76.1063 307.955 76.5256 307.566C77.1596 308.047 77.2721 307.311 77.6198 307.393L77.2312 307.157C77.4051 306.626 77.7323 306.728 78.2028 306.574C78.213 307.004 77.763 306.84 77.9164 307.035C78.4891 306.104 79.0209 308.088 79.7879 307.474C80.1049 307.863 79.7675 308.497 80.0538 308.763C80.9026 308.098 80.9129 309.55 81.7924 309.008C81.5674 308.262 81.5265 308.456 82.1503 307.751C81.6799 307.924 81.2094 308.057 80.7288 308.211L81.6696 307.188C81.2503 307.157 80.7595 307.607 80.514 307.464C80.964 306.892 80.9129 307.065 80.739 306.452C81.2708 307.577 81.8946 305.879 82.5287 306.626L82.4571 308.436C83.4491 309.264 84.2672 307.536 85.566 308.016L85.1468 307.699C85.3206 306.984 85.9547 307.618 86.374 307.311C86.3331 307.914 86.599 308.129 86.783 308.507C86.7524 308.057 87.7444 308.528 87.8466 307.321L88.4398 308.109C89.5034 308.415 89.5954 306.38 90.6079 306.534C90.3317 307.209 90.8022 307.618 90.1374 308.119C90.4749 308.109 90.7817 308.201 90.7715 307.781C90.9862 308.149 91.6714 306.922 92.0089 307.474C92.1419 307.198 92.1521 306.564 92.5305 306.595C92.5816 306.718 92.5407 306.892 92.5407 306.892C92.5305 306.595 93.1032 306.452 92.7453 305.807C93.8907 307.659 95.5985 305.48 96.6314 307.014C97.3473 306.738 98.2166 306.493 98.8711 306.36C98.8506 306.544 98.9018 306.656 98.7688 306.615C99.7506 307.065 99.137 304.815 100.241 305.317C100.896 306.227 99.7506 305.91 100.129 306.237C100.518 308.201 101.356 305.807 102.205 306.881L102.052 307.014C102.696 307.628 103.258 306.063 104.148 306.073C104.148 306.073 104.138 306.257 104.189 306.37C104.629 305.265 105.692 304.764 106.459 304.325C106.347 305.143 106.163 304.805 106.459 305.552C106.807 305.368 106.122 304.325 106.807 303.956C107.124 304.325 107.738 304.58 107.983 305.388L107.288 305.582C107.871 306.574 108.198 305.358 108.607 305.46L108.658 305.94C109.722 305.542 109.466 304.417 110.632 304.192L110.427 303.875C110.765 302.555 111.113 304.386 111.522 303.363L112.013 304.488C112.36 304.079 113.168 303.005 113.823 302.545C113.669 303.558 112.923 304.212 112.514 304.867C112.933 304.764 113.915 304.427 113.945 303.762C113.812 303.926 113.69 304.273 113.475 304.141C113.72 303.097 114.222 302.422 115.029 302.187C115.612 304.468 117.31 302.095 118.527 303.547C119.652 302.187 121.554 302.75 123.201 301.727C121.769 300.408 123.661 301.43 122.679 299.825C122.986 299.508 123.139 299.457 123.231 299.549C123.784 299.671 124.356 299.774 124.929 299.845C125.491 300.132 124.786 300.428 125.041 300.766C125.972 300.346 125.819 301.216 126.678 301.257C126.187 300.776 126.443 300.265 127.077 300.111C126.678 300.04 126.289 299.968 125.9 299.886C126.197 299.068 126.657 299.211 127.158 299.344C127.639 299.457 128.171 299.549 128.437 298.69L128.447 299.446C128.641 299.078 129.214 298.546 129.654 297.912C129.868 297.575 130.053 297.207 130.145 296.839C130.226 296.44 130.206 296.041 130.022 295.652C130.278 295.663 130.83 295.795 130.707 296.184C131.433 295.397 131.75 294.067 131.812 292.809C131.904 291.541 131.791 290.426 132.18 289.496L132.65 289.659C132.487 289.179 131.76 288.954 132.098 288.35C132.292 288.34 132.579 288.453 132.568 288.238C132.466 288.136 132.21 287.87 131.985 287.583C131.74 287.307 131.535 287 131.566 286.694C131.781 286.786 131.996 286.878 132.21 286.98C132.118 285.753 131.372 285.108 130.625 284.73C129.858 284.352 129.05 284.188 128.437 283.769C129.47 282.859 128.713 281.468 128.283 280.854L128.427 280.721C126.831 279.197 124.919 279.545 123.18 279.187C123.057 278.308 122.29 277.725 121.421 277.254C120.552 276.763 119.57 276.385 118.916 275.7C119.069 276.017 118.496 276.671 118.179 276.692C117.903 276.293 116.85 277.203 117.32 276.058L117.443 276.119C117.566 274.882 116.686 274.933 116.093 274.708L115.561 276.273C115.152 274.902 114.037 274.759 113.045 274.779C112.043 274.769 111.133 274.82 110.949 273.685C110.479 273.972 110.008 273.879 109.538 274.196L109.752 273.358C108.74 272.918 108.229 272.703 106.868 272.632L107.257 272.08C106.521 271.865 105.866 274.381 105.191 274.309L105.212 273C103.933 272.816 102.778 271.445 101.336 272.478C101.377 272.294 101.469 271.926 101.683 271.895C101.08 271.783 99.4233 270.73 99.4438 272.53C99.5563 271.364 98.1245 272.253 97.3882 272.714L97.5723 271.875C96.8769 272.908 96.836 273.204 95.9974 273.44C95.8133 273.317 95.8849 272.744 96.1201 272.98C95.5167 272.478 95.5576 273.747 94.8111 273.225L95.1383 272.703C94.4838 272.581 94.5145 272.867 94.1054 273.491C93.6657 273.808 92.868 273.215 92.8168 272.437C92.7043 272.908 92.3055 273.511 91.9271 273.276C91.8862 272.98 92.0396 272.806 92.1112 272.724C91.0272 272.09 90.4238 273.614 89.6977 272.775C89.6874 272.489 89.6465 272.345 89.5852 272.264C90.4647 272.284 91.1806 272.397 91.109 272.448C91.1396 271.66 90.4238 271.486 91.0476 270.423C90.434 270.975 89.4215 272.253 88.7364 271.875C88.7057 271.793 88.675 271.722 88.6545 271.599L88.7261 271.507C88.5625 271.425 88.4193 271.497 88.2864 271.63C88.0614 271.497 87.9284 271.394 87.7137 271.384C87.6421 270.73 86.8955 271.016 86.5376 270.985C86.5581 271.844 86.0978 271.701 86.5274 272.417C86.4762 272.356 86.599 272.315 86.8342 272.284C86.8853 272.264 86.9467 272.243 86.9876 272.202C86.9773 272.223 86.9671 272.253 86.9671 272.274C87.2023 272.253 87.5091 272.243 87.8569 272.233C87.5705 272.662 87.2739 273.031 86.8853 272.54C86.7012 273.092 86.4967 273.654 86.3842 273.92C85.9138 272.703 84.9627 272.09 84.8195 271.343C83.7355 271.844 82.2423 271.701 81.6287 273.348C81.3322 273.573 81.2606 272.898 81.1378 272.652C81.3117 272.478 81.5265 272.499 81.6083 272.253C81.0049 272.703 79.7879 272.509 79.6959 273.644C78.8982 273.174 80.0743 272.581 79.0209 272.816L79.1436 272.458C78.0391 271.599 77.221 272.376 76.3926 273.123C75.5643 273.859 74.7359 274.514 73.4575 273.47C73.6314 273.593 73.7234 273.654 73.7746 273.839C72.4042 273.481 71.0747 273.9 69.7452 274.227C68.426 274.606 67.1169 274.912 65.675 274.329C64.8773 274.156 64.9386 274.892 64.6011 275.516L64.2637 274.636L63.7216 275.843C63.2717 276.334 62.6887 275.884 62.0751 275.516C61.4717 275.168 60.8275 274.933 60.3263 275.833L60.6331 276.395C60.1218 276.405 59.2014 277.152 59.0889 276.436C59.0684 276.559 59.1094 277.101 58.823 276.835L58.6798 276.375C58.3526 276.743 58.0458 277.152 57.739 277.53C56.7265 277.49 57.3197 275.649 55.9288 275.996C55.4686 276.344 54.9471 277.796 55.2539 278.032C55.4584 277.991 55.8675 278.154 56.0311 278.604L55.6732 278.983C56.0618 280.363 56.2459 281.836 57.5856 282.45L58.0253 281.396L58.4651 281.979L57.8821 282.214C58.4242 282.726 58.4548 282.112 58.5776 281.652C58.7412 281.989 58.9253 282.204 59.0991 282.286L59.4059 280.752C59.6514 281.263 59.4059 281.918 59.9582 282.061C60.1116 281.355 59.2832 280.946 59.7332 280.394C60.265 280.926 60.3059 281.468 60.5718 280.823C60.7252 281.161 60.7047 281.417 60.582 281.611C60.8275 281.089 61.4922 281.181 61.4922 280.394C62.0547 281.079 62.6887 279.862 62.9649 281.192C62.9955 280.844 63.3637 280.005 63.7012 279.883C63.4251 281.59 65.0102 279.709 65.2045 281.437C65.3681 279.923 66.7181 280.435 67.4135 279.525C67.3828 279.647 67.3419 279.893 67.2499 279.831C67.7408 279.872 67.9453 280.281 68.293 280.506C68.1498 279.31 68.835 278.921 69.1214 278.124C69.8782 279.177 68.9884 279.576 69.3464 280.65C69.1623 279.688 70.185 279.525 69.8782 278.758C70.4202 279.392 70.3077 279.034 70.6758 279.995C70.5429 278.502 71.0542 279.688 71.2895 278.727C72.0258 279.381 71.6372 280.108 72.2815 279.566C72.6496 279.985 72.0974 280.588 72.0974 280.588ZM88.7977 277.162C88.7977 277.172 88.7977 277.183 88.7977 277.183C88.6545 277.203 88.5216 277.213 88.4398 277.224C88.5216 277.213 88.6239 277.193 88.7977 277.162ZM90.2397 277.172C90.0658 277.121 89.8511 277.121 89.6159 277.121C89.5749 276.825 89.6363 276.518 89.7795 276.538C89.6977 276.743 90.0352 276.917 90.2397 277.172ZM87.2535 271.149C87.4887 271.026 87.5705 271.2 87.6012 271.374C87.4887 271.384 87.3557 271.415 87.1819 271.466C87.1717 271.497 87.1614 271.538 87.1512 271.568C87.1819 271.415 87.2126 271.261 87.2535 271.149Z" fill="#72DAB7"/>
<path d="M86.8239 192.274C86.7933 192.294 86.7728 192.325 86.7217 192.335C86.7728 192.417 86.8137 192.478 86.8649 192.53C86.8955 192.438 86.9262 192.345 86.9467 192.264C86.9058 192.264 86.8649 192.264 86.8239 192.274Z" fill="#72DAB7"/>
<path d="M49.6495 219.6L49.67 219.631C49.6598 219.59 49.6598 219.549 49.67 219.487C49.67 219.539 49.6598 219.569 49.6495 219.6Z" fill="#72DAB7"/>
<path d="M109.384 201.314L109.435 201.1L109.272 201.253L109.384 201.314Z" fill="#72DAB7"/>
<path d="M45.5486 212.482C45.6099 212.431 45.6611 212.37 45.6918 212.298C45.6406 212.329 45.5997 212.4 45.5486 212.482Z" fill="#72DAB7"/>
<path d="M44.9452 210.079C45.0372 209.966 45.1702 209.874 45.2724 209.782C45.0986 209.895 44.9963 209.997 44.9452 210.079Z" fill="#72DAB7"/>
<path d="M45.7532 208.494C45.6304 208.412 45.5282 208.35 45.4361 208.299H45.4259L45.7532 208.494Z" fill="#72DAB7"/>
<path d="M77.8856 221.666C77.9163 221.666 77.9572 221.655 77.9879 221.635C78.2333 221.492 78.0697 221.543 77.8856 221.666Z" fill="#72DAB7"/>
<path d="M65.3579 222.054C65.5215 221.931 65.6749 221.809 65.8283 221.737C65.6238 221.625 65.4602 221.574 65.3579 222.054Z" fill="#72DAB7"/>
<path d="M91.5793 220.766C91.5793 220.776 91.5793 220.776 91.5793 220.776C91.61 220.776 91.6305 220.776 91.6612 220.776L91.5793 220.766Z" fill="#72DAB7"/>
<path d="M66.3908 221.87C66.2068 221.655 66.0227 221.655 65.8284 221.737C65.992 221.829 66.1863 221.962 66.3908 221.87Z" fill="#72DAB7"/>
<path d="M53.6891 202.94L53.8118 202.92C53.7914 202.869 53.7709 202.828 53.7709 202.787L53.6891 202.94Z" fill="#72DAB7"/>
<path d="M53.7709 202.797L53.8528 202.654C53.7914 202.674 53.7505 202.695 53.7709 202.797Z" fill="#72DAB7"/>
<path d="M54.0265 202.337L53.8527 202.644C53.9447 202.613 54.0674 202.593 54.0265 202.337Z" fill="#72DAB7"/>
<path d="M50.5905 204.055L50.7132 204.341C50.6927 204.28 50.6518 204.178 50.5905 204.055Z" fill="#72DAB7"/>
<path d="M49.8029 204.638C50.0381 204.577 50.6313 204.894 50.8154 204.577L50.7131 204.341C50.8154 204.812 49.7006 204.065 49.8029 204.638Z" fill="#72DAB7"/>
<path d="M43.9532 204.485C44.2498 204.29 44.5259 204.086 44.8225 203.932C44.4646 203.81 43.9737 203.666 44.26 203.278C42.6237 203.523 44.9554 203.595 43.9532 204.485Z" fill="#72DAB7"/>
<path d="M41.7238 207.041C41.8466 206.407 41.2739 206.857 41.1102 206.755C41.2432 207.276 41.2943 207.379 41.7238 207.041Z" fill="#72DAB7"/>
<path d="M55.4174 222.801L55.1106 223.527C55.5197 223.537 55.2129 223.241 55.4174 222.801Z" fill="#72DAB7"/>
<path d="M60.3059 220.06L60.1013 219.498L59.7434 220.152L60.3059 220.06Z" fill="#72DAB7"/>
<path d="M61.1444 226.053L60.9501 226.114L61.6455 226.002L61.1444 226.053Z" fill="#72DAB7"/>
<path d="M95.9666 228.078L95.7723 227.127C95.5371 227.321 95.5678 228.405 95.9666 228.078Z" fill="#72DAB7"/>
<path d="M110.703 224.805C110.98 225.235 111.47 225.429 111.603 224.897C111.266 224.918 110.847 224.642 110.703 224.805Z" fill="#72DAB7"/>
<path d="M115.183 194.871L115.582 194.657L114.937 194.739L115.183 194.871Z" fill="#72DAB7"/>
<path d="M73.6478 132.187C70.3905 129.418 70.5287 128.431 74.4977 126.807C76.9987 125.784 79.5444 124.858 82.2527 123.819C81.3134 122.215 79.7559 121.675 78.4342 120.879C72.7694 117.477 68.1417 112.986 64.3801 107.586C63.9165 106.92 63.4691 106.238 63.0909 105.523C62.5216 104.435 61.936 103.237 62.8876 102.137C63.7579 101.13 64.9209 101.747 65.9376 102.003C69.1949 102.831 72.436 103.708 75.7259 104.577C76.6327 103.168 75.6201 102.125 75.246 101.097C71.6349 91.166 68.7801 81.0235 66.6939 70.6657C66.3483 68.9401 66.0311 67.2023 66.1734 65.432C66.454 61.9645 68.6012 60.6936 71.7853 62.2325C73.107 62.8699 74.3351 63.7835 75.4453 64.7539C78.0926 67.0723 80.6383 69.5044 83.2287 71.8838C84.1885 72.7648 85.1604 73.6256 86.8521 75.1482C86.8521 73.1628 86.848 72.0178 86.8521 70.8727C86.8927 61.3879 87.6979 51.964 89.1375 42.5888C89.3002 41.525 89.5482 40.4653 89.8695 39.4381C90.3005 38.0535 91.2115 37.0384 92.708 36.8638C94.4729 36.6568 95.5099 37.8221 96.1402 39.2147C97.1446 41.4276 97.9335 43.7379 98.8648 45.9873C99.5195 47.5708 99.7676 49.3614 101.276 50.9449C102.439 45.2158 103.505 39.7872 104.652 34.3789C105.884 28.5524 107.466 22.8193 109.503 17.2161C110.105 15.5595 110.711 13.8867 111.914 12.559C113.614 10.6791 115.574 10.7765 116.969 12.9041C117.697 14.0126 118.181 15.324 118.58 16.603C119.865 20.7039 121.06 24.8332 122.37 29.2224C123.948 28.6864 124.517 27.4156 125.31 26.4411C131.003 19.4615 137.611 13.5091 145.196 8.63676C146.456 7.82876 147.705 7.02482 149.226 6.80151C151.979 6.39954 153.678 8.21043 153.04 10.9308C152.629 12.6686 151.503 14.0816 150.718 15.6489C149.775 17.5328 148.363 19.2828 148.782 21.6621C150.425 21.4632 151.112 20.1639 152.072 19.2706C158.53 13.2817 165.069 7.39837 172.592 2.72905C173.971 1.87233 175.333 0.987185 176.899 0.47559C180.652 -0.750615 182.563 0.349721 183.214 4.29632C183.478 5.88795 183.47 7.5283 183.552 9.14835C183.747 13.0259 183.857 16.9157 184.487 20.7486C186.15 20.8744 187.191 19.8634 188.391 19.3194C197.858 15.0114 207.719 12.287 218.162 11.9337C220.285 11.8606 222.835 11.3896 223.795 13.9923C224.746 16.5624 222.485 17.8861 220.911 19.2706C217.764 22.0479 214.539 24.7398 211.766 27.9069C211.184 28.5727 210.2 29.0681 210.513 30.5663C214.6 30.6272 218.752 30.7409 222.876 31.3419C232.77 32.7873 242.09 35.8772 250.854 40.6643C251.683 41.119 252.513 41.5981 253.249 42.1869C256.592 44.8504 256.864 48.5859 253.908 51.6798C252.985 52.6462 251.858 53.4257 250.825 54.2906C249.683 56.203 247.633 56.7146 245.771 57.4373C243.497 58.3224 243.172 59.3903 244.876 61.2499C247.983 64.6402 250.797 68.2701 253.217 72.1923C254.066 73.5728 254.933 74.9452 255.644 76.4029C258.922 83.1226 256.889 86.5008 249.52 86.3952C242.993 86.3018 236.661 84.7914 230.297 83.5205C229.008 83.2647 227.747 82.5704 225.795 83.281C227.605 87.6092 229.37 91.9253 231.082 96.2617C231.826 98.1416 232.749 99.9728 233.107 101.979C233.815 105.933 231.281 108.248 227.369 107.265C225.909 106.896 224.636 106.12 223.368 105.336C216.812 101.292 210.351 97.1144 203.767 92.4085C203.1 98.637 204.515 104.228 206.748 109.697C207.455 111.427 208.639 113.01 208.451 115.024C207.358 117.156 206.353 115.666 205.3 114.955C197.679 109.839 189.83 105.089 181.88 100.501C181.01 99.9972 180.14 99.5871 180.193 98.4867C180.246 97.3701 181.258 96.9925 182.104 96.6149C185.06 95.2872 187.984 94.0245 189.806 91.0321C191.38 88.4456 190.379 87.394 187.887 86.7282C184.365 85.7862 180.709 85.5263 177.147 85.234C172.181 84.8279 167.159 84.9944 162.218 84.024C170.563 85.5385 179.131 84.7142 187.423 86.7119C190.79 87.524 191.246 88.5066 189.477 91.4421C187.761 94.2843 184.808 95.3562 181.994 96.6596C180.961 97.1387 179.27 97.3255 179.392 98.7953C179.477 99.8469 180.994 100.001 181.897 100.549C190.664 105.84 199.818 110.542 207.764 117.103C208.915 118.053 210.163 119.125 209.704 120.826C209.273 122.43 207.74 122.885 206.349 123.482C204.474 124.286 201.274 122.877 200.81 125.406C200.522 126.978 203.454 128.159 204.608 129.812C205.686 131.359 207.048 132.707 207.671 134.087C206.406 131.891 204.58 129.637 202.518 127.558C201.864 126.897 200.977 126.186 201.441 125.142C202.002 123.876 203.149 124.079 204.242 124.416C208.85 128.423 211.55 133.787 214.141 139.09C216.056 143.008 213.97 145.168 208.24 145.777C209.415 150.056 210.81 154.251 211.335 158.644C211.558 160.528 211.823 162.404 211.664 164.304C211.245 169.241 208.708 170.735 204.23 168.726C203.523 168.409 202.99 167.731 202.026 167.686C202.502 171.864 203.539 175.945 203.559 180.131C203.567 182.185 203.454 184.333 201.31 185.425C199.062 186.57 197.106 185.539 195.3 184.199C193.442 182.823 191.97 181.036 189.961 178.949C189.826 183.98 189.542 188.588 188.716 193.132C188.379 194.996 188.11 196.875 187.464 198.666C186.833 200.404 185.874 201.853 183.812 202.016C181.766 202.174 180.571 200.932 179.648 199.316C177.976 196.388 177.696 193.177 177.72 189.904C177.834 188.779 177.606 187.78 176.565 186.855C173.747 193.627 170.327 199.88 165.809 205.483C164.878 206.636 163.951 207.85 162.792 208.744C160.832 210.254 159.071 209.345 159.002 206.827C158.969 205.634 159.209 204.403 159.514 203.238C160.323 200.136 161.23 197.054 162.365 193.026C159.575 196.035 157.412 198.362 155.26 200.692C154.252 201.784 153.268 202.901 152.263 203.997C147.953 208.719 147.18 208.642 143.882 203.165C143.61 202.71 143.244 202.308 142.918 201.886C137.969 196.782 134.456 190.842 132.5 184C132.439 183.736 132.288 183.456 132.337 183.213C132.593 181.926 133.699 180.423 131.231 180.013C130.601 179.908 129.991 179.327 129.982 178.584C129.97 177.52 130.938 177.341 131.674 177.175C136.562 176.079 141.471 175.084 146.354 173.959C147.469 173.703 148.807 173.829 149.791 172.563C148.522 171.722 147.062 171.296 146.102 170.147C144.96 168.778 145.053 168.027 146.794 167.455C149.49 166.565 152.267 165.92 154.984 165.088C156.48 164.629 158.107 164.47 159.425 163.447C158.164 162.371 155.525 162.903 155.374 161.206C155.195 159.196 157.757 159.026 159.172 158.189C162.145 156.431 165.24 154.88 168.09 152.594C166.533 152.594 164.967 152.716 163.422 152.566C160.758 152.31 160.197 150.885 161.909 148.773C162.759 147.726 163.804 146.841 164.736 145.862C167.338 143.121 169.579 140.137 171.466 136.195C166.919 137.262 163.841 140.446 159.4 141.428C159.843 137.027 160.254 132.979 160.677 128.797C160.222 128.963 160.039 128.967 159.982 129.057C156.692 134.229 156.684 134.266 150.848 132.829C147.302 131.956 143.736 131.14 140.344 129.714C138.03 128.744 135.602 128.756 133.162 129.061C132.618 130.441 133.866 130.681 134.517 131.164C136.253 132.447 138.229 133.409 139.702 135.046C140.421 135.845 141.353 136.613 140.812 137.851C140.214 139.224 138.913 139.276 137.685 139.142C135.936 138.956 134.183 138.724 132.471 138.33C129.177 137.571 125.9 136.722 122.638 135.829C121.353 135.476 120.117 135.05 118.498 135.468C119.299 137.063 120.731 137.685 121.756 138.679C123.02 139.902 124.362 141.038 125.664 142.224C126.396 142.89 127.058 143.743 126.615 144.701C126.078 145.862 124.924 145.846 123.785 145.59C119.413 144.616 115.152 143.312 111.008 141.599C109.796 141.099 108.698 140.17 106.945 140.413C106.689 143.308 106.579 146.268 106.12 149.175C105.827 151.039 106.209 153.796 103.497 154.031C101.183 154.234 100.874 151.664 99.9709 150.089C99.5032 149.273 99.1942 148.363 98.8119 147.498C97.0633 145.647 95.518 143.706 96.0832 140.868C95.4326 142.801 94.7087 144.782 92.4477 144.709C89.8003 144.624 89.719 142.175 89.2717 140.243C89.0602 139.329 88.8406 138.395 88.8162 137.461C88.7512 135.054 87.5312 134.209 85.1929 134.335C82.6472 134.473 80.0812 134.501 77.5477 134.051C76.0797 133.803 74.6482 133.434 73.6478 132.187Z" fill="#FD490A"/>
<path d="M208.411 115.678C203.775 108.053 201.587 99.8469 202.421 90.9386C203.604 90.1428 204.234 91.1619 204.93 91.6451C211.387 96.1114 217.902 100.497 224.632 104.549C226.023 105.385 227.389 106.323 229.045 106.534C231.151 106.802 232.481 105.556 232.204 103.444C232.05 102.259 231.582 101.097 231.131 99.9768C229.215 95.21 227.235 90.4676 225.328 85.6968C224.742 84.231 223.88 82.8424 223.746 81.1858C225.218 80.6499 226.474 81.3158 227.768 81.5837C234.925 83.0617 242.05 84.7548 249.373 85.2339C251.634 85.3842 254.201 85.9445 255.701 83.6179C257.198 81.2955 255.62 79.1841 254.575 77.1865C251.866 72.0096 248.491 67.2875 244.546 62.9633C243.29 61.5869 241.696 60.4784 240.764 58.5822C243.831 56.3288 247.389 55.4436 250.833 54.3068C256.421 69.8089 261.984 85.3192 267.604 100.809C278.616 131.16 289.665 161.498 300.686 191.845C305.391 204.797 310.063 217.757 314.764 230.71C317.517 238.303 313.752 245.396 305.846 247.54C303.199 248.258 300.474 248.096 297.794 248.429C291.207 250.731 284.562 251.917 277.726 249.464C274.094 249.627 270.463 249.895 266.831 249.919C261.171 249.96 257.031 246.577 255.99 240.994C252.716 223.401 249.52 205.796 246.307 188.195C246.214 187.675 246.295 187.123 246.299 186.583C247.515 183.639 248.495 180.687 246.478 177.682C246.23 177.41 246.01 177.114 245.807 176.805C244.058 174.548 244.148 171.746 244.123 169.205C244.107 167.625 244.652 165.039 247.629 165.652C247.922 165.887 248.158 166.176 248.332 166.492C248.613 166.813 248.8 167.747 249.365 166.971C250.02 166.078 250.24 164.905 249.15 164.101C247.954 163.216 246.893 162.176 245.693 161.291C244.136 160.142 243.03 158.851 244.925 157.028C246.043 155.952 244.99 154.742 245.087 153.613C245.291 151.23 242.46 148.915 245.01 146.439C245.506 145.955 244.347 145.586 244.042 145.082C242.289 142.179 242.773 141.286 246.49 141.038C245.665 138.988 243.416 136.507 247.617 135.663C247.596 135.65 247.987 135.63 247.987 135.63C247.987 135.63 248.019 135.24 248.011 135.212C248.06 133.08 250.419 131.286 248.353 128.756C247.576 127.806 248.67 125.691 250.394 124.862C251.094 124.525 252.574 124.643 251.74 123.096C251.488 122.662 251.264 122.215 251.134 121.724C251.285 122.43 251.695 123.015 252.057 123.62C250.768 125.313 249.593 124.87 248.646 123.327C247.865 122.053 247.365 120.534 247.482 119.109C247.861 114.622 247.084 110.006 248.698 105.889C248.548 106.116 249.146 105.292 248.89 105.479C247.877 106.205 248.092 109.173 245.653 107.131C245.36 106.887 245.413 106.384 245.396 106.055C242.18 118.772 238.808 131.383 236.104 144.149C233.737 155.327 232.07 166.618 230.647 177.959C229.276 188.848 227.719 199.722 226.068 210.579C224.799 218.919 223.774 227.311 222.847 235.704C222.802 236.102 223.156 236.431 223.445 236.719C223.608 241.733 222.64 246.358 218.939 250.081C216.568 252.469 213.799 253.926 210.391 254.166C207.837 254.345 205.296 254.661 202.75 254.917C199.021 257.033 183.73 257.629 180.132 255.798C178.781 255.766 177.431 255.737 176.081 255.701C169.221 255.526 164.796 250.402 165.772 243.589C166.155 240.925 166.854 238.307 167.427 235.671C170.677 220.782 173.93 205.893 177.195 191.008C177.277 190.631 177.549 190.29 177.732 189.932C178.546 192.364 179.33 194.805 180.193 197.221C180.55 198.232 180.929 199.287 181.555 200.136C182.742 201.744 184.401 201.646 185.548 199.978C186.325 198.845 186.565 197.493 186.833 196.165C188.037 190.176 188.675 184.142 188.501 178.024C188.48 177.285 188.159 176.44 189.054 175.644C190.343 177.155 191.571 178.706 192.921 180.143C194.125 181.422 195.418 182.624 196.756 183.765C197.89 184.731 199.143 185.742 200.77 185.056C202.518 184.313 202.262 182.644 202.221 181.187C202.087 176.306 201.379 171.499 200.241 166.752C200.054 165.973 199.692 165.213 200.013 164.085C201.737 165.372 203.279 166.777 205.043 167.788C208.459 169.749 210.106 168.811 210.216 164.864C210.395 158.437 209.228 152.22 206.853 146.236C206.516 145.383 206.113 144.555 205.69 143.609C207.085 143.263 207.776 144.433 208.834 144.563C210.383 144.754 211.859 144.79 212.937 143.483C214.035 142.151 213.807 140.657 212.977 139.325C210.257 134.968 207.463 130.656 204.698 126.328C204.409 125.873 204.108 125.427 203.811 124.98C204.068 123.648 205.125 123.555 206.202 123.234C210.041 122.089 210.241 121.578 208.667 118.045C208.317 117.265 208.159 116.498 208.411 115.678Z" fill="#4680FF"/>
<path d="M180.128 255.786C187.659 255.307 195.186 254.641 202.746 254.905C202.84 265.056 202.949 275.202 203.014 285.353C203.043 289.487 202.852 289.633 198.659 289.734C193.006 289.876 192.746 289.572 193.812 284.163C193.995 283.242 194.336 282.336 194.015 281.086C192.307 281.902 191.604 283.53 190.697 284.85C188.46 288.114 185.495 289.649 181.51 289.933C172.458 290.583 163.426 291.525 154.386 292.353C153.711 292.414 153.04 292.503 152.365 292.552C151.186 292.633 150.189 292.329 149.783 291.082C149.421 289.974 150.104 289.255 150.897 288.707C152.121 287.862 153.41 287.107 154.683 286.336C160.6 282.763 166.826 279.766 173.015 276.713C173.828 275.759 174.735 274.918 175.854 274.325C176.972 273.794 176.834 272.413 177.651 271.682C179.119 266.489 179.607 261.134 180.128 255.786Z" fill="#FD490A"/>
<path d="M277.722 249.456C284.411 249.111 291.097 248.766 297.79 248.421C298.282 259.335 298.803 270.249 299.234 281.167C299.344 283.964 299.096 284.107 296.367 284.48C290.658 285.268 290.157 284.785 290.934 279.181C291.04 278.406 291.17 277.634 291.333 276.563C289.474 277.984 288.51 279.786 287.315 281.378C285.774 283.433 283.822 284.667 281.239 284.967C272.521 285.982 263.81 287.079 255.083 288.045C253.615 288.207 251.488 289.137 250.866 287.002C250.264 284.935 252.574 284.553 253.814 283.705C259.06 280.119 264.908 277.59 270.353 274.346C271.63 272.23 274.904 272.283 275.599 269.534C277.348 262.957 277.494 256.204 277.722 249.456Z" fill="#FC490A"/>
<path d="M132.504 184.025C135.977 189.989 139.449 195.95 142.922 201.914C139.673 202.718 137.526 205.345 134.704 206.852C133.199 209.101 131.194 210.161 128.453 209.47C123.065 211.322 117.543 212.13 111.833 211.842C109.914 211.744 108.108 211.273 106.323 210.766C104.347 210.205 104.029 209.166 104.656 206.904C107.437 207.01 110.174 207.704 112.951 207.708C110.211 207.31 107.352 207.741 104.778 206.263C103.619 205.329 103.639 204.391 104.778 203.453C107.079 202.832 109.247 203.948 110.967 203.855C109.275 203.514 106.998 203.4 104.761 203.027C103.371 202.186 102.443 201.078 103.574 199.515C104.485 198.256 103.724 196.632 104.729 195.467C105.087 194.922 105.615 194.65 106.221 194.488C107.364 194.313 108.523 194.387 109.67 194.334C111.17 194.037 112.777 194.212 114.159 193.363C115.172 190.282 115.932 189.79 118.104 191.715C120.263 193.631 122.126 192.823 123.96 191.812C127.404 189.92 130.153 187.163 132.504 184.025Z" fill="#FEBFD1"/>
<path d="M247.808 166.314C245.213 165.741 246.397 168.843 244.88 169.318C245.807 171.771 244.742 174.783 246.991 176.866L246.978 176.858C248.711 177.256 248.027 179.571 249.573 180.119C247.173 181.613 249.963 185.726 246.295 186.579C246.23 186.091 246.165 185.604 246.104 185.121C245.539 184.362 245.998 183.363 245.506 182.587C245.437 182.068 245.368 181.548 245.303 181.028C244.709 180.289 245.189 179.294 244.705 178.527C244.616 177.76 244.526 176.992 244.437 176.225C243.786 175.173 244.555 173.846 243.77 172.822C243.091 171.921 243.095 170.849 242.908 169.789C241.395 161.206 239.805 152.639 238.207 144.067C238.06 143.288 237.706 142.549 237.446 141.79C236.604 141.229 236.824 140.478 236.958 139.654C238.784 128.707 241.814 118.049 244.75 107.371C244.929 106.721 245.222 106.112 246.023 106.006C246.234 106.392 246.25 107.35 246.905 106.806C247.905 105.974 247.67 104.577 247.922 103.4C248.129 102.441 248.873 102.121 249.776 102.295C251.008 102.531 250.789 103.408 250.39 104.147C249.561 105.698 251.216 108.223 248.393 109.035C247.857 109.19 248.133 110.059 248.576 110.4C249.199 110.879 249.923 111.22 250.923 111.804C247.153 115.065 248.467 118.89 249.508 122.666C249.918 124.16 250.789 124.233 251.87 123.254L251.862 123.263C252.196 123.518 252.541 124.103 252.289 124.225C250.345 125.175 249.955 127.152 249.064 128.87C250.154 129.877 251.874 129.325 252.952 130.327C252.944 132.305 249.67 130.348 250.142 132.605C250.5 134.323 247.832 134.526 248.605 136.255L248.621 136.243C247.495 136.231 246.376 136.308 246.031 137.648C245.762 138.704 246.869 138.878 247.34 139.459C247.942 140.198 249.723 140.413 248.82 141.834C248.044 143.056 246.726 143.527 245.283 142.663C244.88 142.419 244.51 142.123 244.018 141.773C243.68 143.527 244.831 144.262 245.559 145.139C246.015 145.688 247.112 143.95 247.401 145.298C247.613 146.292 246.584 146.893 245.649 147.222C245.27 147.356 244.847 147.381 244.652 148.172C247.324 150.142 245.246 153.845 247.344 156.382C247.938 157.097 246.897 158.063 245.941 158.437C245.531 158.599 244.961 157.572 244.677 158.53C244.518 159.07 244.9 159.923 245.311 159.862C248.105 159.448 248.011 163.484 250.695 163.244C251.289 163.191 251.273 163.991 251.191 164.543C251.053 165.477 251.053 166.448 250.797 167.345C250.455 168.539 249.748 170.041 248.43 169.663C246.722 169.176 247.088 167.613 247.792 166.297C247.706 166.427 248.21 165.778 247.808 166.314Z" fill="#6B99FF"/>
<path d="M73.6478 132.187C78.9425 132.853 84.2291 133.673 89.9264 132.654C90.0769 135.606 90.0525 138.277 90.7194 140.847C90.9187 141.623 90.9756 142.455 91.2928 143.174C91.8499 144.441 92.9072 144.465 93.7084 143.255C94.664 141.814 94.7901 139.942 96.2419 138.363C97.2138 141.526 97.5269 144.672 98.816 147.514C97.1162 146.641 96.4289 148.123 95.5221 148.976C92.0207 152.257 88.5966 155.623 84.2413 157.819C81.4516 159.228 78.5684 160.162 75.3843 159.76C74.5547 158.071 73.0582 156.906 71.9561 155.432C71.7935 155.079 71.7365 154.709 71.7772 154.324C73.2737 152.237 74.2131 150.194 71.5535 148.221C70.8988 147.734 70.541 146.84 70.846 146.069C71.9683 143.243 70.1546 142.415 68.0441 141.729C69.2234 138.147 71.5739 135.248 73.6478 132.187Z" fill="#FEBFD1"/>
<path d="M106.351 195.337C105.811 195.381 105.266 195.426 104.725 195.471C104.192 195.064 103.635 194.683 103.131 194.244C101.463 192.783 100.02 192.965 98.0759 194.135C90.6299 198.617 81.2361 197.164 75.4574 190.895C67.5154 182.279 71.2038 169.59 82.5293 166.565C89.8247 164.616 98.328 168.031 102.338 174.45C104.363 177.695 105.152 181.195 104.464 184.922C104.172 186.514 104.534 187.407 105.908 188.215C108.702 189.855 111.406 191.642 114.151 193.371C113.826 195.982 111.63 194.878 110.227 195.345C108.942 195.016 107.645 195.024 106.351 195.337Z" fill="#267DE1"/>
<path d="M246.027 106.018C242.371 117.757 239.467 129.678 237.45 141.802C232.81 165.388 230.11 189.271 226.751 213.056C225.637 220.941 224.543 228.826 223.437 236.711C221.928 237.032 221.924 236.13 222.062 235.058C223.14 226.763 224.03 218.444 225.32 210.181C227.089 198.845 228.471 187.468 229.878 176.087C232.883 151.802 237.902 127.928 244.807 104.447C245.03 103.688 245.364 102.961 245.799 101.824C246.482 103.481 245.986 104.768 246.027 106.018Z" fill="#3B4A4E"/>
<path d="M72.07 154.892C73.0256 155.379 74.0057 155.818 74.9247 156.366C76.47 157.284 76.2952 158.49 75.3842 159.769C67.735 159.829 63.3512 154.011 65.7667 146.897C66.3686 145.123 67.2755 143.454 68.04 141.733C69.2112 140.913 70.3498 139.565 71.8666 141.018C73.9365 143 72.2123 144.949 71.6064 146.881C72.2977 147.779 73.5583 147.697 74.2171 148.623C74.8963 149.577 74.7133 150.641 74.9288 151.656C75.2826 153.317 73.7291 153.073 73.1395 153.759C72.7979 154.157 72.4604 154.563 72.1228 154.965C70.3661 153.889 70.3661 153.889 70.9151 151.295C71.1306 152.184 70.1993 152.899 70.362 153.751C70.5206 154.555 70.6629 155.781 72.07 154.892Z" fill="#403E39"/>
<path d="M275.599 269.542C277.274 271.877 277.299 272.076 275.233 272.9C273.663 273.525 271.98 273.879 270.349 274.354C268.897 274.114 267.437 273.911 265.994 273.619C265.31 273.481 264.7 273.05 264.814 272.267C264.892 271.739 265.404 271.353 265.965 271.276C267.157 271.11 268.356 271.004 269.65 270.866C269.3 269.615 268.06 269.656 267.25 269.128C266.356 268.543 265.388 268.048 264.558 267.386C263.777 266.761 263.411 265.888 263.924 264.885C264.444 263.866 265.327 263.736 266.327 264.004C267.909 264.422 269.284 265.251 270.597 266.205C272.228 267.378 273.675 268.816 275.599 269.542Z" fill="#565751"/>
<path d="M177.643 271.686C177.765 272.043 177.826 272.441 178.021 272.754C179.204 274.614 178.497 275.247 176.533 275.105C176.256 276.331 175.179 272.523 174.991 275.357C174.959 275.819 173.617 275.795 172.942 275.206C172.181 274.938 171.409 274.699 170.665 274.394C169.994 274.118 169.619 273.534 169.457 272.86C169.367 272.486 169.302 271.812 169.481 271.71C171.815 270.367 170.587 267.78 171.547 266.046C172.149 264.958 173.251 265.782 173.967 266.387C175.667 267.817 176.159 270.099 177.643 271.686Z" fill="#555650"/>
<path d="M128.453 209.466C130.535 208.593 132.622 207.72 134.704 206.848C135.249 207.245 135.806 207.623 136.334 208.041C138.217 209.539 138.701 211.058 137.762 212.455C136.839 213.819 135.293 213.949 133.089 212.662C131.475 211.712 129.755 210.888 128.453 209.466Z" fill="#2778D7"/>
<path d="M172.942 275.206C173.434 275.06 173.93 274.914 174.569 274.723C173.088 274.086 171.267 274.252 170.64 272.157C173.536 271.52 175.183 273.002 176.533 275.109C175.5 275.958 174.361 276.571 173.007 276.721C172.987 276.213 172.966 275.71 172.942 275.206Z" fill="white"/>
<path d="M104.778 206.263C107.832 206.762 111.065 206.397 113.895 208.09C110.743 208.151 107.584 208.431 104.656 206.904C104.713 206.689 104.753 206.478 104.778 206.263Z" fill="#A48189"/>
<path d="M104.757 203.031C108.251 202.174 111.479 203.392 114.761 204.261C111.345 205 108.072 204.099 104.778 203.453C104.782 203.311 104.774 203.169 104.757 203.031Z" fill="#997A80"/>
<path d="M243.77 172.826C244.786 173.805 244.534 175.031 244.437 176.229C243.676 175.202 243.668 174.024 243.77 172.826Z" fill="#4680FF"/>
<path d="M245.506 182.587C246.271 183.298 246.206 184.203 246.104 185.117C245.457 184.382 245.417 183.501 245.506 182.587Z" fill="#4680FF"/>
<path d="M244.705 178.531C245.429 179.237 245.384 180.131 245.303 181.028C244.681 180.297 244.546 179.449 244.705 178.531Z" fill="#4680FF"/>
<path d="M208.411 115.678C208.744 116.234 209.106 116.778 209.407 117.355C211.538 121.48 210.973 122.722 206.414 124.079C205.536 124.338 204.674 124.667 203.803 124.964C203.149 124.992 202.441 124.793 201.762 125.528C204.299 128.817 207.947 131.411 208.699 136.02C206.906 133.978 205.166 131.887 203.307 129.905C202.014 128.529 200.501 127.359 199.2 125.987C197.984 124.708 198.26 123.88 199.981 123.49C201.428 123.161 202.913 123.023 204.373 122.739C205.3 122.556 206.235 122.345 207.109 122C209.501 121.058 209.704 120.404 207.984 118.634C206.577 117.184 205.117 115.698 203.433 114.618C196.833 110.387 190.164 106.254 183.442 102.222C181.97 101.337 180.14 101.061 178.517 100.407C177.684 100.074 176.472 99.9565 176.382 98.8196C176.289 97.569 177.537 97.5284 178.367 97.1995C179.871 96.5946 181.417 96.0789 182.913 95.4536C185.056 94.5522 186.996 93.3544 188.46 91.4827C190.497 88.88 190.302 88.2263 187.138 87.5523C182.897 86.6469 178.59 86.2287 174.268 85.9688C169.408 85.6724 164.548 85.3598 159.689 85.0634C158.762 85.0065 157.847 84.974 156.85 83.7397C160.148 83.1347 163.076 83.358 165.894 83.6626C171.677 84.2919 177.521 84.0442 183.279 85.0025C185.288 85.3354 187.289 85.6886 189.188 86.3748C191.746 87.2965 192.03 88.2304 191.01 90.6868C190.07 92.9444 188.301 94.3776 186.301 95.5511C184.56 96.5743 182.714 97.4147 180.363 98.6206C185.15 100.911 189.062 103.862 193.271 106.347C197.813 109.031 202.376 111.666 206.581 114.878C207.093 115.272 207.797 115.418 208.411 115.678Z" fill="#533A2E"/>
<path d="M105.16 57.953C106.298 59.9994 107.437 62.0498 108.576 64.0962C105.688 61.725 103.371 59.0168 101.968 55.1026C107.055 54.9727 110.43 58.16 114.68 59.4756C115.318 57.6078 114.912 55.9228 114.781 54.2297C114.383 48.9838 113.622 43.7623 113.659 38.4839C113.663 37.6719 113.618 36.8557 113.724 36.0559C113.984 34.0948 114.724 33.6238 116.408 34.513C118.506 35.6214 120.365 37.075 121.548 39.3406C120.556 38.7316 119.576 38.1063 118.571 37.5176C115.692 35.8326 115.269 35.9747 115.412 39.1214C115.643 44.2373 116.123 49.3452 116.502 54.4571C116.599 55.801 116.831 57.149 116.79 58.4849C116.697 61.6072 115.859 62.1351 113.057 60.8642C110.609 59.7557 108.206 58.5417 105.782 57.3764C105.575 57.5713 105.367 57.7621 105.16 57.953Z" fill="#5B3B2C"/>
<path d="M123.419 111.313C125.338 114.289 125.001 117.383 124.887 120.428C124.822 122.138 123.594 122.723 122.028 122.442C119.767 122.036 117.514 121.569 115.282 121.033C113.582 120.627 112.817 121.265 112.451 122.921C112.008 124.923 111.947 126.937 111.87 128.963C111.833 129.905 111.809 130.859 111.646 131.781C111.532 132.423 111.28 133.117 110.52 133.32C109.739 133.531 109.218 133.003 108.808 132.487C107.035 130.258 106.083 127.692 105.306 124.233C107.323 126.361 107.746 128.638 109.836 130.478C110.365 127.416 110.146 124.72 110.788 122.15C111.593 118.934 111.902 118.683 115.229 119.316C116.953 119.645 118.677 119.998 120.406 120.299C123.236 120.79 123.285 120.778 123.403 117.785C123.488 115.629 123.419 113.473 123.419 111.313Z" fill="#603B2A"/>
<path d="M310.218 232.447C308.835 230.71 308.465 228.968 307.831 227.36C301.743 211.866 297.099 195.885 291.792 180.123C286.701 165.002 281.845 149.792 274.672 135.468C273.338 132.808 271.984 130.157 270.662 127.493C269.471 125.094 268.271 122.69 267.572 119.356C269.414 121.029 269.833 122.856 270.695 124.367C277.628 136.507 283.021 149.321 287.551 162.529C292.862 178.003 298.148 193.485 302.975 209.121C304.927 215.447 307.762 221.481 309.474 227.892C309.819 229.171 310.584 230.377 310.218 232.447Z" fill="#3A484B"/>
<path d="M216.19 240.166C218.829 221.546 220.708 202.812 224.38 184.341C225.47 189.157 218.85 234.303 216.19 240.166Z" fill="#3A4D54"/>
<path d="M266.811 223.409C263.086 216.795 257.555 200.582 256.315 193.144C258.174 195.154 265.762 216.649 266.811 223.409Z" fill="#3A545E"/>
<path d="M173.349 236.228C174.028 229.142 175.662 222.354 178.42 215.853C177.997 222.975 176.114 229.731 173.349 236.228Z" fill="#3A5F6F"/>
<path d="M251.87 123.267C250.39 122.706 250.297 121.265 249.845 120.059C249.662 119.568 249.483 118.967 250.309 118.902C250.947 118.853 251.744 118.8 251.813 119.714C251.903 120.895 251.854 122.085 251.862 123.271L251.87 123.267Z" fill="#6B99FF"/>
<path d="M252.594 114.996C252.586 115.711 252.423 116.38 251.553 116.348C250.98 116.324 250.61 115.832 250.545 115.272C250.451 114.472 250.955 113.993 251.679 113.924C252.342 113.859 252.509 114.448 252.594 114.996Z" fill="#6B99FF"/>
<path d="M248.605 136.264C248.784 136.454 249.012 136.617 249.13 136.84C249.39 137.34 249.39 137.843 248.914 138.237C248.829 138.31 248.629 138.338 248.536 138.29C247.893 137.961 248.105 137.457 248.296 136.97C248.393 136.727 248.511 136.491 248.621 136.251C248.621 136.256 248.605 136.264 248.605 136.264Z" fill="#6B99FF"/>
<path d="M105.945 198.699C109.353 198.26 111.577 198.634 114.403 200.136C111.036 200.554 108.482 200.12 105.945 198.699Z" fill="#9B7B81"/>
<path d="M106.351 195.336C107.649 194.646 108.946 194.768 110.239 195.345C108.942 195.341 107.644 195.336 106.351 195.336Z" fill="#CBEFE8"/>
<path d="M247.808 166.314C247.796 165.319 246.974 164.694 246.307 163.727C248.341 164.292 248.341 164.292 247.796 166.306C247.792 166.306 247.808 166.314 247.808 166.314Z" fill="#4680FF"/>
<path d="M246.978 176.858C246.974 177.114 246.999 177.374 246.962 177.621C246.917 177.934 246.986 178.494 246.527 178.369C246.137 178.263 246.279 177.735 246.466 177.414C246.588 177.203 246.812 177.049 246.986 176.87C246.991 176.87 246.978 176.858 246.978 176.858Z" fill="#4680FF"/>
<path d="M91.9232 146.081C89.528 147.339 87.1856 146.133 86.2381 148.529C85.9291 149.309 84.8067 149.041 84.1723 148.371C83.5379 147.697 83.3996 146.527 84.1113 146.284C86.1568 145.589 86.1893 143.815 86.7302 142C87.6452 144.201 88.5195 146.121 91.9232 146.081Z" fill="#9D7D83"/>
<path d="M85.8881 155.595C85.9044 155.753 85.3757 156.216 84.6804 156.265C84.1842 156.301 83.6678 155.932 83.5661 155.294C83.4197 154.413 83.9728 154.023 84.6885 153.999C85.1928 153.983 85.7539 154.218 85.8881 155.595Z" fill="#776264"/>
<path d="M83.9799 149.897C83.7619 150.39 83.6343 150.57 82.7803 150.5C81.9263 150.43 81.7406 150.168 81.6579 149.597C81.5619 148.934 82.1121 148.341 82.7803 148.301C83.5585 148.255 84.295 149.184 83.9799 149.897Z" stroke="#776264" stroke-width="0.5"/>
<path d="M80.6344 155C79.6344 157 81.6343 158 82.6344 158" stroke="#776264"/>
<path d="M72.1343 143.5C73.1343 146.5 76.9068 147 76.9068 147" stroke="#776264"/>
<path d="M78.8145 145.881C79.5574 143.772 77.4484 143.029 76.4562 143.153" stroke="#776264"/>
<path d="M100.626 182.043C100.642 188.856 96.2093 192.848 89.0602 193.209C82.2812 193.55 75.0345 188.093 75.1606 181.024C75.2663 175.145 79.2963 169.732 87.0513 169.448C93.444 169.221 101.866 175.9 100.626 182.043Z" fill="#3DBBFB"/>
<path d="M72.0699 154.892C72.0943 155.404 72.1228 155.915 72.1472 156.427C70.9028 155.558 69.4267 154.998 69.6259 153.11C69.756 151.867 69.2925 150.726 68.6337 149.898C71.6267 150.422 71.6958 150.438 71.0045 153.268C70.7239 154.425 71.4884 154.58 72.1309 154.961C72.1309 154.965 72.0699 154.892 72.0699 154.892Z" fill="#9D9B99"/>
<path d="M270.577 269.498C268.857 268.625 266.974 267.991 265.278 265.762C268.125 266.042 269.645 267.297 270.992 268.864C271.028 268.909 270.776 269.201 270.577 269.498Z" fill="white"/>
<path d="M172.438 267.74C173.751 268.166 174.194 269.169 174.341 270.582C172.771 270.155 172.84 268.811 172.438 267.74Z" fill="white"/>
<path d="M38.9092 286.534C33.3552 281.965 28.5119 276.734 24.5249 270.731C30.1543 275.229 34.8413 280.586 38.9092 286.534Z" fill="#616963"/>
<path d="M73.8538 252.176C74.8158 259.127 74.8415 266.008 73.7449 272.887C72.5023 265.969 72.9052 259.041 73.8538 252.176Z" fill="#616964"/>
<path d="M46.3605 258.355C50.3371 264.218 52.3876 270.912 54.4629 277.593C50.5012 271.725 48.3269 265.085 46.3605 258.355Z" fill="#5D645E"/>
</svg>
