<svg xmlns="http://www.w3.org/2000/svg" width="200" height="57" viewBox="0 0 200 57" fill="none"><rect width="200" height="56.338" rx="10" fill="#E0E0E0" fill-opacity="0.5"></rect><path d="M47.7006 38.3737C45.5151 38.7241 43.7804 38.4005 43.5167 38.3449C40.7884 37.7653 38.5958 36.3779 36.9439 34.1726C35.8696 32.7385 35.2481 31.3173 34.965 29.381C34.8157 28.3468 34.8617 27.3683 35.0028 26.3857C35.0191 26.2885 35.0018 26.3857 35.0191 26.2885C35.5231 23.5076 36.9266 21.2844 39.1703 19.5427C40.6924 18.4073 42.6744 17.7175 44.314 17.5299C45.0858 17.4178 45.8003 17.4178 46.5383 17.4525C45.7379 18.0559 44.9284 18.6504 44.1372 19.2658C42.289 20.7058 40.6096 22.3087 39.341 24.2777C38.651 25.3486 38.19 26.5068 38.376 27.801C38.5968 29.3284 39.941 30.3427 41.9037 30.7585C44.4234 31.2925 47.0034 31.3143 49.5313 31.7401C50.3338 31.875 51.1249 32.0567 51.8241 32.4894C52.6358 32.9916 52.9015 33.7458 52.5703 34.6321C51.7751 36.7649 50.2091 37.8616 47.9541 38.3231" fill="black"></path><path d="M49.8636 18.1582C59.0991 22.5211 56.2768 31.0434 55.8281 31.888C55.0482 29.8911 53.3063 29.0634 51.5921 28.2208C49.7521 27.3167 47.95 26.358 46.3145 25.1313C44.8721 24.0505 44.7362 23.1642 45.8647 21.7757C46.9963 20.3853 48.4601 19.3303 49.8636 18.1582Z" fill="black"></path><path d="M65.2865 35.7028C64.202 35.7604 63.0254 35.7465 61.7599 35.6592C60.4934 35.5728 59.8607 34.8652 59.8607 33.5373V20.8049H61.6362C62.0635 20.8049 62.4417 20.9498 62.7709 21.2376C63.099 21.5265 63.2636 21.8728 63.2636 22.2768V24.226H65.2855V24.8324C65.2855 25.2651 65.1209 25.6194 64.7918 25.8933C64.4626 26.1682 64.0681 26.3052 63.6081 26.3052H63.2626V32.7145C63.2626 33.2058 63.5907 33.4509 64.249 33.4509H65.2845V35.7028H65.2865Z" fill="black"></path><path d="M68.0434 34.6635C67.3534 34.1435 66.8597 33.4438 66.5643 32.5635C66.2679 31.6832 66.1207 30.7661 66.1207 29.8134C66.1207 29.0343 66.2444 28.2542 66.4907 27.4751C66.7371 26.696 67.1234 26.046 67.6499 25.5259C68.5044 24.6595 69.6054 24.1474 70.9547 23.9886C72.3029 23.8298 73.5194 23.9241 74.6039 24.2704C75.853 24.7032 76.7741 25.4544 77.3659 26.5223C77.9251 27.4751 78.2041 28.5867 78.2041 29.857C78.2041 30.781 78.0886 31.575 77.8586 32.2389C77.6286 32.9039 77.3322 33.4666 76.9713 33.9281C76.1822 34.8809 75.1784 35.4734 73.963 35.7036C72.8784 35.9637 71.7847 35.9855 70.6828 35.7682C69.5798 35.5508 68.7007 35.1826 68.0434 34.6635ZM70.4108 27.0414C69.7209 27.7064 69.407 28.6949 69.4735 30.0079C69.5389 31.3219 69.819 32.238 70.3117 32.758C70.509 32.9893 70.8545 33.1848 71.3472 33.3426C71.8409 33.5014 72.3418 33.5163 72.8519 33.3862C73.3609 33.2562 73.8138 32.9317 74.2083 32.4116C74.6029 31.8916 74.8165 31.0549 74.8492 29.8997C74.8492 28.8606 74.6601 28.0805 74.2819 27.5615C73.9037 27.0414 73.4683 26.7099 72.9745 26.565C72.4818 26.4211 71.9881 26.4132 71.4954 26.5432C71.0027 26.6732 70.6408 26.8399 70.4108 27.0414Z" fill="black"></path><path d="M84.9864 35.7028C83.9018 35.7604 82.7253 35.7465 81.4598 35.6592C80.1933 35.5728 79.5605 34.8652 79.5605 33.5373V20.8049H81.3361C81.7634 20.8049 82.1416 20.9498 82.4708 21.2376C82.7989 21.5265 82.9635 21.8728 82.9635 22.2768V24.226H84.9854V24.8324C84.9854 25.2651 84.8208 25.6194 84.4927 25.8933C84.1635 26.1682 83.769 26.3052 83.309 26.3052H82.9635V32.7145C82.9635 33.2058 83.2916 33.4509 83.9499 33.4509H84.9854V35.7028H84.9864Z" fill="black"></path><path d="M94.6023 35.2265C93.9123 35.5441 93.1794 35.7386 92.4076 35.8111C91.6348 35.8825 90.953 35.9193 90.3611 35.9193C89.1774 35.9193 88.1419 35.6374 87.2536 35.0747C86.3654 34.5119 85.9217 33.581 85.9217 32.2809C85.9217 31.0681 86.3245 30.2027 87.13 29.6826C87.9355 29.1626 88.9628 28.8162 90.2129 28.6435C90.3775 28.6435 90.5748 28.6217 90.8048 28.579C91.0348 28.5353 91.2975 28.4996 91.5939 28.4708C93.0403 28.2971 93.7641 27.923 93.7641 27.3444C93.7641 26.9116 93.5085 26.6298 92.9995 26.4998C92.4894 26.3698 92.0212 26.3052 91.5939 26.3052C91.1329 26.3052 90.722 26.3638 90.3611 26.4789C89.9993 26.595 89.7366 26.8114 89.572 27.129H86.2672C86.3981 26.2348 86.8591 25.4984 87.6482 24.9208C88.5365 24.2568 89.801 23.9243 91.4457 23.9243C93.2867 23.9243 94.6677 24.1992 95.5887 24.7471C96.5424 25.3247 97.0188 26.1326 97.0188 27.1727V31.1137C97.0188 32.269 96.7796 33.1711 96.3032 33.8202C95.8269 34.4683 95.2606 34.9377 94.6023 35.2265ZM93.8142 29.9C93.3531 30.1024 92.7122 30.29 91.8904 30.4627L90.7557 30.679C90.1639 30.8239 89.7366 31.0115 89.4739 31.2418C89.2439 31.5594 89.1284 31.8769 89.1284 32.1945C89.1284 32.6272 89.2766 32.9736 89.572 33.2336C89.8684 33.4649 90.2947 33.58 90.8539 33.58C91.7738 33.58 92.4976 33.3488 93.024 32.8873C93.5494 32.4258 93.8131 31.7906 93.8131 30.9817V29.9H93.8142Z" fill="black"></path><path d="M98.4938 20.8049H100.269C100.729 20.8049 101.124 20.9419 101.453 21.2168C101.781 21.4917 101.946 21.8301 101.946 22.2341V35.7028H98.4938V20.8049Z" fill="black"></path><path d="M103.075 31.8916H106.429C106.462 32.4692 106.708 32.9029 107.169 33.1908C107.662 33.4796 108.32 33.6235 109.142 33.6235C109.734 33.6235 110.243 33.5222 110.671 33.3208C111.066 33.1193 111.263 32.8444 111.263 32.498C111.263 31.978 110.573 31.5889 109.192 31.3289C108.6 31.2426 108.157 31.1552 107.86 31.0689C106.117 30.6937 104.95 30.2461 104.358 29.7261C103.7 29.206 103.372 28.5133 103.372 27.6468C103.372 26.5502 103.848 25.6401 104.802 24.9186C105.788 24.2546 107.07 23.9221 108.648 23.9221C110.357 23.9221 111.722 24.2546 112.742 24.9186C113.696 25.6411 114.205 26.579 114.271 27.7332H112.15C111.526 27.7332 111.048 27.4881 110.72 26.9968C110.588 26.8817 110.457 26.7655 110.326 26.6504C109.931 26.3904 109.388 26.2604 108.698 26.2604C108.04 26.2604 107.547 26.3467 107.218 26.5204C106.922 26.6941 106.775 26.9531 106.775 27.2995C106.775 27.762 107.629 28.151 109.339 28.4686C109.537 28.5272 109.709 28.5698 109.858 28.5986C110.006 28.6274 110.145 28.6423 110.277 28.6423C111.953 29.0174 113.12 29.4511 113.779 29.9414C114.403 30.4615 114.716 31.1542 114.716 32.0206C114.716 33.291 114.19 34.2726 113.138 34.9653C112.151 35.6005 110.672 35.9181 108.699 35.9181C106.826 35.9181 105.427 35.5866 104.507 34.9216C103.554 34.2577 103.077 33.291 103.077 32.0197V31.8916H103.075Z" fill="black"></path><path d="M121.601 35.7028C120.516 35.7604 119.34 35.7465 118.074 35.6592C116.808 35.5728 116.175 34.8652 116.175 33.5373V20.8049H117.95C118.378 20.8049 118.756 20.9498 119.085 21.2376C119.413 21.5265 119.578 21.8728 119.578 22.2768V24.226H121.6V24.8324C121.6 25.2651 121.435 25.6194 121.107 25.8933C120.778 26.1682 120.383 26.3052 119.923 26.3052H119.578V32.7145C119.578 33.2058 119.906 33.4509 120.564 33.4509H121.6V35.7028H121.601Z" fill="black"></path><path d="M134.172 24.1833V30.9391C134.172 32.9895 133.562 34.3323 132.347 34.9665C131.131 35.6017 129.799 35.9193 128.352 35.9193C126.939 35.8607 125.648 35.5153 124.481 34.8801C123.314 34.245 122.73 32.9309 122.73 30.9391V24.1833H126.182V31.5455C126.182 32.2382 126.412 32.7444 126.872 33.061C127.332 33.3785 127.859 33.5373 128.45 33.5373C129.042 33.5373 129.576 33.3785 130.053 33.061C130.53 32.7434 130.769 32.2382 130.769 31.5455V25.6552C130.769 25.2512 130.924 24.9049 131.237 24.6161C131.549 24.3282 131.953 24.1833 132.445 24.1833H134.172Z" fill="black"></path><path d="M144.228 20.7612H145.905C146.365 20.7612 146.759 20.9131 147.088 21.2158C147.416 21.5185 147.581 21.8589 147.581 22.2331V30.678C147.581 32.7284 146.906 34.1139 145.559 34.8354C144.211 35.5569 142.748 35.9182 141.17 35.9182C140.314 35.9182 139.476 35.7951 138.654 35.55C137.832 35.3048 137.174 34.9078 136.681 34.359C135.728 33.2911 135.251 31.8332 135.251 29.9852C135.251 28.166 135.728 26.7091 136.681 25.6114C137.668 24.485 138.933 23.9222 140.479 23.9222C141.301 23.9222 142.024 24.0671 142.649 24.355C143.306 24.7013 143.833 25.1489 144.227 25.6978V20.7612H144.228ZM138.606 29.8562C138.606 31.0114 138.852 31.8917 139.346 32.4981C139.839 33.1045 140.546 33.4072 141.467 33.4072C142.355 33.4072 143.045 33.1045 143.539 32.4981C143.999 31.8917 144.229 31.0114 144.229 29.8562C144.229 28.8171 143.983 27.9943 143.489 27.3879C142.963 26.8103 142.256 26.5215 141.368 26.5215C140.512 26.5215 139.839 26.8242 139.346 27.4306C138.852 28.0092 138.606 28.8171 138.606 29.8562Z" fill="black"></path><path d="M149.302 20.8049H151.078C151.538 20.8049 151.932 20.9498 152.262 21.2376C152.59 21.5265 152.754 21.8728 152.754 22.2768V23.1859H149.302V20.8049ZM149.302 24.1833H151.078C151.538 24.1833 151.932 24.3282 152.262 24.616C152.59 24.9048 152.754 25.2512 152.754 25.6551V35.7028H149.302V24.1833Z" fill="black"></path><path d="M155.364 34.6635C154.674 34.1435 154.18 33.4438 153.885 32.5635C153.588 31.6832 153.441 30.7661 153.441 29.8134C153.441 29.0343 153.565 28.2542 153.811 27.4751C154.058 26.696 154.444 26.046 154.97 25.5259C155.825 24.6595 156.926 24.1474 158.275 23.9886C159.624 23.8298 160.84 23.9241 161.924 24.2704C163.174 24.7032 164.095 25.4544 164.686 26.5223C165.246 27.4751 165.525 28.5867 165.525 29.857C165.525 30.781 165.409 31.575 165.179 32.2389C164.949 32.9039 164.653 33.4666 164.292 33.9281C163.503 34.8809 162.499 35.4734 161.284 35.7036C160.199 35.9637 159.105 35.9855 158.004 35.7682C156.9 35.5508 156.021 35.1826 155.364 34.6635ZM157.731 27.0414C157.041 27.7064 156.728 28.6949 156.794 30.0079C156.859 31.3219 157.14 32.238 157.632 32.758C157.83 32.9893 158.175 33.1848 158.668 33.3426C159.16 33.5014 159.662 33.5163 160.172 33.3862C160.681 33.2562 161.134 32.9317 161.529 32.4116C161.923 31.8916 162.137 31.0549 162.17 29.8997C162.17 28.8606 161.981 28.0805 161.602 27.5615C161.224 27.0414 160.789 26.7099 160.295 26.565C159.801 26.4211 159.309 26.4132 158.815 26.5432C158.323 26.6732 157.96 26.8399 157.731 27.0414Z" fill="black"></path></svg>