<svg xmlns="http://www.w3.org/2000/svg" width="200" height="57" viewBox="0 0 200 57" fill="none"><rect width="200" height="56.338" rx="10" fill="#E0E0E0" fill-opacity="0.5"></rect><path d="M90.7244 22.8182L93.1854 30.554H93.2798L95.7457 22.8182H98.1321L94.6222 33H91.848L88.3331 22.8182H90.7244ZM101.907 33.1491C101.135 33.1491 100.467 32.9851 99.9032 32.657C99.3431 32.3255 98.9106 31.8648 98.6056 31.2749C98.3007 30.6816 98.1483 29.9938 98.1483 29.2116C98.1483 28.4228 98.3007 27.7334 98.6056 27.1435C98.9106 26.5502 99.3431 26.0895 99.9032 25.7614C100.467 25.4299 101.135 25.2642 101.907 25.2642C102.679 25.2642 103.345 25.4299 103.905 25.7614C104.469 26.0895 104.903 26.5502 105.208 27.1435C105.513 27.7334 105.665 28.4228 105.665 29.2116C105.665 29.9938 105.513 30.6816 105.208 31.2749C104.903 31.8648 104.469 32.3255 103.905 32.657C103.345 32.9851 102.679 33.1491 101.907 33.1491ZM101.917 31.5085C102.268 31.5085 102.561 31.4091 102.797 31.2102C103.032 31.008 103.209 30.733 103.329 30.3849C103.451 30.0369 103.513 29.6409 103.513 29.1967C103.513 28.7526 103.451 28.3565 103.329 28.0085C103.209 27.6605 103.032 27.3854 102.797 27.1832C102.561 26.9811 102.268 26.88 101.917 26.88C101.562 26.88 101.264 26.9811 101.022 27.1832C100.783 27.3854 100.603 27.6605 100.48 28.0085C100.361 28.3565 100.301 28.7526 100.301 29.1967C100.301 29.6409 100.361 30.0369 100.48 30.3849C100.603 30.733 100.783 31.008 101.022 31.2102C101.264 31.4091 101.562 31.5085 101.917 31.5085ZM109.856 33.1243C109.276 33.1243 108.751 32.9751 108.28 32.6768C107.813 32.3752 107.442 31.9328 107.167 31.3494C106.895 30.7628 106.759 30.0436 106.759 29.1918C106.759 28.3168 106.9 27.5893 107.182 27.0092C107.463 26.4259 107.838 25.9901 108.305 25.7017C108.776 25.41 109.291 25.2642 109.851 25.2642C110.279 25.2642 110.635 25.3371 110.92 25.483C111.209 25.6255 111.441 25.8045 111.616 26.0199C111.795 26.232 111.931 26.4408 112.024 26.6463H112.089V22.8182H114.202V33H112.113V31.777H112.024C111.925 31.9891 111.784 32.1996 111.601 32.4084C111.422 32.6139 111.189 32.7846 110.9 32.9205C110.615 33.0563 110.267 33.1243 109.856 33.1243ZM110.528 31.4389C110.869 31.4389 111.157 31.3461 111.393 31.1605C111.631 30.9716 111.814 30.7081 111.939 30.37C112.069 30.032 112.133 29.6359 112.133 29.1818C112.133 28.7277 112.07 28.3333 111.944 27.9986C111.818 27.6638 111.636 27.4053 111.398 27.223C111.159 27.0407 110.869 26.9496 110.528 26.9496C110.18 26.9496 109.886 27.044 109.648 27.233C109.409 27.4219 109.228 27.6837 109.106 28.0185C108.983 28.3532 108.922 28.741 108.922 29.1818C108.922 29.6259 108.983 30.0187 109.106 30.3601C109.232 30.6982 109.412 30.9633 109.648 31.1555C109.886 31.3445 110.18 31.4389 110.528 31.4389ZM118.12 33.1442C117.633 33.1442 117.199 33.0597 116.818 32.8906C116.437 32.7183 116.135 32.4647 115.913 32.13C115.694 31.7919 115.585 31.371 115.585 30.8672C115.585 30.4429 115.663 30.0866 115.819 29.7983C115.974 29.5099 116.186 29.2779 116.455 29.1023C116.723 28.9266 117.028 28.794 117.37 28.7045C117.714 28.6151 118.076 28.5521 118.453 28.5156C118.898 28.4692 119.256 28.4261 119.527 28.3864C119.799 28.3433 119.996 28.2803 120.119 28.1974C120.242 28.1146 120.303 27.992 120.303 27.8295V27.7997C120.303 27.4848 120.203 27.2412 120.005 27.0689C119.809 26.8965 119.531 26.8104 119.169 26.8104C118.788 26.8104 118.485 26.8949 118.26 27.0639C118.034 27.2296 117.885 27.4384 117.812 27.6903L115.853 27.5312C115.953 27.0672 116.148 26.6662 116.44 26.3281C116.732 25.9867 117.108 25.7249 117.569 25.5426C118.033 25.357 118.569 25.2642 119.179 25.2642C119.604 25.2642 120.01 25.3139 120.397 25.4134C120.788 25.5128 121.135 25.6669 121.436 25.8757C121.741 26.0845 121.982 26.353 122.157 26.6811C122.333 27.0059 122.421 27.3954 122.421 27.8494V33H120.412V31.9411H120.353C120.23 32.1797 120.066 32.3902 119.86 32.5724C119.655 32.7514 119.408 32.8923 119.12 32.995C118.831 33.0945 118.498 33.1442 118.12 33.1442ZM118.727 31.6825C119.038 31.6825 119.314 31.6212 119.552 31.4986C119.791 31.3726 119.978 31.2036 120.114 30.9915C120.25 30.7794 120.318 30.5391 120.318 30.2706V29.4602C120.252 29.5033 120.16 29.5431 120.044 29.5795C119.932 29.6127 119.804 29.6442 119.662 29.674C119.519 29.7005 119.377 29.7254 119.234 29.7486C119.092 29.7685 118.962 29.7867 118.846 29.8033C118.598 29.8397 118.381 29.8977 118.195 29.9773C118.009 30.0568 117.865 30.1645 117.762 30.3004C117.66 30.433 117.608 30.5987 117.608 30.7976C117.608 31.0859 117.713 31.3063 117.922 31.4588C118.134 31.608 118.402 31.6825 118.727 31.6825ZM128.17 25.3636V26.9545H123.457V25.3636H128.17ZM124.536 33V24.8118C124.536 24.2583 124.644 23.7992 124.859 23.4347C125.078 23.0701 125.376 22.7966 125.754 22.6143C126.132 22.4321 126.561 22.3409 127.042 22.3409C127.367 22.3409 127.663 22.3658 127.932 22.4155C128.204 22.4652 128.406 22.5099 128.538 22.5497L128.161 24.1406C128.078 24.1141 127.975 24.0893 127.852 24.0661C127.733 24.0429 127.61 24.0312 127.484 24.0312C127.173 24.0312 126.956 24.1042 126.833 24.25C126.71 24.3925 126.649 24.593 126.649 24.8516V33H124.536ZM132.641 33.1491C131.869 33.1491 131.201 32.9851 130.638 32.657C130.077 32.3255 129.645 31.8648 129.34 31.2749C129.035 30.6816 128.883 29.9938 128.883 29.2116C128.883 28.4228 129.035 27.7334 129.34 27.1435C129.645 26.5502 130.077 26.0895 130.638 25.7614C131.201 25.4299 131.869 25.2642 132.641 25.2642C133.413 25.2642 134.08 25.4299 134.64 25.7614C135.203 26.0895 135.637 26.5502 135.942 27.1435C136.247 27.7334 136.4 28.4228 136.4 29.2116C136.4 29.9938 136.247 30.6816 135.942 31.2749C135.637 31.8648 135.203 32.3255 134.64 32.657C134.08 32.9851 133.413 33.1491 132.641 33.1491ZM132.651 31.5085C133.002 31.5085 133.296 31.4091 133.531 31.2102C133.766 31.008 133.944 30.733 134.063 30.3849C134.186 30.0369 134.247 29.6409 134.247 29.1967C134.247 28.7526 134.186 28.3565 134.063 28.0085C133.944 27.6605 133.766 27.3854 133.531 27.1832C133.296 26.9811 133.002 26.88 132.651 26.88C132.296 26.88 131.998 26.9811 131.756 27.1832C131.518 27.3854 131.337 27.6605 131.214 28.0085C131.095 28.3565 131.035 28.7526 131.035 29.1967C131.035 29.6409 131.095 30.0369 131.214 30.3849C131.337 30.733 131.518 31.008 131.756 31.2102C131.998 31.4091 132.296 31.5085 132.651 31.5085ZM139.895 28.5852V33H137.777V25.3636H139.795V26.7109H139.885C140.054 26.2668 140.337 25.9155 140.735 25.657C141.133 25.3951 141.615 25.2642 142.182 25.2642C142.712 25.2642 143.174 25.3802 143.569 25.6122C143.963 25.8442 144.27 26.1757 144.488 26.6065C144.707 27.0341 144.817 27.5445 144.817 28.1378V33H142.699V28.5156C142.702 28.0483 142.583 27.6837 142.341 27.4219C142.099 27.1567 141.766 27.0241 141.341 27.0241C141.056 27.0241 140.805 27.0855 140.586 27.2081C140.37 27.3307 140.201 27.5097 140.079 27.745C139.959 27.977 139.898 28.2571 139.895 28.5852ZM149.966 33.1491C149.18 33.1491 148.504 32.9901 147.938 32.6719C147.374 32.3504 146.94 31.8963 146.635 31.3097C146.33 30.7197 146.178 30.022 146.178 29.2166C146.178 28.4311 146.33 27.7417 146.635 27.1484C146.94 26.5552 147.369 26.0928 147.923 25.7614C148.479 25.4299 149.132 25.2642 149.881 25.2642C150.385 25.2642 150.854 25.3454 151.288 25.5078C151.726 25.6669 152.107 25.9072 152.432 26.2287C152.76 26.5502 153.015 26.9545 153.197 27.4418C153.38 27.9257 153.471 28.4924 153.471 29.142V29.7237H147.023V28.4112H151.477C151.477 28.1063 151.411 27.8362 151.278 27.6009C151.146 27.3655 150.962 27.1816 150.727 27.049C150.495 26.9131 150.224 26.8452 149.916 26.8452C149.595 26.8452 149.31 26.9197 149.061 27.0689C148.816 27.2147 148.624 27.4119 148.484 27.6605C148.345 27.9058 148.274 28.1792 148.271 28.4808V29.7287C148.271 30.1065 148.34 30.433 148.479 30.7081C148.622 30.9832 148.822 31.1953 149.081 31.3445C149.339 31.4936 149.646 31.5682 150.001 31.5682C150.236 31.5682 150.451 31.535 150.647 31.4688C150.843 31.4025 151.01 31.303 151.149 31.1705C151.288 31.0379 151.394 30.8755 151.467 30.6832L153.426 30.8125C153.327 31.2831 153.123 31.6941 152.815 32.0455C152.51 32.3935 152.115 32.6652 151.631 32.8608C151.151 33.053 150.596 33.1491 149.966 33.1491Z" fill="black"></path><g clip-path="url(#clip0_406_10)"><path d="M61.0005 44.001C69.8374 44.001 77.001 36.8374 77.001 28.0005C77.001 19.1637 69.8374 12 61.0005 12C52.1637 12 45 19.1637 45 28.0005C45 36.8374 52.1637 44.001 61.0005 44.001Z" fill="black"></path><path d="M61.1257 36.8673C56.7569 36.8817 52.2105 33.1533 52.191 27.165C52.1787 23.2047 54.3144 19.389 57.0453 17.1312C59.7136 14.9258 63.3578 13.5106 66.6676 13.4993C67.0935 13.4993 67.5389 13.5331 67.8118 13.6255C64.9178 14.2259 62.6148 16.9188 62.6251 19.974C62.6248 20.0606 62.6314 20.147 62.6446 20.2326C67.4865 21.4118 69.6848 24.3377 69.6981 28.376C69.7115 32.4144 66.5198 36.8489 61.1257 36.8673Z" fill="white"></path></g><defs><clipPath id="clip0_406_10"><rect width="32" height="32" fill="white" transform="translate(45 12)"></rect></clipPath></defs></svg>