<svg width="70" height="71" viewBox="0 0 70 71" fill="none" xmlns="http://www.w3.org/2000/svg">
<path d="M27.2583 58.9964C24.3338 57.7524 21.5971 54.5904 21.5906 51.3554C21.5824 47.8281 23.8538 44.8334 26.679 42.8656C26.3394 44.1284 26.154 45.2834 26.9954 46.4128C27.7776 47.4628 29.1475 47.973 30.4412 47.6964C33.4635 47.0452 33.6023 43.7751 31.8104 41.8703C30.0388 39.9835 28.3248 37.8528 28.9995 35.1168C29.337 33.7454 30.1926 32.4606 31.2769 31.5424C30.4437 33.6975 32.8116 35.8226 34.3715 36.881C37.0777 38.7175 40.0469 40.1057 42.5349 42.2583C45.1524 44.5208 47.085 47.5802 46.6947 51.1286C46.2716 54.9745 43.1666 57.6494 39.683 59C47.0436 57.4011 54.6489 51.779 54.8051 43.7455C54.9341 37.1361 50.3272 32.0498 44.6201 29.1378L44.3219 28.9777C44.4785 29.3518 44.5296 29.67 44.524 29.9546C44.5751 29.7446 44.6096 29.5286 44.6197 29.3059C44.6185 29.5706 44.5832 29.8337 44.515 30.0896L44.524 29.9542C44.4392 30.3052 44.2964 30.6401 44.1012 30.9451L44.1848 30.8565C43.0461 32.715 39.9641 33.1186 38.4412 31.1943C35.9934 28.0986 38.4923 24.7613 38.842 21.4832C39.2802 17.375 36.6623 13.3866 33.4161 11C35.2039 13.8462 32.8485 17.6114 30.9642 19.7166C29.137 21.7571 26.9147 23.461 24.8977 25.3151C22.7309 27.3065 20.6478 29.4041 18.8668 31.7412C15.305 36.4191 13.1245 42.3027 14.7269 48.1387C16.3285 53.9708 21.4616 57.6833 27.2583 58.9964Z" fill="#EE4323"/>
</svg>
