<svg width="99" height="71" viewBox="0 0 99 71" fill="none" xmlns="http://www.w3.org/2000/svg">
<path d="M34.9999 45.1814C22.0438 45.1814 11.8999 40.7623 11.8999 35.138C11.8999 29.5136 22.0438 25.0945 34.9999 25.0945C47.956 25.0945 58.0999 29.5136 58.0999 35.138C58.0999 40.7623 47.956 45.1814 34.9999 45.1814ZM34.9999 27.1032C22.3451 27.1032 13.9086 31.221 13.9086 35.138C13.9086 39.0549 22.3451 43.1727 34.9999 43.1727C47.6547 43.1727 56.0912 39.0549 56.0912 35.138C56.0912 31.221 47.6547 27.1032 34.9999 27.1032Z" fill="#61DAFB"/>
<path d="M26.0621 55.8277C25.0577 55.8277 24.2543 55.6268 23.4508 55.1246C18.5295 52.3125 19.8351 41.3651 26.2629 30.1164C29.276 24.8938 32.9921 20.4746 36.6077 17.6625C40.5247 14.6494 44.0399 13.7455 46.4503 15.1516C48.9612 16.5577 49.8651 20.0729 49.2625 24.9942C48.6599 29.6142 46.6512 35.0377 43.6382 40.2603C40.6251 45.4829 36.909 49.902 33.2934 52.7142C30.6821 54.7229 28.1712 55.8277 26.0621 55.8277ZM43.9395 16.4572C42.3325 16.4572 40.2234 17.3612 37.9134 19.169C34.4986 21.8807 30.9834 26.099 28.0708 31.1207C21.7434 42.0681 21.1408 51.509 24.4551 53.4173C26.1625 54.4216 28.9747 53.5177 32.0882 51.1073C35.5029 48.3955 39.0182 44.1773 41.9308 39.1555C44.8434 34.1338 46.7516 29.0116 47.3543 24.6929C47.8564 20.6755 47.2538 17.8633 45.5464 16.859C45.0443 16.6581 44.5421 16.4572 43.9395 16.4572Z" fill="#61DAFB"/>
<path d="M44.0386 55.8278C39.0168 55.8278 31.7855 49.7013 26.3621 40.16C19.8338 28.9113 18.5281 17.9639 23.4495 15.1517C28.3708 12.3395 37.209 18.8678 43.7373 30.1165C46.7503 35.3391 48.759 40.7626 49.3616 45.3826C50.0647 50.3039 49.0603 53.7187 46.5495 55.2252C45.746 55.6269 44.9425 55.8278 44.0386 55.8278ZM24.4538 16.8591C21.1395 18.7674 21.7421 28.2082 28.0695 39.1556C34.3968 50.103 42.2308 55.3256 45.5451 53.4174C47.2525 52.413 47.8551 49.6009 47.3529 45.5835C46.7503 41.2648 44.8421 36.1426 41.9295 31.1209C35.6021 20.1735 27.7681 14.9509 24.4538 16.8591Z" fill="#61DAFB"/>
<path d="M34.9983 39.1542C37.2171 39.1542 39.0157 37.3555 39.0157 35.1368C39.0157 32.918 37.2171 31.1194 34.9983 31.1194C32.7796 31.1194 30.981 32.918 30.981 35.1368C30.981 37.3555 32.7796 39.1542 34.9983 39.1542Z" fill="#61DAFB"/>
<rect x="51" y="6" width="48" height="21.6667" rx="10.8333" fill="#FC1E1E" fill-opacity="0.16"/>
<path d="M57.951 15.0968V14.2727H61.8335V15.0968H60.3862V19H59.3983V15.0968H57.951ZM62.4729 19V14.2727H64.3379C64.6949 14.2727 64.9996 14.3366 65.252 14.4643C65.5059 14.5905 65.699 14.7698 65.8314 15.0021C65.9652 15.233 66.0322 15.5046 66.0322 15.8169C66.0322 16.1309 65.9645 16.4009 65.8291 16.6271C65.6936 16.8518 65.4974 17.0241 65.2405 17.1442C64.985 17.2642 64.6757 17.3242 64.3125 17.3242H63.0638V16.521H64.151C64.3418 16.521 64.5003 16.4948 64.6265 16.4425C64.7526 16.3902 64.8465 16.3117 64.9081 16.207C64.9712 16.1024 65.0027 15.9724 65.0027 15.8169C65.0027 15.66 64.9712 15.5276 64.9081 15.4199C64.8465 15.3122 64.7519 15.2306 64.6242 15.1752C64.498 15.1183 64.3387 15.0898 64.1464 15.0898H63.4723V19H62.4729ZM65.0258 16.8487L66.2007 19H65.0973L63.9478 16.8487H65.0258ZM66.7385 19V14.2727H69.9239V15.0968H67.738V16.2232H69.76V17.0472H67.738V18.176H69.9331V19H66.7385ZM74.6725 14.2727V19H73.8092L71.7526 16.0247H71.718V19H70.7185V14.2727H71.5956L73.6361 17.2457H73.6776V14.2727H74.6725ZM77.1741 19H75.4983V14.2727H77.1879C77.6634 14.2727 78.0727 14.3674 78.4159 14.5566C78.759 14.7444 79.0229 15.0144 79.2076 15.3668C79.3938 15.7192 79.4869 16.1409 79.4869 16.6317C79.4869 17.1242 79.3938 17.5473 79.2076 17.9013C79.0229 18.2552 78.7575 18.5268 78.4113 18.7161C78.0666 18.9054 77.6542 19 77.1741 19ZM76.4977 18.1436H77.1325C77.428 18.1436 77.6765 18.0913 77.8781 17.9867C78.0812 17.8805 78.2335 17.7166 78.3351 17.495C78.4382 17.2719 78.4897 16.9841 78.4897 16.6317C78.4897 16.2824 78.4382 15.997 78.3351 15.7754C78.2335 15.5538 78.082 15.3907 77.8804 15.286C77.6788 15.1814 77.4303 15.1291 77.1348 15.1291H76.4977V18.1436ZM81.2267 14.2727V19H80.2273V14.2727H81.2267ZM86.0031 14.2727V19H85.1398L83.0831 16.0247H83.0485V19H82.0491V14.2727H82.9262L84.9667 17.2457H85.0082V14.2727H86.0031ZM89.9634 15.8008C89.9311 15.6884 89.8857 15.5892 89.8272 15.503C89.7688 15.4153 89.6972 15.3414 89.6126 15.2814C89.5295 15.2199 89.4341 15.1729 89.3263 15.1406C89.2202 15.1083 89.1025 15.0922 88.9732 15.0922C88.7316 15.0922 88.5192 15.1522 88.3361 15.2722C88.1545 15.3922 88.013 15.5669 87.9114 15.7962C87.8098 16.0239 87.7591 16.3024 87.7591 16.6317C87.7591 16.9611 87.8091 17.2411 87.9091 17.4719C88.0091 17.7028 88.1507 17.879 88.3338 18.0005C88.5169 18.1206 88.7331 18.1806 88.9824 18.1806C89.2086 18.1806 89.4018 18.1406 89.5618 18.0605C89.7234 17.979 89.8465 17.8643 89.9311 17.7166C90.0173 17.5689 90.0604 17.3942 90.0604 17.1926L90.2635 17.2227H89.0447V16.4702H91.0229V17.0657C91.0229 17.4812 90.9352 17.8382 90.7598 18.1367C90.5843 18.4337 90.3427 18.663 90.035 18.8246C89.7272 18.9846 89.3748 19.0646 88.9778 19.0646C88.5346 19.0646 88.1453 18.9669 87.8098 18.7715C87.4744 18.5745 87.2128 18.2952 87.025 17.9336C86.8388 17.5704 86.7457 17.1396 86.7457 16.641C86.7457 16.2578 86.8011 15.9162 86.9119 15.6161C87.0243 15.3145 87.1812 15.0591 87.3828 14.8498C87.5844 14.6405 87.8191 14.4812 88.0868 14.372C88.3546 14.2627 88.6446 14.2081 88.957 14.2081C89.2248 14.2081 89.4741 14.2473 89.7049 14.3258C89.9357 14.4028 90.1404 14.512 90.3189 14.6536C90.4989 14.7952 90.6459 14.9637 90.7598 15.1591C90.8736 15.353 90.9467 15.5669 90.979 15.8008H89.9634Z" fill="#FC1E1E"/>
</svg>
