<svg width="70" height="71" viewBox="0 0 70 71" fill="none" xmlns="http://www.w3.org/2000/svg">
<path fill-rule="evenodd" clip-rule="evenodd" d="M49.999 42.365C50.1838 42.2588 50.3375 42.1059 50.4445 41.9216C50.5516 41.7373 50.6083 41.5281 50.609 41.315L50.6309 34.2822C50.6316 34.069 50.6883 33.8598 50.7954 33.6755C50.9025 33.4912 51.0561 33.3383 51.241 33.2322L55.0533 31.0422C55.2381 30.9361 55.4475 30.8805 55.6606 30.8808C55.8736 30.8812 56.0829 30.9375 56.2673 31.0443C56.4517 31.151 56.6048 31.3043 56.7112 31.4889C56.8177 31.6735 56.8737 31.8828 56.8738 32.0959V44.8818C56.8737 45.0956 56.8173 45.3056 56.7102 45.4905C56.6031 45.6755 56.4491 45.829 56.2637 45.9355L41.876 54.1994C41.6923 54.3049 41.4841 54.3605 41.2722 54.3607C41.0603 54.3609 40.852 54.3057 40.6681 54.2006L29.3769 47.7426C29.1909 47.6363 29.0363 47.4828 28.9287 47.2976C28.8212 47.1123 28.7645 46.9019 28.7644 46.6877V40.2407C28.7644 40.2334 28.7729 40.2285 28.7802 40.2322C28.7863 40.2358 28.7948 40.2322 28.7948 40.2237V40.2164C28.7948 40.2115 28.7972 40.2066 28.8021 40.2042L38.1014 34.8618C38.1099 34.857 38.1062 34.8436 38.0965 34.8436C38.0939 34.8436 38.0915 34.8426 38.0897 34.8408C38.0878 34.8389 38.0868 34.8365 38.0868 34.8339L38.105 28.5132C38.1059 28.2995 38.0504 28.0893 37.944 27.9039C37.8377 27.7185 37.6844 27.5644 37.4995 27.4571C37.3146 27.3499 37.1047 27.2933 36.891 27.2931C36.6772 27.2929 36.4672 27.3491 36.2821 27.4559L29.3708 31.4384C29.1864 31.5446 28.9773 31.6005 28.7644 31.6005C28.5516 31.6005 28.3424 31.5446 28.158 31.4384L21.2248 27.4462C21.0401 27.3399 20.8307 27.284 20.6175 27.2841C20.4044 27.2843 20.195 27.3405 20.0105 27.4471C19.8259 27.5537 19.6726 27.707 19.566 27.8916C19.4594 28.0761 19.4033 28.2855 19.4031 28.4987V39.9223C19.4033 40.1352 19.3475 40.3444 19.2413 40.529C19.1352 40.7136 18.9824 40.867 18.7983 40.9739C18.6142 41.0809 18.4052 41.1376 18.1923 41.1384C17.9793 41.1391 17.77 41.084 17.5851 40.9783L13.7375 38.7787C13.5511 38.6722 13.3963 38.5183 13.2887 38.3326C13.1811 38.1469 13.1246 37.936 13.125 37.7214L13.159 17.7544C13.1595 17.5415 13.2159 17.3325 13.3225 17.1483C13.4291 16.964 13.5823 16.811 13.7666 16.7046C13.9509 16.5982 14.16 16.542 14.3729 16.5417C14.5857 16.5415 14.7949 16.5972 14.9795 16.7032L28.1592 24.2731C28.3434 24.3789 28.552 24.4345 28.7644 24.4345C28.9768 24.4345 29.1855 24.3789 29.3696 24.2731L42.5457 16.7032C42.7305 16.597 42.94 16.5413 43.1532 16.5418C43.3664 16.5422 43.5757 16.5986 43.7602 16.7055C43.9446 16.8124 44.0977 16.9659 44.2041 17.1506C44.3104 17.3354 44.3663 17.5449 44.3661 17.758V37.7299C44.3662 37.9436 44.31 38.1534 44.2031 38.3384C44.0962 38.5234 43.9424 38.6769 43.7573 38.7836L36.8569 42.7575C36.6716 42.8644 36.5177 43.0182 36.4109 43.2036C36.3041 43.389 36.2481 43.5992 36.2486 43.8132C36.2491 44.0271 36.3061 44.2371 36.4137 44.422C36.5214 44.6069 36.676 44.76 36.8618 44.866L40.6681 47.0329C40.852 47.1376 41.0601 47.1924 41.2718 47.192C41.4834 47.1916 41.6913 47.1359 41.8748 47.0304L49.999 42.365ZM50.7974 24.4493C50.7976 24.6643 50.8547 24.8753 50.963 25.0609C51.0714 25.2465 51.227 25.4001 51.414 25.506C51.601 25.6119 51.8128 25.6662 52.0277 25.6636C52.2426 25.6609 52.453 25.6013 52.6373 25.4908L56.2832 23.3033C56.4631 23.1955 56.6121 23.0429 56.7156 22.8604C56.8191 22.6779 56.8736 22.4717 56.8738 22.2618V17.8042C56.8734 17.5894 56.8161 17.3785 56.7077 17.1931C56.5993 17.0076 56.4436 16.8542 56.2566 16.7485C56.0696 16.6428 55.858 16.5885 55.6432 16.5912C55.4284 16.5939 55.2181 16.6535 55.0339 16.7639L51.388 18.9514C51.208 19.0593 51.059 19.2119 50.9555 19.3944C50.852 19.5769 50.7976 19.7831 50.7974 19.9929V24.4506V24.4493Z" fill="#007FFF"/>
</svg>
