<svg width="408" height="188" viewBox="0 0 408 188" fill="none" xmlns="http://www.w3.org/2000/svg">
<rect x="0.5" y="0.5" width="407" height="121" rx="7.5" fill="#FAFAFA"/>
<rect x="20" y="20" width="368" height="34" rx="4" fill="#DAE6FF"/>
<rect x="30" y="34" width="324" height="6" rx="3" fill="#FAFAFA"/>
<circle cx="371" cy="37" r="7" fill="#90B3FF"/>
<rect x="20" y="59" width="368" height="34" rx="4" fill="#EDF3FF"/>
<circle cx="37" cy="76" r="7" fill="#B5CCFF"/>
<rect x="54" y="73" width="324" height="6" rx="3" fill="white"/>
<rect x="20" y="98" width="368" height="34" rx="4" fill="white"/>
<rect x="30" y="112" width="324" height="6" rx="3" fill="#EFEFEF"/>
<circle cx="371" cy="115" r="7" fill="#B5CCFF"/>
<rect x="0.5" y="0.5" width="407" height="121" rx="7.5" stroke="#F5F5F5"/>
<rect x="0.5" y="0.5" width="407" height="137" rx="7.5" fill="url(#paint0_linear_3429_128375)" stroke="#EFEFEF"/>
<g filter="url(#filter0_d_3429_128375)">
<rect x="57" y="83" width="294" height="73" rx="8" fill="white"/>
</g>
<path opacity="0.4" d="M109 117.61C105.725 117.61 103.062 120.272 103.062 123.547C103.062 126.76 105.575 129.36 108.85 129.472C108.95 129.46 109.05 129.46 109.125 129.472C109.15 129.472 109.162 129.472 109.187 129.472C109.2 129.472 109.2 129.472 109.213 129.472C112.413 129.36 114.925 126.76 114.938 123.547C114.938 120.272 112.275 117.61 109 117.61Z" fill="#4680FF"/>
<path d="M115.35 132.797C111.863 130.472 106.175 130.472 102.663 132.797C101.075 133.86 100.2 135.297 100.2 136.835C100.2 138.372 101.075 139.797 102.65 140.847C104.4 142.022 106.7 142.61 109 142.61C111.3 142.61 113.6 142.022 115.35 140.847C116.925 139.785 117.8 138.36 117.8 136.81C117.788 135.272 116.925 133.847 115.35 132.797Z" fill="#4680FF"/>
<path opacity="0.4" d="M296.25 116.61C292.975 116.61 290.312 119.272 290.312 122.547C290.312 125.76 292.825 128.36 296.1 128.472C296.2 128.46 296.3 128.46 296.375 128.472C296.4 128.472 296.412 128.472 296.437 128.472C296.45 128.472 296.45 128.472 296.463 128.472C299.663 128.36 302.175 125.76 302.188 122.547C302.188 119.272 299.525 116.61 296.25 116.61Z" fill="#4680FF"/>
<path d="M302.6 131.797C299.113 129.472 293.425 129.472 289.913 131.797C288.325 132.86 287.45 134.297 287.45 135.835C287.45 137.372 288.325 138.797 289.9 139.847C291.65 141.022 293.95 141.61 296.25 141.61C298.55 141.61 300.85 141.022 302.6 139.847C304.175 138.785 305.05 137.36 305.05 135.81C305.038 134.272 304.175 132.847 302.6 131.797Z" fill="#4680FF"/>
<path opacity="0.4" d="M309.988 123.284C310.188 125.709 308.463 127.834 306.075 128.122C306.063 128.122 306.063 128.122 306.05 128.122H306.013C305.938 128.122 305.863 128.122 305.8 128.147C304.588 128.209 303.475 127.822 302.638 127.109C303.925 125.959 304.663 124.234 304.513 122.359C304.425 121.347 304.075 120.422 303.55 119.634C304.025 119.397 304.575 119.247 305.138 119.197C307.588 118.984 309.775 120.809 309.988 123.284Z" fill="#4680FF"/>
<path d="M312.487 134.847C312.387 136.06 311.612 137.11 310.312 137.822C309.062 138.51 307.487 138.835 305.925 138.797C306.825 137.985 307.35 136.972 307.45 135.897C307.575 134.347 306.837 132.86 305.362 131.672C304.525 131.01 303.55 130.485 302.487 130.097C305.25 129.297 308.725 129.835 310.862 131.56C312.012 132.485 312.6 133.647 312.487 134.847Z" fill="#4680FF"/>
<path opacity="0.7" d="M121.75 128.99C121.745 129.128 121.852 129.244 121.99 129.25L124.238 129.339C124.376 129.344 124.493 129.237 124.498 129.099C124.504 128.961 124.396 128.845 124.258 128.839L122.26 128.76L122.339 126.762C122.344 126.624 122.237 126.507 122.099 126.502C121.961 126.496 121.845 126.604 121.839 126.742L121.75 128.99ZM203 97V97.25V97ZM122 129C122.17 129.184 122.17 129.184 122.17 129.184C122.17 129.184 122.17 129.184 122.17 129.184C122.17 129.184 122.17 129.184 122.17 129.184C122.17 129.184 122.17 129.184 122.17 129.184C122.17 129.184 122.17 129.183 122.17 129.183C122.17 129.183 122.17 129.183 122.171 129.182C122.172 129.182 122.173 129.18 122.175 129.179C122.179 129.175 122.184 129.17 122.192 129.163C122.207 129.149 122.23 129.128 122.26 129.101C122.321 129.046 122.413 128.964 122.534 128.856L122.202 128.482C122.08 128.591 121.987 128.674 121.925 128.73C121.894 128.758 121.87 128.78 121.855 128.794C121.847 128.801 121.841 128.807 121.837 128.811C121.835 128.812 121.833 128.814 121.832 128.815C121.832 128.815 121.831 128.816 121.831 128.816C121.831 128.816 121.831 128.816 121.83 128.816C121.83 128.816 121.83 128.816 121.83 128.816C121.83 128.816 121.83 128.816 121.83 128.816C121.83 128.816 121.83 128.816 121.83 128.816C121.83 128.816 121.83 128.816 122 129ZM123.279 128.208C123.503 128.016 123.76 127.798 124.048 127.557L123.728 127.173C123.437 127.416 123.179 127.635 122.954 127.828L123.279 128.208ZM124.831 126.911C125.079 126.708 125.345 126.493 125.627 126.267L125.314 125.877C125.031 126.104 124.764 126.32 124.514 126.524L124.831 126.911ZM126.399 125.654C126.655 125.453 126.921 125.245 127.199 125.03L126.893 124.635C126.615 124.85 126.347 125.059 126.09 125.261L126.399 125.654ZM128.001 124.416C128.26 124.219 128.526 124.018 128.801 123.813L128.502 123.412C128.226 123.619 127.958 123.821 127.698 124.018L128.001 124.416ZM129.618 123.207C129.881 123.014 130.15 122.817 130.426 122.618L130.132 122.213C129.856 122.413 129.586 122.61 129.322 122.804L129.618 123.207ZM131.249 122.026C131.518 121.835 131.791 121.641 132.07 121.445L131.783 121.036C131.503 121.232 131.228 121.427 130.959 121.619L131.249 122.026ZM132.896 120.87C133.171 120.68 133.45 120.488 133.734 120.294L133.453 119.881C133.168 120.075 132.887 120.268 132.612 120.458L132.896 120.87ZM134.561 119.736C134.84 119.548 135.124 119.359 135.412 119.169L135.137 118.751C134.847 118.943 134.563 119.132 134.282 119.321L134.561 119.736ZM136.245 118.622C136.524 118.441 136.807 118.258 137.093 118.075L136.823 117.654C136.536 117.838 136.252 118.021 135.972 118.203L136.245 118.622ZM137.951 117.528C138.23 117.353 138.511 117.176 138.796 116.999L138.532 116.575C138.246 116.752 137.964 116.929 137.685 117.106L137.951 117.528ZM139.66 116.466C139.944 116.292 140.232 116.117 140.522 115.942L140.264 115.514C139.972 115.69 139.684 115.865 139.399 116.04L139.66 116.466ZM141.381 115.428C141.67 115.256 141.962 115.084 142.257 114.912L142.005 114.48C141.709 114.653 141.416 114.826 141.126 114.998L141.381 115.428ZM143.127 114.408C143.415 114.242 143.705 114.076 143.998 113.91L143.752 113.475C143.458 113.642 143.167 113.808 142.878 113.974L143.127 114.408ZM144.884 113.413C145.176 113.25 145.469 113.088 145.765 112.926L145.525 112.488C145.228 112.65 144.933 112.813 144.641 112.976L144.884 113.413ZM146.646 112.447C146.942 112.288 147.24 112.128 147.541 111.969L147.306 111.527C147.005 111.687 146.706 111.847 146.409 112.007L146.646 112.447ZM148.434 111.5C148.728 111.346 149.025 111.193 149.324 111.04L149.096 110.595C148.796 110.748 148.498 110.902 148.203 111.056L148.434 111.5ZM150.226 110.582C150.526 110.43 150.829 110.279 151.133 110.129L150.912 109.681C150.606 109.832 150.303 109.983 150.001 110.135L150.226 110.582ZM152.031 109.689C152.332 109.543 152.635 109.397 152.94 109.252L152.725 108.8C152.419 108.946 152.115 109.093 151.813 109.239L152.031 109.689ZM153.86 108.817C154.161 108.676 154.464 108.536 154.768 108.397L154.559 107.942C154.254 108.082 153.95 108.223 153.648 108.364L153.86 108.817ZM155.683 107.98C155.99 107.842 156.299 107.705 156.609 107.568L156.407 107.11C156.096 107.248 155.786 107.386 155.478 107.524L155.683 107.98ZM157.533 107.164C157.839 107.032 158.146 106.9 158.455 106.769L158.26 106.309C157.95 106.44 157.642 106.572 157.335 106.705L157.533 107.164ZM159.386 106.379C159.698 106.249 160.011 106.121 160.326 105.993L160.138 105.529C159.822 105.658 159.507 105.787 159.194 105.917L159.386 106.379ZM161.255 105.62C161.565 105.497 161.877 105.374 162.191 105.252L162.01 104.786C161.695 104.908 161.382 105.031 161.07 105.155L161.255 105.62ZM163.135 104.889C163.449 104.77 163.765 104.652 164.082 104.535L163.908 104.066C163.59 104.184 163.273 104.302 162.958 104.422L163.135 104.889ZM165.023 104.19C165.338 104.076 165.654 103.963 165.972 103.851L165.806 103.379C165.487 103.492 165.169 103.605 164.853 103.72L165.023 104.19ZM166.929 103.517C167.245 103.409 167.563 103.301 167.881 103.194L167.723 102.72C167.403 102.827 167.084 102.935 166.766 103.045L166.929 103.517ZM168.835 102.879C169.154 102.775 169.474 102.672 169.796 102.57L169.645 102.093C169.322 102.196 169 102.299 168.68 102.404L168.835 102.879ZM170.764 102.267C171.082 102.169 171.402 102.072 171.723 101.976L171.58 101.497C171.258 101.594 170.937 101.691 170.617 101.79L170.764 102.267ZM172.687 101.692C173.01 101.599 173.334 101.506 173.659 101.415L173.524 100.934C173.197 101.025 172.872 101.118 172.548 101.212L172.687 101.692ZM174.635 101.145C174.957 101.058 175.28 100.971 175.603 100.886L175.476 100.403C175.151 100.488 174.827 100.575 174.504 100.662L174.635 101.145ZM176.577 100.635C176.903 100.552 177.23 100.471 177.558 100.391L177.439 99.9049C177.11 99.9854 176.782 100.067 176.455 100.15L176.577 100.635ZM178.542 100.155C178.866 100.078 179.192 100.003 179.518 99.9294L179.408 99.4417C179.08 99.5158 178.753 99.5913 178.427 99.6679L178.542 100.155ZM180.501 99.7118C180.83 99.6406 181.159 99.5707 181.49 99.5021L181.388 99.0125C181.056 99.0814 180.725 99.1516 180.395 99.2232L180.501 99.7118ZM182.48 99.3011C182.808 99.2363 183.136 99.1728 183.465 99.1106L183.372 98.6193C183.041 98.6818 182.712 98.7455 182.383 98.8107L182.48 99.3011ZM184.455 98.9283C184.785 98.869 185.117 98.811 185.45 98.7544L185.366 98.2615C185.032 98.3183 184.699 98.3765 184.366 98.4362L184.455 98.9283ZM186.447 98.5895C186.777 98.5366 187.107 98.4851 187.438 98.435L187.363 97.9406C187.031 97.9909 186.699 98.0426 186.368 98.0958L186.447 98.5895ZM188.434 98.2892C188.766 98.2421 189.1 98.1964 189.434 98.1522L189.369 97.6565C189.033 97.7009 188.698 97.7468 188.363 97.7942L188.434 98.2892ZM190.438 98.0244C190.769 97.9838 191.101 97.9448 191.433 97.9072L191.377 97.4104C191.043 97.4481 190.71 97.4874 190.377 97.5281L190.438 98.0244ZM192.433 97.799C192.767 97.7645 193.102 97.7315 193.438 97.7001L193.391 97.2022C193.054 97.2338 192.718 97.267 192.382 97.3017L192.433 97.799ZM194.447 97.6104C194.779 97.5826 195.112 97.5562 195.446 97.5315L195.409 97.0328C195.074 97.0577 194.739 97.0842 194.405 97.1122L194.447 97.6104ZM196.449 97.4619C196.783 97.4403 197.119 97.4203 197.455 97.402L197.428 96.9027C197.09 96.9212 196.753 96.9413 196.416 96.963L196.449 97.4619ZM198.467 97.3517C198.8 97.3368 199.135 97.3234 199.47 97.3117L199.453 96.812C199.116 96.8238 198.78 96.8372 198.444 96.8522L198.467 97.3517ZM200.474 97.2817C200.809 97.2733 201.145 97.2665 201.481 97.2615L201.474 96.7615C201.136 96.7666 200.798 96.7734 200.461 96.7818L200.474 97.2817ZM202.493 97.2513C202.662 97.2504 202.831 97.25 203 97.25V96.75C202.83 96.75 202.66 96.7504 202.49 96.7513L202.493 97.2513ZM203 97.25C203.167 97.25 203.334 97.2505 203.501 97.2516L203.505 96.7516C203.336 96.7505 203.168 96.75 203 96.75V97.25ZM204.504 97.2644C204.838 97.2707 205.172 97.2792 205.506 97.2897L205.522 96.7899C205.186 96.7794 204.85 96.7708 204.514 96.7645L204.504 97.2644ZM206.508 97.3273C206.842 97.3419 207.176 97.3586 207.51 97.3772L207.538 96.878C207.202 96.8592 206.866 96.8425 206.53 96.8278L206.508 97.3273ZM208.511 97.439C208.844 97.4615 209.178 97.4861 209.511 97.5125L209.55 97.0141C209.215 96.9875 208.88 96.9628 208.544 96.9401L208.511 97.439ZM210.51 97.5976C210.843 97.6279 211.176 97.66 211.508 97.6941L211.559 97.1966C211.225 97.1624 210.89 97.1301 210.555 97.0996L210.51 97.5976ZM212.506 97.8017C212.838 97.8394 213.17 97.8789 213.501 97.9202L213.563 97.424C213.23 97.3825 212.896 97.3428 212.562 97.3049L212.506 97.8017ZM214.496 98.0495C214.827 98.0944 215.159 98.141 215.49 98.1894L215.562 97.6947C215.229 97.646 214.896 97.5991 214.563 97.554L214.496 98.0495ZM216.482 98.3397C216.812 98.3915 217.142 98.445 217.471 98.5001L217.554 98.0069C217.223 97.9515 216.891 97.8978 216.559 97.8457L216.482 98.3397ZM218.46 98.6704C218.789 98.729 219.119 98.7891 219.448 98.8508L219.54 98.3594C219.209 98.2974 218.878 98.237 218.547 98.1781L218.46 98.6704ZM220.433 99.0407C220.761 99.1056 221.088 99.172 221.415 99.2399L221.517 98.7503C221.188 98.6821 220.859 98.6154 220.53 98.5502L220.433 99.0407ZM222.397 99.4485C222.724 99.5196 223.051 99.5923 223.378 99.6664L223.488 99.1788C223.16 99.1044 222.832 99.0314 222.503 98.9599L222.397 99.4485ZM224.355 99.893C224.68 99.9699 225.005 100.048 225.329 100.128L225.449 99.6425C225.123 99.5624 224.797 99.4837 224.47 99.4064L224.355 99.893ZM226.304 100.372C226.628 100.455 226.952 100.539 227.276 100.625L227.404 100.142C227.079 100.056 226.753 99.9711 226.427 99.8878L226.304 100.372ZM228.245 100.886C228.567 100.974 228.888 101.063 229.209 101.154L229.345 100.673C229.023 100.582 228.7 100.492 228.376 100.403L228.245 100.886ZM230.177 101.431C230.498 101.525 230.819 101.62 231.14 101.716L231.284 101.237C230.962 101.141 230.639 101.045 230.316 100.951L230.177 101.431ZM232.099 102.008C232.418 102.107 232.737 102.207 233.055 102.308L233.207 101.831C232.887 101.73 232.567 101.63 232.246 101.531L232.099 102.008ZM234.014 102.616C234.332 102.72 234.65 102.825 234.967 102.931L235.126 102.457C234.807 102.35 234.488 102.245 234.169 102.141L234.014 102.616ZM235.916 103.252C236.233 103.361 236.549 103.47 236.865 103.581L237.03 103.109C236.714 102.998 236.396 102.888 236.078 102.779L235.916 103.252ZM237.813 103.917C238.129 104.031 238.443 104.145 238.757 104.26L238.929 103.79C238.614 103.675 238.299 103.56 237.982 103.447L237.813 103.917ZM239.694 104.608C240.009 104.726 240.323 104.845 240.636 104.965L240.815 104.498C240.501 104.378 240.186 104.258 239.87 104.14L239.694 104.608ZM241.574 105.328C241.886 105.449 242.197 105.572 242.506 105.695L242.692 105.231C242.381 105.107 242.069 104.984 241.756 104.862L241.574 105.328ZM243.436 106.069C243.748 106.196 244.059 106.324 244.369 106.452L244.56 105.99C244.249 105.861 243.937 105.733 243.624 105.606L243.436 106.069ZM245.296 106.839C245.604 106.969 245.91 107.099 246.215 107.23L246.413 106.771C246.106 106.64 245.799 106.509 245.49 106.379L245.296 106.839ZM247.14 107.63C247.448 107.765 247.756 107.9 248.062 108.036L248.265 107.579C247.958 107.443 247.649 107.307 247.34 107.172L247.14 107.63ZM248.976 108.446C249.281 108.583 249.584 108.721 249.886 108.86L250.094 108.405C249.792 108.266 249.487 108.128 249.182 107.99L248.976 108.446ZM250.804 109.284C251.108 109.426 251.411 109.568 251.713 109.711L251.927 109.259C251.624 109.116 251.32 108.973 251.015 108.831L250.804 109.284ZM252.613 110.14C252.918 110.286 253.221 110.433 253.522 110.58L253.741 110.13C253.439 109.983 253.135 109.836 252.83 109.689L252.613 110.14ZM254.426 111.024C254.726 111.172 255.025 111.321 255.321 111.47L255.545 111.023C255.248 110.874 254.949 110.725 254.648 110.576L254.426 111.024ZM256.217 111.922C256.518 112.076 256.818 112.229 257.116 112.383L257.346 111.939C257.047 111.785 256.746 111.63 256.443 111.477L256.217 111.922ZM258.005 112.845C258.301 113 258.596 113.155 258.888 113.309L259.122 112.868C258.829 112.712 258.534 112.557 258.237 112.402L258.005 112.845ZM259.783 113.787C260.079 113.946 260.374 114.105 260.666 114.264L260.904 113.824C260.612 113.665 260.317 113.506 260.02 113.346L259.783 113.787ZM261.537 114.74C261.836 114.905 262.132 115.069 262.427 115.234L262.67 114.797C262.375 114.632 262.078 114.468 261.778 114.303L261.537 114.74ZM263.302 115.725C263.592 115.889 263.879 116.052 264.164 116.215L264.412 115.781C264.127 115.617 263.839 115.454 263.548 115.29L263.302 115.725ZM265.048 116.723C265.339 116.891 265.628 117.06 265.915 117.227L266.167 116.796C265.88 116.628 265.59 116.459 265.298 116.29L265.048 116.723ZM266.771 117.732C267.065 117.906 267.357 118.08 267.646 118.253L267.903 117.824C267.613 117.651 267.321 117.477 267.025 117.301L266.771 117.732ZM268.502 118.769C268.79 118.944 269.075 119.118 269.356 119.291L269.618 118.865C269.335 118.692 269.05 118.517 268.761 118.342L268.502 118.769ZM270.219 119.824C270.503 120 270.783 120.175 271.06 120.349L271.326 119.925C271.049 119.751 270.768 119.576 270.483 119.399L270.219 119.824ZM271.919 120.892C272.205 121.074 272.487 121.254 272.764 121.432L273.034 121.011C272.756 120.833 272.474 120.652 272.187 120.47L271.919 120.892ZM273.602 121.974C273.891 122.162 274.174 122.347 274.452 122.53L274.727 122.112C274.448 121.929 274.164 121.743 273.875 121.555L273.602 121.974ZM275.273 123.074C275.564 123.267 275.848 123.457 276.125 123.644L276.405 123.23C276.127 123.042 275.842 122.851 275.55 122.657L275.273 123.074ZM276.938 124.195C277.229 124.393 277.512 124.588 277.786 124.777L278.07 124.366C277.795 124.176 277.511 123.981 277.219 123.782L276.938 124.195ZM278.594 125.339C278.884 125.541 279.163 125.738 279.431 125.928L279.72 125.52C279.451 125.329 279.172 125.132 278.881 124.929L278.594 125.339ZM280.247 126.51C280.528 126.712 280.794 126.904 281.043 127.086L281.338 126.682C281.087 126.499 280.821 126.306 280.539 126.104L280.247 126.51ZM281.866 127.691C282.168 127.914 282.437 128.116 282.672 128.293L282.973 127.894C282.737 127.716 282.467 127.513 282.164 127.289L281.866 127.691ZM283.468 128.901C283.592 128.998 283.687 129.071 283.75 129.121C283.781 129.146 283.805 129.164 283.821 129.177C283.829 129.183 283.834 129.188 283.838 129.191C283.84 129.192 283.842 129.194 283.843 129.194C283.843 129.195 283.844 129.195 283.844 129.195C283.844 129.195 283.844 129.195 283.844 129.195C283.844 129.195 283.844 129.195 283.844 129.195C283.844 129.195 283.844 129.195 283.844 129.195V129.195C283.844 129.195 283.844 129.195 284 129C284.156 128.805 284.156 128.805 284.156 128.805C284.156 128.805 284.156 128.805 284.156 128.805C284.156 128.805 284.156 128.805 284.156 128.805C284.156 128.805 284.156 128.805 284.156 128.804C284.156 128.804 284.156 128.804 284.155 128.804C284.155 128.804 284.155 128.804 284.154 128.803C284.153 128.802 284.152 128.801 284.15 128.8C284.145 128.796 284.139 128.791 284.131 128.785C284.115 128.772 284.091 128.753 284.059 128.728C283.995 128.678 283.899 128.603 283.774 128.506L283.468 128.901Z" fill="#6F747F"/>
<path opacity="0.4" d="M276.25 128.986C276.258 129.123 276.152 129.242 276.014 129.25L273.768 129.379C273.63 129.387 273.512 129.282 273.504 129.144C273.496 129.006 273.601 128.888 273.739 128.88L275.736 128.765L275.621 126.768C275.613 126.63 275.718 126.512 275.856 126.504C275.994 126.496 276.112 126.601 276.12 126.739L276.25 128.986ZM202.5 101V101.25V101ZM276 129C275.834 129.187 275.834 129.187 275.834 129.187C275.834 129.187 275.834 129.187 275.834 129.187C275.834 129.187 275.834 129.187 275.834 129.187C275.834 129.187 275.834 129.187 275.834 129.187C275.834 129.187 275.834 129.187 275.833 129.186C275.833 129.186 275.833 129.186 275.832 129.186C275.832 129.185 275.83 129.184 275.828 129.182C275.824 129.178 275.819 129.173 275.811 129.167C275.795 129.153 275.772 129.132 275.741 129.105C275.679 129.051 275.586 128.97 275.462 128.865L275.786 128.484C275.911 128.591 276.006 128.673 276.07 128.728C276.101 128.756 276.125 128.777 276.142 128.791C276.15 128.799 276.156 128.804 276.16 128.808C276.162 128.809 276.163 128.811 276.165 128.812C276.165 128.812 276.166 128.813 276.166 128.813C276.166 128.813 276.166 128.813 276.166 128.813C276.166 128.813 276.166 128.813 276.166 128.813C276.166 128.813 276.166 128.813 276.166 128.813C276.166 128.813 276.166 128.813 276.166 128.813C276.166 128.813 276.166 128.813 276 129ZM274.714 128.239C274.488 128.053 274.228 127.842 273.936 127.609L274.248 127.218C274.542 127.454 274.804 127.666 275.031 127.853L274.714 128.239ZM273.153 126.989C272.904 126.795 272.639 126.59 272.358 126.374L272.662 125.977C272.945 126.194 273.211 126.4 273.461 126.595L273.153 126.989ZM271.547 125.759C271.295 125.571 271.032 125.376 270.76 125.175L271.056 124.772C271.33 124.974 271.594 125.17 271.847 125.359L271.547 125.759ZM269.948 124.583C269.685 124.392 269.413 124.197 269.133 123.998L269.422 123.591C269.703 123.79 269.976 123.986 270.241 124.177L269.948 124.583ZM268.32 123.426C268.05 123.237 267.773 123.046 267.489 122.851L267.772 122.439C268.057 122.634 268.335 122.827 268.606 123.016L268.32 123.426ZM266.67 122.294C266.396 122.109 266.117 121.922 265.832 121.733L266.108 121.317C266.394 121.506 266.675 121.694 266.949 121.879L266.67 122.294ZM265.001 121.187C264.725 121.007 264.444 120.826 264.159 120.642L264.429 120.222C264.716 120.405 264.997 120.588 265.274 120.768L265.001 121.187ZM263.313 120.105C263.036 119.93 262.755 119.754 262.47 119.577L262.733 119.152C263.02 119.33 263.302 119.506 263.58 119.682L263.313 120.105ZM261.607 119.046C261.329 118.876 261.047 118.706 260.762 118.535L261.019 118.106C261.305 118.278 261.588 118.449 261.867 118.619L261.607 119.046ZM259.896 118.02C259.612 117.852 259.325 117.684 259.035 117.516L259.285 117.084C259.577 117.253 259.865 117.421 260.149 117.589L259.896 118.02ZM258.17 117.019C257.879 116.853 257.585 116.687 257.287 116.52L257.532 116.084C257.83 116.251 258.125 116.418 258.418 116.585L258.17 117.019ZM256.424 116.041C256.133 115.881 255.84 115.721 255.544 115.561L255.781 115.121C256.079 115.282 256.373 115.443 256.665 115.603L256.424 116.041ZM254.657 115.086C254.367 114.932 254.074 114.778 253.779 114.624L254.01 114.181C254.306 114.335 254.6 114.49 254.891 114.644L254.657 115.086ZM252.886 114.163C252.59 114.011 252.293 113.86 251.992 113.709L252.217 113.263C252.518 113.414 252.817 113.566 253.114 113.717L252.886 114.163ZM251.102 113.266C250.803 113.119 250.502 112.972 250.198 112.825L250.416 112.375C250.721 112.522 251.023 112.67 251.323 112.818L251.102 113.266ZM249.296 112.393C248.998 112.252 248.697 112.111 248.395 111.97L248.606 111.517C248.909 111.658 249.211 111.799 249.51 111.941L249.296 112.393ZM247.482 111.55C247.179 111.413 246.875 111.276 246.569 111.139L246.773 110.683C247.08 110.82 247.385 110.957 247.689 111.095L247.482 111.55ZM245.659 110.738C245.353 110.604 245.046 110.472 244.737 110.34L244.933 109.88C245.244 110.012 245.552 110.145 245.859 110.279L245.659 110.738ZM243.813 109.949C243.508 109.822 243.202 109.695 242.894 109.57L243.083 109.107C243.392 109.233 243.7 109.36 244.006 109.488L243.813 109.949ZM241.965 109.194C241.654 109.071 241.342 108.948 241.029 108.825L241.21 108.359C241.525 108.482 241.838 108.606 242.15 108.73L241.965 109.194ZM240.102 108.469C239.791 108.35 239.479 108.233 239.165 108.117L239.339 107.648C239.654 107.765 239.968 107.883 240.28 108.001L240.102 108.469ZM238.22 107.77C237.909 107.658 237.597 107.547 237.283 107.436L237.449 106.965C237.764 107.076 238.078 107.187 238.39 107.3L238.22 107.77ZM236.34 107.109C236.024 107 235.707 106.893 235.389 106.787L235.547 106.313C235.867 106.419 236.185 106.527 236.502 106.636L236.34 107.109ZM234.439 106.475C234.124 106.373 233.807 106.272 233.49 106.172L233.64 105.695C233.959 105.796 234.276 105.897 234.593 105.999L234.439 106.475ZM232.533 105.876C232.213 105.779 231.892 105.682 231.569 105.587L231.711 105.107C232.035 105.203 232.357 105.3 232.678 105.398L232.533 105.876ZM230.615 105.31C230.296 105.218 229.975 105.128 229.653 105.039L229.786 104.558C230.11 104.647 230.432 104.737 230.752 104.829L230.615 105.31ZM228.684 104.776C228.363 104.691 228.041 104.607 227.718 104.523L227.842 104.039C228.167 104.123 228.49 104.207 228.813 104.293L228.684 104.776ZM226.751 104.28C226.428 104.2 226.104 104.121 225.778 104.044L225.894 103.557C226.221 103.635 226.547 103.714 226.871 103.794L226.751 104.28ZM224.799 103.816C224.476 103.742 224.153 103.67 223.828 103.599L223.935 103.111C224.261 103.182 224.586 103.255 224.91 103.328L224.799 103.816ZM222.852 103.391C222.525 103.323 222.197 103.256 221.869 103.191L221.966 102.701C222.296 102.766 222.626 102.833 222.954 102.902L222.852 103.391ZM220.886 103.001C220.561 102.939 220.234 102.879 219.907 102.821L219.995 102.328C220.324 102.387 220.652 102.448 220.979 102.509L220.886 103.001ZM218.922 102.649C218.592 102.594 218.262 102.539 217.93 102.487L218.009 101.993C218.342 102.046 218.674 102.1 219.005 102.156L218.922 102.649ZM216.945 102.335C216.617 102.286 216.288 102.238 215.958 102.193L216.027 101.697C216.359 101.743 216.689 101.791 217.019 101.84L216.945 102.335ZM214.966 102.06C214.634 102.017 214.302 101.976 213.968 101.936L214.027 101.439C214.362 101.479 214.696 101.521 215.03 101.564L214.966 102.06ZM212.981 101.823C212.65 101.788 212.319 101.753 211.988 101.72L212.037 101.223C212.37 101.256 212.703 101.29 213.035 101.326L212.981 101.823ZM210.99 101.627C210.658 101.598 210.325 101.57 209.991 101.544L210.03 101.045C210.365 101.072 210.7 101.1 211.034 101.129L210.99 101.627ZM208.999 101.471C208.667 101.449 208.335 101.428 208.002 101.409L208.03 100.91C208.365 100.929 208.699 100.95 209.032 100.973L208.999 101.471ZM207 101.356C206.668 101.341 206.334 101.327 206 101.314L206.019 100.815C206.354 100.827 206.689 100.841 207.024 100.857L207 101.356ZM205.006 101.283C204.673 101.274 204.34 101.267 204.006 101.262L204.014 100.762C204.35 100.767 204.685 100.774 205.019 100.783L205.006 101.283ZM203.003 101.251C202.836 101.25 202.668 101.25 202.5 101.25V100.75C202.669 100.75 202.837 100.75 203.006 100.751L203.003 101.251ZM202.5 101.25C202.334 101.25 202.168 101.251 202.002 101.252L201.999 100.752C202.166 100.751 202.333 100.75 202.5 100.75V101.25ZM201.007 101.265C200.676 101.272 200.344 101.281 200.013 101.291L199.996 100.792C200.33 100.781 200.663 100.772 200.997 100.765L201.007 101.265ZM199.019 101.331C198.687 101.346 198.356 101.363 198.025 101.383L197.995 100.884C198.329 100.864 198.662 100.847 198.996 100.831L199.019 101.331ZM197.032 101.447C196.701 101.471 196.37 101.496 196.04 101.524L195.998 101.026C196.331 100.998 196.663 100.972 196.996 100.949L197.032 101.447ZM195.048 101.613C194.718 101.644 194.388 101.678 194.058 101.713L194.004 101.216C194.336 101.18 194.668 101.147 195.001 101.115L195.048 101.613ZM193.069 101.825C192.739 101.864 192.41 101.905 192.082 101.948L192.017 101.452C192.347 101.409 192.678 101.368 193.01 101.328L193.069 101.825ZM191.094 102.082C190.766 102.129 190.437 102.177 190.109 102.228L190.034 101.733C190.364 101.683 190.694 101.634 191.024 101.587L191.094 102.082ZM189.127 102.383C188.799 102.437 188.472 102.493 188.145 102.55L188.059 102.057C188.387 102 188.716 101.944 189.046 101.89L189.127 102.383ZM187.164 102.726C186.838 102.787 186.512 102.849 186.187 102.913L186.09 102.422C186.417 102.358 186.745 102.296 187.073 102.235L187.164 102.726ZM185.211 103.109C184.885 103.176 184.56 103.245 184.236 103.315L184.13 102.827C184.456 102.756 184.783 102.687 185.11 102.619L185.211 103.109ZM183.263 103.531C182.94 103.604 182.617 103.679 182.294 103.755L182.179 103.269C182.503 103.192 182.828 103.117 183.153 103.043L183.263 103.531ZM181.325 103.99C181.002 104.069 180.68 104.15 180.358 104.233L180.234 103.748C180.557 103.665 180.881 103.584 181.206 103.504L181.325 103.99ZM179.396 104.484C179.075 104.569 178.754 104.656 178.435 104.744L178.302 104.262C178.623 104.173 178.945 104.086 179.267 104.001L179.396 104.484ZM177.474 105.013C177.154 105.104 176.835 105.196 176.517 105.289L176.376 104.81C176.695 104.716 177.016 104.623 177.337 104.532L177.474 105.013ZM175.565 105.574C175.246 105.67 174.928 105.768 174.61 105.867L174.461 105.39C174.78 105.29 175.099 105.192 175.42 105.095L175.565 105.574ZM173.659 106.168C173.343 106.269 173.028 106.372 172.714 106.475L172.557 106C172.873 105.896 173.189 105.794 173.507 105.692L173.659 106.168ZM171.769 106.791C171.453 106.898 171.138 107.006 170.824 107.115L170.66 106.642C170.975 106.533 171.291 106.425 171.608 106.317L171.769 106.791ZM169.885 107.445C169.572 107.556 169.261 107.668 168.95 107.781L168.779 107.311C169.091 107.198 169.404 107.085 169.717 106.973L169.885 107.445ZM168.011 108.127C167.699 108.243 167.388 108.36 167.078 108.478L166.901 108.01C167.211 107.892 167.523 107.775 167.836 107.658L168.011 108.127ZM166.153 108.834C165.841 108.955 165.53 109.077 165.221 109.2L165.037 108.735C165.347 108.612 165.659 108.489 165.971 108.368L166.153 108.834ZM164.295 109.571C163.987 109.696 163.681 109.821 163.376 109.947L163.185 109.485C163.491 109.358 163.799 109.233 164.107 109.108L164.295 109.571ZM162.455 110.331C162.146 110.461 161.84 110.591 161.535 110.722L161.338 110.262C161.644 110.131 161.951 110 162.261 109.87L162.455 110.331ZM160.623 111.116C160.318 111.25 160.014 111.384 159.711 111.518L159.508 111.061C159.812 110.926 160.117 110.792 160.423 110.658L160.623 111.116ZM158.798 111.928C158.495 112.065 158.193 112.202 157.893 112.34L157.685 111.886C157.985 111.747 158.288 111.609 158.592 111.472L158.798 111.928ZM156.991 112.758C156.687 112.9 156.385 113.043 156.084 113.185L155.87 112.734C156.171 112.591 156.475 112.448 156.78 112.305L156.991 112.758ZM155.188 113.615C154.888 113.759 154.59 113.904 154.294 114.049L154.074 113.6C154.371 113.455 154.67 113.309 154.97 113.164L155.188 113.615ZM153.394 114.493C153.096 114.642 152.8 114.79 152.506 114.938L152.281 114.492C152.576 114.343 152.873 114.194 153.172 114.046L153.394 114.493ZM151.62 115.389C151.32 115.543 151.023 115.696 150.728 115.85L150.497 115.406C150.793 115.252 151.091 115.098 151.392 114.944L151.62 115.389ZM149.85 116.309C149.553 116.466 149.26 116.622 148.968 116.777L148.733 116.336C149.025 116.18 149.319 116.024 149.617 115.867L149.85 116.309ZM148.086 117.252C147.794 117.41 147.506 117.568 147.219 117.725L146.979 117.287C147.266 117.129 147.555 116.971 147.848 116.813L148.086 117.252ZM146.34 118.212C146.047 118.375 145.757 118.537 145.47 118.699L145.224 118.264C145.512 118.101 145.803 117.938 146.097 117.775L146.34 118.212ZM144.611 119.187C144.316 119.356 144.025 119.523 143.736 119.69L143.486 119.258C143.775 119.09 144.067 118.922 144.363 118.753L144.611 119.187ZM142.883 120.188C142.591 120.359 142.303 120.529 142.019 120.698L141.763 120.268C142.048 120.099 142.337 119.928 142.63 119.757L142.883 120.188ZM141.163 121.21C140.876 121.383 140.594 121.554 140.315 121.724L140.055 121.297C140.334 121.127 140.617 120.955 140.905 120.782L141.163 121.21ZM139.458 122.25C139.175 122.425 138.897 122.597 138.624 122.768L138.359 122.344C138.632 122.173 138.911 122 139.195 121.824L139.458 122.25ZM137.766 123.308C137.485 123.486 137.21 123.662 136.941 123.834L136.671 123.413C136.941 123.24 137.217 123.064 137.499 122.886L137.766 123.308ZM136.088 124.386C135.806 124.569 135.532 124.749 135.266 124.924L134.99 124.507C135.258 124.331 135.533 124.15 135.815 123.967L136.088 124.386ZM134.425 125.482C134.139 125.674 133.863 125.859 133.598 126.039L133.317 125.625C133.583 125.445 133.86 125.258 134.147 125.066L134.425 125.482ZM132.789 126.591C132.495 126.794 132.217 126.987 131.956 127.169L131.669 126.759C131.931 126.576 132.21 126.383 132.506 126.179L132.789 126.591ZM131.137 127.746C130.834 127.962 130.564 128.156 130.328 128.327L130.034 127.923C130.271 127.751 130.543 127.555 130.847 127.339L131.137 127.746ZM129.542 128.905C129.413 129.001 129.315 129.074 129.25 129.124C129.218 129.148 129.193 129.167 129.177 129.18C129.168 129.186 129.162 129.191 129.158 129.194C129.156 129.195 129.155 129.196 129.154 129.197C129.153 129.197 129.153 129.198 129.153 129.198C129.153 129.198 129.153 129.198 129.153 129.198C129.152 129.198 129.152 129.198 129.152 129.198C129.152 129.198 129.152 129.198 129.152 129.198V129.198C129.152 129.198 129.152 129.198 129 129C128.848 128.802 128.848 128.802 128.848 128.802C128.848 128.802 128.848 128.802 128.848 128.802C128.848 128.802 128.848 128.802 128.848 128.802C128.848 128.802 128.848 128.802 128.848 128.802C128.848 128.802 128.848 128.802 128.848 128.801C128.848 128.801 128.849 128.801 128.849 128.801C128.85 128.8 128.852 128.798 128.854 128.797C128.858 128.794 128.865 128.789 128.873 128.782C128.89 128.769 128.915 128.75 128.948 128.725C129.015 128.675 129.113 128.601 129.243 128.504L129.542 128.905Z" fill="#6F747F"/>
<path opacity="0.4" d="M85 109.873V103.893C85 101.133 87.24 98.9031 90 98.9031H100C102.76 98.9031 105 101.133 105 103.893V110.873C105 113.623 102.76 115.853 100 115.853H98.5C98.19 115.853 97.89 116.003 97.7 116.253L96.2 118.243C95.54 119.123 94.46 119.123 93.8 118.243L92.3 116.253C92.14 116.033 91.78 115.853 91.5 115.853H90C87.24 115.853 85 113.623 85 110.873V109.873Z" fill="#49CFA3"/>
<path d="M100 105.653H90C89.59 105.653 89.25 105.313 89.25 104.903C89.25 104.493 89.59 104.153 90 104.153H100C100.41 104.153 100.75 104.493 100.75 104.903C100.75 105.313 100.41 105.653 100 105.653Z" fill="#49CFA3"/>
<path d="M96 110.653H90C89.59 110.653 89.25 110.313 89.25 109.903C89.25 109.493 89.59 109.153 90 109.153H96C96.41 109.153 96.75 109.493 96.75 109.903C96.75 110.313 96.41 110.653 96 110.653Z" fill="#49CFA3"/>
<path opacity="0.4" d="M297.408 108.214V102.234C297.408 99.4737 299.648 97.2437 302.408 97.2437H312.408C315.168 97.2437 317.408 99.4737 317.408 102.234V109.214C317.408 111.964 315.168 114.194 312.408 114.194H310.908C310.598 114.194 310.298 114.344 310.108 114.594L308.608 116.584C307.948 117.464 306.868 117.464 306.208 116.584L304.708 114.594C304.548 114.374 304.188 114.194 303.908 114.194H302.408C299.648 114.194 297.408 111.964 297.408 109.214V108.214Z" fill="#F75F5F"/>
<path d="M307.408 107.244C306.848 107.244 306.408 106.794 306.408 106.244C306.408 105.694 306.858 105.244 307.408 105.244C307.958 105.244 308.408 105.694 308.408 106.244C308.408 106.794 307.968 107.244 307.408 107.244Z" fill="#F75F5F"/>
<path d="M311.408 107.244C310.848 107.244 310.408 106.794 310.408 106.244C310.408 105.694 310.858 105.244 311.408 105.244C311.958 105.244 312.408 105.694 312.408 106.244C312.408 106.794 311.968 107.244 311.408 107.244Z" fill="#F75F5F"/>
<path d="M303.408 107.244C302.848 107.244 302.408 106.794 302.408 106.244C302.408 105.694 302.858 105.244 303.408 105.244C303.958 105.244 304.408 105.694 304.408 106.244C304.408 106.794 303.968 107.244 303.408 107.244Z" fill="#F75F5F"/>
<defs>
<filter id="filter0_d_3429_128375" x="33" y="67" width="342" height="121" filterUnits="userSpaceOnUse" color-interpolation-filters="sRGB">
<feFlood flood-opacity="0" result="BackgroundImageFix"/>
<feColorMatrix in="SourceAlpha" type="matrix" values="0 0 0 0 0 0 0 0 0 0 0 0 0 0 0 0 0 0 127 0" result="hardAlpha"/>
<feOffset dy="8"/>
<feGaussianBlur stdDeviation="12"/>
<feComposite in2="hardAlpha" operator="out"/>
<feColorMatrix type="matrix" values="0 0 0 0 0.105882 0 0 0 0 0.180392 0 0 0 0 0.368627 0 0 0 0.12 0"/>
<feBlend mode="normal" in2="BackgroundImageFix" result="effect1_dropShadow_3429_128375"/>
<feBlend mode="normal" in="SourceGraphic" in2="effect1_dropShadow_3429_128375" result="shape"/>
</filter>
<linearGradient id="paint0_linear_3429_128375" x1="204" y1="35.9526" x2="203.835" y2="112.537" gradientUnits="userSpaceOnUse">
<stop stop-color="white" stop-opacity="0.62"/>
<stop offset="1" stop-color="#EDF3FF" stop-opacity="0.77"/>
</linearGradient>
</defs>
</svg>
