<svg width="394" height="123" viewBox="0 0 394 123" fill="none" xmlns="http://www.w3.org/2000/svg">
<g clip-path="url(#clip0_5105_11450)">
<path d="M386 0.5H8C3.85786 0.5 0.5 3.85786 0.5 8V115C0.5 119.142 3.85786 122.5 8 122.5H386C390.142 122.5 393.5 119.142 393.5 115V8C393.5 3.85786 390.142 0.5 386 0.5Z" fill="#131920"/>
<path d="M29.3072 57.8182V68H28.114L22.5657 60.0057H22.4663V68H21.2334V57.8182H22.4265L27.9947 65.8324H28.0942V57.8182H29.3072ZM34.817 68.1591C34.0812 68.1591 33.4465 67.9967 32.9129 67.6719C32.3826 67.3438 31.9732 66.8864 31.6849 66.2997C31.3998 65.7098 31.2573 65.0237 31.2573 64.2415C31.2573 63.4593 31.3998 62.7699 31.6849 62.1733C31.9732 61.5734 32.3743 61.1061 32.888 60.7713C33.4051 60.4332 34.0083 60.2642 34.6977 60.2642C35.0954 60.2642 35.4881 60.3305 35.8759 60.4631C36.2637 60.5956 36.6167 60.8111 36.9349 61.1094C37.2531 61.4044 37.5066 61.7955 37.6955 62.2827C37.8845 62.7699 37.9789 63.3698 37.9789 64.0824V64.5795H32.0926V63.5653H36.7857C36.7857 63.1345 36.6996 62.75 36.5272 62.4119C36.3582 62.0739 36.1162 61.8071 35.8014 61.6115C35.4898 61.416 35.1219 61.3182 34.6977 61.3182C34.2303 61.3182 33.826 61.4342 33.4846 61.6662C33.1465 61.8949 32.8863 62.1932 32.7041 62.5611C32.5218 62.929 32.4306 63.3234 32.4306 63.7443V64.4205C32.4306 64.9972 32.5301 65.486 32.7289 65.8871C32.9311 66.2848 33.2112 66.5881 33.5691 66.7969C33.9271 67.0024 34.343 67.1051 34.817 67.1051C35.1252 67.1051 35.4036 67.062 35.6522 66.9759C35.9041 66.8864 36.1212 66.7538 36.3035 66.5781C36.4858 66.3991 36.6266 66.1771 36.7261 65.9119L37.8596 66.2301C37.7403 66.6146 37.5398 66.9527 37.258 67.2443C36.9763 67.5327 36.6283 67.758 36.214 67.9205C35.7997 68.0795 35.334 68.1591 34.817 68.1591ZM41.4938 68L39.1671 60.3636H40.4001L42.0506 66.2102H42.1302L43.7609 60.3636H45.0137L46.6245 66.1903H46.7041L48.3546 60.3636H49.5876L47.2609 68H46.1075L44.437 62.1335H44.3177L42.6472 68H41.4938ZM55.6529 57.8182L58.6756 66.3892H58.795L61.8177 57.8182H63.1103L59.3717 68H58.0989L54.3603 57.8182H55.6529ZM64.5372 68V60.3636H65.7104V68H64.5372ZM65.1337 59.0909C64.9051 59.0909 64.7078 59.013 64.5421 58.8572C64.3797 58.7015 64.2985 58.5142 64.2985 58.2955C64.2985 58.0767 64.3797 57.8894 64.5421 57.7337C64.7078 57.5779 64.9051 57.5 65.1337 57.5C65.3624 57.5 65.558 57.5779 65.7204 57.7337C65.8861 57.8894 65.969 58.0767 65.969 58.2955C65.969 58.5142 65.8861 58.7015 65.7204 58.8572C65.558 59.013 65.3624 59.0909 65.1337 59.0909ZM73.2685 62.0739L72.2145 62.3722C72.1482 62.1965 72.0505 62.0258 71.9212 61.8601C71.7953 61.6911 71.6229 61.5518 71.4042 61.4425C71.1854 61.3331 70.9053 61.2784 70.564 61.2784C70.0966 61.2784 69.7072 61.3861 69.3956 61.6016C69.0874 61.8137 68.9333 62.0838 68.9333 62.4119C68.9333 62.7036 69.0393 62.9339 69.2515 63.103C69.4636 63.272 69.795 63.4129 70.2458 63.5256L71.3793 63.804C72.0621 63.9697 72.5708 64.2232 72.9056 64.5646C73.2403 64.9027 73.4077 65.3385 73.4077 65.8722C73.4077 66.3097 73.2818 66.7008 73.0299 67.0455C72.7813 67.3902 72.4333 67.6619 71.9858 67.8608C71.5384 68.0597 71.018 68.1591 70.4248 68.1591C69.6459 68.1591 69.0012 67.9901 68.4908 67.652C67.9804 67.3139 67.6572 66.8201 67.5214 66.1705L68.635 65.892C68.741 66.303 68.9416 66.6113 69.2366 66.8168C69.5348 67.0223 69.9243 67.125 70.4049 67.125C70.9517 67.125 71.3859 67.009 71.7074 66.777C72.0322 66.5417 72.1946 66.2599 72.1946 65.9318C72.1946 65.6667 72.1018 65.4446 71.9162 65.2656C71.7306 65.0833 71.4456 64.9474 71.0611 64.858L69.7884 64.5597C69.0891 64.3939 68.5753 64.1371 68.2472 63.7891C67.9224 63.4377 67.76 62.9986 67.76 62.4716C67.76 62.0407 67.881 61.6596 68.1229 61.3281C68.3682 60.9967 68.7013 60.7365 69.1222 60.5476C69.5464 60.3587 70.027 60.2642 70.564 60.2642C71.3196 60.2642 71.9129 60.4299 72.3438 60.7614C72.778 61.0928 73.0862 61.5303 73.2685 62.0739ZM75.1739 68V60.3636H76.3472V68H75.1739ZM75.7705 59.0909C75.5418 59.0909 75.3446 59.013 75.1788 58.8572C75.0164 58.7015 74.9352 58.5142 74.9352 58.2955C74.9352 58.0767 75.0164 57.8894 75.1788 57.7337C75.3446 57.5779 75.5418 57.5 75.7705 57.5C75.9992 57.5 76.1947 57.5779 76.3571 57.7337C76.5228 57.8894 76.6057 58.0767 76.6057 58.2955C76.6057 58.5142 76.5228 58.7015 76.3571 58.8572C76.1947 59.013 75.9992 59.0909 75.7705 59.0909ZM81.8172 60.3636V61.358H77.8598V60.3636H81.8172ZM79.0132 58.5341H80.1865V65.8125C80.1865 66.1439 80.2345 66.3925 80.3307 66.5582C80.4301 66.7206 80.556 66.83 80.7085 66.8864C80.8643 66.9394 81.0283 66.9659 81.2007 66.9659C81.3299 66.9659 81.436 66.9593 81.5189 66.946C81.6017 66.9295 81.668 66.9162 81.7177 66.9062L81.9564 67.9602C81.8768 67.9901 81.7658 68.0199 81.6233 68.0497C81.4808 68.0829 81.3001 68.0994 81.0814 68.0994C80.7499 68.0994 80.4251 68.0282 80.1069 67.8857C79.7921 67.7431 79.5302 67.526 79.3214 67.2344C79.1159 66.9427 79.0132 66.5748 79.0132 66.1307V58.5341ZM86.6023 68.1591C85.9129 68.1591 85.308 67.995 84.7877 67.6669C84.2706 67.3388 83.8663 66.8797 83.5746 66.2898C83.2863 65.6998 83.1421 65.0104 83.1421 64.2216C83.1421 63.4261 83.2863 62.7318 83.5746 62.1385C83.8663 61.5452 84.2706 61.0845 84.7877 60.7564C85.308 60.4283 85.9129 60.2642 86.6023 60.2642C87.2917 60.2642 87.8949 60.4283 88.412 60.7564C88.9323 61.0845 89.3367 61.5452 89.625 62.1385C89.9167 62.7318 90.0625 63.4261 90.0625 64.2216C90.0625 65.0104 89.9167 65.6998 89.625 66.2898C89.3367 66.8797 88.9323 67.3388 88.412 67.6669C87.8949 67.995 87.2917 68.1591 86.6023 68.1591ZM86.6023 67.1051C87.126 67.1051 87.5569 66.9709 87.8949 66.7024C88.233 66.4339 88.4832 66.081 88.6456 65.6435C88.808 65.206 88.8892 64.732 88.8892 64.2216C88.8892 63.7112 88.808 63.2356 88.6456 62.7947C88.4832 62.3539 88.233 61.9976 87.8949 61.7259C87.5569 61.4541 87.126 61.3182 86.6023 61.3182C86.0786 61.3182 85.6478 61.4541 85.3097 61.7259C84.9716 61.9976 84.7214 62.3539 84.559 62.7947C84.3966 63.2356 84.3154 63.7112 84.3154 64.2216C84.3154 64.732 84.3966 65.206 84.559 65.6435C84.7214 66.081 84.9716 66.4339 85.3097 66.7024C85.6478 66.9709 86.0786 67.1051 86.6023 67.1051ZM91.8536 68V60.3636H92.9871V61.517H93.0666C93.2058 61.1392 93.4577 60.8326 93.8223 60.5973C94.1869 60.362 94.5979 60.2443 95.0553 60.2443C95.1414 60.2443 95.2492 60.246 95.3784 60.2493C95.5077 60.2526 95.6055 60.2576 95.6717 60.2642V61.4574C95.632 61.4474 95.5408 61.4325 95.3983 61.4126C95.2591 61.3894 95.1116 61.3778 94.9558 61.3778C94.5846 61.3778 94.2532 61.4557 93.9615 61.6115C93.6732 61.764 93.4445 61.9761 93.2754 62.2479C93.1097 62.5163 93.0269 62.8229 93.0269 63.1676V68H91.8536ZM102.471 62.0739L101.417 62.3722C101.351 62.1965 101.253 62.0258 101.124 61.8601C100.998 61.6911 100.826 61.5518 100.607 61.4425C100.388 61.3331 100.108 61.2784 99.7671 61.2784C99.2998 61.2784 98.9103 61.3861 98.5988 61.6016C98.2905 61.8137 98.1364 62.0838 98.1364 62.4119C98.1364 62.7036 98.2425 62.9339 98.4546 63.103C98.6667 63.272 98.9982 63.4129 99.4489 63.5256L100.582 63.804C101.265 63.9697 101.774 64.2232 102.108 64.5646C102.443 64.9027 102.61 65.3385 102.61 65.8722C102.61 66.3097 102.484 66.7008 102.233 67.0455C101.984 67.3902 101.636 67.6619 101.189 67.8608C100.741 68.0597 100.221 68.1591 99.6279 68.1591C98.849 68.1591 98.2044 67.9901 97.6939 67.652C97.1835 67.3139 96.8604 66.8201 96.7245 66.1705L97.8381 65.892C97.9442 66.303 98.1447 66.6113 98.4397 66.8168C98.738 67.0223 99.1274 67.125 99.608 67.125C100.154 67.125 100.589 67.009 100.91 66.777C101.235 66.5417 101.397 66.2599 101.397 65.9318C101.397 65.6667 101.305 65.4446 101.119 65.2656C100.933 65.0833 100.648 64.9474 100.264 64.858L98.9915 64.5597C98.2922 64.3939 97.7785 64.1371 97.4503 63.7891C97.1255 63.4377 96.9631 62.9986 96.9631 62.4716C96.9631 62.0407 97.0841 61.6596 97.326 61.3281C97.5713 60.9967 97.9044 60.7365 98.3253 60.5476C98.7496 60.3587 99.2302 60.2642 99.7671 60.2642C100.522 60.2642 101.116 60.4299 101.547 60.7614C101.981 61.0928 102.289 61.5303 102.471 62.0739Z" fill="#9FA2AA"/>
<path d="M21.4604 97.0008L26.4093 87.2053V87.1258H20.665V85.3644H28.5911V87.1656L23.6479 97.0008H21.4604ZM30.8624 95.4099L30.7886 96.0349C30.7355 96.5122 30.6408 96.997 30.5045 97.4894C30.3719 97.9856 30.2317 98.4421 30.084 98.8588C29.9363 99.2754 29.817 99.6031 29.7261 99.8417H28.3397C28.3927 99.6106 28.4647 99.2963 28.5556 98.8985C28.6503 98.5008 28.7412 98.0538 28.8283 97.5576C28.9154 97.0614 28.9742 96.5576 29.0045 96.0463L29.0442 95.4099H30.8624ZM36.8425 97.1599C35.9978 97.1599 35.2478 97.0178 34.5925 96.7338C33.941 96.4497 33.4297 96.0614 33.0584 95.569C32.691 95.0728 32.5092 94.5103 32.513 93.8815C32.5092 93.3928 32.6153 92.944 32.8312 92.5349C33.0471 92.1258 33.3387 91.7849 33.7062 91.5122C34.0774 91.2356 34.4903 91.0595 34.9448 90.9838V90.9042C34.3463 90.7716 33.8615 90.4667 33.4903 89.9894C33.1228 89.5084 32.941 88.9535 32.9448 88.3247C32.941 87.7262 33.1077 87.1921 33.4448 86.7224C33.7819 86.2527 34.244 85.8834 34.8312 85.6144C35.4183 85.3417 36.0887 85.2053 36.8425 85.2053C37.5887 85.2053 38.2535 85.3417 38.8368 85.6144C39.424 85.8834 39.8861 86.2527 40.2232 86.7224C40.5641 87.1921 40.7346 87.7262 40.7346 88.3247C40.7346 88.9535 40.5471 89.5084 40.1721 89.9894C39.8009 90.4667 39.3217 90.7716 38.7346 90.9042V90.9838C39.1891 91.0595 39.5982 91.2356 39.9618 91.5122C40.3293 91.7849 40.6209 92.1258 40.8368 92.5349C41.0565 92.944 41.1664 93.3928 41.1664 93.8815C41.1664 94.5103 40.9808 95.0728 40.6096 95.569C40.2384 96.0614 39.727 96.4497 39.0755 96.7338C38.4278 97.0178 37.6834 97.1599 36.8425 97.1599ZM36.8425 95.5349C37.2781 95.5349 37.6569 95.461 37.9789 95.3133C38.3009 95.1618 38.5509 94.9497 38.7289 94.6769C38.9069 94.4042 38.9978 94.0898 39.0016 93.7338C38.9978 93.3625 38.9012 93.0349 38.7118 92.7508C38.5262 92.4629 38.2706 92.2375 37.9448 92.0747C37.6228 91.9118 37.2554 91.8303 36.8425 91.8303C36.4259 91.8303 36.0547 91.9118 35.7289 92.0747C35.4031 92.2375 35.1456 92.4629 34.9562 92.7508C34.7706 93.0349 34.6797 93.3625 34.6834 93.7338C34.6797 94.0898 34.7668 94.4042 34.9448 94.6769C35.1228 94.9459 35.3728 95.1561 35.6948 95.3076C36.0206 95.4591 36.4031 95.5349 36.8425 95.5349ZM36.8425 90.2338C37.1986 90.2338 37.513 90.1618 37.7857 90.0178C38.0622 89.8739 38.28 89.6731 38.4391 89.4156C38.5982 89.158 38.6797 88.8606 38.6834 88.5235C38.6797 88.1902 38.6001 87.8985 38.4448 87.6485C38.2895 87.3947 38.0736 87.1997 37.7971 87.0633C37.5206 86.9231 37.2024 86.8531 36.8425 86.8531C36.4751 86.8531 36.1512 86.9231 35.8709 87.0633C35.5944 87.1997 35.3785 87.3947 35.2232 87.6485C35.0717 87.8985 34.9978 88.1902 35.0016 88.5235C34.9978 88.8606 35.0736 89.158 35.2289 89.4156C35.388 89.6694 35.6058 89.8701 35.8823 90.0178C36.1626 90.1618 36.4827 90.2338 36.8425 90.2338ZM47.0741 85.2053C47.6309 85.2091 48.1725 85.3076 48.6991 85.5008C49.2294 85.6902 49.7066 86.0008 50.1309 86.4326C50.5551 86.8606 50.8922 87.4345 51.1422 88.1542C51.3922 88.8739 51.5172 89.7641 51.5172 90.8247C51.521 91.8247 51.415 92.7186 51.1991 93.5065C50.9869 94.2906 50.682 94.9535 50.2843 95.4951C49.8866 96.0368 49.4074 96.4497 48.8468 96.7338C48.2862 97.0178 47.6555 97.1599 46.9547 97.1599C46.2199 97.1599 45.5684 97.016 45.0002 96.7281C44.4358 96.4402 43.9794 96.0463 43.6309 95.5463C43.2824 95.0463 43.0684 94.4743 42.9888 93.8303H45.0627C45.1688 94.2925 45.3847 94.6599 45.7104 94.9326C46.04 95.2016 46.4547 95.336 46.9547 95.336C47.7616 95.336 48.3828 94.9856 48.8184 94.2849C49.254 93.5841 49.4718 92.6106 49.4718 91.3644H49.3922C49.2066 91.6978 48.9661 91.9856 48.6707 92.2281C48.3752 92.4667 48.04 92.6504 47.665 92.7792C47.2938 92.908 46.8998 92.9724 46.4832 92.9724C45.8013 92.9724 45.1877 92.8095 44.6422 92.4838C44.1006 92.158 43.6707 91.711 43.3525 91.1428C43.0381 90.5747 42.879 89.925 42.8752 89.194C42.8752 88.4364 43.0494 87.7565 43.3979 87.1542C43.7502 86.5481 44.2407 86.0709 44.8695 85.7224C45.4983 85.3701 46.2332 85.1978 47.0741 85.2053ZM47.0797 86.9099C46.6707 86.9099 46.3013 87.0103 45.9718 87.211C45.646 87.408 45.3885 87.6769 45.1991 88.0178C45.0135 88.355 44.9207 88.7319 44.9207 89.1485C44.9244 89.5614 45.0172 89.9364 45.1991 90.2735C45.3847 90.6106 45.6366 90.8777 45.9547 91.0747C46.2767 91.2716 46.6441 91.3701 47.057 91.3701C47.3638 91.3701 47.6498 91.3114 47.915 91.194C48.1801 91.0766 48.4112 90.9137 48.6082 90.7053C48.8089 90.4932 48.9642 90.2527 49.0741 89.9838C49.1877 89.7148 49.2426 89.4307 49.2388 89.1315C49.2388 88.7338 49.1441 88.3663 48.9547 88.0292C48.7691 87.6921 48.5135 87.4213 48.1877 87.2167C47.8657 87.0122 47.4964 86.9099 47.0797 86.9099ZM57.7104 97.2224C56.7748 97.2224 55.9718 96.9856 55.3013 96.5122C54.6347 96.0349 54.1214 95.3474 53.7616 94.4497C53.4055 93.5481 53.2275 92.4629 53.2275 91.194C53.2313 89.925 53.4112 88.8455 53.7672 87.9553C54.1271 87.0614 54.6404 86.3796 55.307 85.9099C55.9775 85.4402 56.7786 85.2053 57.7104 85.2053C58.6422 85.2053 59.4434 85.4402 60.1138 85.9099C60.7843 86.3796 61.2975 87.0614 61.6536 87.9553C62.0135 88.8493 62.1934 89.9288 62.1934 91.194C62.1934 92.4667 62.0135 93.5538 61.6536 94.4553C61.2975 95.3531 60.7843 96.0387 60.1138 96.5122C59.4472 96.9856 58.646 97.2224 57.7104 97.2224ZM57.7104 95.444C58.4377 95.444 59.0116 95.086 59.432 94.3701C59.8563 93.6504 60.0684 92.5917 60.0684 91.194C60.0684 90.2697 59.9718 89.4932 59.7786 88.8644C59.5854 88.2356 59.3127 87.7622 58.9604 87.444C58.6082 87.122 58.1915 86.961 57.7104 86.961C56.9869 86.961 56.415 87.3209 55.9945 88.0406C55.5741 88.7565 55.3619 89.8076 55.3582 91.194C55.3544 92.122 55.4472 92.9023 55.6366 93.5349C55.8297 94.1675 56.1025 94.6447 56.4547 94.9667C56.807 95.2849 57.2256 95.444 57.7104 95.444Z" fill="white"/>
<path d="M110 79H75C71.6863 79 69 81.6863 69 85V95C69 98.3137 71.6863 101 75 101H110C113.314 101 116 98.3137 116 95V85C116 81.6863 113.314 79 110 79Z" fill="#FFA41B"/>
<path d="M79.713 89.0823V90.1902H75.8438V89.0823H79.713ZM81.6668 93.9999V93.0454L84.6199 89.9857C84.9353 89.6533 85.1952 89.3621 85.3998 89.1121C85.6071 88.8593 85.7621 88.6192 85.8643 88.3919C85.9666 88.1647 86.0177 87.9232 86.0177 87.6675C86.0177 87.3777 85.9495 87.1277 85.8131 86.9175C85.6767 86.7044 85.4907 86.5411 85.2549 86.4275C85.0191 86.311 84.7535 86.2527 84.458 86.2527C84.1455 86.2527 83.8728 86.3167 83.6398 86.4445C83.4069 86.5723 83.2279 86.7527 83.1029 86.9857C82.9779 87.2186 82.9154 87.4914 82.9154 87.8039H81.6583C81.6583 87.2726 81.7804 86.8081 82.0248 86.4104C82.2691 86.0127 82.6043 85.7044 83.0304 85.4857C83.4566 85.2641 83.9411 85.1533 84.4837 85.1533C85.032 85.1533 85.5148 85.2627 85.9324 85.4814C86.3529 85.6973 86.681 85.9928 86.9168 86.3678C87.1526 86.74 87.2705 87.1604 87.2705 87.6292C87.2705 87.953 87.2094 88.2698 87.0873 88.5794C86.9679 88.8891 86.7591 89.2343 86.4608 89.615C86.1625 89.9928 85.7478 90.4516 85.2165 90.9914L83.4821 92.8067V92.8706H87.4111V93.9999H81.6668ZM90.1736 94.0809C89.9406 94.0809 89.7403 93.9985 89.5727 93.8337C89.4051 93.6661 89.3214 93.4644 89.3214 93.2286C89.3214 92.9956 89.4051 92.7968 89.5727 92.632C89.7403 92.4644 89.9406 92.3806 90.1736 92.3806C90.4065 92.3806 90.6068 92.4644 90.7744 92.632C90.942 92.7968 91.0258 92.9956 91.0258 93.2286C91.0258 93.3848 90.9861 93.5283 90.9065 93.659C90.8298 93.7868 90.7275 93.8891 90.5997 93.9658C90.4718 94.0425 90.3298 94.0809 90.1736 94.0809ZM95.8177 94.1448C95.1444 94.1419 94.5691 93.9644 94.0919 93.6121C93.6146 93.2598 93.2495 92.7471 92.9967 92.0738C92.7439 91.4005 92.6174 90.5894 92.6174 89.6405C92.6174 88.6945 92.7439 87.8863 92.9967 87.2158C93.2524 86.5454 93.6189 86.034 94.0961 85.6817C94.5762 85.3294 95.1501 85.1533 95.8177 85.1533C96.4853 85.1533 97.0578 85.3309 97.5351 85.686C98.0123 86.0383 98.3774 86.5496 98.6302 87.2201C98.8859 87.8877 99.0137 88.6945 99.0137 89.6405C99.0137 90.5922 98.8873 91.4047 98.6345 92.078C98.3816 92.7485 98.0166 93.2613 97.5393 93.6164C97.062 93.9687 96.4882 94.1448 95.8177 94.1448ZM95.8177 93.007C96.4086 93.007 96.8703 92.7187 97.2027 92.1419C97.5379 91.5652 97.7055 90.7314 97.7055 89.6405C97.7055 88.9161 97.6288 88.3039 97.4754 87.8039C97.3248 87.301 97.1075 86.9204 96.8234 86.6618C96.5422 86.4005 96.2069 86.2698 95.8177 86.2698C95.2297 86.2698 94.768 86.5596 94.4328 87.1391C94.0976 87.7186 93.9285 88.5525 93.9257 89.6405C93.9257 90.3678 94.0011 90.9829 94.1516 91.4857C94.305 91.9857 94.5223 92.365 94.8035 92.6235C95.0848 92.8792 95.4228 93.007 95.8177 93.007ZM105.168 92.3635V91.9033C105.168 91.5738 105.237 91.2726 105.373 90.9999C105.512 90.7243 105.714 90.5042 105.978 90.3394C106.245 90.1718 106.567 90.088 106.945 90.088C107.332 90.088 107.656 90.1704 107.917 90.3351C108.178 90.4999 108.376 90.7201 108.509 90.9956C108.646 91.2712 108.714 91.5738 108.714 91.9033V92.3635C108.714 92.6931 108.646 92.9956 108.509 93.2712C108.373 93.5439 108.173 93.7641 107.908 93.9317C107.647 94.0965 107.326 94.1789 106.945 94.1789C106.562 94.1789 106.238 94.0965 105.974 93.9317C105.71 93.7641 105.509 93.5439 105.373 93.2712C105.237 92.9956 105.168 92.6931 105.168 92.3635ZM106.161 91.9033V92.3635C106.161 92.6079 106.219 92.8294 106.336 93.0283C106.452 93.2272 106.656 93.3266 106.945 93.3266C107.232 93.3266 107.433 93.2272 107.546 93.0283C107.66 92.8294 107.717 92.6079 107.717 92.3635V91.9033C107.717 91.659 107.661 91.4374 107.55 91.2385C107.442 91.0397 107.241 90.9402 106.945 90.9402C106.661 90.9402 106.46 91.0397 106.34 91.2385C106.221 91.4374 106.161 91.659 106.161 91.9033ZM100.779 87.3692V86.909C100.779 86.5794 100.847 86.277 100.984 86.0014C101.123 85.7259 101.325 85.5056 101.589 85.3408C101.856 85.176 102.178 85.0938 102.556 85.0938C102.942 85.0938 103.266 85.176 103.528 85.3408C103.789 85.5056 103.987 85.7259 104.12 86.0014C104.254 86.277 104.32 86.5794 104.32 86.909V87.3692C104.32 87.6988 104.252 88.0013 104.116 88.2769C103.982 88.5496 103.783 88.7698 103.519 88.9374C103.258 89.1022 102.937 89.1846 102.556 89.1846C102.17 89.1846 101.844 89.1022 101.58 88.9374C101.319 88.7698 101.12 88.5496 100.984 88.2769C100.847 88.0013 100.779 87.6988 100.779 87.3692ZM101.776 86.909V87.3692C101.776 87.6135 101.833 87.8351 101.947 88.034C102.063 88.2329 102.266 88.3323 102.556 88.3323C102.84 88.3323 103.039 88.2329 103.153 88.034C103.269 87.8351 103.327 87.6135 103.327 87.3692V86.909C103.327 86.6647 103.272 86.4431 103.161 86.2442C103.05 86.0454 102.849 85.9459 102.556 85.9459C102.272 85.9459 102.07 86.0454 101.951 86.2442C101.835 86.4431 101.776 86.6647 101.776 86.909ZM101.184 93.9999L107.184 85.2726H108.202L102.202 93.9999H101.184Z" fill="white"/>
<path d="M151.167 71H137C136.448 71 136 71.4477 136 72V102C136 102.552 136.448 103 137 103H151.167C151.719 103 152.167 102.552 152.167 102V72C152.167 71.4477 151.719 71 151.167 71Z" fill="#364152"/>
<path d="M171.334 88H157.167C156.615 88 156.167 88.4477 156.167 89V102C156.167 102.552 156.615 103 157.167 103H171.334C171.886 103 172.334 102.552 172.334 102V89C172.334 88.4477 171.886 88 171.334 88Z" fill="#364152"/>
<path d="M191.5 81H177.333C176.781 81 176.333 81.4477 176.333 82V102C176.333 102.552 176.781 103 177.333 103H191.5C192.052 103 192.5 102.552 192.5 102V82C192.5 81.4477 192.052 81 191.5 81Z" fill="#364152"/>
<path d="M211.667 66H197.5C196.948 66 196.5 66.4477 196.5 67V102C196.5 102.552 196.948 103 197.5 103H211.667C212.219 103 212.667 102.552 212.667 102V67C212.667 66.4477 212.219 66 211.667 66Z" fill="#364152"/>
<path d="M231.834 52H217.667C217.115 52 216.667 52.4477 216.667 53V102C216.667 102.552 217.115 103 217.667 103H231.834C232.386 103 232.834 102.552 232.834 102V53C232.834 52.4477 232.386 52 231.834 52Z" fill="#364152"/>
<path d="M252 71H237.833C237.281 71 236.833 71.4477 236.833 72V102C236.833 102.552 237.281 103 237.833 103H252C252.552 103 253 102.552 253 102V72C253 71.4477 252.552 71 252 71Z" fill="#364152"/>
<path d="M272.167 20H258C257.448 20 257 20.4477 257 21V102C257 102.552 257.448 103 258 103H272.167C272.719 103 273.167 102.552 273.167 102V21C273.167 20.4477 272.719 20 272.167 20Z" fill="#4680FF"/>
<path d="M292.334 74H278.167C277.615 74 277.167 74.4477 277.167 75V102C277.167 102.552 277.615 103 278.167 103H292.334C292.886 103 293.334 102.552 293.334 102V75C293.334 74.4477 292.886 74 292.334 74Z" fill="#364152"/>
<path d="M312.5 66H298.333C297.781 66 297.333 66.4477 297.333 67V102C297.333 102.552 297.781 103 298.333 103H312.5C313.052 103 313.5 102.552 313.5 102V67C313.5 66.4477 313.052 66 312.5 66Z" fill="#364152"/>
<path d="M332.667 52H318.5C317.948 52 317.5 52.4477 317.5 53V102C317.5 102.552 317.948 103 318.5 103H332.667C333.219 103 333.667 102.552 333.667 102V53C333.667 52.4477 333.219 52 332.667 52Z" fill="#364152"/>
<path d="M352.834 71H338.667C338.115 71 337.667 71.4477 337.667 72V102C337.667 102.552 338.115 103 338.667 103H352.834C353.386 103 353.834 102.552 353.834 102V72C353.834 71.4477 353.386 71 352.834 71Z" fill="#364152"/>
<path d="M373 81H358.833C358.281 81 357.833 81.4477 357.833 82V102C357.833 102.552 358.281 103 358.833 103H373C373.552 103 374 102.552 374 102V82C374 81.4477 373.552 81 373 81Z" fill="#364152"/>
<path d="M386 0.5H8C3.85786 0.5 0.5 3.85786 0.5 8V115C0.5 119.142 3.85786 122.5 8 122.5H386C390.142 122.5 393.5 119.142 393.5 115V8C393.5 3.85786 390.142 0.5 386 0.5Z" stroke="#2C2C2C"/>
</g>
<defs>
<clipPath id="clip0_5105_11450">
<rect width="394" height="123" fill="white"/>
</clipPath>
</defs>
</svg>
