<svg width="394" height="123" viewBox="0 0 394 123" fill="none" xmlns="http://www.w3.org/2000/svg">
<rect x="0.5" y="0.5" width="393" height="122" rx="7.5" fill="#FAFAFA"/>
<path d="M29.3068 57.8182V68H28.1136L22.5653 60.0057H22.4659V68H21.233V57.8182H22.4261L27.9943 65.8324H28.0938V57.8182H29.3068ZM34.8166 68.1591C34.0808 68.1591 33.4461 67.9967 32.9125 67.6719C32.3822 67.3438 31.9728 66.8864 31.6845 66.2997C31.3994 65.7098 31.2569 65.0237 31.2569 64.2415C31.2569 63.4593 31.3994 62.7699 31.6845 62.1733C31.9728 61.5734 32.3739 61.1061 32.8876 60.7713C33.4047 60.4332 34.0079 60.2642 34.6973 60.2642C35.095 60.2642 35.4877 60.3305 35.8755 60.4631C36.2633 60.5956 36.6163 60.8111 36.9345 61.1094C37.2527 61.4044 37.5062 61.7955 37.6951 62.2827C37.8841 62.7699 37.9785 63.3698 37.9785 64.0824V64.5795H32.0922V63.5653H36.7853C36.7853 63.1345 36.6992 62.75 36.5268 62.4119C36.3578 62.0739 36.1158 61.8071 35.801 61.6115C35.4894 61.416 35.1215 61.3182 34.6973 61.3182C34.2299 61.3182 33.8256 61.4342 33.4842 61.6662C33.1461 61.8949 32.8859 62.1932 32.7037 62.5611C32.5214 62.929 32.4302 63.3234 32.4302 63.7443V64.4205C32.4302 64.9972 32.5297 65.486 32.7285 65.8871C32.9307 66.2848 33.2108 66.5881 33.5687 66.7969C33.9267 67.0024 34.3426 67.1051 34.8166 67.1051C35.1248 67.1051 35.4032 67.062 35.6518 66.9759C35.9037 66.8864 36.1208 66.7538 36.3031 66.5781C36.4854 66.3991 36.6262 66.1771 36.7257 65.9119L37.8592 66.2301C37.7399 66.6146 37.5394 66.9527 37.2576 67.2443C36.9759 67.5327 36.6279 67.758 36.2136 67.9205C35.7993 68.0795 35.3336 68.1591 34.8166 68.1591ZM41.4934 68L39.1667 60.3636H40.3997L42.0502 66.2102H42.1298L43.7605 60.3636H45.0133L46.6241 66.1903H46.7037L48.3542 60.3636H49.5872L47.2605 68H46.1071L44.4366 62.1335H44.3173L42.6468 68H41.4934ZM55.6525 57.8182L58.6752 66.3892H58.7946L61.8173 57.8182H63.1099L59.3713 68H58.0985L54.3599 57.8182H55.6525ZM64.5368 68V60.3636H65.71V68H64.5368ZM65.1333 59.0909C64.9047 59.0909 64.7074 59.013 64.5417 58.8572C64.3793 58.7015 64.2981 58.5142 64.2981 58.2955C64.2981 58.0767 64.3793 57.8894 64.5417 57.7337C64.7074 57.5779 64.9047 57.5 65.1333 57.5C65.362 57.5 65.5576 57.5779 65.72 57.7337C65.8857 57.8894 65.9686 58.0767 65.9686 58.2955C65.9686 58.5142 65.8857 58.7015 65.72 58.8572C65.5576 59.013 65.362 59.0909 65.1333 59.0909ZM73.2681 62.0739L72.2141 62.3722C72.1478 62.1965 72.0501 62.0258 71.9208 61.8601C71.7949 61.6911 71.6225 61.5518 71.4038 61.4425C71.185 61.3331 70.9049 61.2784 70.5636 61.2784C70.0962 61.2784 69.7068 61.3861 69.3952 61.6016C69.087 61.8137 68.9329 62.0838 68.9329 62.4119C68.9329 62.7036 69.0389 62.9339 69.2511 63.103C69.4632 63.272 69.7946 63.4129 70.2454 63.5256L71.3789 63.804C72.0617 63.9697 72.5704 64.2232 72.9052 64.5646C73.2399 64.9027 73.4073 65.3385 73.4073 65.8722C73.4073 66.3097 73.2814 66.7008 73.0295 67.0455C72.7809 67.3902 72.4329 67.6619 71.9854 67.8608C71.538 68.0597 71.0176 68.1591 70.4244 68.1591C69.6455 68.1591 69.0008 67.9901 68.4904 67.652C67.98 67.3139 67.6568 66.8201 67.521 66.1705L68.6346 65.892C68.7406 66.303 68.9412 66.6113 69.2362 66.8168C69.5344 67.0223 69.9239 67.125 70.4045 67.125C70.9513 67.125 71.3855 67.009 71.707 66.777C72.0318 66.5417 72.1942 66.2599 72.1942 65.9318C72.1942 65.6667 72.1014 65.4446 71.9158 65.2656C71.7302 65.0833 71.4452 64.9474 71.0607 64.858L69.788 64.5597C69.0887 64.3939 68.5749 64.1371 68.2468 63.7891C67.922 63.4377 67.7596 62.9986 67.7596 62.4716C67.7596 62.0407 67.8806 61.6596 68.1225 61.3281C68.3678 60.9967 68.7009 60.7365 69.1218 60.5476C69.546 60.3587 70.0266 60.2642 70.5636 60.2642C71.3192 60.2642 71.9125 60.4299 72.3434 60.7614C72.7776 61.0928 73.0858 61.5303 73.2681 62.0739ZM75.1735 68V60.3636H76.3468V68H75.1735ZM75.7701 59.0909C75.5414 59.0909 75.3442 59.013 75.1784 58.8572C75.016 58.7015 74.9348 58.5142 74.9348 58.2955C74.9348 58.0767 75.016 57.8894 75.1784 57.7337C75.3442 57.5779 75.5414 57.5 75.7701 57.5C75.9988 57.5 76.1943 57.5779 76.3567 57.7337C76.5224 57.8894 76.6053 58.0767 76.6053 58.2955C76.6053 58.5142 76.5224 58.7015 76.3567 58.8572C76.1943 59.013 75.9988 59.0909 75.7701 59.0909ZM81.8168 60.3636V61.358H77.8594V60.3636H81.8168ZM79.0128 58.5341H80.1861V65.8125C80.1861 66.1439 80.2341 66.3925 80.3303 66.5582C80.4297 66.7206 80.5556 66.83 80.7081 66.8864C80.8639 66.9394 81.0279 66.9659 81.2003 66.9659C81.3295 66.9659 81.4356 66.9593 81.5185 66.946C81.6013 66.9295 81.6676 66.9162 81.7173 66.9062L81.956 67.9602C81.8764 67.9901 81.7654 68.0199 81.6229 68.0497C81.4804 68.0829 81.2997 68.0994 81.081 68.0994C80.7495 68.0994 80.4247 68.0282 80.1065 67.8857C79.7917 67.7431 79.5298 67.526 79.321 67.2344C79.1155 66.9427 79.0128 66.5748 79.0128 66.1307V58.5341ZM86.6019 68.1591C85.9125 68.1591 85.3076 67.995 84.7873 67.6669C84.2702 67.3388 83.8659 66.8797 83.5742 66.2898C83.2859 65.6998 83.1417 65.0104 83.1417 64.2216C83.1417 63.4261 83.2859 62.7318 83.5742 62.1385C83.8659 61.5452 84.2702 61.0845 84.7873 60.7564C85.3076 60.4283 85.9125 60.2642 86.6019 60.2642C87.2913 60.2642 87.8945 60.4283 88.4116 60.7564C88.9319 61.0845 89.3363 61.5452 89.6246 62.1385C89.9163 62.7318 90.0621 63.4261 90.0621 64.2216C90.0621 65.0104 89.9163 65.6998 89.6246 66.2898C89.3363 66.8797 88.9319 67.3388 88.4116 67.6669C87.8945 67.995 87.2913 68.1591 86.6019 68.1591ZM86.6019 67.1051C87.1256 67.1051 87.5565 66.9709 87.8945 66.7024C88.2326 66.4339 88.4828 66.081 88.6452 65.6435C88.8076 65.206 88.8888 64.732 88.8888 64.2216C88.8888 63.7112 88.8076 63.2356 88.6452 62.7947C88.4828 62.3539 88.2326 61.9976 87.8945 61.7259C87.5565 61.4541 87.1256 61.3182 86.6019 61.3182C86.0782 61.3182 85.6474 61.4541 85.3093 61.7259C84.9712 61.9976 84.721 62.3539 84.5586 62.7947C84.3962 63.2356 84.315 63.7112 84.315 64.2216C84.315 64.732 84.3962 65.206 84.5586 65.6435C84.721 66.081 84.9712 66.4339 85.3093 66.7024C85.6474 66.9709 86.0782 67.1051 86.6019 67.1051ZM91.8532 68V60.3636H92.9867V61.517H93.0662C93.2054 61.1392 93.4573 60.8326 93.8219 60.5973C94.1865 60.362 94.5975 60.2443 95.0549 60.2443C95.141 60.2443 95.2488 60.246 95.378 60.2493C95.5073 60.2526 95.6051 60.2576 95.6713 60.2642V61.4574C95.6316 61.4474 95.5404 61.4325 95.3979 61.4126C95.2587 61.3894 95.1112 61.3778 94.9554 61.3778C94.5842 61.3778 94.2528 61.4557 93.9611 61.6115C93.6728 61.764 93.4441 61.9761 93.275 62.2479C93.1093 62.5163 93.0265 62.8229 93.0265 63.1676V68H91.8532ZM102.471 62.0739L101.417 62.3722C101.351 62.1965 101.253 62.0258 101.124 61.8601C100.998 61.6911 100.826 61.5518 100.607 61.4425C100.388 61.3331 100.108 61.2784 99.7667 61.2784C99.2994 61.2784 98.9099 61.3861 98.5984 61.6016C98.2901 61.8137 98.136 62.0838 98.136 62.4119C98.136 62.7036 98.2421 62.9339 98.4542 63.103C98.6663 63.272 98.9978 63.4129 99.4485 63.5256L100.582 63.804C101.265 63.9697 101.774 64.2232 102.108 64.5646C102.443 64.9027 102.61 65.3385 102.61 65.8722C102.61 66.3097 102.484 66.7008 102.233 67.0455C101.984 67.3902 101.636 67.6619 101.189 67.8608C100.741 68.0597 100.221 68.1591 99.6275 68.1591C98.8486 68.1591 98.204 67.9901 97.6935 67.652C97.1831 67.3139 96.86 66.8201 96.7241 66.1705L97.8377 65.892C97.9438 66.303 98.1443 66.6113 98.4393 66.8168C98.7376 67.0223 99.127 67.125 99.6076 67.125C100.154 67.125 100.589 67.009 100.91 66.777C101.235 66.5417 101.397 66.2599 101.397 65.9318C101.397 65.6667 101.305 65.4446 101.119 65.2656C100.933 65.0833 100.648 64.9474 100.264 64.858L98.9911 64.5597C98.2918 64.3939 97.7781 64.1371 97.4499 63.7891C97.1251 63.4377 96.9627 62.9986 96.9627 62.4716C96.9627 62.0407 97.0837 61.6596 97.3256 61.3281C97.5709 60.9967 97.904 60.7365 98.3249 60.5476C98.7492 60.3587 99.2298 60.2642 99.7667 60.2642C100.522 60.2642 101.116 60.4299 101.547 60.7614C101.981 61.0928 102.289 61.5303 102.471 62.0739Z" fill="#9FA2AA"/>
<path d="M21.4602 97L26.4091 87.2045V87.125H20.6648V85.3636H28.5909V87.1648L23.6477 97H21.4602ZM30.8622 95.4091L30.7884 96.0341C30.7353 96.5114 30.6406 96.9962 30.5043 97.4886C30.3717 97.9848 30.2315 98.4413 30.0838 98.858C29.9361 99.2746 29.8168 99.6023 29.7259 99.8409H28.3395C28.3925 99.6098 28.4645 99.2955 28.5554 98.8977C28.6501 98.5 28.741 98.053 28.8281 97.5568C28.9152 97.0606 28.974 96.5568 29.0043 96.0455L29.044 95.4091H30.8622ZM36.8423 97.1591C35.9976 97.1591 35.2476 97.017 34.5923 96.733C33.9408 96.4489 33.4295 96.0606 33.0582 95.5682C32.6908 95.072 32.509 94.5095 32.5128 93.8807C32.509 93.392 32.6151 92.9432 32.831 92.5341C33.0469 92.125 33.3385 91.7841 33.706 91.5114C34.0772 91.2348 34.4901 91.0587 34.9446 90.983V90.9034C34.3461 90.7708 33.8613 90.4659 33.4901 89.9886C33.1226 89.5076 32.9408 88.9527 32.9446 88.3239C32.9408 87.7254 33.1075 87.1913 33.4446 86.7216C33.7817 86.2519 34.2438 85.8826 34.831 85.6136C35.4181 85.3409 36.0885 85.2045 36.8423 85.2045C37.5885 85.2045 38.2533 85.3409 38.8366 85.6136C39.4238 85.8826 39.8859 86.2519 40.223 86.7216C40.5639 87.1913 40.7344 87.7254 40.7344 88.3239C40.7344 88.9527 40.5469 89.5076 40.1719 89.9886C39.8007 90.4659 39.3215 90.7708 38.7344 90.9034V90.983C39.1889 91.0587 39.598 91.2348 39.9616 91.5114C40.3291 91.7841 40.6207 92.125 40.8366 92.5341C41.0563 92.9432 41.1662 93.392 41.1662 93.8807C41.1662 94.5095 40.9806 95.072 40.6094 95.5682C40.2382 96.0606 39.7268 96.4489 39.0753 96.733C38.4276 97.017 37.6832 97.1591 36.8423 97.1591ZM36.8423 95.5341C37.2779 95.5341 37.6567 95.4602 37.9787 95.3125C38.3007 95.161 38.5507 94.9489 38.7287 94.6761C38.9067 94.4034 38.9976 94.089 39.0014 93.733C38.9976 93.3617 38.901 93.0341 38.7116 92.75C38.526 92.4621 38.2704 92.2367 37.9446 92.0739C37.6226 91.911 37.2552 91.8295 36.8423 91.8295C36.4257 91.8295 36.0545 91.911 35.7287 92.0739C35.4029 92.2367 35.1454 92.4621 34.956 92.75C34.7704 93.0341 34.6795 93.3617 34.6832 93.733C34.6795 94.089 34.7666 94.4034 34.9446 94.6761C35.1226 94.9451 35.3726 95.1553 35.6946 95.3068C36.0204 95.4583 36.4029 95.5341 36.8423 95.5341ZM36.8423 90.233C37.1984 90.233 37.5128 90.161 37.7855 90.017C38.062 89.8731 38.2798 89.6723 38.4389 89.4148C38.598 89.1572 38.6795 88.8598 38.6832 88.5227C38.6795 88.1894 38.5999 87.8977 38.4446 87.6477C38.2893 87.3939 38.0734 87.1989 37.7969 87.0625C37.5204 86.9223 37.2022 86.8523 36.8423 86.8523C36.4749 86.8523 36.151 86.9223 35.8707 87.0625C35.5942 87.1989 35.3783 87.3939 35.223 87.6477C35.0715 87.8977 34.9976 88.1894 35.0014 88.5227C34.9976 88.8598 35.0734 89.1572 35.2287 89.4148C35.3878 89.6686 35.6056 89.8693 35.8821 90.017C36.1624 90.161 36.4825 90.233 36.8423 90.233ZM47.0739 85.2045C47.6307 85.2083 48.1723 85.3068 48.6989 85.5C49.2292 85.6894 49.7064 86 50.1307 86.4318C50.5549 86.8598 50.892 87.4337 51.142 88.1534C51.392 88.8731 51.517 89.7633 51.517 90.8239C51.5208 91.8239 51.4148 92.7178 51.1989 93.5057C50.9867 94.2898 50.6818 94.9527 50.2841 95.4943C49.8864 96.036 49.4072 96.4489 48.8466 96.733C48.286 97.017 47.6553 97.1591 46.9545 97.1591C46.2197 97.1591 45.5682 97.0152 45 96.7273C44.4356 96.4394 43.9792 96.0455 43.6307 95.5455C43.2822 95.0455 43.0682 94.4735 42.9886 93.8295H45.0625C45.1686 94.2917 45.3845 94.6591 45.7102 94.9318C46.0398 95.2008 46.4545 95.3352 46.9545 95.3352C47.7614 95.3352 48.3826 94.9848 48.8182 94.2841C49.2538 93.5833 49.4716 92.6098 49.4716 91.3636H49.392C49.2064 91.697 48.9659 91.9848 48.6705 92.2273C48.375 92.4659 48.0398 92.6496 47.6648 92.7784C47.2936 92.9072 46.8996 92.9716 46.483 92.9716C45.8011 92.9716 45.1875 92.8087 44.642 92.483C44.1004 92.1572 43.6705 91.7102 43.3523 91.142C43.0379 90.5739 42.8788 89.9242 42.875 89.1932C42.875 88.4356 43.0492 87.7557 43.3977 87.1534C43.75 86.5473 44.2405 86.0701 44.8693 85.7216C45.4981 85.3693 46.233 85.197 47.0739 85.2045ZM47.0795 86.9091C46.6705 86.9091 46.3011 87.0095 45.9716 87.2102C45.6458 87.4072 45.3883 87.6761 45.1989 88.017C45.0133 88.3542 44.9205 88.7311 44.9205 89.1477C44.9242 89.5606 45.017 89.9356 45.1989 90.2727C45.3845 90.6098 45.6364 90.8769 45.9545 91.0739C46.2765 91.2708 46.6439 91.3693 47.0568 91.3693C47.3636 91.3693 47.6496 91.3106 47.9148 91.1932C48.1799 91.0758 48.411 90.9129 48.608 90.7045C48.8087 90.4924 48.964 90.2519 49.0739 89.983C49.1875 89.714 49.2424 89.4299 49.2386 89.1307C49.2386 88.733 49.1439 88.3655 48.9545 88.0284C48.7689 87.6913 48.5133 87.4205 48.1875 87.2159C47.8655 87.0114 47.4962 86.9091 47.0795 86.9091ZM57.7102 97.2216C56.7746 97.2216 55.9716 96.9848 55.3011 96.5114C54.6345 96.0341 54.1212 95.3466 53.7614 94.4489C53.4053 93.5473 53.2273 92.4621 53.2273 91.1932C53.2311 89.9242 53.411 88.8447 53.767 87.9545C54.1269 87.0606 54.6402 86.3788 55.3068 85.9091C55.9773 85.4394 56.7784 85.2045 57.7102 85.2045C58.642 85.2045 59.4432 85.4394 60.1136 85.9091C60.7841 86.3788 61.2973 87.0606 61.6534 87.9545C62.0133 88.8485 62.1932 89.928 62.1932 91.1932C62.1932 92.4659 62.0133 93.553 61.6534 94.4545C61.2973 95.3523 60.7841 96.0379 60.1136 96.5114C59.447 96.9848 58.6458 97.2216 57.7102 97.2216ZM57.7102 95.4432C58.4375 95.4432 59.0114 95.0852 59.4318 94.3693C59.8561 93.6496 60.0682 92.5909 60.0682 91.1932C60.0682 90.2689 59.9716 89.4924 59.7784 88.8636C59.5852 88.2348 59.3125 87.7614 58.9602 87.4432C58.608 87.1212 58.1913 86.9602 57.7102 86.9602C56.9867 86.9602 56.4148 87.3201 55.9943 88.0398C55.5739 88.7557 55.3617 89.8068 55.358 91.1932C55.3542 92.1212 55.447 92.9015 55.6364 93.5341C55.8295 94.1667 56.1023 94.6439 56.4545 94.9659C56.8068 95.2841 57.2254 95.4432 57.7102 95.4432Z" fill="#0F172A"/>
<rect x="69" y="79" width="47" height="22" rx="6" fill="#FFA41B"/>
<path d="M79.7131 89.0824V90.1903H75.8438V89.0824H79.7131ZM81.6669 94V93.0455L84.62 89.9858C84.9354 89.6534 85.1953 89.3622 85.3999 89.1122C85.6072 88.8594 85.7621 88.6193 85.8643 88.392C85.9666 88.1648 86.0178 87.9233 86.0178 87.6676C86.0178 87.3778 85.9496 87.1278 85.8132 86.9176C85.6768 86.7045 85.4908 86.5412 85.255 86.4276C85.0192 86.3111 84.7536 86.2528 84.4581 86.2528C84.1456 86.2528 83.8729 86.3168 83.6399 86.4446C83.407 86.5724 83.228 86.7528 83.103 86.9858C82.978 87.2187 82.9155 87.4915 82.9155 87.804H81.6584C81.6584 87.2727 81.7805 86.8082 82.0249 86.4105C82.2692 86.0128 82.6044 85.7045 83.0305 85.4858C83.4567 85.2642 83.9411 85.1534 84.4837 85.1534C85.032 85.1534 85.5149 85.2628 85.9325 85.4815C86.353 85.6974 86.6811 85.9929 86.9169 86.3679C87.1527 86.7401 87.2706 87.1605 87.2706 87.6293C87.2706 87.9531 87.2095 88.2699 87.0874 88.5795C86.968 88.8892 86.7592 89.2344 86.4609 89.6151C86.1626 89.9929 85.7479 90.4517 85.2166 90.9915L83.4822 92.8068V92.8707H87.4112V94H81.6669ZM90.1737 94.081C89.9407 94.081 89.7404 93.9986 89.5728 93.8338C89.4052 93.6662 89.3214 93.4645 89.3214 93.2287C89.3214 92.9957 89.4052 92.7969 89.5728 92.6321C89.7404 92.4645 89.9407 92.3807 90.1737 92.3807C90.4066 92.3807 90.6069 92.4645 90.7745 92.6321C90.9421 92.7969 91.0259 92.9957 91.0259 93.2287C91.0259 93.3849 90.9862 93.5284 90.9066 93.6591C90.8299 93.7869 90.7276 93.8892 90.5998 93.9659C90.4719 94.0426 90.3299 94.081 90.1737 94.081ZM95.8178 94.1449C95.1445 94.142 94.5692 93.9645 94.092 93.6122C93.6147 93.2599 93.2496 92.7472 92.9968 92.0739C92.744 91.4006 92.6175 90.5895 92.6175 89.6406C92.6175 88.6946 92.744 87.8864 92.9968 87.2159C93.2525 86.5455 93.619 86.0341 94.0962 85.6818C94.5763 85.3295 95.1502 85.1534 95.8178 85.1534C96.4854 85.1534 97.0579 85.331 97.5352 85.6861C98.0124 86.0384 98.3775 86.5497 98.6303 87.2202C98.886 87.8878 99.0138 88.6946 99.0138 89.6406C99.0138 90.5923 98.8874 91.4048 98.6346 92.0781C98.3817 92.7486 98.0167 93.2614 97.5394 93.6165C97.0621 93.9688 96.4883 94.1449 95.8178 94.1449ZM95.8178 93.0071C96.4087 93.0071 96.8704 92.7188 97.2028 92.142C97.538 91.5653 97.7056 90.7315 97.7056 89.6406C97.7056 88.9162 97.6289 88.304 97.4755 87.804C97.3249 87.3011 97.1076 86.9205 96.8235 86.6619C96.5423 86.4006 96.207 86.2699 95.8178 86.2699C95.2298 86.2699 94.7681 86.5597 94.4329 87.1392C94.0977 87.7187 93.9286 88.5526 93.9258 89.6406C93.9258 90.3679 94.0011 90.983 94.1516 91.4858C94.305 91.9858 94.5224 92.3651 94.8036 92.6236C95.0849 92.8793 95.4229 93.0071 95.8178 93.0071ZM105.168 92.3636V91.9034C105.168 91.5739 105.237 91.2727 105.373 91C105.512 90.7244 105.714 90.5043 105.978 90.3395C106.245 90.1719 106.567 90.0881 106.945 90.0881C107.332 90.0881 107.656 90.1705 107.917 90.3352C108.178 90.5 108.376 90.7202 108.509 90.9957C108.646 91.2713 108.714 91.5739 108.714 91.9034V92.3636C108.714 92.6932 108.646 92.9957 108.509 93.2713C108.373 93.544 108.173 93.7642 107.908 93.9318C107.647 94.0966 107.326 94.179 106.945 94.179C106.562 94.179 106.238 94.0966 105.974 93.9318C105.71 93.7642 105.509 93.544 105.373 93.2713C105.237 92.9957 105.168 92.6932 105.168 92.3636ZM106.161 91.9034V92.3636C106.161 92.608 106.219 92.8295 106.336 93.0284C106.452 93.2273 106.656 93.3267 106.945 93.3267C107.232 93.3267 107.433 93.2273 107.546 93.0284C107.66 92.8295 107.717 92.608 107.717 92.3636V91.9034C107.717 91.6591 107.661 91.4375 107.55 91.2386C107.442 91.0398 107.241 90.9403 106.945 90.9403C106.661 90.9403 106.46 91.0398 106.34 91.2386C106.221 91.4375 106.161 91.6591 106.161 91.9034ZM100.779 87.3693V86.9091C100.779 86.5795 100.847 86.277 100.984 86.0014C101.123 85.7259 101.325 85.5057 101.589 85.3409C101.856 85.1761 102.178 85.0938 102.556 85.0938C102.942 85.0938 103.266 85.1761 103.528 85.3409C103.789 85.5057 103.987 85.7259 104.12 86.0014C104.254 86.277 104.32 86.5795 104.32 86.9091V87.3693C104.32 87.6989 104.252 88.0014 104.116 88.277C103.982 88.5497 103.783 88.7699 103.519 88.9375C103.258 89.1023 102.937 89.1847 102.556 89.1847C102.17 89.1847 101.844 89.1023 101.58 88.9375C101.319 88.7699 101.12 88.5497 100.984 88.277C100.847 88.0014 100.779 87.6989 100.779 87.3693ZM101.776 86.9091V87.3693C101.776 87.6136 101.833 87.8352 101.947 88.0341C102.063 88.233 102.266 88.3324 102.556 88.3324C102.84 88.3324 103.039 88.233 103.153 88.0341C103.269 87.8352 103.327 87.6136 103.327 87.3693V86.9091C103.327 86.6648 103.272 86.4432 103.161 86.2443C103.05 86.0455 102.849 85.946 102.556 85.946C102.272 85.946 102.07 86.0455 101.951 86.2443C101.835 86.4432 101.776 86.6648 101.776 86.9091ZM101.184 94L107.184 85.2727H108.202L102.202 94H101.184Z" fill="white"/>
<rect x="136" y="71" width="16.1667" height="32" rx="1" fill="#DAE6FF"/>
<rect x="156.167" y="88" width="16.1667" height="15" rx="1" fill="#DAE6FF"/>
<rect x="176.333" y="81" width="16.1667" height="22" rx="1" fill="#DAE6FF"/>
<rect x="196.5" y="66" width="16.1667" height="37" rx="1" fill="#DAE6FF"/>
<rect x="216.667" y="52" width="16.1667" height="51" rx="1" fill="#DAE6FF"/>
<rect x="236.833" y="71" width="16.1667" height="32" rx="1" fill="#DAE6FF"/>
<rect x="257" y="20" width="16.1667" height="83" rx="1" fill="#4680FF"/>
<rect x="277.167" y="74" width="16.1667" height="29" rx="1" fill="#DAE6FF"/>
<rect x="297.333" y="66" width="16.1667" height="37" rx="1" fill="#DAE6FF"/>
<rect x="317.5" y="52" width="16.1667" height="51" rx="1" fill="#DAE6FF"/>
<rect x="337.667" y="71" width="16.1667" height="32" rx="1" fill="#DAE6FF"/>
<rect x="357.833" y="81" width="16.1667" height="22" rx="1" fill="#DAE6FF"/>
<rect x="0.5" y="0.5" width="393" height="122" rx="7.5" stroke="#EFEFEF"/>
</svg>
