<svg width="60" height="60" viewBox="0 0 60 60" fill="none" xmlns="http://www.w3.org/2000/svg">
<g clip-path="url(#clip0_79_407)">
<rect width="60" height="60" rx="20" fill="url(#paint0_linear_79_407)"/>
<path d="M9.45508 36V21.6836H14.0938C15.8516 21.6836 16.9974 21.7552 17.5312 21.8984C18.3516 22.1133 19.0384 22.582 19.5918 23.3047C20.1452 24.0208 20.4219 24.9486 20.4219 26.0879C20.4219 26.9668 20.2624 27.7057 19.9434 28.3047C19.6243 28.9036 19.2174 29.3757 18.7227 29.7207C18.2344 30.0592 17.7363 30.2839 17.2285 30.3945C16.5384 30.5312 15.5391 30.5996 14.2305 30.5996H12.3457V36H9.45508ZM12.3457 24.1055V28.168H13.9277C15.0671 28.168 15.8288 28.0931 16.2129 27.9434C16.597 27.7936 16.8965 27.5592 17.1113 27.2402C17.3327 26.9212 17.4434 26.5501 17.4434 26.127C17.4434 25.6061 17.2904 25.1764 16.9844 24.8379C16.6784 24.4993 16.291 24.2878 15.8223 24.2031C15.4772 24.138 14.7839 24.1055 13.7422 24.1055H12.3457ZM22.8047 36V21.6836H28.8887C30.4186 21.6836 31.5286 21.8138 32.2188 22.0742C32.9154 22.3281 33.472 22.7839 33.8887 23.4414C34.3053 24.099 34.5137 24.8509 34.5137 25.6973C34.5137 26.7715 34.1979 27.6602 33.5664 28.3633C32.9349 29.0599 31.9909 29.4993 30.7344 29.6816C31.3594 30.0462 31.8737 30.4466 32.2773 30.8828C32.6875 31.319 33.2376 32.0938 33.9277 33.207L35.6758 36H32.2188L30.1289 32.8848C29.3867 31.7715 28.8789 31.0716 28.6055 30.7852C28.332 30.4922 28.0423 30.2936 27.7363 30.1895C27.4303 30.0788 26.9453 30.0234 26.2812 30.0234H25.6953V36H22.8047ZM25.6953 27.7383H27.834C29.2207 27.7383 30.0866 27.6797 30.4316 27.5625C30.7767 27.4453 31.0469 27.2435 31.2422 26.957C31.4375 26.6706 31.5352 26.3125 31.5352 25.8828C31.5352 25.401 31.4049 25.0137 31.1445 24.7207C30.8906 24.4212 30.5293 24.2324 30.0605 24.1543C29.8262 24.1217 29.123 24.1055 27.9512 24.1055H25.6953V27.7383ZM36.6621 28.9297C36.6621 27.4714 36.8802 26.2474 37.3164 25.2578C37.6419 24.5286 38.0846 23.8743 38.6445 23.2949C39.2109 22.7155 39.8294 22.2858 40.5 22.0059C41.3919 21.6283 42.4206 21.4395 43.5859 21.4395C45.6953 21.4395 47.3815 22.0938 48.6445 23.4023C49.9141 24.7109 50.5488 26.5306 50.5488 28.8613C50.5488 31.1725 49.9206 32.9824 48.6641 34.291C47.4076 35.5931 45.7279 36.2441 43.625 36.2441C41.4961 36.2441 39.8034 35.5964 38.5469 34.3008C37.2904 32.9987 36.6621 31.2083 36.6621 28.9297ZM39.6406 28.832C39.6406 30.4531 40.015 31.6836 40.7637 32.5234C41.5124 33.3568 42.4629 33.7734 43.6152 33.7734C44.7676 33.7734 45.7116 33.36 46.4473 32.5332C47.1895 31.6999 47.5605 30.4531 47.5605 28.793C47.5605 27.1523 47.1992 25.9284 46.4766 25.1211C45.7604 24.3138 44.8066 23.9102 43.6152 23.9102C42.4238 23.9102 41.4635 24.3203 40.7344 25.1406C40.0052 25.9544 39.6406 27.1849 39.6406 28.832Z" fill="white"/>
</g>
<defs>
<linearGradient id="paint0_linear_79_407" x1="30" y1="0" x2="30" y2="60" gradientUnits="userSpaceOnUse">
<stop stop-color="#4680FF"/>
<stop offset="1" stop-color="#2F58B1"/>
</linearGradient>
<clipPath id="clip0_79_407">
<rect width="60" height="60" fill="white"/>
</clipPath>
</defs>
</svg>
