<svg width="41" height="50" viewBox="0 0 41 50" fill="none" xmlns="http://www.w3.org/2000/svg">
<path d="M39.302 12.7954V47.7268C39.302 48.3425 38.828 48.8384 38.2393 48.8384H4.53135C3.94266 48.8384 3.46866 48.3425 3.46866 47.7268V2.1033C3.46866 1.48752 3.94266 0.991699 4.53135 0.991699H26.7026C26.8096 0.991699 26.909 1.03168 26.9855 1.10366L39.1567 12.4595C39.2485 12.5475 39.302 12.6675 39.302 12.7954Z" fill="white"/>
<path d="M38.2469 49.83H4.53133C3.42277 49.83 2.52063 48.8863 2.52063 47.7267V2.10324C2.52063 0.943658 3.42277 0 4.53133 0H26.7026C27.039 0 27.3677 0.127954 27.62 0.367867L39.7913 11.7238C40.0818 11.9957 40.25 12.3875 40.25 12.7954V47.7267C40.25 48.8863 39.3478 49.83 38.2469 49.83ZM4.53133 1.98328C4.47017 1.98328 4.41665 2.03926 4.41665 2.10324V47.7267C4.41665 47.7907 4.47017 47.8467 4.53133 47.8467H38.2469C38.3081 47.8467 38.3616 47.7907 38.3616 47.7267V13.0433L26.5038 1.98328H4.53133Z" fill="#CFD1D4"/>
<path d="M39.302 12.5955H27.5665C27.1766 12.5955 26.8632 12.2676 26.8632 11.8598V0.991699L39.302 12.5955Z" fill="white"/>
<path d="M39.302 13.5871H27.5665C26.6567 13.5871 25.9151 12.8114 25.9151 11.8597V0.991655L27.4977 0.247925L39.9365 11.8517L39.302 13.5871ZM27.8112 11.6038H36.8173L27.8112 3.20685V11.6038Z" fill="#CFD1D4"/>
<path d="M24.0267 42.6965H2.25305C1.64143 42.6965 1.15213 42.1767 1.15213 41.5449V29.5173C1.15213 28.8775 1.64907 28.3657 2.25305 28.3657H24.0267C24.6384 28.3657 25.1277 28.8855 25.1277 29.5173V41.5449C25.1353 42.1847 24.6384 42.6965 24.0267 42.6965Z" fill="#FF7947"/>
<path d="M23.3769 43.6881H2.00076C1.03746 43.6881 0.25 42.6805 0.25 41.4409V29.6292C0.25 28.3897 1.03746 27.374 2.00076 27.374H23.3769C24.3402 27.374 25.1277 28.3817 25.1277 29.6292V41.4409C25.1353 42.6805 24.3479 43.6881 23.3769 43.6881ZM2.00076 29.3573C1.88609 29.3573 1.79434 29.4773 1.79434 29.6212V41.4329C1.79434 41.5769 1.88609 41.6968 2.00076 41.6968H23.3769C23.4916 41.6968 23.5833 41.5769 23.5833 41.4329V29.6292C23.5833 29.4853 23.4916 29.3653 23.3769 29.3653H2.00076V29.3573Z" fill="#EB541C"/>
<path d="M8.11697 38.514L10.617 32.0044H11.7179L14.2408 38.514H13.0099L12.406 36.9226H9.89067L9.30199 38.514H8.11697ZM10.3112 35.867H11.9778C11.6491 34.8514 11.3739 34.0037 11.1521 33.3319C10.9687 33.8917 10.6858 34.7394 10.3112 35.867Z" fill="white"/>
<path d="M14.9901 38.514V32.0044H16.0757V38.514H14.9901Z" fill="white"/>
</svg>
