<svg width="41" height="50" viewBox="0 0 41 50" fill="none" xmlns="http://www.w3.org/2000/svg">
<path d="M39.302 12.7954V47.7268C39.302 48.3425 38.828 48.8384 38.2393 48.8384H4.53134C3.94266 48.8384 3.46865 48.3425 3.46865 47.7268V2.1033C3.46865 1.48752 3.94266 0.991699 4.53134 0.991699H26.7026C26.8096 0.991699 26.909 1.03168 26.9855 1.10366L39.1567 12.4595C39.2485 12.5475 39.302 12.6675 39.302 12.7954Z" fill="white"/>
<path d="M38.2469 49.83H4.53135C3.42279 49.83 2.52065 48.8863 2.52065 47.7267V2.10324C2.52065 0.943658 3.42279 0 4.53135 0H26.7026C27.039 0 27.3677 0.127954 27.62 0.367867L39.7913 11.7238C40.0818 11.9957 40.25 12.3875 40.25 12.7954V47.7267C40.25 48.8863 39.3479 49.83 38.2469 49.83ZM4.53135 1.98328C4.47019 1.98328 4.41667 2.03926 4.41667 2.10324V47.7267C4.41667 47.7907 4.47019 47.8467 4.53135 47.8467H38.2469C38.3081 47.8467 38.3616 47.7907 38.3616 47.7267V13.0433L26.5038 1.98328H4.53135Z" fill="#CFD1D4"/>
<path d="M39.302 12.5955H27.5665C27.1766 12.5955 26.8632 12.2676 26.8632 11.8598V0.991699L39.302 12.5955Z" fill="#F5F5F5"/>
<path d="M39.302 13.5871H27.5665C26.6567 13.5871 25.9151 12.8114 25.9151 11.8597V0.991655L27.4977 0.247925L39.9365 11.8517L39.302 13.5871ZM27.8112 11.6038H36.8173L27.8112 3.20685V11.6038Z" fill="#CFD1D4"/>
<path d="M24.0268 42.6965H2.25306C1.64143 42.6965 1.15214 42.1767 1.15214 41.5449V29.5173C1.15214 28.8775 1.64908 28.3657 2.25306 28.3657H24.0268C24.6384 28.3657 25.1277 28.8855 25.1277 29.5173V41.5449C25.1353 42.1847 24.6384 42.6965 24.0268 42.6965Z" fill="#4E4E4E"/>
<path d="M23.3769 43.6881H2.00076C1.03746 43.6881 0.25 42.6805 0.25 41.4409V29.6292C0.25 28.3897 1.03746 27.374 2.00076 27.374H23.3769C24.3402 27.374 25.1277 28.3817 25.1277 29.6292V41.4409C25.1353 42.6805 24.3479 43.6881 23.3769 43.6881ZM2.00076 29.3573C1.88609 29.3573 1.79434 29.4773 1.79434 29.6212V41.4329C1.79434 41.5769 1.88609 41.6968 2.00076 41.6968H23.3769C23.4916 41.6968 23.5833 41.5769 23.5833 41.4329V29.6292C23.5833 29.4853 23.4916 29.3653 23.3769 29.3653H2.00076V29.3573Z" fill="#292929"/>
<path d="M9.86009 38.418H9.47018C9.31728 38.418 9.17966 38.41 9.06498 38.402C8.9503 38.394 8.83562 38.378 8.7133 38.346C8.59098 38.322 8.49159 38.2821 8.40749 38.2421C8.32339 38.1941 8.24694 38.1381 8.16284 38.0661C8.08639 37.9942 8.02523 37.8982 7.97935 37.7942C7.93348 37.6903 7.89526 37.5623 7.87232 37.4104C7.84174 37.2584 7.83409 37.0905 7.83409 36.8986V34.9473H7.01605V34.2755H7.87997V33.3079L8.7974 33.012V34.2755H9.82951V34.9473H8.7974V36.9625C8.7974 37.0905 8.80504 37.1944 8.82798 37.2744C8.85091 37.3544 8.87385 37.4184 8.91208 37.4743C8.9503 37.5303 9.01911 37.5623 9.11085 37.5863C9.2026 37.6103 9.30198 37.6263 9.40902 37.6343C9.51605 37.6423 9.66896 37.6503 9.86773 37.6503V38.418H9.86009Z" fill="white"/>
<path d="M10.1583 38.4181L11.5879 36.3948L10.2271 34.2676H11.2898L12.146 35.6031L13.094 34.2676H14.0803L12.6812 36.2589L14.0879 38.4181H13.0252L12.1307 37.0506L11.1674 38.4181H10.1583Z" fill="white"/>
<path d="M16.9855 38.418H16.5956C16.4427 38.418 16.305 38.41 16.1904 38.402C16.0757 38.394 15.961 38.378 15.8387 38.346C15.7164 38.322 15.617 38.2821 15.5329 38.2421C15.4488 38.1941 15.3723 38.1381 15.2882 38.0661C15.2118 37.9942 15.1506 37.8982 15.1047 37.7942C15.0589 37.6903 15.0206 37.5623 14.9977 37.4104C14.9671 37.2584 14.9595 37.0905 14.9595 36.8986V34.9473H14.1338V34.2755H14.9977V33.3079L15.9151 33.012V34.2755H16.9472V34.9473H15.9228V36.9625C15.9228 37.0905 15.9304 37.1944 15.9534 37.2744C15.9763 37.3544 15.9992 37.4184 16.0375 37.4743C16.0757 37.5303 16.1445 37.5623 16.2362 37.5863C16.328 37.6103 16.4274 37.6263 16.5344 37.6343C16.6414 37.6423 16.7943 37.6503 16.9931 37.6503V38.418H16.9855Z" fill="white"/>
</svg>
