<svg width="38" height="50" viewBox="0 0 38 50" fill="none" xmlns="http://www.w3.org/2000/svg">
<path d="M36.802 12.7954V47.7268C36.802 48.3425 36.328 48.8384 35.7393 48.8384H2.03135C1.44266 48.8384 0.968658 48.3425 0.968658 47.7268V2.1033C0.968658 1.48752 1.44266 0.991699 2.03135 0.991699H24.2026C24.3096 0.991699 24.409 1.03168 24.4855 1.10366L36.6567 12.4595C36.7485 12.5475 36.802 12.6675 36.802 12.7954Z" fill="white"/>
<path d="M35.7469 49.83H2.03135C0.922786 49.83 0.0206451 48.8863 0.0206451 47.7267V2.10324C0.0206451 0.943658 0.922786 0 2.03135 0H24.2026C24.539 0 24.8677 0.127954 25.12 0.367867L37.2913 11.7238C37.5818 11.9957 37.75 12.3875 37.75 12.7954V47.7267C37.75 48.8863 36.8479 49.83 35.7469 49.83ZM2.03135 1.98328C1.97019 1.98328 1.91667 2.03926 1.91667 2.10324V47.7267C1.91667 47.7907 1.97019 47.8467 2.03135 47.8467H35.7469C35.8081 47.8467 35.8616 47.7907 35.8616 47.7267V13.0433L24.0038 1.98328H2.03135Z" fill="#CFD1D4"/>
<path d="M36.802 12.5955H25.0665C24.6766 12.5955 24.3632 12.2676 24.3632 11.8598V0.991699L36.802 12.5955Z" fill="white"/>
<path d="M36.802 13.5871H25.0665C24.1567 13.5871 23.4151 12.8114 23.4151 11.8597V0.991655L24.9977 0.247925L37.4366 11.8517L36.802 13.5871ZM25.3112 11.6038H34.3173L25.3112 3.20685V11.6038Z" fill="#CFD1D4"/>
<path opacity="0.4" d="M25.7742 28.6457L23.237 22.7918C22.775 21.7202 22.086 21.1124 21.2997 21.0724C20.5216 21.0324 19.7677 21.5682 19.1922 22.5918L17.6521 25.3189C17.3278 25.8947 16.8658 26.2385 16.3632 26.2785C15.8525 26.3265 15.3419 26.0626 14.9285 25.5428L14.7501 25.3189C14.1746 24.6071 13.4613 24.2632 12.7318 24.3352C12.0022 24.4072 11.3781 24.903 10.9647 25.7107L9.56235 28.4697C9.05978 29.4694 9.10842 30.6289 9.70015 31.5726C10.2919 32.5163 11.3213 33.084 12.4481 33.084H22.7912C23.8774 33.084 24.8907 32.5482 25.4905 31.6526C26.1065 30.7569 26.2038 29.6293 25.7742 28.6457Z" fill="#49CFA3"/>
<path d="M15.3112 21.896C16.7383 21.896 17.8953 20.6858 17.8953 19.193C17.8953 17.7002 16.7383 16.49 15.3112 16.49C13.884 16.49 12.7271 17.7002 12.7271 19.193C12.7271 20.6858 13.884 21.896 15.3112 21.896Z" fill="#49CFA3"/>
</svg>
