<svg width="41" height="50" viewBox="0 0 41 50" fill="none" xmlns="http://www.w3.org/2000/svg">
<path d="M39.802 12.7954V47.7268C39.802 48.3425 39.328 48.8384 38.7393 48.8384H5.03135C4.44266 48.8384 3.96866 48.3425 3.96866 47.7268V2.1033C3.96866 1.48752 4.44266 0.991699 5.03135 0.991699H27.2026C27.3096 0.991699 27.409 1.03168 27.4855 1.10366L39.6567 12.4595C39.7485 12.5475 39.802 12.6675 39.802 12.7954Z" fill="white"/>
<path d="M38.7469 49.83H5.03133C3.92277 49.83 3.02063 48.8863 3.02063 47.7267V2.10324C3.02063 0.943658 3.92277 0 5.03133 0H27.2026C27.539 0 27.8677 0.127954 28.12 0.367867L40.2913 11.7238C40.5818 11.9957 40.75 12.3875 40.75 12.7954V47.7267C40.75 48.8863 39.8478 49.83 38.7469 49.83ZM5.03133 1.98328C4.97017 1.98328 4.91665 2.03926 4.91665 2.10324V47.7267C4.91665 47.7907 4.97017 47.8467 5.03133 47.8467H38.7469C38.8081 47.8467 38.8616 47.7907 38.8616 47.7267V13.0433L27.0038 1.98328H5.03133Z" fill="#CFD1D4"/>
<path d="M39.802 12.5955H28.0665C27.6766 12.5955 27.3632 12.2676 27.3632 11.8598V0.991699L39.802 12.5955Z" fill="white"/>
<path d="M39.802 13.5871H28.0665C27.1567 13.5871 26.4151 12.8114 26.4151 11.8597V0.991655L27.9977 0.247925L40.4365 11.8517L39.802 13.5871ZM28.3112 11.6038H37.3173L28.3112 3.20685V11.6038Z" fill="#CFD1D4"/>
<path d="M24.5267 42.6965H2.75305C2.14143 42.6965 1.65213 42.1767 1.65213 41.5449V29.5173C1.65213 28.8775 2.14907 28.3657 2.75305 28.3657H24.5267C25.1384 28.3657 25.6277 28.8855 25.6277 29.5173V41.5449C25.6353 42.1847 25.1384 42.6965 24.5267 42.6965Z" fill="#FF0A45"/>
<path d="M23.8769 43.6881H2.50076C1.53746 43.6881 0.75 42.6805 0.75 41.4409V29.6292C0.75 28.3897 1.53746 27.374 2.50076 27.374H23.8769C24.8402 27.374 25.6277 28.3817 25.6277 29.6292V41.4409C25.6353 42.6805 24.8479 43.6881 23.8769 43.6881ZM2.50076 29.3573C2.38609 29.3573 2.29434 29.4773 2.29434 29.6212V41.4329C2.29434 41.5769 2.38609 41.6968 2.50076 41.6968H23.8769C23.9916 41.6968 24.0833 41.5769 24.0833 41.4329V29.6292C24.0833 29.4853 23.9916 29.3653 23.8769 29.3653H2.50076V29.3573Z" fill="#E5000C"/>
<path d="M7.65366 34.8595C7.65366 34.1877 7.64601 33.6039 7.60779 33.0761H8.47935L8.50993 34.1957H8.5558C8.80809 33.428 9.40442 32.9402 10.0696 32.9402C10.1842 32.9402 10.2607 32.9482 10.3524 32.9722V33.9558C10.253 33.9318 10.146 33.9238 10.016 33.9238C9.31268 33.9238 8.81574 34.4756 8.68577 35.2593C8.66283 35.4033 8.6399 35.5632 8.6399 35.7472V38.7941H7.65366V34.8595Z" fill="white"/>
<path d="M15.1307 37.4265C15.1307 37.9223 15.1537 38.4101 15.2225 38.794H14.3203L14.2439 38.0743H14.2056C13.8998 38.5221 13.3112 38.922 12.5313 38.922C11.4228 38.922 10.857 38.1063 10.857 37.2826C10.857 35.8991 12.0344 35.1393 14.1445 35.1553V35.0354C14.1445 34.5635 14.0222 33.7078 12.8983 33.7078C12.3861 33.7078 11.8586 33.8758 11.4763 34.1317L11.2469 33.4439C11.698 33.1401 12.3555 32.9321 13.0436 32.9321C14.7179 32.9321 15.1231 34.1237 15.1231 35.2753V37.4265H15.1307ZM14.1751 35.8831C13.0894 35.8591 11.8586 36.059 11.8586 37.1706C11.8586 37.8424 12.2867 38.1622 12.7989 38.1622C13.5099 38.1622 13.961 37.6904 14.1216 37.2026C14.1521 37.0986 14.1751 36.9787 14.1751 36.8747V35.8831Z" fill="white"/>
<path d="M16.7362 34.8595C16.7362 34.1877 16.7286 33.6039 16.6904 33.0761H17.5619L17.5925 34.1957H17.6384C17.8907 33.428 18.487 32.9402 19.1521 32.9402C19.2668 32.9402 19.3433 32.9482 19.435 32.9722V33.9558C19.3356 33.9318 19.2286 33.9238 19.0986 33.9238C18.3953 33.9238 17.8983 34.4756 17.7684 35.2593C17.7454 35.4033 17.7225 35.5632 17.7225 35.7472V38.7941H16.7362V34.8595V34.8595Z" fill="white"/>
</svg>
