<svg width="41" height="50" viewBox="0 0 41 50" fill="none" xmlns="http://www.w3.org/2000/svg">
<path d="M39.7954 12.8001V47.7309C39.7954 48.3408 39.3143 48.8399 38.7263 48.8399H4.72861C4.1406 48.8399 3.6595 48.3408 3.6595 47.7309V2.09903C3.6595 1.48912 4.1406 0.990112 4.72861 0.990112H27.0883C27.1952 0.990112 27.2945 1.02972 27.3785 1.101L39.658 12.4595C39.742 12.5466 39.7954 12.6733 39.7954 12.8001Z" fill="white"/>
<path d="M38.7263 49.83H4.72861C3.61368 49.83 2.70494 48.8874 2.70494 47.7309V2.09902C2.70494 0.942579 3.61368 0 4.72861 0H27.0883C27.4319 0 27.7603 0.126733 28.0123 0.364358L40.2918 11.7228C40.5896 11.9921 40.7576 12.3882 40.7576 12.8001V47.7309C40.75 48.8874 39.8413 49.83 38.7263 49.83ZM4.72861 1.98813C4.66752 1.98813 4.61407 2.04357 4.61407 2.10694V47.7389C4.61407 47.8022 4.66752 47.8577 4.72861 47.8577H38.7263C38.7874 47.8577 38.8409 47.8022 38.8409 47.7389V13.0456L26.8897 1.98813H4.72861Z" fill="#CFD1D4"/>
<path d="M39.7954 12.5941H27.9589C27.5694 12.5941 27.2487 12.2694 27.2487 11.8575V0.990112L39.7954 12.5941Z" fill="#F5F5F5"/>
<path d="M39.7954 13.5921H27.9589C27.0425 13.5921 26.2941 12.8159 26.2941 11.8654V0.990055L27.8901 0.253418L40.4369 11.8574L39.7954 13.5921ZM28.2109 11.604H37.2907L28.2109 3.20789V11.604Z" fill="#CFD1D4"/>
<path d="M29.3945 42.7012H2.91876C2.24675 42.7012 1.70456 42.1388 1.70456 41.4418V29.6318C1.70456 28.9348 2.24675 28.3724 2.91876 28.3724H29.3945C30.0665 28.3724 30.6087 28.9348 30.6087 29.6318V41.4418C30.6087 42.1388 30.0665 42.7012 29.3945 42.7012Z" fill="#F54040"/>
<path d="M29.3945 43.6913H2.91877C1.72747 43.6913 0.75 42.6854 0.75 41.4418V29.6318C0.75 28.3883 1.72747 27.3823 2.91877 27.3823H29.3945C30.5935 27.3823 31.5633 28.3962 31.5633 29.6318V41.4418C31.5633 42.6854 30.5935 43.6913 29.3945 43.6913ZM2.91877 29.3625C2.77367 29.3625 2.65913 29.4813 2.65913 29.6318V41.4418C2.65913 41.5923 2.77367 41.7111 2.91877 41.7111H29.3945C29.5396 41.7111 29.6542 41.5923 29.6542 41.4418V29.6318C29.6542 29.4813 29.5396 29.3625 29.3945 29.3625H2.91877V29.3625Z" fill="#CF0033"/>
<path d="M9.18069 38.3606V32.0873H10.9065C11.1051 32.0873 11.2807 32.0873 11.4335 32.0952C11.5786 32.1031 11.7389 32.111 11.9146 32.1348C12.0902 32.1506 12.2353 32.1823 12.3575 32.2219C12.4797 32.2615 12.6095 32.3091 12.7393 32.3645C12.8691 32.42 12.976 32.4992 13.06 32.5863C13.144 32.6734 13.228 32.7764 13.2968 32.9031C13.3655 33.0219 13.419 33.1645 13.4495 33.3309C13.48 33.4972 13.503 33.6794 13.503 33.8853C13.503 34.218 13.4495 34.5031 13.3502 34.7408C13.2433 34.9705 13.0906 35.1526 12.8844 35.2873C12.6782 35.422 12.4338 35.517 12.1513 35.5724C11.8764 35.6279 11.5404 35.6596 11.1585 35.6596H10.2345V38.3606H9.18069V38.3606ZM10.2345 34.7249H11.1433C11.3418 34.7249 11.5175 34.717 11.6549 34.6932C11.7924 34.6695 11.9222 34.6299 12.0444 34.5744C12.1589 34.519 12.2506 34.4318 12.3117 34.313C12.3728 34.2021 12.3957 34.0596 12.3957 33.8932C12.3957 33.7982 12.388 33.719 12.3728 33.6398C12.3575 33.5685 12.3422 33.4972 12.3193 33.4417C12.2964 33.3863 12.2582 33.3388 12.2124 33.2912C12.1666 33.2516 12.1207 33.212 12.0826 33.1883C12.0444 33.1645 11.9833 33.1408 11.9069 33.117C11.8306 33.1011 11.7618 33.0853 11.7084 33.0774C11.6549 33.0695 11.5786 33.0615 11.4716 33.0536C11.3647 33.0457 11.2807 33.0457 11.2196 33.0457C11.1585 33.0457 11.0669 33.0457 10.9371 33.0457H10.2269V34.7249H10.2345Z" fill="white"/>
<path d="M14.5721 38.3606V32.0873H16.2597C17.4663 32.0873 18.375 32.3566 18.9707 32.8873C19.5663 33.418 19.8642 34.1863 19.8642 35.1843C19.8642 36.222 19.574 37.0061 18.986 37.5447C18.398 38.0834 17.5503 38.3527 16.4277 38.3527H14.5721V38.3606ZM15.6259 37.4259H16.4812C17.2143 37.4259 17.7718 37.2358 18.1612 36.8556C18.5507 36.4754 18.7492 35.921 18.7492 35.1843C18.7492 34.4873 18.5507 33.9566 18.1612 33.5843C17.7641 33.212 17.1685 33.0299 16.359 33.0299H15.6335V37.4259H15.6259Z" fill="white"/>
<path d="M21.0936 38.3606V32.0873H24.7821V33.0299H22.1475V34.7408H24.6293V35.6833H22.1475V38.3606H21.0936Z" fill="white"/>
</svg>
