<svg width="41" height="50" viewBox="0 0 41 50" fill="none" xmlns="http://www.w3.org/2000/svg">
<path d="M39.7954 12.8001V47.7309C39.7954 48.3408 39.3143 48.8399 38.7263 48.8399H4.72861C4.1406 48.8399 3.6595 48.3408 3.6595 47.7309V2.09903C3.6595 1.48912 4.1406 0.990112 4.72861 0.990112H27.0883C27.1952 0.990112 27.2945 1.02972 27.3785 1.101L39.658 12.4595C39.742 12.5466 39.7954 12.6733 39.7954 12.8001Z" fill="white"/>
<path d="M38.7263 49.83H4.72861C3.61368 49.83 2.70494 48.8874 2.70494 47.7309V2.09902C2.70494 0.942579 3.61368 0 4.72861 0H27.0883C27.4319 0 27.7603 0.126733 28.0123 0.364358L40.2918 11.7228C40.5896 11.9921 40.7576 12.3882 40.7576 12.8001V47.7309C40.75 48.8874 39.8413 49.83 38.7263 49.83ZM4.72861 1.98813C4.66752 1.98813 4.61407 2.04357 4.61407 2.10694V47.7389C4.61407 47.8022 4.66752 47.8577 4.72861 47.8577H38.7263C38.7874 47.8577 38.8409 47.8022 38.8409 47.7389V13.0456L26.8897 1.98813H4.72861Z" fill="#CFD1D4"/>
<path d="M39.7954 12.5941H27.9589C27.5694 12.5941 27.2487 12.2694 27.2487 11.8575V0.990112L39.7954 12.5941Z" fill="#F5F5F5"/>
<path d="M39.7954 13.5921H27.9589C27.0425 13.5921 26.2941 12.8159 26.2941 11.8654V0.990055L27.8901 0.253418L40.4369 11.8574L39.7954 13.5921ZM28.2109 11.604H37.2907L28.2109 3.20789V11.604Z" fill="#CFD1D4"/>
<path d="M29.3945 42.7012H2.91876C2.24675 42.7012 1.70456 42.1388 1.70456 41.4418V29.6318C1.70456 28.9348 2.24675 28.3724 2.91876 28.3724H29.3945C30.0665 28.3724 30.6087 28.9348 30.6087 29.6318V41.4418C30.6087 42.1388 30.0665 42.7012 29.3945 42.7012Z" fill="#FFA55E"/>
<path d="M29.3945 43.6913H2.91877C1.72747 43.6913 0.75 42.6854 0.75 41.4418V29.6318C0.75 28.3883 1.72747 27.3823 2.91877 27.3823H29.3945C30.5935 27.3823 31.5633 28.3962 31.5633 29.6318V41.4418C31.5633 42.6854 30.5935 43.6913 29.3945 43.6913ZM2.91877 29.3625C2.77367 29.3625 2.65913 29.4813 2.65913 29.6318V41.4418C2.65913 41.5923 2.77367 41.7111 2.91877 41.7111H29.3945C29.5396 41.7111 29.6542 41.5923 29.6542 41.4418V29.6318C29.6542 29.4813 29.5396 29.3625 29.3945 29.3625H2.91877V29.3625Z" fill="#FF7205"/>
<path d="M9.57016 38.416V32.1427H11.296C11.4946 32.1427 11.6702 32.1427 11.8229 32.1506C11.968 32.1585 12.1284 32.1665 12.304 32.1902C12.4797 32.2061 12.6248 32.2377 12.7469 32.2774C12.8691 32.317 12.9989 32.3645 13.1288 32.4199C13.2586 32.4754 13.3655 32.5546 13.4495 32.6417C13.5335 32.7288 13.6175 32.8318 13.6862 32.9585C13.755 33.0774 13.8084 33.2199 13.839 33.3863C13.8695 33.5526 13.8924 33.7348 13.8924 33.9407C13.8924 34.2734 13.839 34.5586 13.7397 34.7962C13.6328 35.0259 13.48 35.2081 13.2739 35.3427C13.0677 35.4774 12.8233 35.5724 12.5408 35.6279C12.2658 35.6833 11.9298 35.715 11.548 35.715H10.624V38.416H9.57016V38.416ZM10.6316 34.7724H11.5404C11.7389 34.7724 11.9146 34.7645 12.052 34.7407C12.1895 34.717 12.3193 34.6774 12.4415 34.6219C12.556 34.5665 12.6477 34.4793 12.7088 34.3605C12.7699 34.2496 12.7928 34.1071 12.7928 33.9407C12.7928 33.8457 12.7851 33.7665 12.7699 33.6873C12.7546 33.616 12.7393 33.5447 12.7164 33.4892C12.6935 33.4338 12.6553 33.3863 12.6095 33.3387C12.5637 33.2991 12.5178 33.2595 12.4797 33.2358C12.4415 33.212 12.388 33.1882 12.304 33.1645C12.2277 33.1486 12.1589 33.1328 12.1055 33.1249C12.052 33.117 11.9757 33.109 11.8687 33.1011C11.7618 33.0932 11.6778 33.0932 11.6167 33.0932C11.5557 33.0932 11.464 33.0932 11.3342 33.0932H10.624V34.7724H10.6316Z" fill="white"/>
<path d="M14.9692 38.416V32.1427H16.695C16.8936 32.1427 17.0692 32.1427 17.2219 32.1506C17.367 32.1585 17.5274 32.1665 17.703 32.1902C17.8787 32.2061 18.0238 32.2377 18.1459 32.2774C18.2681 32.317 18.398 32.3645 18.5278 32.4199C18.6576 32.4754 18.7645 32.5546 18.8485 32.6417C18.9325 32.7288 19.0165 32.8318 19.0852 32.9585C19.154 33.0774 19.2074 33.2199 19.238 33.3863C19.2685 33.5526 19.2914 33.7348 19.2914 33.9407C19.2914 34.2734 19.238 34.5586 19.1387 34.7962C19.0318 35.0259 18.879 35.2081 18.6729 35.3427C18.4667 35.4774 18.2223 35.5724 17.9398 35.6279C17.6648 35.6833 17.3288 35.715 16.947 35.715H16.023V38.416H14.9692V38.416ZM16.023 34.7724H16.9317C17.1303 34.7724 17.3059 34.7645 17.4434 34.7407C17.5808 34.717 17.7107 34.6774 17.8329 34.6219C17.9474 34.5665 18.039 34.4793 18.1001 34.3605C18.1612 34.2496 18.1841 34.1071 18.1841 33.9407C18.1841 33.8457 18.1765 33.7665 18.1612 33.6873C18.1459 33.616 18.1307 33.5447 18.1078 33.4892C18.0849 33.4338 18.0467 33.3863 18.0009 33.3387C17.955 33.2991 17.9092 33.2595 17.871 33.2358C17.8328 33.212 17.7718 33.1882 17.6954 33.1645C17.619 33.1486 17.5503 33.1328 17.4968 33.1249C17.4434 33.117 17.367 33.109 17.2601 33.1011C17.1532 33.0932 17.0692 33.0932 17.0081 33.0932C16.947 33.0932 16.8554 33.0932 16.7256 33.0932H16.023V34.7724Z" fill="white"/>
<path d="M21.4831 38.416V33.0853H19.6198V32.1427H24.4308V33.0853H22.5369V38.416H21.4831Z" fill="white"/>
</svg>
