<svg width="41" height="50" viewBox="0 0 41 50" fill="none" xmlns="http://www.w3.org/2000/svg">
<path d="M39.302 12.7954V47.7268C39.302 48.3425 38.828 48.8384 38.2393 48.8384H4.53134C3.94266 48.8384 3.46865 48.3425 3.46865 47.7268V2.1033C3.46865 1.48752 3.94266 0.991699 4.53134 0.991699H26.7026C26.8096 0.991699 26.909 1.03168 26.9855 1.10366L39.1567 12.4595C39.2485 12.5475 39.302 12.6675 39.302 12.7954Z" fill="white"/>
<path d="M38.2469 49.83H4.53135C3.42279 49.83 2.52065 48.8863 2.52065 47.7267V2.10324C2.52065 0.943658 3.42279 0 4.53135 0H26.7026C27.039 0 27.3677 0.127954 27.62 0.367867L39.7989 11.7238C40.0895 11.9957 40.2576 12.3875 40.2576 12.7954V47.7267C40.25 48.8863 39.3479 49.83 38.2469 49.83ZM4.53135 1.98328C4.47019 1.98328 4.41667 2.03926 4.41667 2.10324V47.7267C4.41667 47.7907 4.47019 47.8467 4.53135 47.8467H38.2469C38.3081 47.8467 38.3616 47.7907 38.3616 47.7267V13.0433L26.5038 1.98328H4.53135Z" fill="#CFD1D4"/>
<path d="M39.302 12.5955H27.5665C27.1766 12.5955 26.8632 12.2676 26.8632 11.8598V0.991699L39.302 12.5955Z" fill="#F5F5F5"/>
<path d="M39.302 13.5871H27.5665C26.6567 13.5871 25.9151 12.8114 25.9151 11.8597V0.991655L27.4977 0.247925L39.9365 11.8517L39.302 13.5871ZM27.8112 11.6038H36.8173L27.8112 3.20685V11.6038Z" fill="#CFD1D4"/>
<path d="M24.0268 42.6965H2.25306C1.64143 42.6965 1.15214 42.1767 1.15214 41.5449V29.5173C1.15214 28.8775 1.64908 28.3657 2.25306 28.3657H24.0268C24.6384 28.3657 25.1277 28.8855 25.1277 29.5173V41.5449C25.1353 42.1847 24.6384 42.6965 24.0268 42.6965Z" fill="#77C97A"/>
<path d="M23.3769 43.6881H2.00076C1.03746 43.6881 0.25 42.6805 0.25 41.4409V29.6292C0.25 28.3897 1.03746 27.374 2.00076 27.374H23.3769C24.3402 27.374 25.1277 28.3817 25.1277 29.6292V41.4409C25.1353 42.6805 24.3479 43.6881 23.3769 43.6881ZM2.00076 29.3573C1.88609 29.3573 1.79434 29.4773 1.79434 29.6212V41.4329C1.79434 41.5769 1.88609 41.6968 2.00076 41.6968H23.3769C23.4916 41.6968 23.5833 41.5769 23.5833 41.4329V29.6292C23.5833 29.4853 23.4916 29.3653 23.3769 29.3653H2.00076V29.3573Z" fill="#009607"/>
<path d="M5.487 39.3298L7.52828 36.4428L5.57874 33.4039H7.10015L8.32339 35.3152L9.68425 33.4039H11.0986L9.10321 36.2429L11.1139 39.3298H9.5925L8.3081 37.3705L6.92431 39.3298H5.487Z" fill="white"/>
<path d="M11.9549 39.3298V30.9088H13.3081V39.3218H11.9549V39.3298Z" fill="white"/>
<path d="M17.0237 39.4578C16.5268 39.4578 16.068 39.3858 15.6552 39.2418C15.2424 39.0979 14.906 38.922 14.6613 38.714L15.0054 37.6824C15.2347 37.8743 15.5329 38.0263 15.8846 38.1462C16.2362 38.2662 16.5803 38.3302 16.909 38.3302C17.2148 38.3302 17.4442 38.2742 17.6047 38.1702C17.7576 38.0663 17.8417 37.8903 17.8417 37.6424V37.5385C17.8417 37.4185 17.7959 37.3065 17.7041 37.2266C17.6124 37.1386 17.3983 37.0426 17.0696 36.9307L16.2668 36.6588C16.0604 36.5868 15.8922 36.5228 15.7546 36.4668C15.617 36.4109 15.4794 36.3309 15.3341 36.2349C15.1888 36.139 15.0818 36.043 15.0054 35.931C14.9289 35.8191 14.8601 35.6831 14.8142 35.5232C14.7607 35.3632 14.7378 35.1793 14.7378 34.9714C14.7378 34.6675 14.7913 34.4036 14.906 34.1797C15.0206 33.9558 15.1735 33.7718 15.3723 33.6439C15.5711 33.5159 15.7928 33.412 16.0375 33.356C16.2821 33.292 16.5497 33.26 16.8402 33.26C17.1995 33.26 17.5589 33.308 17.9258 33.404C18.2852 33.4999 18.6063 33.6439 18.8739 33.8278L18.5222 34.8114C18.3005 34.6915 18.0405 34.5875 17.7424 34.4996C17.4442 34.4116 17.1766 34.3716 16.9396 34.3716C16.6261 34.3716 16.3968 34.4116 16.2592 34.4916C16.1216 34.5715 16.0528 34.7075 16.0528 34.8914C16.0528 35.0114 16.0757 35.1073 16.1216 35.1793C16.1674 35.2513 16.2592 35.3233 16.3968 35.3952C16.5344 35.4672 16.7638 35.5552 17.0696 35.6671L17.8035 35.923C18.1017 36.027 18.331 36.139 18.5145 36.2669C18.6904 36.3869 18.8356 36.5628 18.9427 36.7947C19.0497 37.0186 19.1032 37.3065 19.1032 37.6504C19.1032 37.9143 19.065 38.1462 18.9809 38.3622C18.8968 38.5701 18.7898 38.746 18.6521 38.882C18.5145 39.0179 18.3616 39.1299 18.1781 39.2179C17.9946 39.3058 17.8112 39.3698 17.62 39.4018C17.4136 39.4418 17.2225 39.4578 17.0237 39.4578Z" fill="white"/>
</svg>
