<svg width="41" height="50" viewBox="0 0 41 50" fill="none" xmlns="http://www.w3.org/2000/svg">
<path d="M39.802 12.7954V47.7268C39.802 48.3425 39.328 48.8384 38.7393 48.8384H5.03135C4.44266 48.8384 3.96866 48.3425 3.96866 47.7268V2.1033C3.96866 1.48752 4.44266 0.991699 5.03135 0.991699H27.2026C27.3096 0.991699 27.409 1.03168 27.4855 1.10366L39.6567 12.4595C39.7485 12.5475 39.802 12.6675 39.802 12.7954Z" fill="white"/>
<path d="M38.7469 49.83H5.03133C3.92277 49.83 3.02063 48.8863 3.02063 47.7267V2.10324C3.02063 0.943658 3.92277 0 5.03133 0H27.2026C27.539 0 27.8677 0.127954 28.12 0.367867L40.2913 11.7238C40.5818 11.9957 40.75 12.3875 40.75 12.7954V47.7267C40.75 48.8863 39.8478 49.83 38.7469 49.83ZM5.03133 1.98328C4.97017 1.98328 4.91665 2.03926 4.91665 2.10324V47.7267C4.91665 47.7907 4.97017 47.8467 5.03133 47.8467H38.7469C38.8081 47.8467 38.8616 47.7907 38.8616 47.7267V13.0433L27.0038 1.98328H5.03133Z" fill="#CFD1D4"/>
<path d="M39.802 12.5955H28.0665C27.6766 12.5955 27.3632 12.2676 27.3632 11.8598V0.991699L39.802 12.5955Z" fill="#F5F5F5"/>
<path d="M39.802 13.5871H28.0665C27.1567 13.5871 26.4151 12.8114 26.4151 11.8597V0.991655L27.9977 0.247925L40.4365 11.8517L39.802 13.5871ZM28.3112 11.6038H37.3173L28.3112 3.20685V11.6038Z" fill="#CFD1D4"/>
<path d="M24.5267 42.6965H2.75305C2.14143 42.6965 1.65213 42.1767 1.65213 41.5449V29.5173C1.65213 28.8775 2.14907 28.3657 2.75305 28.3657H24.5267C25.1384 28.3657 25.6277 28.8855 25.6277 29.5173V41.5449C25.6353 42.1847 25.1384 42.6965 24.5267 42.6965Z" fill="#77AAC9"/>
<path d="M23.8769 43.6881H2.50076C1.53746 43.6881 0.75 42.6805 0.75 41.4409V29.6292C0.75 28.3897 1.53746 27.374 2.50076 27.374H23.8769C24.8402 27.374 25.6277 28.3817 25.6277 29.6292V41.4409C25.6353 42.6805 24.8479 43.6881 23.8769 43.6881ZM2.50076 29.3573C2.38609 29.3573 2.29434 29.4773 2.29434 29.6212V41.4329C2.29434 41.5769 2.38609 41.6968 2.50076 41.6968H23.8769C23.9916 41.6968 24.0833 41.5769 24.0833 41.4329V29.6292C24.0833 29.4853 23.9916 29.3653 23.8769 29.3653H2.50076V29.3573Z" fill="#213F96"/>
<path d="M7.73014 38.482C7.17203 38.482 6.71332 38.2661 6.3387 37.8423C5.96408 37.4184 5.77295 36.8586 5.77295 36.1629C5.77295 35.843 5.81882 35.5471 5.90292 35.2592C5.98702 34.9793 6.11699 34.7234 6.27754 34.4995C6.43809 34.2756 6.65215 34.0996 6.91974 33.9717C7.18732 33.8437 7.47784 33.7798 7.80659 33.7798C8.10475 33.7798 8.3494 33.8437 8.55582 33.9717C8.76225 34.0996 8.89986 34.2276 8.98396 34.3635V32.0044H10.0084V37.1785C10.0084 37.1945 10.0237 37.5944 10.0466 38.3781H8.98396L8.97631 37.8023C8.95338 37.8663 8.90751 37.9382 8.85399 38.0102C8.79283 38.0822 8.71637 38.1542 8.61699 38.2261C8.5176 38.2981 8.39527 38.3621 8.23472 38.4101C8.08946 38.4581 7.91362 38.482 7.73014 38.482ZM7.9442 37.6024C8.13533 37.6024 8.29589 37.5624 8.44114 37.4824C8.5864 37.4024 8.69344 37.2905 8.77754 37.1465C8.86163 37.0026 8.9228 36.8506 8.96102 36.6827C8.99925 36.5148 9.02218 36.3308 9.02218 36.1389C9.02218 35.6991 8.93044 35.3472 8.74696 35.0673C8.56347 34.7954 8.29588 34.6514 7.92891 34.6514C7.68426 34.6514 7.48549 34.7234 7.31729 34.8594C7.1491 34.9953 7.03442 35.1712 6.96561 35.3872C6.8968 35.6031 6.85858 35.843 6.85858 36.1229C6.85858 36.3228 6.88151 36.5068 6.91974 36.6827C6.95796 36.8586 7.01913 37.0106 7.10322 37.1545C7.18732 37.2985 7.302 37.4104 7.43962 37.4904C7.58488 37.5624 7.75307 37.6024 7.9442 37.6024Z" fill="white"/>
<path d="M13.3265 38.482C12.9519 38.482 12.6231 38.418 12.3249 38.2901C12.0344 38.1621 11.7974 37.9942 11.6139 37.7703C11.4304 37.5544 11.3005 37.3064 11.2011 37.0265C11.1093 36.7467 11.0635 36.4508 11.0635 36.1309C11.0635 35.811 11.1093 35.5071 11.2087 35.2272C11.3005 34.9473 11.4457 34.6994 11.6216 34.4755C11.8051 34.2596 12.0421 34.0836 12.3326 33.9637C12.6231 33.8357 12.9519 33.7717 13.3188 33.7717C13.6934 33.7717 14.0222 33.8357 14.3127 33.9557C14.6032 34.0836 14.8326 34.2516 15.0084 34.4675C15.1843 34.6834 15.3142 34.9313 15.406 35.2112C15.4977 35.4911 15.536 35.803 15.536 36.1309C15.536 36.4428 15.4901 36.7387 15.3983 37.0106C15.3066 37.2825 15.169 37.5304 14.9931 37.7543C14.8173 37.9702 14.5803 38.1461 14.2974 38.2741C14.0145 38.418 13.6858 38.482 13.3265 38.482ZM13.3035 37.6023C13.51 37.6023 13.6858 37.5624 13.8387 37.4824C13.9916 37.4024 14.1139 37.2905 14.198 37.1465C14.2821 37.0026 14.3509 36.8506 14.3968 36.6747C14.4427 36.4987 14.458 36.3148 14.458 36.1149C14.458 35.683 14.3586 35.3392 14.1675 35.0593C13.9763 34.7874 13.6858 34.6514 13.3035 34.6514C13.0436 34.6514 12.8219 34.7154 12.646 34.8513C12.4702 34.9873 12.3402 35.1632 12.2561 35.3791C12.1797 35.5951 12.1338 35.843 12.1338 36.1149C12.1338 36.3868 12.172 36.6267 12.2408 36.8426C12.3173 37.0585 12.4396 37.2345 12.6231 37.3784C12.8219 37.5304 13.0436 37.6023 13.3035 37.6023Z" fill="white"/>
<path d="M18.6858 38.482C18.3341 38.482 18.0206 38.418 17.7301 38.2901C17.4396 38.1621 17.2026 37.9862 17.0191 37.7703C16.8356 37.5544 16.6904 37.2985 16.591 37.0186C16.4916 36.7387 16.4381 36.4428 16.4381 36.1309C16.4381 35.691 16.5222 35.2912 16.698 34.9313C16.8739 34.5794 17.1338 34.2995 17.4702 34.0836C17.8142 33.8757 18.2118 33.7717 18.6629 33.7717C19.3356 33.7717 19.8555 33.9717 20.2148 34.3715L19.8402 35.0673C19.5344 34.7794 19.1751 34.6354 18.7699 34.6354C18.3647 34.6354 18.0512 34.7714 17.8372 35.0353C17.6231 35.3072 17.5084 35.667 17.5084 36.1149C17.5084 36.5547 17.6231 36.9066 17.8525 37.1785C18.0818 37.4504 18.4029 37.5863 18.8005 37.5863C18.854 37.5863 18.9151 37.5863 18.9687 37.5784C19.0222 37.5704 19.0757 37.5624 19.1216 37.5544C19.1674 37.5464 19.2133 37.5304 19.2592 37.5144C19.3051 37.4984 19.3509 37.4824 19.3815 37.4744C19.4121 37.4584 19.4503 37.4424 19.4962 37.4184C19.5421 37.3944 19.5726 37.3784 19.5956 37.3624C19.6185 37.3464 19.6491 37.3304 19.6873 37.3064C19.7255 37.2825 19.7485 37.2585 19.7638 37.2505C19.7791 37.2425 19.802 37.2265 19.8326 37.2025C19.8632 37.1785 19.8784 37.1625 19.8861 37.1625L20.1995 37.9542C19.9625 38.1301 19.7179 38.2581 19.4809 38.3381C19.2439 38.442 18.9763 38.482 18.6858 38.482Z" fill="white"/>
</svg>
